<svg width="254" height="218" viewBox="0 0 254 218" fill="none" xmlns="http://www.w3.org/2000/svg">
<g clip-path="url(#clip0_2224_17262)">
<g filter="url(#filter0_b_2224_17262)">
<rect x="0.847656" y="34.7871" width="317.602" height="183.988" rx="20" transform="rotate(-6.29 0.847656 34.7871)" fill="white" fill-opacity="0.4"/>
<rect x="1.9512" y="35.6715" width="315.602" height="181.988" rx="19" transform="rotate(-6.29 1.9512 35.6715)" stroke="white" stroke-width="2"/>
</g>
<path d="M34.6314 66.1813C31.5074 66.5256 29.3232 64.5245 28.9309 60.9651L28.9292 60.9499C28.5352 57.3753 30.2243 54.9549 33.3483 54.6105C35.8535 54.3344 37.9305 55.7135 38.4386 57.9381L38.4453 57.9992L36.5129 58.2122L36.5019 58.1825C36.0753 56.9075 34.9261 56.1606 33.536 56.3138C31.6647 56.5201 30.6687 58.2147 30.9448 60.72L30.9465 60.7352C31.2235 63.2481 32.5647 64.6851 34.4436 64.478C35.8414 64.324 36.7943 63.4304 36.943 62.1848L36.9465 62.1458L38.8789 61.9328L38.8848 61.9862C38.8379 64.2256 37.1748 65.901 34.6314 66.1813ZM44.8851 64.9429C42.3798 65.219 40.6873 63.7512 40.3893 61.0473L40.3876 61.032C40.0921 58.3511 41.4464 56.5397 43.9287 56.2661C46.4187 55.9916 48.1265 57.4578 48.4228 60.1464L48.4245 60.1616C48.7226 62.8655 47.3827 64.6676 44.8851 64.9429ZM44.715 63.4C46.0364 63.2543 46.6713 62.1407 46.4777 60.384L46.476 60.3687C46.2823 58.6119 45.4117 57.6565 44.0979 57.8013C42.7766 57.947 42.1349 59.0691 42.3285 60.8258L42.3302 60.8411C42.5238 62.5978 43.3937 63.5456 44.715 63.4ZM50.7937 64.1215L49.8735 55.7732L51.7754 55.5635L51.916 56.8391L52.0458 56.8248C52.3445 55.8873 53.0867 55.2566 54.2935 55.1236C56.1572 54.9182 57.2968 55.929 57.5157 57.9149L58.1109 63.315L56.2091 63.5246L55.6627 58.5675C55.5196 57.2691 54.9201 56.6703 53.7668 56.7974C52.6364 56.922 52.0212 57.7938 52.1593 59.0465L52.6956 63.9119L50.7937 64.1215ZM63.6451 62.7436C61.7279 62.955 60.8705 62.4001 60.6929 60.7885L60.1793 56.1293L58.8808 56.2724L58.7184 54.7982L60.0168 54.6551L59.7912 52.6081L61.7236 52.3951L61.9492 54.4421L63.7136 54.2476L63.8761 55.7218L62.1117 55.9163L62.5756 60.1248C62.6674 60.9574 63.0345 61.2725 63.8289 61.1849C64.0962 61.1555 64.2405 61.1318 64.4671 61.0837L64.6288 62.5502C64.3597 62.6339 64.0117 62.7032 63.6451 62.7436ZM70.0448 62.1697C67.5624 62.4433 65.8742 60.944 65.5812 58.286L65.5804 58.2784C65.2908 55.6509 66.6213 53.7648 68.9967 53.503C71.3722 53.2411 73.0222 54.7446 73.3 57.2651L73.3691 57.8914L67.5336 58.5347C67.7215 60.0292 68.6271 60.8107 69.918 60.6684C70.9491 60.5547 71.48 59.9705 71.6212 59.5684L71.6382 59.5124L73.4484 59.3129L73.4331 59.3842C73.2845 60.4906 72.3133 61.9196 70.0448 62.1697ZM69.1838 54.9898C68.1221 55.1069 67.4069 55.9124 67.4083 57.2574L71.3724 56.8205C71.0919 55.4676 70.2455 54.8728 69.1838 54.9898ZM78.8514 61.199C76.7281 61.433 75.3371 60.5968 75.021 59.2014L75.0193 59.1861L76.9059 58.9782L76.9152 58.9926C77.1778 59.5512 77.78 59.8946 78.7271 59.7902C79.6742 59.6858 80.2839 59.1857 80.2149 58.5593L80.2132 58.5441C80.1593 58.0552 79.7573 57.7748 78.818 57.6696L77.4324 57.5131C75.805 57.3369 74.9663 56.6717 74.8308 55.442L74.8299 55.4344C74.6641 53.9297 75.9244 52.7394 77.895 52.5221C79.9268 52.2982 81.2523 53.1726 81.5236 54.511L81.5252 54.5263L79.7379 54.7233L79.7278 54.7012C79.5322 54.1894 78.9351 53.8222 78.0415 53.9207C77.1937 54.0142 76.6281 54.494 76.6971 55.1203L76.6979 55.128C76.7518 55.6168 77.136 55.876 78.06 55.9828L79.4448 56.1317C81.1197 56.3182 81.9678 56.9282 82.1017 58.1426L82.1033 58.1579C82.2785 59.7466 80.9061 60.9725 78.8514 61.199ZM87.5216 60.1119C85.6044 60.3232 84.747 59.7683 84.5693 58.1567L84.0558 53.4975L82.7573 53.6406L82.5948 52.1665L83.8933 52.0233L83.6677 49.9763L85.6001 49.7633L85.8257 51.8103L87.5901 51.6159L87.7526 53.09L85.9882 53.2845L86.4521 57.493C86.5439 58.3256 86.911 58.6407 87.7054 58.5532C87.9727 58.5237 88.117 58.5001 88.3436 58.4519L88.5053 59.9184C88.2362 60.0022 87.8882 60.0715 87.5216 60.1119ZM94.7735 59.2739L93.5586 48.2522L95.5292 48.035L96.5614 57.3992L101.618 56.8419L101.8 58.4993L94.7735 59.2739ZM106.936 58.1033C104.454 58.3769 102.766 56.8777 102.473 54.2196L102.472 54.212C102.182 51.5845 103.513 49.6984 105.888 49.4366C108.264 49.1748 109.914 50.6782 110.192 53.1988L110.261 53.8251L104.425 54.4683C104.613 55.9628 105.519 56.7443 106.81 56.602C107.841 56.4884 108.372 55.9042 108.513 55.5021L108.53 55.4461L110.34 55.2465L110.325 55.3178C110.176 56.4242 109.205 57.8533 106.936 58.1033ZM106.076 50.9235C105.014 51.0405 104.299 51.846 104.3 53.1911L108.264 52.7541C107.984 51.4012 107.137 50.8065 106.076 50.9235ZM114.617 57.0866L110.726 49.0658L112.757 48.8418L115.405 55.1211L115.535 55.1068L116.737 48.4032L118.738 48.1826L116.702 56.8568L114.617 57.0866ZM124.519 56.1652C122.037 56.4389 120.349 54.9396 120.056 52.2816L120.055 52.274C119.765 49.6465 121.096 47.7604 123.471 47.4985C125.847 47.2367 127.497 48.7402 127.774 51.2607L127.844 51.887L122.008 52.5302C122.196 54.0248 123.102 54.8063 124.392 54.664C125.424 54.5503 125.954 53.9661 126.096 53.564L126.113 53.508L127.923 53.3085L127.908 53.3798C127.759 54.4862 126.788 55.9152 124.519 56.1652ZM123.658 48.9854C122.597 49.1025 121.881 49.908 121.883 51.253L125.847 50.8161C125.566 49.4632 124.72 48.8684 123.658 48.9854ZM130.229 55.3658L128.953 43.7865L130.855 43.5769L132.131 55.1562L130.229 55.3658ZM137.71 54.7113C135.587 54.9453 134.196 54.1091 133.88 52.7138L133.878 52.6985L135.765 52.4905L135.774 52.505C136.036 53.0636 136.639 53.4069 137.586 53.3025C138.533 53.1981 139.143 52.698 139.074 52.0717L139.072 52.0564C139.018 51.5676 138.616 51.2872 137.677 51.182L136.291 51.0255C134.664 50.8492 133.825 50.1841 133.689 48.9543L133.689 48.9467C133.523 47.442 134.783 46.2517 136.754 46.0345C138.785 45.8105 140.111 46.6849 140.382 48.0234L140.384 48.0386L138.597 48.2356L138.586 48.2136C138.391 47.7017 137.794 47.3346 136.9 47.4331C136.052 47.5265 135.487 48.0063 135.556 48.6327L135.557 48.6403C135.61 49.1291 135.995 49.3883 136.919 49.4952L138.303 49.644C139.978 49.8305 140.826 50.4405 140.96 51.655L140.962 51.6703C141.137 53.259 139.765 54.4848 137.71 54.7113Z" fill="#2E3B55"/>
<path d="M227.659 45.0308C227.659 45.0308 221.317 41.3571 221.147 39.8113C220.976 38.2655 226.366 33.2987 226.366 33.2987" stroke="#2E3B55" stroke-width="1.00819" stroke-linecap="round" stroke-linejoin="round"/>
<path d="M236.065 43.1966L235.944 42.0988L238.598 38.7154C239.697 37.3298 239.993 36.8309 239.916 36.1306L239.914 36.1117C239.821 35.2725 239.18 34.7301 238.234 34.8344C237.268 34.9408 236.689 35.6497 236.792 36.5898L236.789 36.6157L235.274 36.7763L235.265 36.7581C235.078 35.0609 236.273 33.7286 238.172 33.5193C239.945 33.3239 241.338 34.2623 241.507 35.7955L241.509 35.8144C241.623 36.8492 241.215 37.7244 239.732 39.5035L238.103 41.4712L238.118 41.6037L242.238 41.1495L242.387 42.4998L236.065 43.1966ZM246.361 32.3804L244.955 44.5349L243.491 44.6962L244.897 32.5417L246.361 32.3804ZM251.882 41.683C249.939 41.8972 248.096 40.7018 247.734 37.4209L247.733 37.4083C247.395 34.3419 248.576 32.3725 250.866 32.12C252.538 31.9358 253.897 32.7886 254.341 34.151L254.361 34.219L252.765 34.395L252.733 34.3347C252.423 33.7239 251.815 33.3693 251.014 33.4576C249.569 33.6169 249.113 35.0977 249.235 36.8467C249.243 36.9161 249.244 36.9862 249.252 37.0556L249.378 37.0417C249.633 36.2856 250.358 35.5607 251.607 35.423C253.355 35.2304 254.719 36.37 254.91 38.0988L254.911 38.1114C255.115 39.96 253.857 41.4654 251.882 41.683ZM249.721 38.7027C249.836 39.7437 250.714 40.4707 251.723 40.3594C252.733 40.2482 253.44 39.3592 253.328 38.3434L253.326 38.3308C253.21 37.2771 252.376 36.6027 251.341 36.7168C250.313 36.8302 249.606 37.6616 249.719 38.69L249.721 38.7027Z" fill="#2E3B55"/>
<g clip-path="url(#clip1_2224_17262)">
<circle cx="57.105" cy="109.308" r="23.6061" transform="rotate(-6.29 57.105 109.308)" fill="#F5F5F9"/>
<path d="M57.8816 100.427L54.4054 100.81C51.5557 101.124 50.1308 101.281 49.1987 102.1C48.8538 102.402 48.5646 102.763 48.3442 103.166C47.7483 104.254 47.9053 105.679 48.2194 108.528C48.5336 111.378 48.6906 112.803 49.5092 113.735C49.812 114.08 50.1729 114.369 50.5754 114.59C51.6634 115.186 53.0883 115.029 55.9381 114.714L59.4142 114.331C62.264 114.017 63.6888 113.86 64.621 113.042C64.9658 112.739 65.255 112.378 65.4755 111.975C66.0714 110.887 65.9143 109.462 65.6002 106.613C65.2861 103.763 65.129 102.338 64.3105 101.406C64.0076 101.061 63.6468 100.772 63.2442 100.551C62.1562 99.9555 60.7313 100.113 57.8816 100.427Z" stroke="#828999" stroke-width="1.31145" stroke-linecap="round"/>
<path d="M56.5156 112.012L58.2537 111.82" stroke="#828999" stroke-width="1.31145" stroke-linecap="round" stroke-linejoin="round"/>
<path d="M60.2283 117.76L59.914 117.426C59.2055 116.674 58.9141 115.437 59.1906 114.356M55.8832 118.239L56.1172 117.845C56.6448 116.956 56.66 115.685 56.1546 114.691" stroke="#828999" stroke-width="1.31145" stroke-linecap="round"/>
<path d="M53.7148 118.478L62.4052 117.52" stroke="#828999" stroke-width="1.31145" stroke-linecap="round"/>
</g>
<path d="M89.1038 102.953L88.1926 94.687L89.6706 94.5241L90.4447 101.547L94.237 101.129L94.374 102.372L89.1038 102.953ZM98.226 102.075C96.3642 102.281 95.0981 101.156 94.8783 99.1625L94.8777 99.1568C94.6605 97.1862 95.6584 95.7716 97.44 95.5753C99.2215 95.3789 100.459 96.5065 100.667 98.3969L100.719 98.8666L96.3426 99.349C96.4836 100.47 97.1628 101.056 98.1309 100.949C98.9042 100.864 99.3024 100.426 99.4083 100.124L99.4211 100.082L100.779 99.9327L100.767 99.9862C100.656 100.816 99.9274 101.888 98.226 102.075ZM97.5803 96.6904C96.784 96.7782 96.2476 97.3823 96.2486 98.3911L99.2217 98.0634C99.0113 97.0487 98.3765 96.6027 97.5803 96.6904ZM103.986 101.313L101.068 95.2971L102.592 95.1292L104.578 99.8387L104.675 99.8279L105.576 94.8002L107.077 94.6348L105.55 101.14L103.986 101.313ZM111.413 100.622C109.551 100.827 108.285 99.7025 108.065 97.709L108.065 97.7033C107.848 95.7327 108.845 94.3181 110.627 94.1217C112.409 93.9254 113.646 95.0529 113.854 96.9434L113.906 97.4131L109.53 97.8955C109.671 99.0164 110.35 99.6025 111.318 99.4958C112.091 99.4106 112.489 98.9724 112.595 98.6708L112.608 98.6288L113.966 98.4792L113.954 98.5326C113.843 99.3625 113.114 100.434 111.413 100.622ZM110.767 95.2369C109.971 95.3247 109.435 95.9288 109.436 96.9376L112.409 96.6099C112.198 95.5952 111.564 95.1491 110.767 95.2369ZM115.696 100.022L114.738 91.3377L116.165 91.1805L117.122 99.8649L115.696 100.022ZM124.071 99.099L123.32 92.2878L123.223 92.2985L121.326 93.9803L121.173 92.5882L123.165 90.8321L124.637 90.6699L125.549 98.9361L124.071 99.099Z" fill="#2E3B55"/>
<path d="M90.5051 117.51L89.7964 111.08L92.0019 110.837C93.9089 110.627 95.1672 111.693 95.3897 113.711L95.3907 113.72C95.6136 115.743 94.622 117.056 92.7106 117.267L90.5051 117.51ZM91.2275 116.7L92.5775 116.551C94.0122 116.393 94.7442 115.383 94.5719 113.819L94.5709 113.81C94.398 112.242 93.4538 111.408 92.028 111.565L90.678 111.714L91.2275 116.7ZM99.02 116.657C97.6522 116.808 96.7015 115.956 96.5321 114.419L96.5311 114.41C96.3612 112.869 97.1041 111.835 98.4719 111.685C99.8398 111.534 100.79 112.381 100.96 113.922L100.961 113.931C101.13 115.468 100.388 116.506 99.02 116.657ZM98.9444 115.971C99.8533 115.871 100.293 115.15 100.168 114.018L100.167 114.01C100.042 112.873 99.4565 112.27 98.5476 112.371C97.6386 112.471 97.1989 113.187 97.3242 114.323L97.3251 114.332C97.4499 115.464 98.0354 116.071 98.9444 115.971ZM103.177 116.113L101.302 111.458L102.077 111.373L103.445 115.109L103.516 115.102L104.166 111.143L104.902 111.061L106.399 114.784L106.47 114.776L106.991 110.831L107.762 110.746L106.946 115.698L106.166 115.784L104.683 112.186L104.612 112.194L103.952 116.028L103.177 116.113ZM109.316 115.436L108.787 110.633L109.562 110.548L109.642 111.27L109.713 111.262C109.898 110.727 110.315 110.379 111.023 110.301C112.101 110.182 112.773 110.753 112.899 111.894L113.242 115.004L112.466 115.089L112.144 112.166C112.049 111.302 111.647 110.927 110.88 111.011C110.114 111.096 109.685 111.666 109.778 112.508L110.092 115.351L109.316 115.436ZM114.69 114.844L113.95 108.134L114.725 108.049L115.465 114.759L114.69 114.844ZM118.936 114.462C117.568 114.612 116.618 113.761 116.448 112.224L116.447 112.215C116.277 110.673 117.02 109.64 118.388 109.489C119.756 109.339 120.706 110.185 120.876 111.727L120.877 111.736C121.046 113.273 120.304 114.311 118.936 114.462ZM118.861 113.775C119.769 113.675 120.209 112.955 120.084 111.823L120.083 111.814C119.958 110.678 119.373 110.075 118.464 110.175C117.555 110.276 117.115 110.992 117.24 112.128L117.241 112.137C117.366 113.268 117.952 113.876 118.861 113.775ZM123.672 113.94C122.759 114.04 122.007 113.564 121.911 112.691L121.91 112.682C121.816 111.826 122.394 111.262 123.505 111.072L124.873 110.835L124.824 110.399C124.759 109.806 124.363 109.525 123.645 109.604C123.071 109.668 122.716 109.923 122.632 110.311L122.629 110.325L121.854 110.411L121.855 110.383C121.897 109.617 122.572 109.028 123.597 108.915C124.768 108.786 125.49 109.315 125.6 110.313L125.962 113.602L125.187 113.687L125.109 112.979L125.037 112.986C124.791 113.532 124.318 113.868 123.672 113.94ZM122.702 112.585C122.756 113.071 123.202 113.311 123.759 113.249C124.547 113.162 125.065 112.582 124.989 111.896L124.941 111.459L123.667 111.681C122.941 111.806 122.649 112.1 122.701 112.576L122.702 112.585ZM129.162 113.335C127.945 113.469 127.039 112.572 126.874 111.075L126.873 111.066C126.707 109.56 127.393 108.497 128.614 108.362C129.273 108.29 129.884 108.556 130.203 109.039L130.275 109.031L129.981 106.367L130.756 106.282L131.496 112.992L130.721 113.077L130.636 112.311L130.565 112.319C130.33 112.886 129.83 113.261 129.162 113.335ZM129.264 112.629C130.137 112.532 130.596 111.787 130.474 110.678L130.473 110.669C130.351 109.56 129.741 108.932 128.867 109.029C127.99 109.125 127.543 109.86 127.666 110.978L127.667 110.987C127.79 112.106 128.386 112.726 129.264 112.629ZM132.762 107.053C132.468 107.085 132.201 106.871 132.169 106.577C132.136 106.283 132.35 106.016 132.644 105.983C132.939 105.951 133.206 106.165 133.238 106.459C133.27 106.753 133.056 107.02 132.762 107.053ZM133.002 112.826L132.472 108.023L133.248 107.937L133.777 112.74L133.002 112.826ZM135.238 112.579L134.709 107.776L135.484 107.691L135.564 108.412L135.635 108.404C135.82 107.87 136.237 107.522 136.945 107.444C138.024 107.325 138.695 107.896 138.821 109.036L139.164 112.146L138.389 112.232L138.066 109.309C137.971 108.445 137.569 108.07 136.803 108.154C136.036 108.239 135.608 108.809 135.7 109.651L136.014 112.494L135.238 112.579ZM142.732 113.467C141.574 113.594 140.777 113.155 140.569 112.379L140.578 112.374L141.38 112.285L141.385 112.289C141.51 112.645 141.966 112.857 142.657 112.781C143.516 112.686 143.984 112.224 143.906 111.515L143.799 110.544L143.728 110.552C143.483 111.116 142.973 111.474 142.313 111.547C141.07 111.684 140.193 110.806 140.045 109.461L140.044 109.452C139.895 108.106 140.563 107.045 141.82 106.907C142.497 106.832 143.059 107.108 143.413 107.619L143.467 107.613L143.38 106.82L144.155 106.735L144.677 111.471C144.795 112.545 144.042 113.322 142.732 113.467ZM142.407 110.842C143.298 110.744 143.759 110.016 143.654 109.063L143.653 109.054C143.548 108.101 142.933 107.478 142.047 107.576C141.156 107.674 140.732 108.411 140.837 109.364L140.838 109.373C140.943 110.327 141.516 110.94 142.407 110.842ZM150.022 111.035C149.109 111.136 148.357 110.66 148.261 109.786L148.26 109.777C148.166 108.922 148.744 108.358 149.855 108.167L151.222 107.931L151.174 107.494C151.109 106.902 150.713 106.621 149.995 106.7C149.421 106.763 149.066 107.019 148.982 107.407L148.979 107.421L148.204 107.506L148.205 107.479C148.247 106.712 148.922 106.124 149.947 106.011C151.118 105.882 151.84 106.411 151.95 107.409L152.312 110.697L151.537 110.783L151.459 110.074L151.387 110.082C151.141 110.628 150.668 110.964 150.022 111.035ZM149.052 109.681C149.106 110.167 149.552 110.406 150.109 110.345C150.897 110.258 151.415 109.678 151.339 108.991L151.291 108.555L150.017 108.776C149.291 108.902 148.999 109.195 149.051 109.672L149.052 109.681ZM153.906 112.145L153.199 105.738L153.975 105.652L154.059 106.419L154.13 106.411C154.366 105.844 154.865 105.469 155.534 105.395C156.75 105.261 157.656 106.158 157.821 107.655L157.822 107.664C157.988 109.17 157.303 110.233 156.082 110.367C155.422 110.44 154.811 110.174 154.492 109.69L154.421 109.698L154.681 112.059L153.906 112.145ZM155.828 109.701C156.706 109.604 157.152 108.869 157.029 107.751L157.028 107.742C156.905 106.624 156.309 106.004 155.431 106.101C154.558 106.197 154.099 106.942 154.221 108.051L154.222 108.06C154.344 109.17 154.955 109.797 155.828 109.701ZM159.475 111.531L158.769 105.124L159.544 105.039L159.629 105.805L159.7 105.797C159.935 105.23 160.435 104.855 161.103 104.781C162.32 104.647 163.226 105.544 163.391 107.041L163.392 107.05C163.558 108.556 162.872 109.619 161.651 109.753C160.992 109.826 160.381 109.56 160.061 109.076L159.99 109.084L160.25 111.446L159.475 111.531ZM161.397 109.087C162.275 108.99 162.722 108.255 162.598 107.137L162.598 107.128C162.474 106.01 161.878 105.39 161.001 105.487C160.127 105.583 159.668 106.328 159.791 107.438L159.792 107.447C159.914 108.556 160.524 109.183 161.397 109.087Z" fill="#586277"/>
<g clip-path="url(#clip2_2224_17262)">
<circle cx="63.4253" cy="166.665" r="23.6061" transform="rotate(-6.29 63.4253 166.665)" fill="#F5F5F9"/>
<path d="M60.5553 167.573L60.1564 167.617C58.867 167.759 58.2223 167.83 57.9006 167.435C57.5789 167.04 57.7755 166.419 58.1686 165.177L59.3505 161.443C59.7079 160.313 59.8867 159.749 60.3153 159.396C60.7438 159.043 61.33 158.979 62.5024 158.849L64.3182 158.649C65.7424 158.492 66.4545 158.414 66.7743 158.849C67.0942 159.285 66.8094 159.946 66.2398 161.266L65.4889 163.008C65.2058 163.664 65.0642 163.993 65.0945 164.245C65.1339 164.574 65.3421 164.857 65.6427 164.992C65.874 165.096 66.228 165.057 66.936 164.979C67.831 164.88 68.2786 164.831 68.5287 164.96C68.8537 165.128 69.0519 165.471 69.0361 165.837C69.024 166.12 68.7596 166.486 68.2309 167.218L64.007 173.067C63.1773 174.216 62.7625 174.79 62.4271 174.66C62.0916 174.53 62.168 173.824 62.3207 172.412L62.62 169.646C62.7363 168.571 62.7945 168.034 62.477 167.715C62.1595 167.396 61.6247 167.455 60.5553 167.573Z" stroke="#828999" stroke-width="1.31145" stroke-linejoin="round"/>
</g>
<path d="M95.4241 160.31L94.5129 152.043L95.9909 151.881L96.765 158.904L100.557 158.486L100.694 159.729L95.4241 160.31ZM104.546 159.432C102.685 159.637 101.418 158.513 101.199 156.519L101.198 156.513C100.981 154.543 101.979 153.128 103.76 152.932C105.542 152.735 106.779 153.863 106.988 155.753L107.04 156.223L102.663 156.705C102.804 157.826 103.483 158.412 104.451 158.306C105.225 158.221 105.623 157.782 105.729 157.481L105.741 157.439L107.099 157.289L107.088 157.343C106.976 158.172 106.248 159.244 104.546 159.432ZM103.901 154.047C103.104 154.135 102.568 154.739 102.569 155.748L105.542 155.42C105.332 154.405 104.697 153.959 103.901 154.047ZM110.307 158.669L107.388 152.654L108.912 152.486L110.898 157.195L110.995 157.184L111.897 152.157L113.397 151.991L111.871 158.497L110.307 158.669ZM117.733 157.978C115.872 158.183 114.605 157.059 114.386 155.065L114.385 155.06C114.168 153.089 115.166 151.675 116.947 151.478C118.729 151.282 119.966 152.409 120.175 154.3L120.227 154.77L115.85 155.252C115.991 156.373 116.67 156.959 117.638 156.852C118.412 156.767 118.81 156.329 118.916 156.027L118.928 155.985L120.286 155.836L120.275 155.889C120.163 156.719 119.435 157.791 117.733 157.978ZM117.088 152.593C116.291 152.681 115.755 153.285 115.756 154.294L118.729 153.966C118.519 152.952 117.884 152.506 117.088 152.593ZM122.016 157.379L121.059 148.694L122.485 148.537L123.442 157.221L122.016 157.379ZM128.369 156.678L128.259 155.682L130.669 152.61C131.666 151.352 131.935 150.899 131.865 150.263L131.863 150.246C131.779 149.484 131.198 148.991 130.338 149.086C129.462 149.183 128.936 149.826 129.03 150.68L129.026 150.703L127.651 150.849L127.643 150.833C127.473 149.292 128.558 148.082 130.282 147.892C131.892 147.715 133.157 148.567 133.31 149.959L133.312 149.976C133.416 150.915 133.045 151.71 131.698 153.325L130.22 155.112L130.233 155.232L133.974 154.82L134.109 156.046L128.369 156.678Z" fill="#2E3B55"/>
<path d="M96.8254 174.866L96.1167 168.437L98.3222 168.194C100.229 167.984 101.488 169.049 101.71 171.067L101.711 171.076C101.934 173.099 100.942 174.412 99.0309 174.623L96.8254 174.866ZM97.5478 174.056L98.8979 173.907C100.333 173.749 101.065 172.739 100.892 171.176L100.891 171.167C100.718 169.598 99.7741 168.764 98.3483 168.921L96.9983 169.07L97.5478 174.056ZM105.34 174.013C103.972 174.164 103.022 173.313 102.852 171.776L102.851 171.767C102.681 170.225 103.424 169.192 104.792 169.041C106.16 168.89 107.11 169.737 107.28 171.279L107.281 171.288C107.451 172.825 106.708 173.863 105.34 174.013ZM105.265 173.327C106.174 173.227 106.613 172.507 106.488 171.375L106.487 171.366C106.362 170.23 105.777 169.627 104.868 169.727C103.959 169.827 103.519 170.543 103.644 171.679L103.645 171.688C103.77 172.82 104.356 173.427 105.265 173.327ZM109.497 173.469L107.622 168.815L108.397 168.729L109.765 172.466L109.836 172.458L110.487 168.499L111.222 168.418L112.719 172.14L112.79 172.132L113.312 168.188L114.082 168.103L113.266 173.054L112.487 173.14L111.003 169.542L110.932 169.55L110.272 173.384L109.497 173.469ZM115.637 172.793L115.107 167.99L115.882 167.904L115.962 168.626L116.033 168.618C116.218 168.084 116.635 167.736 117.343 167.658C118.422 167.539 119.093 168.11 119.219 169.25L119.562 172.36L118.787 172.446L118.464 169.523C118.369 168.658 117.967 168.283 117.201 168.368C116.434 168.452 116.006 169.023 116.099 169.865L116.412 172.707L115.637 172.793ZM121.01 172.2L120.27 165.49L121.046 165.405L121.785 172.115L121.01 172.2ZM125.256 171.818C123.889 171.969 122.938 171.118 122.769 169.58L122.768 169.572C122.598 168.03 123.341 166.996 124.708 166.846C126.076 166.695 127.026 167.542 127.196 169.083L127.197 169.092C127.367 170.629 126.624 171.667 125.256 171.818ZM125.181 171.132C126.09 171.032 126.529 170.311 126.404 169.18L126.403 169.171C126.278 168.035 125.693 167.432 124.784 167.532C123.875 167.632 123.435 168.348 123.561 169.484L123.562 169.493C123.686 170.625 124.272 171.232 125.181 171.132ZM129.993 171.296C129.079 171.397 128.328 170.92 128.232 170.047L128.231 170.038C128.136 169.183 128.714 168.618 129.825 168.428L131.193 168.192L131.145 167.755C131.079 167.163 130.683 166.882 129.966 166.961C129.391 167.024 129.036 167.28 128.952 167.668L128.949 167.682L128.174 167.767L128.176 167.74C128.217 166.973 128.892 166.385 129.917 166.272C131.089 166.142 131.81 166.672 131.92 167.67L132.282 170.958L131.507 171.043L131.429 170.335L131.358 170.343C131.111 170.889 130.639 171.225 129.993 171.296ZM129.023 169.942C129.076 170.427 129.522 170.667 130.079 170.606C130.868 170.519 131.385 169.938 131.31 169.252L131.262 168.816L129.987 169.037C129.261 169.162 128.969 169.456 129.022 169.933L129.023 169.942ZM135.482 170.691C134.266 170.825 133.359 169.928 133.194 168.431L133.193 168.422C133.027 166.916 133.713 165.853 134.934 165.719C135.593 165.646 136.204 165.912 136.524 166.396L136.595 166.388L136.301 163.723L137.077 163.638L137.816 170.348L137.041 170.433L136.956 169.667L136.885 169.675C136.65 170.242 136.15 170.617 135.482 170.691ZM135.584 169.985C136.458 169.889 136.917 169.144 136.795 168.034L136.794 168.026C136.671 166.916 136.061 166.289 135.188 166.385C134.31 166.482 133.863 167.217 133.987 168.335L133.988 168.344C134.111 169.462 134.707 170.082 135.584 169.985ZM139.083 164.409C138.789 164.441 138.521 164.227 138.489 163.933C138.457 163.639 138.671 163.372 138.965 163.34C139.259 163.307 139.526 163.521 139.558 163.815C139.591 164.109 139.377 164.377 139.083 164.409ZM139.322 170.182L138.793 165.379L139.568 165.294L140.097 170.097L139.322 170.182ZM141.559 169.935L141.029 165.132L141.805 165.047L141.884 165.769L141.955 165.761C142.14 165.226 142.557 164.878 143.266 164.8C144.344 164.681 145.016 165.252 145.141 166.393L145.484 169.503L144.709 169.588L144.387 166.665C144.291 165.801 143.889 165.426 143.123 165.51C142.357 165.595 141.928 166.165 142.021 167.007L142.334 169.85L141.559 169.935ZM149.052 170.823C147.894 170.951 147.097 170.511 146.89 169.736L146.898 169.73L147.7 169.642L147.705 169.646C147.83 170.002 148.286 170.213 148.977 170.137C149.837 170.042 150.304 169.58 150.226 168.872L150.119 167.901L150.048 167.908C149.803 168.472 149.293 168.83 148.633 168.903C147.39 169.04 146.513 168.163 146.365 166.817L146.364 166.808C146.216 165.463 146.884 164.401 148.14 164.263C148.817 164.188 149.38 164.465 149.734 164.976L149.787 164.97L149.7 164.177L150.475 164.091L150.997 168.828C151.115 169.901 150.362 170.679 149.052 170.823ZM148.727 168.198C149.618 168.1 150.079 167.373 149.974 166.419L149.973 166.41C149.868 165.457 149.254 164.835 148.367 164.932C147.476 165.031 147.052 165.767 147.157 166.721L147.158 166.73C147.263 167.683 147.836 168.297 148.727 168.198ZM156.343 168.392C155.429 168.492 154.678 168.016 154.581 167.143L154.581 167.134C154.486 166.278 155.064 165.714 156.175 165.524L157.543 165.287L157.495 164.851C157.429 164.258 157.033 163.977 156.316 164.056C155.741 164.12 155.386 164.375 155.302 164.763L155.299 164.777L154.524 164.863L154.526 164.835C154.567 164.069 155.242 163.48 156.267 163.367C157.439 163.238 158.16 163.767 158.27 164.765L158.632 168.054L157.857 168.139L157.779 167.431L157.708 167.438C157.461 167.984 156.989 168.32 156.343 168.392ZM155.373 167.037C155.426 167.523 155.872 167.763 156.429 167.701C157.218 167.614 157.735 167.034 157.66 166.348L157.612 165.911L156.337 166.133C155.611 166.258 155.319 166.552 155.372 167.029L155.373 167.037ZM160.226 169.501L159.52 163.094L160.295 163.009L160.38 163.775L160.451 163.767C160.686 163.2 161.186 162.825 161.854 162.751C163.07 162.617 163.976 163.514 164.142 165.011L164.142 165.02C164.308 166.526 163.623 167.589 162.402 167.724C161.743 167.796 161.132 167.53 160.812 167.047L160.741 167.055L161.001 169.416L160.226 169.501ZM162.148 167.057C163.026 166.96 163.473 166.226 163.349 165.107L163.348 165.099C163.225 163.98 162.629 163.36 161.751 163.457C160.878 163.553 160.419 164.299 160.541 165.408L160.542 165.417C160.665 166.526 161.275 167.153 162.148 167.057ZM165.795 168.887L165.089 162.48L165.864 162.395L165.949 163.161L166.02 163.154C166.255 162.586 166.755 162.211 167.423 162.137C168.64 162.003 169.546 162.9 169.711 164.397L169.712 164.406C169.878 165.912 169.192 166.975 167.972 167.11C167.312 167.183 166.701 166.916 166.382 166.433L166.31 166.441L166.571 168.802L165.795 168.887ZM167.718 166.443C168.595 166.347 169.042 165.612 168.919 164.494L168.918 164.485C168.795 163.366 168.199 162.747 167.321 162.843C166.448 162.94 165.989 163.685 166.111 164.794L166.112 164.803C166.234 165.912 166.844 166.54 167.718 166.443Z" fill="#586277"/>
</g>
<defs>
<filter id="filter0_b_2224_17262" x="-37.082" y="-37.9404" width="411.707" height="293.539" filterUnits="userSpaceOnUse" color-interpolation-filters="sRGB">
<feFlood flood-opacity="0" result="BackgroundImageFix"/>
<feGaussianBlur in="BackgroundImageFix" stdDeviation="20"/>
<feComposite in2="SourceAlpha" operator="in" result="effect1_backgroundBlur_2224_17262"/>
<feBlend mode="normal" in="SourceGraphic" in2="effect1_backgroundBlur_2224_17262" result="shape"/>
</filter>
<clipPath id="clip0_2224_17262">
<rect width="335.848" height="217.677" fill="white" transform="translate(0.847656 -0.00976562)"/>
</clipPath>
<clipPath id="clip1_2224_17262">
<rect width="47.2123" height="47.2123" fill="white" transform="translate(31.0547 88.4307) rotate(-6.29)"/>
</clipPath>
<clipPath id="clip2_2224_17262">
<rect width="47.2123" height="47.2123" fill="white" transform="translate(37.375 145.787) rotate(-6.29)"/>
</clipPath>
</defs>
</svg>
