<svg width="79" height="79" viewBox="0 0 79 79" fill="none" xmlns="http://www.w3.org/2000/svg">
<path d="M36.6012 18.624C37.4516 20.0891 37.8767 20.8216 37.8767 21.626C37.8767 22.4304 37.4516 23.1629 36.6012 24.628L32.5407 31.623C31.6903 33.0882 31.2651 33.8207 30.5648 34.2227C29.8644 34.625 29.014 34.625 27.3131 34.625H19.1925C17.4916 34.625 16.6412 34.625 15.9409 34.2227C15.2405 33.8207 14.8153 33.0882 13.9649 31.623L9.90453 24.628C9.0541 23.1629 8.62891 22.4304 8.62891 21.626C8.62891 20.8216 9.0541 20.0891 9.90453 18.624L13.9649 11.6289C14.8153 10.1639 15.2405 9.43133 15.9409 9.02914C16.6412 8.62695 17.4916 8.62695 19.1925 8.62695H27.3131C29.014 8.62695 29.8644 8.62695 30.5648 9.02914C31.2651 9.43133 31.6903 10.1639 32.5407 11.6289L36.6012 18.624Z" stroke="#2E3B55" stroke-width="4.87463" stroke-linecap="round" stroke-linejoin="round"/>
<path d="M69.1012 38.1229C69.9516 39.5882 70.3767 40.3207 70.3767 41.125C70.3767 41.9293 69.9516 42.6618 69.1012 44.1271L65.0406 51.1219C64.1905 52.5872 63.7651 53.3197 63.0648 53.7217C62.3644 54.124 61.514 54.124 59.813 54.124H51.6926C49.9916 54.124 49.1412 54.124 48.4409 53.7217C47.7405 53.3197 47.3151 52.5872 46.465 51.1219L42.4044 44.1271C41.554 42.6618 41.1289 41.9293 41.1289 41.125C41.1289 40.3207 41.554 39.5882 42.4044 38.1229L46.465 31.128C47.3151 29.6629 47.7405 28.9304 48.4409 28.5282C49.1412 28.126 49.9916 28.126 51.6926 28.126H59.813C61.514 28.126 62.3644 28.126 63.0648 28.5282C63.7651 28.9304 64.1905 29.6629 65.0406 31.128L69.1012 38.1229Z" stroke="#2E3B55" stroke-width="4.87463" stroke-linecap="round" stroke-linejoin="round"/>
<path d="M36.6012 54.3719C37.4516 55.8372 37.8767 56.5697 37.8767 57.374C37.8767 58.1783 37.4516 58.9108 36.6012 60.3761L32.5407 67.3709C31.6903 68.8362 31.2651 69.5687 30.5648 69.9707C29.8644 70.373 29.014 70.373 27.3131 70.373H19.1925C17.4916 70.373 16.6412 70.373 15.9409 69.9707C15.2405 69.5687 14.8153 68.8362 13.9649 67.3709L9.90453 60.3761C9.0541 58.9108 8.62891 58.1783 8.62891 57.374C8.62891 56.5697 9.0541 55.8372 9.90453 54.3719L13.9649 47.3771C14.8153 45.9118 15.2405 45.1793 15.9409 44.7773C16.6412 44.375 17.4916 44.375 19.1925 44.375H27.3131C29.014 44.375 29.8644 44.375 30.5648 44.7773C31.2651 45.1793 31.6903 45.9118 32.5407 47.3771L36.6012 54.3719Z" stroke="#2E3B55" stroke-width="4.87463" stroke-linecap="round" stroke-linejoin="round"/>
</svg>
