<svg width="275" height="275" viewBox="0 0 275 275" fill="none" xmlns="http://www.w3.org/2000/svg">
<path d="M168.321 40.5867C168.321 40.5867 155.459 37.3712 130.906 37.9558C106.353 38.5405 28.8919 39.4174 24.2147 57.2491C19.5376 75.0787 32.69 242.216 34.446 251.925C36.1979 261.633 44.0906 261.633 75.0747 261.633C106.059 261.633 188.492 248.71 195.505 244.617C202.521 240.525 205.152 230.001 205.152 230.001L168.321 40.5867Z" fill="black"/>
<path d="M183.522 55.2034C181.183 49.6493 186.1 37.5321 153.412 39.418C123.013 41.1719 49.5081 46.6733 38.8282 59.0036C29.9935 69.2044 39.9974 237.834 49.6441 247.541C59.2907 257.249 197.035 240.327 204.274 232.633C212.9 223.467 183.522 55.2034 183.522 55.2034Z" fill="#B88917"/>
<path d="M189.369 60.7565C189.369 60.7565 182.94 44.9711 179.724 43.8018C176.509 42.6325 49.9393 58.4179 45.8468 65.1393C41.7543 71.8627 61.9245 225.908 64.5554 234.386C67.1863 242.863 144.382 231.873 187.205 220.399C203.693 215.982 189.369 60.7565 189.369 60.7565Z" fill="#ABB1BB"/>
<path d="M49.6045 62.2014C49.6045 62.2014 167.418 39.0511 181.474 40.7036C195.528 42.358 211.888 138.908 230.666 163.479C247.409 185.391 244.904 189.802 202.97 206.887C147.163 229.623 104.997 229.623 90.9417 226.314C76.8879 223.007 46.7097 90.7252 44.231 78.3238C41.7504 65.9204 44.231 63.4418 49.6045 62.2014Z" fill="#E3D0A2"/>
<path d="M55.0117 43.2176C55.0117 43.2176 76.8384 45.2578 80.3057 49.5432C83.775 53.8265 77.6545 72.592 87.6503 74.6341C97.6441 76.6723 145.786 69.5327 151.291 63.2092C156.801 56.8857 158.636 34.0379 139.87 32.6108C121.103 31.1837 126.815 26.6953 118.86 18.5367C110.902 10.3761 98.4601 12.0082 96.422 23.0231C94.3818 34.0399 82.1429 35.264 69.9039 34.651C57.6629 34.0399 55.0117 43.2176 55.0117 43.2176Z" fill="#936E12"/>
<path d="M108.354 20.6789C103.154 21.903 98.5637 33.3259 109.782 32.1018C121.001 30.8777 117.534 18.2307 108.354 20.6789Z" fill="white"/>
<path d="M86.0892 49.1984C123.301 44.4381 152.726 41.8437 149.409 40.9769C146.092 40.1121 140.179 36.3606 131.235 35.3537C122.292 34.3428 103.109 41.6975 86.3775 39.8238C69.6461 37.9481 62.7217 39.8238 66.9056 41.123C71.0874 42.4202 83.6369 45.447 86.0892 49.1984Z" fill="black"/>
<path d="M69.5948 94.212C69.5948 94.212 175.346 77.7932 180.602 73.5241C185.856 69.253 155.641 74.5087 137.578 78.1201C119.515 81.7335 80.433 86.6603 72.2216 89.2872C64.0123 91.914 63.6834 94.8677 69.5948 94.212ZM74.2374 114.187C74.2374 114.187 179.991 97.7645 185.245 93.4954C190.5 89.2263 160.286 94.48 142.223 98.0934C124.16 101.707 85.0777 106.632 76.8663 109.258C68.6569 111.887 68.3281 114.841 74.2395 114.185L74.2374 114.187Z" fill="white"/>
<path d="M99.1111 135.705C99.1111 135.705 186.507 120.785 191.761 116.515C197.019 112.246 166.802 117.5 148.739 121.113C130.676 124.727 109.949 128.153 101.738 130.78C93.5265 133.407 93.1997 136.361 99.1111 135.705ZM103.754 155.68C103.754 155.68 191.152 140.756 196.408 136.487C201.661 132.218 171.447 137.471 153.384 141.085C135.32 144.698 114.592 148.125 106.383 150.752C98.1712 153.38 97.8444 156.334 103.756 155.678L103.754 155.68ZM113.579 178.285C113.579 178.285 200.975 163.364 206.231 159.093C211.485 154.824 181.27 160.08 163.207 163.691C145.144 167.304 124.417 170.731 116.206 173.36C107.996 175.987 107.668 178.942 113.579 178.285ZM118.224 198.258C118.224 198.258 205.62 183.335 210.874 179.064C216.131 174.795 185.915 180.051 167.851 183.662C149.788 187.276 129.062 190.704 120.851 193.331C112.641 195.958 112.312 198.914 118.224 198.258Z" fill="#ABB1BB"/>
<path d="M213.675 159.47C207.366 170.493 180.06 181.589 176.706 179.653C173.353 177.716 170.393 145.453 176.666 134.41C192.078 107.719 221.113 138.082 213.675 159.47Z" fill="white"/>
<path d="M202.821 88.563L177.864 131.788C177.393 132.627 176.992 133.504 176.664 134.409C178.658 133.065 180.722 133.045 182.517 135.826C188.322 144.815 184.577 153.994 194.691 147.813C204.804 141.632 202.37 150.247 204.991 155.677C206.461 158.722 208.696 160.939 213.671 159.469C215.346 157.833 216.7 156.227 217.573 154.715L241.957 112.479C244.247 79.1986 225.646 74.1276 202.821 88.563Z" fill="#B88917"/>
<path d="M219.166 87.6876C218.175 87.6834 217.189 87.8111 216.232 88.0672C209.677 89.7521 183.831 137.701 183.831 137.701L183.695 137.898C187.826 146.138 185.36 153.519 194.694 147.815C196.819 146.515 198.385 145.876 199.566 145.718C204.33 135.685 214.976 112.555 220.727 102.675C226.89 92.0887 224.121 87.7668 219.166 87.6876ZM241.695 99.8068L204.57 154.654C204.696 155.005 204.834 155.348 204.996 155.679C206.464 158.724 208.699 160.941 213.675 159.471C215.349 157.835 216.703 156.229 217.576 154.717L241.961 112.48C242.292 107.675 242.184 103.461 241.695 99.8068Z" fill="black"/>
<path d="M219.834 69.5314C216.056 69.5456 212.733 71.3868 209.956 76.1979L202.816 88.5607C209.988 90.4852 224.274 95.4485 235.703 106.608C237.747 108.606 239.831 110.564 241.953 112.48L249.665 99.1229C256.015 88.1243 247.495 82.4301 236.496 76.0802C230.309 72.5074 224.694 69.5111 219.834 69.5314Z" fill="#936E12"/>
<path d="M173.469 166.413C174.129 173.424 175.385 178.891 176.705 179.653C178.103 180.46 183.672 178.997 190.141 176.222C187.447 169.886 179.634 167.363 173.469 166.413ZM225.904 73.233C219.84 69.5303 218.884 73.1011 227.362 77.7356C235.837 82.3701 244.312 88.4622 246.566 86.8727C248.815 85.2832 225.904 73.233 225.904 73.233Z" fill="black"/>
<path d="M241.959 112.48C241.959 112.48 226.531 99.6764 217.542 95.6508C208.551 91.6233 202.824 88.56 202.824 88.56C202.824 88.56 204.245 86.4732 214.639 90.5007C225.033 94.5262 236.271 102.393 239.643 106.045C243.012 109.699 241.959 112.48 241.959 112.48Z" fill="white"/>
<path d="M88.3017 135.875C88.3017 136.57 88.1646 137.259 87.8984 137.902C87.6321 138.545 87.2418 139.129 86.7498 139.621C86.2578 140.113 85.6737 140.503 85.0309 140.77C84.3881 141.036 83.6991 141.173 83.0033 141.173C81.5985 141.172 80.2514 140.614 79.2582 139.62C78.265 138.627 77.707 137.279 77.707 135.875C77.707 134.469 78.2652 133.122 79.2589 132.128C80.2525 131.134 81.6002 130.576 83.0054 130.576C84.4106 130.576 85.7582 131.134 86.7519 132.128C87.7455 133.122 88.3017 134.469 88.3017 135.875Z" fill="#ABB1BB"/>
<path d="M93.7314 157.595C93.7314 159 93.1731 160.348 92.1795 161.342C91.1859 162.335 89.8382 162.894 88.433 162.894C87.0282 162.893 85.681 162.335 84.6879 161.341C83.6947 160.347 83.1367 159 83.1367 157.595C83.1367 156.19 83.6949 154.842 84.6886 153.849C85.6822 152.855 87.0299 152.297 88.4351 152.297C89.8403 152.297 91.1879 152.855 92.1816 153.849C93.1752 154.842 93.7314 156.19 93.7314 157.595Z" fill="white"/>
<path d="M99.6943 179.445C99.6943 180.85 99.1361 182.198 98.1425 183.191C97.1489 184.185 95.8012 184.743 94.396 184.743C92.9908 184.743 91.6431 184.185 90.6495 183.191C89.6559 182.198 89.0977 180.85 89.0977 179.445C89.0977 178.04 89.6559 176.692 90.6495 175.698C91.6431 174.705 92.9908 174.146 94.396 174.146C95.8012 174.146 97.1489 174.705 98.1425 175.698C99.1361 176.692 99.6943 178.04 99.6943 179.445Z" fill="#ABB1BB"/>
<path d="M105.784 198.65C105.784 200.055 105.226 201.403 104.232 202.396C103.239 203.39 101.891 203.948 100.486 203.948C99.0806 203.948 97.733 203.39 96.7393 202.396C95.7457 201.403 95.1875 200.055 95.1875 198.65C95.1875 197.245 95.7457 195.897 96.7393 194.903C97.733 193.91 99.0806 193.352 100.486 193.352C101.891 193.352 103.239 193.91 104.232 194.903C105.226 195.897 105.784 197.245 105.784 198.65Z" fill="white"/>
</svg>
