<svg width="1443" height="1052" viewBox="0 0 1443 1052" fill="none" xmlns="http://www.w3.org/2000/svg">
<rect width="1443" height="1052" fill="#F8FFF9"/>
<path d="M1442.99 0H0.0585938V1052.47H1442.99V0Z" fill="#B88917"/>
<path d="M50.1082 1047.76C52.1204 1047.76 53.7516 1045.86 53.7516 1043.51C53.7516 1041.16 52.1204 1039.26 50.1082 1039.26C48.0961 1039.26 46.4648 1041.16 46.4648 1043.51C46.4648 1045.86 48.0961 1047.76 50.1082 1047.76Z" fill="white"/>
<path d="M257.835 964.619C259.847 964.619 261.478 962.716 261.478 960.367C261.478 958.019 259.847 956.115 257.835 956.115C255.823 956.115 254.191 958.019 254.191 960.367C254.191 962.716 255.823 964.619 257.835 964.619Z" fill="white"/>
<path d="M209.706 960.365C211.718 960.365 213.349 958.462 213.349 956.113C213.349 953.765 211.718 951.861 209.706 951.861C207.694 951.861 206.062 953.765 206.062 956.113C206.062 958.462 207.694 960.365 209.706 960.365Z" fill="white"/>
<path d="M46.4637 993.533C48.4759 993.533 50.1071 991.63 50.1071 989.281C50.1071 986.933 48.4759 985.029 46.4637 985.029C44.4515 985.029 42.8203 986.933 42.8203 989.281C42.8203 991.63 44.4515 993.533 46.4637 993.533Z" fill="white"/>
<path d="M275.522 1015.19C277.535 1015.19 279.166 1013.29 279.166 1010.94C279.166 1008.59 277.535 1006.69 275.522 1006.69C273.51 1006.69 271.879 1008.59 271.879 1010.94C271.879 1013.29 273.51 1015.19 275.522 1015.19Z" fill="white"/>
<path d="M14.3973 968.869C16.4095 968.869 18.0407 966.966 18.0407 964.617C18.0407 962.269 16.4095 960.365 14.3973 960.365C12.3851 960.365 10.7539 962.269 10.7539 964.617C10.7539 966.966 12.3851 968.869 14.3973 968.869Z" fill="white"/>
<path d="M128.792 993.533C130.804 993.533 132.435 991.63 132.435 989.281C132.435 986.933 130.804 985.029 128.792 985.029C126.78 985.029 125.148 986.933 125.148 989.281C125.148 991.63 126.78 993.533 128.792 993.533Z" fill="white"/>
<path d="M148.483 1026.7C150.495 1026.7 152.127 1024.8 152.127 1022.45C152.127 1020.1 150.495 1018.2 148.483 1018.2C146.471 1018.2 144.84 1020.1 144.84 1022.45C144.84 1024.8 146.471 1026.7 148.483 1026.7Z" fill="white"/>
<path d="M353.995 1026.7C356.007 1026.7 357.638 1024.8 357.638 1022.45C357.638 1020.1 356.007 1018.2 353.995 1018.2C351.983 1018.2 350.352 1020.1 350.352 1022.45C350.352 1024.8 351.983 1026.7 353.995 1026.7Z" fill="white"/>
<path d="M410.839 1047.76C412.851 1047.76 414.482 1045.86 414.482 1043.51C414.482 1041.16 412.851 1039.26 410.839 1039.26C408.827 1039.26 407.195 1041.16 407.195 1043.51C407.195 1045.86 408.827 1047.76 410.839 1047.76Z" fill="white"/>
<path d="M618.565 964.619C620.577 964.619 622.209 962.716 622.209 960.367C622.209 958.019 620.577 956.115 618.565 956.115C616.553 956.115 614.922 958.019 614.922 960.367C614.922 962.716 616.553 964.619 618.565 964.619Z" fill="white"/>
<path d="M570.436 960.365C572.449 960.365 574.08 958.462 574.08 956.113C574.08 953.765 572.449 951.861 570.436 951.861C568.424 951.861 566.793 953.765 566.793 956.113C566.793 958.462 568.424 960.365 570.436 960.365Z" fill="white"/>
<path d="M407.194 993.533C409.206 993.533 410.838 991.63 410.838 989.281C410.838 986.933 409.206 985.029 407.194 985.029C405.182 985.029 403.551 986.933 403.551 989.281C403.551 991.63 405.182 993.533 407.194 993.533Z" fill="white"/>
<path d="M636.253 1015.19C638.265 1015.19 639.896 1013.29 639.896 1010.94C639.896 1008.59 638.265 1006.69 636.253 1006.69C634.241 1006.69 632.609 1008.59 632.609 1010.94C632.609 1013.29 634.241 1015.19 636.253 1015.19Z" fill="white"/>
<path d="M375.128 968.869C377.14 968.869 378.771 966.966 378.771 964.617C378.771 962.269 377.14 960.365 375.128 960.365C373.116 960.365 371.484 962.269 371.484 964.617C371.484 966.966 373.116 968.869 375.128 968.869Z" fill="white"/>
<path d="M489.522 993.533C491.535 993.533 493.166 991.63 493.166 989.281C493.166 986.933 491.535 985.029 489.522 985.029C487.51 985.029 485.879 986.933 485.879 989.281C485.879 991.63 487.51 993.533 489.522 993.533Z" fill="white"/>
<path d="M509.214 1026.7C511.226 1026.7 512.857 1024.8 512.857 1022.45C512.857 1020.1 511.226 1018.2 509.214 1018.2C507.202 1018.2 505.57 1020.1 505.57 1022.45C505.57 1024.8 507.202 1026.7 509.214 1026.7Z" fill="white"/>
<path d="M714.729 1026.7C716.742 1026.7 718.373 1024.8 718.373 1022.45C718.373 1020.1 716.742 1018.2 714.729 1018.2C712.717 1018.2 711.086 1020.1 711.086 1022.45C711.086 1024.8 712.717 1026.7 714.729 1026.7Z" fill="white"/>
<path d="M771.573 1047.76C773.585 1047.76 775.216 1045.86 775.216 1043.51C775.216 1041.16 773.585 1039.26 771.573 1039.26C769.561 1039.26 767.93 1041.16 767.93 1043.51C767.93 1045.86 769.561 1047.76 771.573 1047.76Z" fill="white"/>
<path d="M979.3 964.619C981.312 964.619 982.943 962.716 982.943 960.367C982.943 958.019 981.312 956.115 979.3 956.115C977.287 956.115 975.656 958.019 975.656 960.367C975.656 962.716 977.287 964.619 979.3 964.619Z" fill="white"/>
<path d="M931.171 960.365C933.183 960.365 934.814 958.462 934.814 956.113C934.814 953.765 933.183 951.861 931.171 951.861C929.159 951.861 927.527 953.765 927.527 956.113C927.527 958.462 929.159 960.365 931.171 960.365Z" fill="white"/>
<path d="M767.929 993.533C769.941 993.533 771.572 991.63 771.572 989.281C771.572 986.933 769.941 985.029 767.929 985.029C765.916 985.029 764.285 986.933 764.285 989.281C764.285 991.63 765.916 993.533 767.929 993.533Z" fill="white"/>
<path d="M996.987 1015.19C998.999 1015.19 1000.63 1013.29 1000.63 1010.94C1000.63 1008.59 998.999 1006.69 996.987 1006.69C994.975 1006.69 993.344 1008.59 993.344 1010.94C993.344 1013.29 994.975 1015.19 996.987 1015.19Z" fill="white"/>
<path d="M735.862 968.869C737.874 968.869 739.506 966.966 739.506 964.617C739.506 962.269 737.874 960.365 735.862 960.365C733.85 960.365 732.219 962.269 732.219 964.617C732.219 966.966 733.85 968.869 735.862 968.869Z" fill="white"/>
<path d="M850.257 993.533C852.269 993.533 853.9 991.63 853.9 989.281C853.9 986.933 852.269 985.029 850.257 985.029C848.244 985.029 846.613 986.933 846.613 989.281C846.613 991.63 848.244 993.533 850.257 993.533Z" fill="white"/>
<path d="M869.948 1026.7C871.96 1026.7 873.591 1024.8 873.591 1022.45C873.591 1020.1 871.96 1018.2 869.948 1018.2C867.936 1018.2 866.305 1020.1 866.305 1022.45C866.305 1024.8 867.936 1026.7 869.948 1026.7Z" fill="white"/>
<path d="M1075.46 1026.7C1077.48 1026.7 1079.11 1024.8 1079.11 1022.45C1079.11 1020.1 1077.48 1018.2 1075.46 1018.2C1073.45 1018.2 1071.82 1020.1 1071.82 1022.45C1071.82 1024.8 1073.45 1026.7 1075.46 1026.7Z" fill="white"/>
<path d="M1132.31 1047.76C1134.32 1047.76 1135.95 1045.86 1135.95 1043.51C1135.95 1041.16 1134.32 1039.26 1132.31 1039.26C1130.3 1039.26 1128.66 1041.16 1128.66 1043.51C1128.66 1045.86 1130.3 1047.76 1132.31 1047.76Z" fill="white"/>
<path d="M1340.03 964.619C1342.05 964.619 1343.68 962.716 1343.68 960.367C1343.68 958.019 1342.05 956.115 1340.03 956.115C1338.02 956.115 1336.39 958.019 1336.39 960.367C1336.39 962.716 1338.02 964.619 1340.03 964.619Z" fill="white"/>
<path d="M1291.91 960.365C1293.92 960.365 1295.55 958.462 1295.55 956.113C1295.55 953.765 1293.92 951.861 1291.91 951.861C1289.89 951.861 1288.26 953.765 1288.26 956.113C1288.26 958.462 1289.89 960.365 1291.91 960.365Z" fill="white"/>
<path d="M1128.66 993.533C1130.68 993.533 1132.31 991.63 1132.31 989.281C1132.31 986.933 1130.68 985.029 1128.66 985.029C1126.65 985.029 1125.02 986.933 1125.02 989.281C1125.02 991.63 1126.65 993.533 1128.66 993.533Z" fill="white"/>
<path d="M1357.72 1015.19C1359.73 1015.19 1361.36 1013.29 1361.36 1010.94C1361.36 1008.59 1359.73 1006.69 1357.72 1006.69C1355.71 1006.69 1354.08 1008.59 1354.08 1010.94C1354.08 1013.29 1355.71 1015.19 1357.72 1015.19Z" fill="white"/>
<path d="M1096.6 968.869C1098.61 968.869 1100.24 966.966 1100.24 964.617C1100.24 962.269 1098.61 960.365 1096.6 960.365C1094.58 960.365 1092.95 962.269 1092.95 964.617C1092.95 966.966 1094.58 968.869 1096.6 968.869Z" fill="white"/>
<path d="M1210.99 993.533C1213 993.533 1214.63 991.63 1214.63 989.281C1214.63 986.933 1213 985.029 1210.99 985.029C1208.98 985.029 1207.35 986.933 1207.35 989.281C1207.35 991.63 1208.98 993.533 1210.99 993.533Z" fill="white"/>
<path d="M1230.68 1026.7C1232.69 1026.7 1234.33 1024.8 1234.33 1022.45C1234.33 1020.1 1232.69 1018.2 1230.68 1018.2C1228.67 1018.2 1227.04 1020.1 1227.04 1022.45C1227.04 1024.8 1228.67 1026.7 1230.68 1026.7Z" fill="white"/>
<path d="M1436.19 1026.7C1438.21 1026.7 1439.84 1024.8 1439.84 1022.45C1439.84 1020.1 1438.21 1018.2 1436.19 1018.2C1434.18 1018.2 1432.55 1020.1 1432.55 1022.45C1432.55 1024.8 1434.18 1026.7 1436.19 1026.7Z" fill="white"/>
<path d="M12.0536 93.6055C14.0658 93.6055 15.697 91.7018 15.697 89.3535C15.697 87.0052 14.0658 85.1016 12.0536 85.1016C10.0414 85.1016 8.41016 87.0052 8.41016 89.3535C8.41016 91.7018 10.0414 93.6055 12.0536 93.6055Z" fill="white"/>
<path d="M68.8973 114.664C70.9095 114.664 72.5407 112.76 72.5407 110.412C72.5407 108.064 70.9095 106.16 68.8973 106.16C66.8851 106.16 65.2539 108.064 65.2539 110.412C65.2539 112.76 66.8851 114.664 68.8973 114.664Z" fill="white"/>
<path d="M276.624 31.5215C278.636 31.5215 280.267 29.6179 280.267 27.2696C280.267 24.9213 278.636 23.0176 276.624 23.0176C274.612 23.0176 272.98 24.9213 272.98 27.2696C272.98 29.6179 274.612 31.5215 276.624 31.5215Z" fill="white"/>
<path d="M228.495 27.2676C230.507 27.2676 232.138 25.364 232.138 23.0157C232.138 20.6673 230.507 18.7637 228.495 18.7637C226.483 18.7637 224.852 20.6673 224.852 23.0157C224.852 25.364 226.483 27.2676 228.495 27.2676Z" fill="white"/>
<path d="M65.2528 60.4356C67.265 60.4356 68.8962 58.5319 68.8962 56.1836C68.8962 53.8353 67.265 51.9316 65.2528 51.9316C63.2406 51.9316 61.6094 53.8353 61.6094 56.1836C61.6094 58.5319 63.2406 60.4356 65.2528 60.4356Z" fill="white"/>
<path d="M235.78 171.895C237.792 171.895 239.424 169.991 239.424 167.643C239.424 165.294 237.792 163.391 235.78 163.391C233.768 163.391 232.137 165.294 232.137 167.643C232.137 169.991 233.768 171.895 235.78 171.895Z" fill="#E6E7E8"/>
<path d="M294.311 82.0938C296.324 82.0938 297.955 80.1901 297.955 77.8418C297.955 75.4935 296.324 73.5898 294.311 73.5898C292.299 73.5898 290.668 75.4935 290.668 77.8418C290.668 80.1901 292.299 82.0938 294.311 82.0938Z" fill="#E6E7E8"/>
<path d="M56.8934 197.545C58.9056 197.545 60.5368 195.641 60.5368 193.293C60.5368 190.945 58.9056 189.041 56.8934 189.041C54.8812 189.041 53.25 190.945 53.25 193.293C53.25 195.641 54.8812 197.545 56.8934 197.545Z" fill="white"/>
<path d="M33.1864 35.7715C35.1986 35.7715 36.8298 33.8679 36.8298 31.5196C36.8298 29.1713 35.1986 27.2676 33.1864 27.2676C31.1742 27.2676 29.543 29.1713 29.543 31.5196C29.543 33.8679 31.1742 35.7715 33.1864 35.7715Z" fill="white"/>
<path d="M147.581 60.4356C149.593 60.4356 151.224 58.5319 151.224 56.1836C151.224 53.8353 149.593 51.9316 147.581 51.9316C145.569 51.9316 143.938 53.8353 143.938 56.1836C143.938 58.5319 145.569 60.4356 147.581 60.4356Z" fill="white"/>
<path d="M136.647 128.438C138.66 128.438 140.291 126.534 140.291 124.186C140.291 121.837 138.66 119.934 136.647 119.934C134.635 119.934 133.004 121.837 133.004 124.186C133.004 126.534 134.635 128.438 136.647 128.438Z" fill="white"/>
<path d="M179.979 211.977C181.992 211.977 183.623 210.073 183.623 207.725C183.623 205.376 181.992 203.473 179.979 203.473C177.967 203.473 176.336 205.376 176.336 207.725C176.336 210.073 177.967 211.977 179.979 211.977Z" fill="white"/>
<path d="M235.78 258.783C237.792 258.783 239.424 256.88 239.424 254.531C239.424 252.183 237.792 250.279 235.78 250.279C233.768 250.279 232.137 252.183 232.137 254.531C232.137 256.88 233.768 258.783 235.78 258.783Z" fill="white"/>
<path d="M147.136 260.547C149.148 260.547 150.779 258.643 150.779 256.295C150.779 253.947 149.148 252.043 147.136 252.043C145.123 252.043 143.492 253.947 143.492 256.295C143.492 258.643 145.123 260.547 147.136 260.547Z" fill="white"/>
<path d="M45.3661 297.272C47.3783 297.272 49.0095 295.368 49.0095 293.02C49.0095 290.671 47.3783 288.768 45.3661 288.768C43.3539 288.768 41.7227 290.671 41.7227 293.02C41.7227 295.368 43.3539 297.272 45.3661 297.272Z" fill="white"/>
<path d="M167.272 93.6055C169.285 93.6055 170.916 91.7018 170.916 89.3535C170.916 87.0052 169.285 85.1016 167.272 85.1016C165.26 85.1016 163.629 87.0052 163.629 89.3535C163.629 91.7018 165.26 93.6055 167.272 93.6055Z" fill="white"/>
<path d="M372.788 93.6055C374.8 93.6055 376.431 91.7018 376.431 89.3535C376.431 87.0052 374.8 85.1016 372.788 85.1016C370.776 85.1016 369.145 87.0052 369.145 89.3535C369.145 91.7018 370.776 93.6055 372.788 93.6055Z" fill="white"/>
<path d="M429.632 114.664C431.644 114.664 433.275 112.76 433.275 110.412C433.275 108.064 431.644 106.16 429.632 106.16C427.619 106.16 425.988 108.064 425.988 110.412C425.988 112.76 427.619 114.664 429.632 114.664Z" fill="white"/>
<path d="M637.358 31.5215C639.37 31.5215 641.002 29.6179 641.002 27.2696C641.002 24.9213 639.37 23.0176 637.358 23.0176C635.346 23.0176 633.715 24.9213 633.715 27.2696C633.715 29.6179 635.346 31.5215 637.358 31.5215Z" fill="white"/>
<path d="M589.229 27.2676C591.242 27.2676 592.873 25.364 592.873 23.0157C592.873 20.6673 591.242 18.7637 589.229 18.7637C587.217 18.7637 585.586 20.6673 585.586 23.0157C585.586 25.364 587.217 27.2676 589.229 27.2676Z" fill="white"/>
<path d="M425.987 60.4356C427.999 60.4356 429.631 58.5319 429.631 56.1836C429.631 53.8353 427.999 51.9316 425.987 51.9316C423.975 51.9316 422.344 53.8353 422.344 56.1836C422.344 58.5319 423.975 60.4356 425.987 60.4356Z" fill="white"/>
<path d="M596.514 171.895C598.527 171.895 600.158 169.991 600.158 167.643C600.158 165.294 598.527 163.391 596.514 163.391C594.502 163.391 592.871 165.294 592.871 167.643C592.871 169.991 594.502 171.895 596.514 171.895Z" fill="#E6E7E8"/>
<path d="M655.046 82.0938C657.058 82.0938 658.689 80.1901 658.689 77.8418C658.689 75.4935 657.058 73.5898 655.046 73.5898C653.034 73.5898 651.402 75.4935 651.402 77.8418C651.402 80.1901 653.034 82.0938 655.046 82.0938Z" fill="#E6E7E8"/>
<path d="M417.628 197.545C419.64 197.545 421.271 195.641 421.271 193.293C421.271 190.945 419.64 189.041 417.628 189.041C415.616 189.041 413.984 190.945 413.984 193.293C413.984 195.641 415.616 197.545 417.628 197.545Z" fill="white"/>
<path d="M393.921 35.7715C395.933 35.7715 397.564 33.8679 397.564 31.5196C397.564 29.1713 395.933 27.2676 393.921 27.2676C391.909 27.2676 390.277 29.1713 390.277 31.5196C390.277 33.8679 391.909 35.7715 393.921 35.7715Z" fill="white"/>
<path d="M508.315 60.4356C510.327 60.4356 511.959 58.5319 511.959 56.1836C511.959 53.8353 510.327 51.9316 508.315 51.9316C506.303 51.9316 504.672 53.8353 504.672 56.1836C504.672 58.5319 506.303 60.4356 508.315 60.4356Z" fill="white"/>
<path d="M497.382 128.438C499.394 128.438 501.025 126.534 501.025 124.186C501.025 121.837 499.394 119.934 497.382 119.934C495.369 119.934 493.738 121.837 493.738 124.186C493.738 126.534 495.369 128.438 497.382 128.438Z" fill="white"/>
<path d="M540.714 211.977C542.726 211.977 544.357 210.073 544.357 207.725C544.357 205.376 542.726 203.473 540.714 203.473C538.702 203.473 537.07 205.376 537.07 207.725C537.07 210.073 538.702 211.977 540.714 211.977Z" fill="white"/>
<path d="M596.514 258.783C598.527 258.783 600.158 256.88 600.158 254.531C600.158 252.183 598.527 250.279 596.514 250.279C594.502 250.279 592.871 252.183 592.871 254.531C592.871 256.88 594.502 258.783 596.514 258.783Z" fill="white"/>
<path d="M507.87 260.547C509.882 260.547 511.513 258.643 511.513 256.295C511.513 253.947 509.882 252.043 507.87 252.043C505.858 252.043 504.227 253.947 504.227 256.295C504.227 258.643 505.858 260.547 507.87 260.547Z" fill="white"/>
<path d="M406.1 297.272C408.113 297.272 409.744 295.368 409.744 293.02C409.744 290.671 408.113 288.768 406.1 288.768C404.088 288.768 402.457 290.671 402.457 293.02C402.457 295.368 404.088 297.272 406.1 297.272Z" fill="white"/>
<path d="M528.007 93.6055C530.019 93.6055 531.65 91.7018 531.65 89.3535C531.65 87.0052 530.019 85.1016 528.007 85.1016C525.994 85.1016 524.363 87.0052 524.363 89.3535C524.363 91.7018 525.994 93.6055 528.007 93.6055Z" fill="white"/>
<path d="M733.522 93.6055C735.535 93.6055 737.166 91.7018 737.166 89.3535C737.166 87.0052 735.535 85.1016 733.522 85.1016C731.51 85.1016 729.879 87.0052 729.879 89.3535C729.879 91.7018 731.51 93.6055 733.522 93.6055Z" fill="white"/>
<path d="M790.366 114.664C792.378 114.664 794.009 112.76 794.009 110.412C794.009 108.064 792.378 106.16 790.366 106.16C788.354 106.16 786.723 108.064 786.723 110.412C786.723 112.76 788.354 114.664 790.366 114.664Z" fill="white"/>
<path d="M998.093 31.5215C1000.1 31.5215 1001.74 29.6179 1001.74 27.2696C1001.74 24.9213 1000.1 23.0176 998.093 23.0176C996.08 23.0176 994.449 24.9213 994.449 27.2696C994.449 29.6179 996.08 31.5215 998.093 31.5215Z" fill="white"/>
<path d="M949.964 27.2676C951.976 27.2676 953.607 25.364 953.607 23.0157C953.607 20.6673 951.976 18.7637 949.964 18.7637C947.952 18.7637 946.32 20.6673 946.32 23.0157C946.32 25.364 947.952 27.2676 949.964 27.2676Z" fill="white"/>
<path d="M786.722 60.4356C788.734 60.4356 790.365 58.5319 790.365 56.1836C790.365 53.8353 788.734 51.9316 786.722 51.9316C784.709 51.9316 783.078 53.8353 783.078 56.1836C783.078 58.5319 784.709 60.4356 786.722 60.4356Z" fill="white"/>
<path d="M957.249 171.895C959.261 171.895 960.892 169.991 960.892 167.643C960.892 165.294 959.261 163.391 957.249 163.391C955.237 163.391 953.605 165.294 953.605 167.643C953.605 169.991 955.237 171.895 957.249 171.895Z" fill="#E6E7E8"/>
<path d="M1015.78 82.0938C1017.79 82.0938 1019.42 80.1901 1019.42 77.8418C1019.42 75.4935 1017.79 73.5898 1015.78 73.5898C1013.77 73.5898 1012.14 75.4935 1012.14 77.8418C1012.14 80.1901 1013.77 82.0938 1015.78 82.0938Z" fill="#E6E7E8"/>
<path d="M778.362 197.545C780.374 197.545 782.006 195.641 782.006 193.293C782.006 190.945 780.374 189.041 778.362 189.041C776.35 189.041 774.719 190.945 774.719 193.293C774.719 195.641 776.35 197.545 778.362 197.545Z" fill="white"/>
<path d="M754.655 35.7715C756.667 35.7715 758.299 33.8679 758.299 31.5196C758.299 29.1713 756.667 27.2676 754.655 27.2676C752.643 27.2676 751.012 29.1713 751.012 31.5196C751.012 33.8679 752.643 35.7715 754.655 35.7715Z" fill="white"/>
<path d="M869.05 60.4356C871.062 60.4356 872.693 58.5319 872.693 56.1836C872.693 53.8353 871.062 51.9316 869.05 51.9316C867.037 51.9316 865.406 53.8353 865.406 56.1836C865.406 58.5319 867.037 60.4356 869.05 60.4356Z" fill="white"/>
<path d="M858.116 128.438C860.128 128.438 861.759 126.534 861.759 124.186C861.759 121.837 860.128 119.934 858.116 119.934C856.104 119.934 854.473 121.837 854.473 124.186C854.473 126.534 856.104 128.438 858.116 128.438Z" fill="white"/>
<path d="M901.448 211.977C903.46 211.977 905.091 210.073 905.091 207.725C905.091 205.376 903.46 203.473 901.448 203.473C899.436 203.473 897.805 205.376 897.805 207.725C897.805 210.073 899.436 211.977 901.448 211.977Z" fill="white"/>
<path d="M957.249 258.783C959.261 258.783 960.892 256.88 960.892 254.531C960.892 252.183 959.261 250.279 957.249 250.279C955.237 250.279 953.605 252.183 953.605 254.531C953.605 256.88 955.237 258.783 957.249 258.783Z" fill="white"/>
<path d="M868.604 260.547C870.617 260.547 872.248 258.643 872.248 256.295C872.248 253.947 870.617 252.043 868.604 252.043C866.592 252.043 864.961 253.947 864.961 256.295C864.961 258.643 866.592 260.547 868.604 260.547Z" fill="white"/>
<path d="M766.835 297.272C768.847 297.272 770.478 295.368 770.478 293.02C770.478 290.671 768.847 288.768 766.835 288.768C764.823 288.768 763.191 290.671 763.191 293.02C763.191 295.368 764.823 297.272 766.835 297.272Z" fill="white"/>
<path d="M888.741 93.6055C890.753 93.6055 892.384 91.7018 892.384 89.3535C892.384 87.0052 890.753 85.1016 888.741 85.1016C886.729 85.1016 885.098 87.0052 885.098 89.3535C885.098 91.7018 886.729 93.6055 888.741 93.6055Z" fill="white"/>
<path d="M1094.26 93.6055C1096.27 93.6055 1097.9 91.7018 1097.9 89.3535C1097.9 87.0052 1096.27 85.1016 1094.26 85.1016C1092.24 85.1016 1090.61 87.0052 1090.61 89.3535C1090.61 91.7018 1092.24 93.6055 1094.26 93.6055Z" fill="white"/>
<path d="M1151.1 114.664C1153.11 114.664 1154.74 112.76 1154.74 110.412C1154.74 108.064 1153.11 106.16 1151.1 106.16C1149.09 106.16 1147.46 108.064 1147.46 110.412C1147.46 112.76 1149.09 114.664 1151.1 114.664Z" fill="white"/>
<path d="M1358.83 31.5215C1360.84 31.5215 1362.47 29.6179 1362.47 27.2696C1362.47 24.9213 1360.84 23.0176 1358.83 23.0176C1356.81 23.0176 1355.18 24.9213 1355.18 27.2696C1355.18 29.6179 1356.81 31.5215 1358.83 31.5215Z" fill="white"/>
<path d="M1310.7 27.2676C1312.71 27.2676 1314.34 25.364 1314.34 23.0157C1314.34 20.6673 1312.71 18.7637 1310.7 18.7637C1308.69 18.7637 1307.05 20.6673 1307.05 23.0157C1307.05 25.364 1308.69 27.2676 1310.7 27.2676Z" fill="white"/>
<path d="M1147.46 60.4356C1149.47 60.4356 1151.1 58.5319 1151.1 56.1836C1151.1 53.8353 1149.47 51.9316 1147.46 51.9316C1145.44 51.9316 1143.81 53.8353 1143.81 56.1836C1143.81 58.5319 1145.44 60.4356 1147.46 60.4356Z" fill="white"/>
<path d="M1317.98 171.895C1320 171.895 1321.63 169.991 1321.63 167.643C1321.63 165.294 1320 163.391 1317.98 163.391C1315.97 163.391 1314.34 165.294 1314.34 167.643C1314.34 169.991 1315.97 171.895 1317.98 171.895Z" fill="#E6E7E8"/>
<path d="M1376.51 82.0938C1378.53 82.0938 1380.16 80.1901 1380.16 77.8418C1380.16 75.4935 1378.53 73.5898 1376.51 73.5898C1374.5 73.5898 1372.87 75.4935 1372.87 77.8418C1372.87 80.1901 1374.5 82.0938 1376.51 82.0938Z" fill="#E6E7E8"/>
<path d="M1139.1 197.545C1141.11 197.545 1142.74 195.641 1142.74 193.293C1142.74 190.945 1141.11 189.041 1139.1 189.041C1137.08 189.041 1135.45 190.945 1135.45 193.293C1135.45 195.641 1137.08 197.545 1139.1 197.545Z" fill="white"/>
<path d="M1115.39 35.7715C1117.4 35.7715 1119.03 33.8679 1119.03 31.5196C1119.03 29.1713 1117.4 27.2676 1115.39 27.2676C1113.38 27.2676 1111.75 29.1713 1111.75 31.5196C1111.75 33.8679 1113.38 35.7715 1115.39 35.7715Z" fill="white"/>
<path d="M1229.78 60.4356C1231.8 60.4356 1233.43 58.5319 1233.43 56.1836C1233.43 53.8353 1231.8 51.9316 1229.78 51.9316C1227.77 51.9316 1226.14 53.8353 1226.14 56.1836C1226.14 58.5319 1227.77 60.4356 1229.78 60.4356Z" fill="white"/>
<path d="M1218.85 128.438C1220.86 128.438 1222.49 126.534 1222.49 124.186C1222.49 121.837 1220.86 119.934 1218.85 119.934C1216.84 119.934 1215.21 121.837 1215.21 124.186C1215.21 126.534 1216.84 128.438 1218.85 128.438Z" fill="white"/>
<path d="M1262.18 211.977C1264.19 211.977 1265.83 210.073 1265.83 207.725C1265.83 205.376 1264.19 203.473 1262.18 203.473C1260.17 203.473 1258.54 205.376 1258.54 207.725C1258.54 210.073 1260.17 211.977 1262.18 211.977Z" fill="white"/>
<path d="M1317.98 258.783C1320 258.783 1321.63 256.88 1321.63 254.531C1321.63 252.183 1320 250.279 1317.98 250.279C1315.97 250.279 1314.34 252.183 1314.34 254.531C1314.34 256.88 1315.97 258.783 1317.98 258.783Z" fill="white"/>
<path d="M1229.34 260.547C1231.35 260.547 1232.98 258.643 1232.98 256.295C1232.98 253.947 1231.35 252.043 1229.34 252.043C1227.33 252.043 1225.7 253.947 1225.7 256.295C1225.7 258.643 1227.33 260.547 1229.34 260.547Z" fill="white"/>
<path d="M1127.57 297.272C1129.58 297.272 1131.21 295.368 1131.21 293.02C1131.21 290.671 1129.58 288.768 1127.57 288.768C1125.56 288.768 1123.93 290.671 1123.93 293.02C1123.93 295.368 1125.56 297.272 1127.57 297.272Z" fill="white"/>
<path d="M1249.48 93.6055C1251.49 93.6055 1253.12 91.7018 1253.12 89.3535C1253.12 87.0052 1251.49 85.1016 1249.48 85.1016C1247.46 85.1016 1245.83 87.0052 1245.83 89.3535C1245.83 91.7018 1247.46 93.6055 1249.48 93.6055Z" fill="white"/>
<path d="M12.0536 442.236C14.0658 442.236 15.697 440.333 15.697 437.984C15.697 435.636 14.0658 433.732 12.0536 433.732C10.0414 433.732 8.41016 435.636 8.41016 437.984C8.41016 440.333 10.0414 442.236 12.0536 442.236Z" fill="white"/>
<path d="M68.8973 463.295C70.9095 463.295 72.5407 461.391 72.5407 459.043C72.5407 456.695 70.9095 454.791 68.8973 454.791C66.8851 454.791 65.2539 456.695 65.2539 459.043C65.2539 461.391 66.8851 463.295 68.8973 463.295Z" fill="white"/>
<path d="M276.624 380.152C278.636 380.152 280.267 378.249 280.267 375.9C280.267 373.552 278.636 371.648 276.624 371.648C274.612 371.648 272.98 373.552 272.98 375.9C272.98 378.249 274.612 380.152 276.624 380.152Z" fill="white"/>
<path d="M228.495 375.898C230.507 375.898 232.138 373.995 232.138 371.647C232.138 369.298 230.507 367.395 228.495 367.395C226.483 367.395 224.852 369.298 224.852 371.647C224.852 373.995 226.483 375.898 228.495 375.898Z" fill="white"/>
<path d="M65.2528 409.066C67.265 409.066 68.8962 407.163 68.8962 404.814C68.8962 402.466 67.265 400.562 65.2528 400.562C63.2406 400.562 61.6094 402.466 61.6094 404.814C61.6094 407.163 63.2406 409.066 65.2528 409.066Z" fill="white"/>
<path d="M235.78 520.525C237.792 520.525 239.424 518.622 239.424 516.273C239.424 513.925 237.792 512.021 235.78 512.021C233.768 512.021 232.137 513.925 232.137 516.273C232.137 518.622 233.768 520.525 235.78 520.525Z" fill="#E6E7E8"/>
<path d="M294.311 430.725C296.324 430.725 297.955 428.821 297.955 426.473C297.955 424.124 296.324 422.221 294.311 422.221C292.299 422.221 290.668 424.124 290.668 426.473C290.668 428.821 292.299 430.725 294.311 430.725Z" fill="#E6E7E8"/>
<path d="M56.8934 546.176C58.9056 546.176 60.5368 544.272 60.5368 541.924C60.5368 539.576 58.9056 537.672 56.8934 537.672C54.8812 537.672 53.25 539.576 53.25 541.924C53.25 544.272 54.8812 546.176 56.8934 546.176Z" fill="white"/>
<path d="M33.1864 384.402C35.1986 384.402 36.8298 382.499 36.8298 380.15C36.8298 377.802 35.1986 375.898 33.1864 375.898C31.1742 375.898 29.543 377.802 29.543 380.15C29.543 382.499 31.1742 384.402 33.1864 384.402Z" fill="white"/>
<path d="M147.581 409.066C149.593 409.066 151.224 407.163 151.224 404.814C151.224 402.466 149.593 400.562 147.581 400.562C145.569 400.562 143.938 402.466 143.938 404.814C143.938 407.163 145.569 409.066 147.581 409.066Z" fill="white"/>
<path d="M136.647 477.068C138.66 477.068 140.291 475.165 140.291 472.816C140.291 470.468 138.66 468.564 136.647 468.564C134.635 468.564 133.004 470.468 133.004 472.816C133.004 475.165 134.635 477.068 136.647 477.068Z" fill="white"/>
<path d="M179.979 560.607C181.992 560.607 183.623 558.704 183.623 556.355C183.623 554.007 181.992 552.104 179.979 552.104C177.967 552.104 176.336 554.007 176.336 556.355C176.336 558.704 177.967 560.607 179.979 560.607Z" fill="white"/>
<path d="M235.78 607.414C237.792 607.414 239.424 605.51 239.424 603.162C239.424 600.814 237.792 598.91 235.78 598.91C233.768 598.91 232.137 600.814 232.137 603.162C232.137 605.51 233.768 607.414 235.78 607.414Z" fill="white"/>
<path d="M147.136 609.178C149.148 609.178 150.779 607.274 150.779 604.926C150.779 602.578 149.148 600.674 147.136 600.674C145.123 600.674 143.492 602.578 143.492 604.926C143.492 607.274 145.123 609.178 147.136 609.178Z" fill="white"/>
<path d="M45.3661 645.902C47.3783 645.902 49.0095 643.999 49.0095 641.65C49.0095 639.302 47.3783 637.398 45.3661 637.398C43.3539 637.398 41.7227 639.302 41.7227 641.65C41.7227 643.999 43.3539 645.902 45.3661 645.902Z" fill="white"/>
<path d="M167.272 442.236C169.285 442.236 170.916 440.333 170.916 437.984C170.916 435.636 169.285 433.732 167.272 433.732C165.26 433.732 163.629 435.636 163.629 437.984C163.629 440.333 165.26 442.236 167.272 442.236Z" fill="white"/>
<path d="M372.788 442.236C374.8 442.236 376.431 440.333 376.431 437.984C376.431 435.636 374.8 433.732 372.788 433.732C370.776 433.732 369.145 435.636 369.145 437.984C369.145 440.333 370.776 442.236 372.788 442.236Z" fill="white"/>
<path d="M429.632 463.295C431.644 463.295 433.275 461.391 433.275 459.043C433.275 456.695 431.644 454.791 429.632 454.791C427.619 454.791 425.988 456.695 425.988 459.043C425.988 461.391 427.619 463.295 429.632 463.295Z" fill="white"/>
<path d="M637.358 380.152C639.37 380.152 641.002 378.249 641.002 375.9C641.002 373.552 639.37 371.648 637.358 371.648C635.346 371.648 633.715 373.552 633.715 375.9C633.715 378.249 635.346 380.152 637.358 380.152Z" fill="white"/>
<path d="M589.229 375.898C591.242 375.898 592.873 373.995 592.873 371.647C592.873 369.298 591.242 367.395 589.229 367.395C587.217 367.395 585.586 369.298 585.586 371.647C585.586 373.995 587.217 375.898 589.229 375.898Z" fill="white"/>
<path d="M425.987 409.066C427.999 409.066 429.631 407.163 429.631 404.814C429.631 402.466 427.999 400.562 425.987 400.562C423.975 400.562 422.344 402.466 422.344 404.814C422.344 407.163 423.975 409.066 425.987 409.066Z" fill="white"/>
<path d="M596.514 520.525C598.527 520.525 600.158 518.622 600.158 516.273C600.158 513.925 598.527 512.021 596.514 512.021C594.502 512.021 592.871 513.925 592.871 516.273C592.871 518.622 594.502 520.525 596.514 520.525Z" fill="#E6E7E8"/>
<path d="M655.046 430.725C657.058 430.725 658.689 428.821 658.689 426.473C658.689 424.124 657.058 422.221 655.046 422.221C653.034 422.221 651.402 424.124 651.402 426.473C651.402 428.821 653.034 430.725 655.046 430.725Z" fill="#E6E7E8"/>
<path d="M417.628 546.176C419.64 546.176 421.271 544.272 421.271 541.924C421.271 539.576 419.64 537.672 417.628 537.672C415.616 537.672 413.984 539.576 413.984 541.924C413.984 544.272 415.616 546.176 417.628 546.176Z" fill="white"/>
<path d="M393.921 384.402C395.933 384.402 397.564 382.499 397.564 380.15C397.564 377.802 395.933 375.898 393.921 375.898C391.909 375.898 390.277 377.802 390.277 380.15C390.277 382.499 391.909 384.402 393.921 384.402Z" fill="white"/>
<path d="M508.315 409.066C510.327 409.066 511.959 407.163 511.959 404.814C511.959 402.466 510.327 400.562 508.315 400.562C506.303 400.562 504.672 402.466 504.672 404.814C504.672 407.163 506.303 409.066 508.315 409.066Z" fill="white"/>
<path d="M497.382 477.068C499.394 477.068 501.025 475.165 501.025 472.816C501.025 470.468 499.394 468.564 497.382 468.564C495.369 468.564 493.738 470.468 493.738 472.816C493.738 475.165 495.369 477.068 497.382 477.068Z" fill="white"/>
<path d="M540.714 560.607C542.726 560.607 544.357 558.704 544.357 556.355C544.357 554.007 542.726 552.104 540.714 552.104C538.702 552.104 537.07 554.007 537.07 556.355C537.07 558.704 538.702 560.607 540.714 560.607Z" fill="white"/>
<path d="M596.514 607.414C598.527 607.414 600.158 605.51 600.158 603.162C600.158 600.814 598.527 598.91 596.514 598.91C594.502 598.91 592.871 600.814 592.871 603.162C592.871 605.51 594.502 607.414 596.514 607.414Z" fill="white"/>
<path d="M507.87 609.178C509.882 609.178 511.513 607.274 511.513 604.926C511.513 602.578 509.882 600.674 507.87 600.674C505.858 600.674 504.227 602.578 504.227 604.926C504.227 607.274 505.858 609.178 507.87 609.178Z" fill="white"/>
<path d="M406.1 645.902C408.113 645.902 409.744 643.999 409.744 641.65C409.744 639.302 408.113 637.398 406.1 637.398C404.088 637.398 402.457 639.302 402.457 641.65C402.457 643.999 404.088 645.902 406.1 645.902Z" fill="white"/>
<path d="M528.007 442.236C530.019 442.236 531.65 440.333 531.65 437.984C531.65 435.636 530.019 433.732 528.007 433.732C525.994 433.732 524.363 435.636 524.363 437.984C524.363 440.333 525.994 442.236 528.007 442.236Z" fill="white"/>
<path d="M733.522 442.236C735.535 442.236 737.166 440.333 737.166 437.984C737.166 435.636 735.535 433.732 733.522 433.732C731.51 433.732 729.879 435.636 729.879 437.984C729.879 440.333 731.51 442.236 733.522 442.236Z" fill="white"/>
<path d="M790.366 463.295C792.378 463.295 794.009 461.391 794.009 459.043C794.009 456.695 792.378 454.791 790.366 454.791C788.354 454.791 786.723 456.695 786.723 459.043C786.723 461.391 788.354 463.295 790.366 463.295Z" fill="white"/>
<path d="M998.093 380.152C1000.1 380.152 1001.74 378.249 1001.74 375.9C1001.74 373.552 1000.1 371.648 998.093 371.648C996.08 371.648 994.449 373.552 994.449 375.9C994.449 378.249 996.08 380.152 998.093 380.152Z" fill="white"/>
<path d="M949.964 375.898C951.976 375.898 953.607 373.995 953.607 371.647C953.607 369.298 951.976 367.395 949.964 367.395C947.952 367.395 946.32 369.298 946.32 371.647C946.32 373.995 947.952 375.898 949.964 375.898Z" fill="white"/>
<path d="M786.722 409.066C788.734 409.066 790.365 407.163 790.365 404.814C790.365 402.466 788.734 400.562 786.722 400.562C784.709 400.562 783.078 402.466 783.078 404.814C783.078 407.163 784.709 409.066 786.722 409.066Z" fill="white"/>
<path d="M957.249 520.525C959.261 520.525 960.892 518.622 960.892 516.273C960.892 513.925 959.261 512.021 957.249 512.021C955.237 512.021 953.605 513.925 953.605 516.273C953.605 518.622 955.237 520.525 957.249 520.525Z" fill="#E6E7E8"/>
<path d="M1015.78 430.725C1017.79 430.725 1019.42 428.821 1019.42 426.473C1019.42 424.124 1017.79 422.221 1015.78 422.221C1013.77 422.221 1012.14 424.124 1012.14 426.473C1012.14 428.821 1013.77 430.725 1015.78 430.725Z" fill="#E6E7E8"/>
<path d="M778.362 546.176C780.374 546.176 782.006 544.272 782.006 541.924C782.006 539.576 780.374 537.672 778.362 537.672C776.35 537.672 774.719 539.576 774.719 541.924C774.719 544.272 776.35 546.176 778.362 546.176Z" fill="white"/>
<path d="M754.655 384.402C756.667 384.402 758.299 382.499 758.299 380.15C758.299 377.802 756.667 375.898 754.655 375.898C752.643 375.898 751.012 377.802 751.012 380.15C751.012 382.499 752.643 384.402 754.655 384.402Z" fill="white"/>
<path d="M869.05 409.066C871.062 409.066 872.693 407.163 872.693 404.814C872.693 402.466 871.062 400.562 869.05 400.562C867.037 400.562 865.406 402.466 865.406 404.814C865.406 407.163 867.037 409.066 869.05 409.066Z" fill="white"/>
<path d="M858.116 477.068C860.128 477.068 861.759 475.165 861.759 472.816C861.759 470.468 860.128 468.564 858.116 468.564C856.104 468.564 854.473 470.468 854.473 472.816C854.473 475.165 856.104 477.068 858.116 477.068Z" fill="white"/>
<path d="M901.448 560.607C903.46 560.607 905.091 558.704 905.091 556.355C905.091 554.007 903.46 552.104 901.448 552.104C899.436 552.104 897.805 554.007 897.805 556.355C897.805 558.704 899.436 560.607 901.448 560.607Z" fill="white"/>
<path d="M957.249 607.414C959.261 607.414 960.892 605.51 960.892 603.162C960.892 600.814 959.261 598.91 957.249 598.91C955.237 598.91 953.605 600.814 953.605 603.162C953.605 605.51 955.237 607.414 957.249 607.414Z" fill="white"/>
<path d="M868.604 609.178C870.617 609.178 872.248 607.274 872.248 604.926C872.248 602.578 870.617 600.674 868.604 600.674C866.592 600.674 864.961 602.578 864.961 604.926C864.961 607.274 866.592 609.178 868.604 609.178Z" fill="white"/>
<path d="M766.835 645.902C768.847 645.902 770.478 643.999 770.478 641.65C770.478 639.302 768.847 637.398 766.835 637.398C764.823 637.398 763.191 639.302 763.191 641.65C763.191 643.999 764.823 645.902 766.835 645.902Z" fill="white"/>
<path d="M888.741 442.236C890.753 442.236 892.384 440.333 892.384 437.984C892.384 435.636 890.753 433.732 888.741 433.732C886.729 433.732 885.098 435.636 885.098 437.984C885.098 440.333 886.729 442.236 888.741 442.236Z" fill="white"/>
<path d="M1094.26 442.236C1096.27 442.236 1097.9 440.333 1097.9 437.984C1097.9 435.636 1096.27 433.732 1094.26 433.732C1092.24 433.732 1090.61 435.636 1090.61 437.984C1090.61 440.333 1092.24 442.236 1094.26 442.236Z" fill="white"/>
<path d="M1151.1 463.295C1153.11 463.295 1154.74 461.391 1154.74 459.043C1154.74 456.695 1153.11 454.791 1151.1 454.791C1149.09 454.791 1147.46 456.695 1147.46 459.043C1147.46 461.391 1149.09 463.295 1151.1 463.295Z" fill="white"/>
<path d="M1358.83 380.152C1360.84 380.152 1362.47 378.249 1362.47 375.9C1362.47 373.552 1360.84 371.648 1358.83 371.648C1356.81 371.648 1355.18 373.552 1355.18 375.9C1355.18 378.249 1356.81 380.152 1358.83 380.152Z" fill="white"/>
<path d="M1310.7 375.898C1312.71 375.898 1314.34 373.995 1314.34 371.647C1314.34 369.298 1312.71 367.395 1310.7 367.395C1308.69 367.395 1307.05 369.298 1307.05 371.647C1307.05 373.995 1308.69 375.898 1310.7 375.898Z" fill="white"/>
<path d="M1147.46 409.066C1149.47 409.066 1151.1 407.163 1151.1 404.814C1151.1 402.466 1149.47 400.562 1147.46 400.562C1145.44 400.562 1143.81 402.466 1143.81 404.814C1143.81 407.163 1145.44 409.066 1147.46 409.066Z" fill="white"/>
<path d="M1317.98 520.525C1320 520.525 1321.63 518.622 1321.63 516.273C1321.63 513.925 1320 512.021 1317.98 512.021C1315.97 512.021 1314.34 513.925 1314.34 516.273C1314.34 518.622 1315.97 520.525 1317.98 520.525Z" fill="#E6E7E8"/>
<path d="M1376.51 430.725C1378.53 430.725 1380.16 428.821 1380.16 426.473C1380.16 424.124 1378.53 422.221 1376.51 422.221C1374.5 422.221 1372.87 424.124 1372.87 426.473C1372.87 428.821 1374.5 430.725 1376.51 430.725Z" fill="#E6E7E8"/>
<path d="M1139.1 546.176C1141.11 546.176 1142.74 544.272 1142.74 541.924C1142.74 539.576 1141.11 537.672 1139.1 537.672C1137.08 537.672 1135.45 539.576 1135.45 541.924C1135.45 544.272 1137.08 546.176 1139.1 546.176Z" fill="white"/>
<path d="M1115.39 384.402C1117.4 384.402 1119.03 382.499 1119.03 380.15C1119.03 377.802 1117.4 375.898 1115.39 375.898C1113.38 375.898 1111.75 377.802 1111.75 380.15C1111.75 382.499 1113.38 384.402 1115.39 384.402Z" fill="white"/>
<path d="M1229.78 409.066C1231.8 409.066 1233.43 407.163 1233.43 404.814C1233.43 402.466 1231.8 400.562 1229.78 400.562C1227.77 400.562 1226.14 402.466 1226.14 404.814C1226.14 407.163 1227.77 409.066 1229.78 409.066Z" fill="white"/>
<path d="M1218.85 477.068C1220.86 477.068 1222.49 475.165 1222.49 472.816C1222.49 470.468 1220.86 468.564 1218.85 468.564C1216.84 468.564 1215.21 470.468 1215.21 472.816C1215.21 475.165 1216.84 477.068 1218.85 477.068Z" fill="white"/>
<path d="M1262.18 560.607C1264.19 560.607 1265.83 558.704 1265.83 556.355C1265.83 554.007 1264.19 552.104 1262.18 552.104C1260.17 552.104 1258.54 554.007 1258.54 556.355C1258.54 558.704 1260.17 560.607 1262.18 560.607Z" fill="white"/>
<path d="M1317.98 607.414C1320 607.414 1321.63 605.51 1321.63 603.162C1321.63 600.814 1320 598.91 1317.98 598.91C1315.97 598.91 1314.34 600.814 1314.34 603.162C1314.34 605.51 1315.97 607.414 1317.98 607.414Z" fill="white"/>
<path d="M1229.34 609.178C1231.35 609.178 1232.98 607.274 1232.98 604.926C1232.98 602.578 1231.35 600.674 1229.34 600.674C1227.33 600.674 1225.7 602.578 1225.7 604.926C1225.7 607.274 1227.33 609.178 1229.34 609.178Z" fill="white"/>
<path d="M1127.57 645.902C1129.58 645.902 1131.21 643.999 1131.21 641.65C1131.21 639.302 1129.58 637.398 1127.57 637.398C1125.56 637.398 1123.93 639.302 1123.93 641.65C1123.93 643.999 1125.56 645.902 1127.57 645.902Z" fill="white"/>
<path d="M1249.48 442.236C1251.49 442.236 1253.12 440.333 1253.12 437.984C1253.12 435.636 1251.49 433.732 1249.48 433.732C1247.46 433.732 1245.83 435.636 1245.83 437.984C1245.83 440.333 1247.46 442.236 1249.48 442.236Z" fill="white"/>
<path fill-rule="evenodd" clip-rule="evenodd" d="M1340.12 666.333C1345.31 659.217 1348.83 650.497 1348.24 640.726C1346.55 612.573 1312.96 618.765 1306.43 632.975C1299.9 647.184 1300.67 683.23 1309.12 685.769C1312.48 686.782 1319.66 684.301 1326.96 679.166L1322.37 716.996H1349.43L1340.12 666.333Z" fill="#915B3C"/>
<path fill-rule="evenodd" clip-rule="evenodd" d="M1342.19 672.672C1345.59 655.043 1355.26 643.024 1353.79 635.143C1353.47 632.777 1352.54 630.577 1351.14 628.829C1349.74 627.081 1347.91 625.867 1345.91 625.342C1343.7 614.927 1336.59 610.498 1324.57 612.055C1306.53 614.387 1295.52 623.128 1300.28 642.362C1304.65 642.362 1309.92 640.52 1317.22 643.678C1319.53 644.68 1321.19 647.789 1322.18 653.005H1325.48C1328.68 646.816 1331.83 644.541 1334.94 646.181C1338.05 647.821 1338.76 651.806 1337.06 658.136L1338.69 672.672H1342.19Z" fill="#191847"/>
<path fill-rule="evenodd" clip-rule="evenodd" d="M1424.95 881.445H1295.31C1290.53 881.445 1285.94 883.663 1282.56 887.61C1279.18 891.558 1277.28 896.912 1277.28 902.495V1023.53C1277.28 1029.11 1279.18 1034.47 1282.56 1038.41C1285.94 1042.36 1290.53 1044.58 1295.31 1044.58H1424.95C1429.74 1044.58 1434.32 1042.36 1437.71 1038.41C1441.09 1034.47 1442.99 1029.11 1442.99 1023.53V902.495C1442.99 896.912 1441.09 891.558 1437.71 887.61C1434.32 883.663 1429.74 881.445 1424.95 881.445V881.445ZM1406.91 918.282C1408.11 918.282 1409.26 918.836 1410.1 919.823C1410.95 920.81 1411.42 922.148 1411.42 923.544V1002.48C1411.42 1003.87 1410.95 1005.21 1410.1 1006.2C1409.26 1007.19 1408.11 1007.74 1406.91 1007.74H1313.35C1312.15 1007.74 1311.01 1007.19 1310.16 1006.2C1309.32 1005.21 1308.84 1003.87 1308.84 1002.48V923.544C1308.84 922.148 1309.32 920.81 1310.16 919.823C1311.01 918.836 1312.15 918.282 1313.35 918.282H1406.91Z" fill="#C5CFD6"/>
<path fill-rule="evenodd" clip-rule="evenodd" d="M1165.5 1038C1187.72 1006.32 1202.76 982.842 1210.61 967.554C1224.06 941.373 1235.06 918.08 1238.53 909.181C1246.81 887.962 1219.47 878.025 1213.28 887.922C1203.91 902.903 1183.91 950.042 1153.28 1029.34L1165.5 1038Z" fill="#B28B67"/>
<path fill-rule="evenodd" clip-rule="evenodd" d="M1211.04 1028.79L1252.4 907.277C1261.25 885.127 1218.53 870.573 1212.03 880.875C1197.27 904.278 1162.18 996.602 1157.79 1003.57L1211.04 1028.79Z" fill="#586277"/>
<path fill-rule="evenodd" clip-rule="evenodd" d="M1321.17 1006.23C1312.83 992.345 1282.62 945.521 1266.42 925.924C1261.77 920.297 1257.23 914.884 1252.94 909.843C1240.18 894.857 1217.01 917.446 1229.68 931.163C1261.25 965.317 1307.16 1011.62 1311 1015.73C1316.39 1021.5 1326.42 1014.95 1321.17 1006.23Z" fill="#915B3C"/>
<path fill-rule="evenodd" clip-rule="evenodd" d="M1317.56 999.202C1319.88 1001.47 1321.97 1004.11 1323.75 1007.05C1325.49 1010.6 1327.03 1014.26 1328.35 1017.99L1275.81 1051.49C1271.11 1045.97 1270.09 1042.02 1272.77 1039.63C1275.44 1037.25 1277.65 1035.23 1279.37 1033.58L1295.74 1002.6C1295.81 1002.46 1295.91 1002.34 1296.03 1002.26C1296.15 1002.18 1296.29 1002.13 1296.44 1002.12C1296.58 1002.11 1296.74 1002.14 1296.89 1002.2C1297.04 1002.26 1297.19 1002.36 1297.32 1002.48L1297.35 1002.51L1301.73 1006.9C1304.6 1007.13 1307.34 1006.61 1309.78 1005.37C1311.66 1003.85 1313.19 1001.8 1314.27 999.339V999.339C1314.42 999.053 1314.62 998.818 1314.86 998.65C1315.09 998.481 1315.37 998.381 1315.66 998.355C1315.95 998.329 1316.26 998.379 1316.56 998.5C1316.86 998.621 1317.16 998.812 1317.42 999.062C1317.47 999.107 1317.52 999.153 1317.56 999.202Z" fill="#E4E4E4"/>
<path fill-rule="evenodd" clip-rule="evenodd" d="M1175.06 1033.27C1176.09 1036.07 1176.73 1039.05 1176.95 1042.09C1176.85 1045.58 1176.51 1049.05 1175.93 1052.47H1112.36C1110.7 1046.1 1111.66 1042.66 1115.22 1042.15C1118.78 1041.64 1121.73 1041.18 1124.08 1040.77L1153.64 1025.4C1153.91 1025.25 1154.22 1025.25 1154.5 1025.37C1154.78 1025.49 1155 1025.74 1155.12 1026.06L1155.14 1026.1L1157.04 1031.47C1159.53 1033.01 1162.26 1033.93 1165.07 1034.17C1167.5 1033.93 1169.85 1033.12 1172.01 1031.8V1031.8C1172.28 1031.65 1172.57 1031.57 1172.86 1031.56C1173.16 1031.55 1173.45 1031.6 1173.73 1031.72C1174.01 1031.84 1174.26 1032.03 1174.48 1032.26C1174.7 1032.5 1174.87 1032.78 1175 1033.09C1175.02 1033.15 1175.04 1033.21 1175.06 1033.27Z" fill="#E4E4E4"/>
<path fill-rule="evenodd" clip-rule="evenodd" d="M1267.29 913.349C1301.67 906.815 1324.69 902.346 1336.37 899.941C1369.65 893.092 1379.36 872.191 1373.62 826.586H1312.29C1304.18 829.321 1270.27 846.235 1210.57 877.327C1199.83 883.55 1201.83 901.897 1203.8 907.941C1203.88 908.187 1221.98 944.397 1258.12 1016.57L1308.28 979.276L1267.19 917.743C1266.11 915.193 1266.14 913.728 1267.29 913.349Z" fill="#828999"/>
<path fill-rule="evenodd" clip-rule="evenodd" d="M1262.87 809.366L1226.91 840.182C1218.35 842.686 1210.12 846.543 1202.46 851.646C1200.92 853.29 1199.05 856.618 1205.46 856.043C1211.87 855.468 1218.63 855.199 1219.52 857.753C1220.4 860.308 1216.52 863.356 1218.31 866.799C1219.5 869.095 1225.14 863.339 1235.21 849.534L1270.81 832.299L1262.87 809.366ZM1400.93 810.429L1377.37 810.537C1391.92 865.336 1399.77 894.411 1400.93 897.76C1403.54 905.304 1398.02 916.794 1395.66 922.968C1403.35 926.984 1402.53 912.115 1412.23 917.38C1421.08 922.187 1427.81 930.895 1438.04 923.53C1439.3 922.625 1440.68 919.216 1437.35 916.558C1429.05 909.92 1417.1 898.304 1415.49 894.479C1413.28 889.266 1408.43 861.249 1400.93 810.429Z" fill="#915B3C"/>
<path fill-rule="evenodd" clip-rule="evenodd" d="M1333.98 695.065L1324.23 693.114C1288.07 729.577 1273.21 799.624 1228.88 836.732L1239.55 852.169C1316.46 841.054 1335.52 755.613 1333.98 695.065Z" fill="#FF912B"/>
<path fill-rule="evenodd" clip-rule="evenodd" d="M1376.48 838.031H1290.23C1286.28 838.031 1287.03 831.39 1287.6 828.033C1294.17 789.355 1319.84 747.661 1319.84 692.602L1344.72 688.054C1365.3 726.677 1372.42 774.225 1376.48 838.031Z" fill="#DDE3E9"/>
<path fill-rule="evenodd" clip-rule="evenodd" d="M1375.78 726.017C1377.63 725.358 1379.35 724.266 1380.82 722.808C1382.3 721.35 1383.51 719.555 1384.37 717.535C1393.46 698.387 1390.18 687.844 1380.46 684.378C1370.74 680.913 1362.08 688.051 1346.59 688.051C1345.82 688.046 1345.04 688.107 1344.28 688.236L1336.49 688.754C1314.14 777.136 1307.98 836.103 1318 865.656H1385.89C1389.28 875.113 1393.14 884.337 1397.43 893.283H1415.93C1417.67 827.592 1404.29 771.836 1375.78 726.017Z" fill="#FF9B21"/>
<path fill-rule="evenodd" clip-rule="evenodd" d="M1371.1 820.268C1368.97 841.114 1365.5 856.243 1360.69 865.656H1385.89C1381.19 852.888 1376.27 837.759 1371.1 820.268Z" fill="black" fill-opacity="0.1"/>
<path d="M64.9793 832.109C66.9915 832.109 68.6227 830.206 68.6227 827.857C68.6227 825.509 66.9915 823.605 64.9793 823.605C62.9671 823.605 61.3359 825.509 61.3359 827.857C61.3359 830.206 62.9671 832.109 64.9793 832.109Z" fill="white"/>
<path d="M108.667 865.715C110.679 865.715 112.31 863.811 112.31 861.463C112.31 859.115 110.679 857.211 108.667 857.211C106.655 857.211 105.023 859.115 105.023 861.463C105.023 863.811 106.655 865.715 108.667 865.715Z" fill="white"/>
<path d="M112.311 897.885C114.324 897.885 115.955 895.981 115.955 893.633C115.955 891.285 114.324 889.381 112.311 889.381C110.299 889.381 108.668 891.285 108.668 893.633C108.668 895.981 110.299 897.885 112.311 897.885Z" fill="white"/>
<path d="M136.534 906.385C138.546 906.385 140.177 904.481 140.177 902.133C140.177 899.785 138.546 897.881 136.534 897.881C134.522 897.881 132.891 899.785 132.891 902.133C132.891 904.481 134.522 906.385 136.534 906.385Z" fill="white"/>
<path d="M136.534 951.861C138.546 951.861 140.177 949.958 140.177 947.609C140.177 945.261 138.546 943.357 136.534 943.357C134.522 943.357 132.891 945.261 132.891 947.609C132.891 949.958 134.522 951.861 136.534 951.861Z" fill="white"/>
<path d="M129.245 991.951C131.257 991.951 132.888 990.048 132.888 987.699C132.888 985.351 131.257 983.447 129.245 983.447C127.233 983.447 125.602 985.351 125.602 987.699C125.602 990.048 127.233 991.951 129.245 991.951Z" fill="white"/>
<path d="M143.819 1016.95C145.831 1016.95 147.463 1015.05 147.463 1012.7C147.463 1010.35 145.831 1008.45 143.819 1008.45C141.807 1008.45 140.176 1010.35 140.176 1012.7C140.176 1015.05 141.807 1016.95 143.819 1016.95Z" fill="white"/>
<path d="M173.895 1019.06H168.11L168.043 981.602H173.894L173.895 1019.06Z" fill="#2E3B55"/>
<path d="M150.809 969.372L154.867 967.638L156.884 966.778C157.535 966.472 158.2 966.205 158.875 965.978C159.465 965.781 160.092 965.79 160.678 966.004C161.201 966.23 161.679 966.575 162.084 967.021C162.498 967.466 162.884 967.946 163.237 968.458C163.677 969.073 164.109 969.696 164.544 970.317C166.337 972.877 168.119 975.447 169.889 978.029C171.66 980.61 173.418 983.203 175.164 985.808C176.914 988.418 178.653 991.039 180.38 993.671L181.014 994.639C181.126 994.817 181.393 994.639 181.275 994.46C179.536 991.802 177.785 989.154 176.021 986.518C174.257 983.882 172.477 981.25 170.681 978.625C168.888 976.004 167.085 973.395 165.27 970.797C164.819 970.149 164.366 969.503 163.91 968.858C163.527 968.313 163.148 967.762 162.729 967.255C162.371 966.752 161.932 966.337 161.436 966.032C160.941 965.728 160.399 965.54 159.841 965.48C159.165 965.508 158.5 965.679 157.877 965.984C157.201 966.271 156.524 966.563 155.848 966.853L151.758 968.598L150.736 969.035C150.554 969.113 150.633 969.454 150.816 969.376L150.809 969.372Z" fill="#E6E7E8"/>
<path d="M161.932 969.395C161.576 968.784 161.08 968.301 160.501 968.002L159.938 968.028C164.191 976.795 169.935 984.454 176.818 990.535L161.932 969.395Z" fill="#E6E7E8"/>
<path d="M180.494 963.947C181.859 964.946 183.432 965.487 185.043 965.513C186.653 965.538 188.238 965.046 189.625 964.091L189.954 962.249C190.123 962.432 190.322 962.57 190.54 962.656C190.758 962.742 190.989 962.772 191.218 962.746C191.447 962.719 191.668 962.636 191.867 962.502C192.066 962.367 192.238 962.185 192.372 961.967C189.751 955.444 185.904 949.693 181.116 945.143C181.822 945.624 182.649 945.803 183.455 945.65C184.261 945.498 184.997 945.023 185.537 944.307C187.1 943.69 188.58 942.817 189.933 941.714C185.29 933.007 176.436 926.091 174.331 916.135C168 924.069 167.289 926.863 160.958 934.799C160.958 934.799 154.963 941.114 153.669 944.505C153.987 944.9 156.834 945.83 156.938 946.597C158.027 946.691 159.121 946.509 160.145 946.065C161.168 945.621 162.098 944.925 162.87 944.024C158.801 949.072 154.662 954.237 152.17 960.527C151.888 961.064 151.798 961.71 151.921 962.324C152.003 962.55 152.155 962.732 152.346 962.834C152.538 962.936 152.755 962.95 152.956 962.874C152.541 963.34 152.209 963.896 151.976 964.51C152.699 965.049 153.557 965.288 154.41 965.187C155.264 965.087 156.064 964.654 156.68 963.958L155.639 966.228C156.821 966.731 158.077 966.958 159.334 966.894C160.591 966.831 161.825 966.479 162.966 965.859C160.216 967.872 153.341 974.851 151.843 978.212C151.167 979.734 158.131 981.569 159.698 981.501C161.261 981.3 162.774 980.733 164.145 979.834C164.076 980.588 164.2 981.348 164.5 982.019C165.275 982.239 166.08 982.275 166.867 982.127C167.655 981.978 168.409 981.647 169.085 981.154C169 983.19 172.008 983.997 172.692 982.121C172.435 983.223 173.685 983.906 174.649 984.106C177.4 984.676 180.72 985.027 182.51 982.519C183.583 983.681 184.995 984.323 186.458 984.316C187.922 984.309 189.329 983.653 190.394 982.481C190.356 982.605 190.341 982.736 190.349 982.867C190.358 982.998 190.389 983.126 190.443 983.241C190.496 983.357 190.569 983.459 190.658 983.539C190.746 983.62 190.849 983.678 190.958 983.71C191.511 983.751 192.056 983.536 192.475 983.111C194.542 981.498 190.862 978.703 192.926 977.09C186.879 972.31 186.564 968.72 180.494 963.947Z" fill="#2E3B55"/>
<path d="M163.699 937.044C164.163 937.044 164.539 936.605 164.539 936.064C164.539 935.523 164.163 935.084 163.699 935.084C163.235 935.084 162.859 935.523 162.859 936.064C162.859 936.605 163.235 937.044 163.699 937.044Z" fill="#E6E7E8"/>
<path d="M168.078 960.781C168.542 960.781 168.918 960.342 168.918 959.8C168.918 959.259 168.542 958.82 168.078 958.82C167.614 958.82 167.238 959.259 167.238 959.8C167.238 960.342 167.614 960.781 168.078 960.781Z" fill="white"/>
<path d="M172.156 942.927C172.62 942.927 172.996 942.488 172.996 941.947C172.996 941.406 172.62 940.967 172.156 940.967C171.692 940.967 171.316 941.406 171.316 941.947C171.316 942.488 171.692 942.927 172.156 942.927Z" fill="#E6E7E8"/>
<path d="M156.977 959.798C157.44 959.798 157.816 959.359 157.816 958.818C157.816 958.277 157.44 957.838 156.977 957.838C156.513 957.838 156.137 958.277 156.137 958.818C156.137 959.359 156.513 959.798 156.977 959.798Z" fill="white"/>
<path d="M149.415 937.506C149.415 937.766 149.327 938.016 149.169 938.2C149.011 938.384 148.798 938.487 148.575 938.487C148.352 938.487 148.138 938.384 147.98 938.2C147.823 938.016 147.734 937.766 147.734 937.506C147.734 936.964 158.591 912.854 159.056 912.854C159.52 912.854 149.415 936.964 149.415 937.506Z" fill="#E6E7E8"/>
<path d="M172.156 972.439C172.62 972.439 172.996 972 172.996 971.459C172.996 970.917 172.62 970.479 172.156 970.479C171.692 970.479 171.316 970.917 171.316 971.459C171.316 972 171.692 972.439 172.156 972.439Z" fill="#E6E7E8"/>
<path d="M192.307 986.312C193.625 986.312 194.693 985.065 194.693 983.528C194.693 981.99 193.625 980.744 192.307 980.744C190.99 980.744 189.922 981.99 189.922 983.528C189.922 985.065 190.99 986.312 192.307 986.312Z" fill="#D4B874"/>
<path d="M151.323 982.739C152.64 982.739 153.708 981.493 153.708 979.956C153.708 978.418 152.64 977.172 151.323 977.172C150.005 977.172 148.938 978.418 148.938 979.956C148.938 981.493 150.005 982.739 151.323 982.739Z" fill="#FF6584"/>
<path d="M149.917 964.542C151.234 964.542 152.302 963.296 152.302 961.758C152.302 960.221 151.234 958.975 149.917 958.975C148.599 958.975 147.531 960.221 147.531 961.758C147.531 963.296 148.599 964.542 149.917 964.542Z" fill="#D4B874"/>
<path d="M192.307 963.566C193.625 963.566 194.693 962.319 194.693 960.782C194.693 959.244 193.625 957.998 192.307 957.998C190.99 957.998 189.922 959.244 189.922 960.782C189.922 962.319 190.99 963.566 192.307 963.566Z" fill="#D4B874"/>
<path d="M189.936 944.499C191.254 944.499 192.321 943.253 192.321 941.715C192.321 940.178 191.254 938.932 189.936 938.932C188.619 938.932 187.551 940.178 187.551 941.715C187.551 943.253 188.619 944.499 189.936 944.499Z" fill="#FF6584"/>
<path d="M172.477 925.667C172.94 925.667 173.316 925.228 173.316 924.687C173.316 924.146 172.94 923.707 172.477 923.707C172.013 923.707 171.637 924.146 171.637 924.687C171.637 925.228 172.013 925.667 172.477 925.667Z" fill="white"/>
<path d="M165.972 927.921C167.496 929.481 169.348 930.537 171.339 930.982C173.329 931.427 175.385 931.243 177.295 930.451C178.373 930.005 179.382 929.355 180.28 928.528L179.929 928.212C178.776 931.015 176.884 933.315 174.53 934.774C172.034 936.305 169.16 936.777 166.398 936.109C164.799 935.73 163.279 934.985 161.927 933.918C161.776 933.798 161.525 934.002 161.599 934.212C162.977 938.095 164.547 942.028 167.181 944.984C168.29 946.34 169.645 947.39 171.147 948.056C172.649 948.722 174.259 948.987 175.861 948.834C177.597 948.611 179.218 947.711 180.462 946.28L180.112 946.227C180.497 947.267 180.679 948.394 180.644 949.527C180.609 950.659 180.358 951.768 179.909 952.773C178.972 954.948 177.385 956.647 175.447 957.549C173.379 958.496 171.15 958.872 168.937 958.645C164.122 958.247 159.568 955.942 156.027 952.113C155.988 952.073 155.938 952.05 155.885 952.048C155.833 952.046 155.782 952.065 155.74 952.102C155.699 952.14 155.67 952.193 155.658 952.252C155.646 952.312 155.653 952.375 155.677 952.429C157.001 955.61 158.329 958.798 159.913 961.817C161.364 964.673 163.135 967.288 165.181 969.595C167.104 971.758 169.374 973.457 171.861 974.594C174.229 975.647 176.791 975.964 179.296 975.515C181.721 975.106 183.982 973.844 185.777 971.897C186.003 971.646 186.214 971.383 186.417 971.108L186.036 970.924C185.78 973.383 184.703 975.624 183.04 977.164C181.19 978.848 178.966 979.883 176.629 980.146C174.263 980.47 171.868 980.392 169.521 979.914C167.241 979.474 165.017 978.705 162.899 977.625C160.502 976.404 158.265 974.789 156.258 972.831C156.04 972.617 155.722 972.984 155.943 973.2C159.641 976.806 164.068 979.249 168.804 980.293C171.197 980.841 173.645 980.991 176.074 980.739C178.515 980.556 180.868 979.601 182.879 977.977C183.87 977.162 184.703 976.114 185.324 974.9C185.945 973.686 186.341 972.333 186.487 970.929C186.486 970.878 186.472 970.828 186.447 970.786C186.422 970.744 186.388 970.712 186.347 970.692C186.307 970.673 186.263 970.667 186.22 970.677C186.177 970.686 186.137 970.71 186.105 970.745C184.498 972.834 182.359 974.267 180.002 974.834C177.6 975.439 175.103 975.292 172.765 974.407C170.274 973.432 167.984 971.864 166.039 969.803C163.992 967.636 162.215 965.147 160.757 962.408C159.207 959.478 157.803 956.448 156.55 953.33L156.067 952.17L155.716 952.486C159.195 956.243 163.631 958.571 168.348 959.114C172.682 959.6 177.749 958.334 180.055 953.582C180.647 952.447 180.996 951.164 181.075 949.839C181.153 948.514 180.958 947.187 180.506 945.968C180.489 945.934 180.465 945.905 180.436 945.884C180.408 945.862 180.376 945.848 180.342 945.843C180.308 945.838 180.274 945.842 180.242 945.854C180.209 945.867 180.18 945.888 180.156 945.916C179.056 947.105 177.695 947.913 176.224 948.249C174.753 948.584 173.23 948.434 171.828 947.815C168.791 946.392 166.27 943.786 164.692 940.44C163.669 938.402 162.783 936.276 162.04 934.079L161.712 934.374C163.227 935.576 164.947 936.381 166.754 936.735C168.56 937.088 170.411 936.981 172.179 936.422C173.947 935.862 175.591 934.863 176.997 933.492C178.403 932.121 179.538 930.412 180.325 928.482C180.348 928.427 180.355 928.364 180.343 928.305C180.332 928.245 180.303 928.192 180.261 928.155C180.22 928.117 180.168 928.098 180.116 928.1C180.064 928.102 180.013 928.125 179.974 928.166C178.422 929.52 176.588 930.368 174.662 930.624C172.736 930.879 170.787 930.533 169.014 929.62C168.018 929.111 167.101 928.415 166.299 927.559C166.088 927.333 165.771 927.7 165.983 927.928L165.972 927.921Z" fill="#D4B874"/>
<path d="M134.205 929.203C134.932 929.203 135.522 928.514 135.522 927.665C135.522 926.816 134.932 926.127 134.205 926.127C133.477 926.127 132.887 926.816 132.887 927.665C132.887 928.514 133.477 929.203 134.205 929.203Z" fill="white"/>
<path d="M154.763 936.822C155.491 936.822 156.081 936.133 156.081 935.284C156.081 934.435 155.491 933.746 154.763 933.746C154.035 933.746 153.445 934.435 153.445 935.284C153.445 936.133 154.035 936.822 154.763 936.822Z" fill="white"/>
<path d="M212.49 905.209C213.217 905.209 213.807 904.52 213.807 903.671C213.807 902.821 213.217 902.133 212.49 902.133C211.762 902.133 211.172 902.821 211.172 903.671C211.172 904.52 211.762 905.209 212.49 905.209Z" fill="white"/>
<path d="M153.447 917.207C154.175 917.207 154.765 916.518 154.765 915.669C154.765 914.819 154.175 914.131 153.447 914.131C152.719 914.131 152.129 914.819 152.129 915.669C152.129 916.518 152.719 917.207 153.447 917.207Z" fill="white"/>
<path d="M215.126 957.517C215.854 957.517 216.444 956.829 216.444 955.979C216.444 955.13 215.854 954.441 215.126 954.441C214.399 954.441 213.809 955.13 213.809 955.979C213.809 956.829 214.399 957.517 215.126 957.517Z" fill="#E6E7E8"/>
<path d="M236.298 925.039C237.026 925.039 237.616 924.35 237.616 923.501C237.616 922.651 237.026 921.963 236.298 921.963C235.57 921.963 234.98 922.651 234.98 923.501C234.98 924.35 235.57 925.039 236.298 925.039Z" fill="#E6E7E8"/>
<path d="M150.423 966.797C151.151 966.797 151.741 966.108 151.741 965.259C151.741 964.409 151.151 963.721 150.423 963.721C149.695 963.721 149.105 964.409 149.105 965.259C149.105 966.108 149.695 966.797 150.423 966.797Z" fill="white"/>
<path d="M141.849 908.283C142.577 908.283 143.167 907.594 143.167 906.745C143.167 905.896 142.577 905.207 141.849 905.207C141.121 905.207 140.531 905.896 140.531 906.745C140.531 907.594 141.121 908.283 141.849 908.283Z" fill="white"/>
<path d="M183.224 917.207C183.952 917.207 184.542 916.518 184.542 915.669C184.542 914.819 183.952 914.131 183.224 914.131C182.496 914.131 181.906 914.819 181.906 915.669C181.906 916.518 182.496 917.207 183.224 917.207Z" fill="white"/>
<path d="M179.271 941.802C179.999 941.802 180.589 941.114 180.589 940.264C180.589 939.415 179.999 938.727 179.271 938.727C178.543 938.727 177.953 939.415 177.953 940.264C177.953 941.114 178.543 941.802 179.271 941.802Z" fill="white"/>
<path d="M194.947 972.019C195.675 972.019 196.265 971.331 196.265 970.481C196.265 969.632 195.675 968.943 194.947 968.943C194.219 968.943 193.629 969.632 193.629 970.481C193.629 971.331 194.219 972.019 194.947 972.019Z" fill="white"/>
<path d="M215.126 988.949C215.854 988.949 216.444 988.26 216.444 987.411C216.444 986.562 215.854 985.873 215.126 985.873C214.399 985.873 213.809 986.562 213.809 987.411C213.809 988.26 214.399 988.949 215.126 988.949Z" fill="white"/>
<path d="M183.064 989.586C183.792 989.586 184.382 988.897 184.382 988.048C184.382 987.198 183.792 986.51 183.064 986.51C182.336 986.51 181.746 987.198 181.746 988.048C181.746 988.897 182.336 989.586 183.064 989.586Z" fill="white"/>
<path d="M146.251 1002.87C146.979 1002.87 147.569 1002.18 147.569 1001.33C147.569 1000.48 146.979 999.793 146.251 999.793C145.524 999.793 144.934 1000.48 144.934 1001.33C144.934 1002.18 145.524 1002.87 146.251 1002.87Z" fill="white"/>
<path d="M190.349 929.203C191.077 929.203 191.667 928.514 191.667 927.665C191.667 926.816 191.077 926.127 190.349 926.127C189.621 926.127 189.031 926.816 189.031 927.665C189.031 928.514 189.621 929.203 190.349 929.203Z" fill="white"/>
<path d="M81.0805 956.362C84.3236 958.737 88.0638 960.024 91.8919 960.084C95.7201 960.144 99.4886 958.975 102.785 956.703L103.568 952.329C103.968 952.764 104.442 953.094 104.96 953.298C105.478 953.502 106.028 953.575 106.572 953.511C107.116 953.448 107.642 953.25 108.115 952.931C108.589 952.612 108.998 952.179 109.317 951.66C103.087 936.155 93.9436 922.489 82.5651 911.676C84.2419 912.817 86.2063 913.243 88.1224 912.88C90.0384 912.518 91.7871 911.39 93.0692 909.689C96.787 908.224 100.307 906.15 103.525 903.528C92.4909 882.839 71.4512 866.402 66.4494 842.748C51.4046 861.604 49.7147 868.244 34.6699 887.1C34.6699 887.1 20.4232 902.098 17.3491 910.165C18.1044 911.086 24.8693 913.314 25.1274 915.136C27.7147 915.357 30.3125 914.925 32.744 913.869C35.1755 912.814 37.3837 911.16 39.2185 909.019C29.5475 921.014 19.7164 933.289 13.7902 948.237C13.1196 949.515 12.9067 951.049 13.1973 952.509C13.3928 953.047 13.754 953.48 14.2097 953.722C14.6653 953.964 15.1822 953.998 15.6582 953.817C14.6736 954.924 13.8829 956.245 13.3303 957.705C15.049 958.986 17.0875 959.553 19.1164 959.314C21.1452 959.075 23.0458 958.045 24.5108 956.39L22.0308 961.784C24.8417 962.98 27.827 963.518 30.8163 963.368C33.8055 963.217 36.7399 962.38 39.4519 960.905C32.9136 965.688 16.5792 982.275 13.0203 990.261C11.4083 993.879 27.9625 998.24 31.686 998.061C35.4094 997.882 38.8905 995.973 42.2532 994.099C42.0894 995.888 42.3827 997.694 43.0964 999.29C44.9383 999.811 46.8509 999.898 48.7219 999.545C50.5929 999.192 52.3846 998.406 53.9917 997.234C53.791 1002.07 60.9392 1003.99 62.5681 999.532C61.9571 1002.15 64.9287 1003.77 67.2193 1004.25C73.7576 1005.6 81.6486 1006.43 85.8996 1000.48C90.7955 1006.24 99.7653 1006.13 104.635 1000.39C104.545 1000.68 104.509 1000.99 104.529 1001.31C104.549 1001.62 104.624 1001.92 104.751 1002.19C104.877 1002.47 105.051 1002.71 105.262 1002.9C105.472 1003.09 105.715 1003.23 105.974 1003.31C107.29 1003.41 108.586 1002.89 109.582 1001.89L124.321 990.386L81.0805 956.362Z" fill="#E6E7E8"/>
<path d="M64.5302 989.744H58.0156V1052.47H64.5302V989.744Z" fill="#E6E7E8"/>
<path d="M241.949 984.623C231.141 1014.33 213.749 1040.14 191.561 1059.41C169.373 1078.67 143.189 1090.69 115.701 1094.24C88.2134 1097.78 60.413 1092.72 35.1576 1079.57C9.90211 1066.42 -11.8973 1045.66 -28 1019.42C-22.3621 1017.33 -16.3795 1016.85 -10.5507 1018.02C3.68476 1021.26 14.0682 1036.54 28.1763 1040.47C40.3724 1043.87 53.0894 1038.14 63.8843 1030.69C74.6793 1023.24 84.6693 1013.88 96.463 1008.92C104.289 1005.63 115.721 1006.54 117.637 1015.99C118.509 1020.3 117.374 1026.1 120.72 1028.2C147.233 1017.04 173.746 1005.88 200.259 994.72C208.853 991.106 217.479 987.476 226.413 985.256C231.501 983.999 236.985 983.277 241.949 984.623Z" fill="#E6E7E8"/>
<path d="M882.699 428.948C883.116 426.573 883.325 424.154 883.324 421.729C883.324 407.463 876.308 397.056 865.949 391.321C866.837 389.399 867.275 387.238 867.221 385.055C867.221 375.688 860.171 368.272 852.146 368.272C850.263 368.259 848.396 368.686 846.656 369.527C844.916 370.368 843.338 371.607 842.015 373.171C840.691 374.735 839.649 376.592 838.95 378.633C838.25 380.674 837.908 382.857 837.942 385.055C837.942 387.686 838.131 386.612 838.764 391.568C828.404 397.3 822.053 407.457 822.053 421.728C822.053 422.215 822.064 422.698 822.079 423.175C822.015 423.432 822.027 423.706 822.113 423.954C822.2 425.63 822.389 427.297 822.677 428.943C814.077 439.926 809.363 454.303 809.483 469.18C809.483 500.065 828.825 524.003 852.686 524.003C876.547 524.003 895.892 500.059 895.892 469.18C896.011 454.305 891.297 439.93 882.699 428.948V428.948Z" fill="url(#paint0_linear_32_1116)"/>
<path d="M881.114 429.799C882.419 422.367 881.552 414.638 878.65 407.849C875.748 401.06 870.979 395.602 865.106 392.348C866.112 389.9 866.57 387.193 866.436 384.482C866.302 381.772 865.582 379.144 864.342 376.846C863.103 374.549 861.384 372.655 859.347 371.343C857.31 370.03 855.021 369.342 852.694 369.342C850.368 369.342 848.079 370.03 846.042 371.343C844.005 372.655 842.286 374.549 841.047 376.846C839.807 379.144 839.087 381.772 838.953 384.482C838.819 387.193 839.277 389.9 840.282 392.348C835.315 395.093 831.118 399.428 828.179 404.847C825.241 410.267 823.681 416.55 823.682 422.963C823.682 423.424 823.691 423.884 823.708 424.337C823.647 424.58 823.658 424.84 823.739 425.075C823.822 426.663 824.001 428.242 824.274 429.8C816.129 440.198 811.663 453.812 811.776 467.899C811.776 497.152 830.096 520.867 852.696 520.867C875.296 520.867 893.617 497.152 893.617 467.899C893.72 453.812 889.253 440.202 881.114 429.799V429.799Z" fill="white"/>
<path d="M846.594 381.85C847.315 381.85 847.9 381.168 847.9 380.326C847.9 379.485 847.315 378.803 846.594 378.803C845.874 378.803 845.289 379.485 845.289 380.326C845.289 381.168 845.874 381.85 846.594 381.85Z" fill="#263238"/>
<path d="M857.044 381.85C857.765 381.85 858.349 381.168 858.349 380.326C858.349 379.485 857.765 378.803 857.044 378.803C856.323 378.803 855.738 379.485 855.738 380.326C855.738 381.168 856.323 381.85 857.044 381.85Z" fill="#263238"/>
<path d="M840.281 392.266C840.281 392.266 849.863 404.966 851.164 413.351L855.745 411.064L849.221 397.346C849.221 397.346 859.886 398.108 865.115 392.266H840.281Z" fill="#D4B874"/>
<path d="M850.73 385.194V399.084C850.73 399.222 850.754 399.359 850.799 399.487C850.844 399.614 850.911 399.73 850.995 399.828C851.078 399.926 851.178 400.003 851.287 400.056C851.397 400.109 851.514 400.136 851.632 400.136V400.136C851.86 400.137 852.08 400.037 852.247 399.857C852.414 399.677 852.517 399.429 852.534 399.164L853.474 385.274C853.485 385.129 853.469 384.982 853.428 384.845C853.388 384.707 853.323 384.58 853.238 384.473C853.153 384.366 853.05 384.281 852.936 384.222C852.821 384.164 852.697 384.134 852.572 384.135H851.632C851.513 384.135 851.396 384.162 851.286 384.216C851.176 384.269 851.076 384.347 850.993 384.445C850.909 384.544 850.842 384.661 850.798 384.789C850.753 384.918 850.73 385.055 850.73 385.194Z" fill="#FF6E40"/>
<path d="M861.762 369.793V361.317C861.762 360.687 861.628 360.067 861.371 359.512C861.115 358.958 860.745 358.487 860.293 358.141C859.842 357.795 859.324 357.585 858.787 357.531C858.249 357.476 857.708 357.579 857.213 357.829C855.979 358.471 854.64 358.789 853.289 358.763C851.939 358.736 850.609 358.365 849.395 357.675C848.922 357.41 848.401 357.281 847.876 357.301C847.351 357.32 846.839 357.486 846.381 357.786C845.923 358.085 845.533 358.509 845.246 359.021C844.958 359.534 844.78 360.119 844.727 360.729L843.894 369.796H841.133V376.084H864.453V369.793H861.762Z" fill="url(#paint1_linear_32_1116)"/>
<path d="M864.007 370.42H841.586V375.247H864.007V370.42Z" fill="#D4B874"/>
<path d="M849.683 358.474C850.789 359.104 852.001 359.442 853.231 359.467C854.462 359.491 855.682 359.2 856.806 358.615C857.258 358.389 857.749 358.298 858.238 358.348C858.727 358.399 859.198 358.59 859.608 358.905C860.017 359.22 860.354 359.649 860.587 360.153C860.82 360.657 860.943 361.22 860.944 361.793V370.93H844.633L845.435 361.258C845.484 360.703 845.646 360.169 845.908 359.702C846.17 359.236 846.525 358.85 846.942 358.577C847.359 358.304 847.826 358.152 848.304 358.135C848.782 358.117 849.257 358.234 849.688 358.475L849.683 358.474Z" fill="#D4B874"/>
<path d="M852.035 423.26C852.876 423.26 853.558 422.464 853.558 421.482C853.558 420.501 852.876 419.705 852.035 419.705C851.194 419.705 850.512 420.501 850.512 421.482C850.512 422.464 851.194 423.26 852.035 423.26Z" fill="#263238"/>
<path d="M852.035 429.102C852.876 429.102 853.558 428.306 853.558 427.324C853.558 426.343 852.876 425.547 852.035 425.547C851.194 425.547 850.512 426.343 850.512 427.324C850.512 428.306 851.194 429.102 852.035 429.102Z" fill="#263238"/>
<path d="M852.035 434.941C852.876 434.941 853.558 434.146 853.558 433.164C853.558 432.182 852.876 431.387 852.035 431.387C851.194 431.387 850.512 432.182 850.512 433.164C850.512 434.146 851.194 434.941 852.035 434.941Z" fill="#263238"/>
<path d="M852.035 440.785C852.876 440.785 853.558 439.989 853.558 439.008C853.558 438.026 852.876 437.23 852.035 437.23C851.194 437.23 850.512 438.026 850.512 439.008C850.512 439.989 851.194 440.785 852.035 440.785Z" fill="#263238"/>
<path d="M828.077 406.16C824.053 404.581 820.343 402.071 817.169 398.78C813.995 395.49 811.422 391.486 809.604 387.009C814.014 386.789 817.402 382.861 819.107 378.298C821.33 372.321 821.98 365.367 823.12 359.035C823.421 357.361 821.218 356.645 820.917 358.326C819.945 363.741 819.226 369.331 817.837 374.625C816.597 379.344 813.806 384.431 809.073 384.36C808.929 384.358 808.786 384.387 808.651 384.446C806.697 378.592 806.038 372.258 806.735 366.028C806.923 364.329 804.638 364.35 804.45 366.028C803.987 370.174 804.099 374.38 804.781 378.485C802.982 378.278 801.176 378.795 799.662 379.951C798.435 380.886 799.581 383.195 800.816 382.253C801.468 381.734 802.206 381.379 802.982 381.211C803.758 381.043 804.556 381.064 805.325 381.274C806.797 387.623 809.588 393.449 813.45 398.239C817.312 403.028 822.126 406.633 827.467 408.733C828.869 409.279 829.463 406.702 828.077 406.16Z" fill="url(#paint2_linear_32_1116)"/>
<path d="M828.051 404.968C823.481 403.175 819.267 400.324 815.663 396.587C812.058 392.85 809.136 388.303 807.071 383.218C812.078 382.955 815.929 378.505 817.864 373.325C820.398 366.537 821.133 358.65 822.423 351.445C822.761 349.544 820.263 348.73 819.92 350.641C818.816 356.789 817.995 363.139 816.425 369.15C815.022 374.51 811.849 380.287 806.473 380.189C806.309 380.186 806.146 380.219 805.992 380.287C803.773 373.638 803.024 366.444 803.817 359.369C804.042 357.44 801.436 357.462 801.224 359.369C800.692 364.083 800.813 368.867 801.585 373.536C799.54 373.302 797.488 373.89 795.769 375.203C794.375 376.256 795.677 378.887 797.078 377.819C797.82 377.228 798.659 376.825 799.542 376.633C800.424 376.442 801.332 376.467 802.206 376.707C803.88 383.917 807.051 390.535 811.439 395.973C815.827 401.412 821.297 405.504 827.364 407.886C828.953 408.511 829.629 405.575 828.051 404.968Z" fill="#795548"/>
<path d="M905.057 379.76C903.544 378.604 901.738 378.086 899.938 378.292C900.62 374.183 900.732 369.974 900.268 365.824C900.079 364.145 897.788 364.123 897.983 365.824C898.954 374.368 897.357 383.04 893.464 390.363C889.571 397.687 883.622 403.209 876.632 405.988C875.244 406.53 875.843 409.107 877.239 408.56C882.582 406.458 887.398 402.851 891.261 398.058C895.125 393.266 897.915 387.435 899.387 381.084C900.156 380.874 900.954 380.852 901.73 381.021C902.506 381.189 903.244 381.544 903.896 382.062C905.14 383.004 906.287 380.695 905.057 379.76Z" fill="url(#paint3_linear_32_1116)"/>
<path d="M912.384 371.8C910.486 370.349 908.221 369.7 905.964 369.958C906.817 364.812 906.955 359.539 906.373 354.342C906.136 352.237 903.271 352.212 903.509 354.342C904.729 365.048 902.728 375.916 897.849 385.094C892.969 394.271 885.513 401.188 876.751 404.666C875.011 405.345 875.757 408.574 877.512 407.889C884.208 405.256 890.245 400.738 895.087 394.733C899.929 388.728 903.428 381.422 905.274 373.463C906.239 373.198 907.241 373.17 908.215 373.382C909.19 373.593 910.116 374.039 910.935 374.69C912.489 375.865 913.926 372.972 912.384 371.8Z" fill="#795548"/>
<path d="M202.328 509.33H196.543L196.477 471.877H202.327L202.328 509.33Z" fill="#2E3B55"/>
<path d="M179.239 459.649L183.297 457.915L185.314 457.055C185.965 456.749 186.63 456.482 187.304 456.255C187.895 456.058 188.522 456.067 189.108 456.281C189.63 456.507 190.108 456.853 190.514 457.298C190.928 457.743 191.314 458.224 191.667 458.735C192.107 459.351 192.538 459.973 192.974 460.594C194.767 463.154 196.549 465.725 198.319 468.306C200.09 470.887 201.848 473.48 203.594 476.085C205.344 478.695 207.083 481.316 208.81 483.948L209.443 484.917C209.556 485.094 209.823 484.916 209.705 484.738C207.966 482.079 206.214 479.432 204.45 476.795C202.687 474.159 200.907 471.528 199.11 468.902C197.318 466.281 195.514 463.672 193.699 461.074C193.249 460.427 192.795 459.78 192.34 459.135C191.957 458.59 191.578 458.039 191.159 457.533C190.801 457.03 190.362 456.614 189.866 456.31C189.37 456.005 188.828 455.818 188.27 455.758C187.595 455.785 186.93 455.956 186.307 456.262C185.63 456.548 184.954 456.841 184.278 457.13L180.188 458.876L179.165 459.313C178.984 459.39 179.063 459.731 179.245 459.653L179.239 459.649Z" fill="#E6E7E8"/>
<path d="M190.361 459.672C190.006 459.061 189.51 458.578 188.931 458.279L188.367 458.306C192.621 467.072 198.365 474.731 205.247 480.813L190.361 459.672Z" fill="#E6E7E8"/>
<path d="M208.924 454.225C210.288 455.223 211.862 455.765 213.472 455.79C215.083 455.815 216.668 455.323 218.055 454.368L218.384 452.526C218.552 452.709 218.752 452.848 218.97 452.933C219.188 453.019 219.419 453.05 219.648 453.023C219.876 452.996 220.098 452.913 220.297 452.779C220.496 452.645 220.668 452.463 220.802 452.245C218.181 445.721 214.334 439.97 209.546 435.421C210.252 435.901 211.078 436.08 211.885 435.928C212.691 435.775 213.427 435.3 213.966 434.584C215.53 433.967 217.01 433.094 218.363 431.991C213.719 423.285 204.866 416.368 202.761 406.412C196.43 414.346 195.719 417.141 189.388 425.076C189.388 425.076 183.393 431.391 182.099 434.783C182.417 435.177 185.263 436.108 185.368 436.875C186.457 436.968 187.551 436.786 188.574 436.342C189.598 435.898 190.527 435.202 191.3 434.301C187.23 439.349 183.092 444.514 180.6 450.804C180.318 451.342 180.228 451.987 180.35 452.601C180.433 452.827 180.585 453.009 180.776 453.111C180.968 453.213 181.185 453.227 181.385 453.151C180.971 453.617 180.638 454.173 180.406 454.788C181.129 455.326 181.986 455.565 182.84 455.465C183.694 455.364 184.493 454.931 185.11 454.235L184.068 456.506C185.251 457.009 186.506 457.235 187.763 457.171C189.021 457.108 190.255 456.756 191.396 456.136C188.646 458.149 181.771 465.128 180.273 468.489C179.596 470.012 186.561 471.847 188.128 471.778C189.691 471.578 191.204 471.011 192.575 470.112C192.506 470.865 192.629 471.625 192.93 472.297C193.705 472.516 194.51 472.553 195.297 472.404C196.084 472.255 196.838 471.925 197.515 471.431C197.43 473.468 200.438 474.274 201.122 472.398C200.865 473.501 202.115 474.183 203.079 474.383C205.829 474.953 209.149 475.304 210.94 472.797C212.013 473.958 213.424 474.6 214.888 474.593C216.352 474.586 217.759 473.93 218.824 472.759C218.786 472.882 218.771 473.014 218.779 473.145C218.787 473.275 218.819 473.403 218.872 473.519C218.925 473.634 218.999 473.736 219.087 473.817C219.176 473.897 219.278 473.955 219.387 473.987C219.941 474.028 220.486 473.813 220.905 473.389C222.972 471.776 219.292 468.98 221.356 467.367C215.309 462.588 214.993 458.997 208.924 454.225Z" fill="#2E3B55"/>
<path d="M192.129 427.322C192.593 427.322 192.969 426.883 192.969 426.341C192.969 425.8 192.593 425.361 192.129 425.361C191.665 425.361 191.289 425.8 191.289 426.341C191.289 426.883 191.665 427.322 192.129 427.322Z" fill="#E6E7E8"/>
<path d="M196.508 451.058C196.972 451.058 197.348 450.619 197.348 450.078C197.348 449.536 196.972 449.098 196.508 449.098C196.044 449.098 195.668 449.536 195.668 450.078C195.668 450.619 196.044 451.058 196.508 451.058Z" fill="white"/>
<path d="M200.586 433.204C201.05 433.204 201.426 432.766 201.426 432.224C201.426 431.683 201.05 431.244 200.586 431.244C200.122 431.244 199.746 431.683 199.746 432.224C199.746 432.766 200.122 433.204 200.586 433.204Z" fill="#E6E7E8"/>
<path d="M185.406 450.075C185.87 450.075 186.246 449.637 186.246 449.095C186.246 448.554 185.87 448.115 185.406 448.115C184.942 448.115 184.566 448.554 184.566 449.095C184.566 449.637 184.942 450.075 185.406 450.075Z" fill="white"/>
<path d="M177.845 427.784C177.845 428.044 177.756 428.293 177.599 428.477C177.441 428.661 177.227 428.764 177.004 428.764C176.782 428.764 176.568 428.661 176.41 428.477C176.253 428.293 176.164 428.044 176.164 427.784C176.164 427.242 187.021 403.131 187.485 403.131C187.95 403.131 177.845 427.242 177.845 427.784Z" fill="#E6E7E8"/>
<path d="M200.586 462.716C201.05 462.716 201.426 462.277 201.426 461.736C201.426 461.195 201.05 460.756 200.586 460.756C200.122 460.756 199.746 461.195 199.746 461.736C199.746 462.277 200.122 462.716 200.586 462.716Z" fill="#E6E7E8"/>
<path d="M220.737 476.589C222.054 476.589 223.122 475.343 223.122 473.805C223.122 472.268 222.054 471.021 220.737 471.021C219.42 471.021 218.352 472.268 218.352 473.805C218.352 475.343 219.42 476.589 220.737 476.589Z" fill="#D4B874"/>
<path d="M179.753 473.017C181.07 473.017 182.138 471.77 182.138 470.233C182.138 468.696 181.07 467.449 179.753 467.449C178.435 467.449 177.367 468.696 177.367 470.233C177.367 471.77 178.435 473.017 179.753 473.017Z" fill="#FF6584"/>
<path d="M178.346 454.82C179.664 454.82 180.732 453.573 180.732 452.036C180.732 450.498 179.664 449.252 178.346 449.252C177.029 449.252 175.961 450.498 175.961 452.036C175.961 453.573 177.029 454.82 178.346 454.82Z" fill="#D4B874"/>
<path d="M220.737 453.843C222.054 453.843 223.122 452.597 223.122 451.059C223.122 449.522 222.054 448.275 220.737 448.275C219.42 448.275 218.352 449.522 218.352 451.059C218.352 452.597 219.42 453.843 220.737 453.843Z" fill="#D4B874"/>
<path d="M218.366 434.777C219.683 434.777 220.751 433.53 220.751 431.993C220.751 430.455 219.683 429.209 218.366 429.209C217.048 429.209 215.98 430.455 215.98 431.993C215.98 433.53 217.048 434.777 218.366 434.777Z" fill="#FF6584"/>
<path d="M200.906 415.945C201.37 415.945 201.746 415.506 201.746 414.964C201.746 414.423 201.37 413.984 200.906 413.984C200.442 413.984 200.066 414.423 200.066 414.964C200.066 415.506 200.442 415.945 200.906 415.945Z" fill="white"/>
<path d="M194.402 418.198C195.925 419.758 197.778 420.815 199.768 421.259C201.759 421.704 203.815 421.521 205.724 420.728C206.803 420.283 207.812 419.633 208.709 418.805L208.359 418.489C207.205 421.293 205.313 423.592 202.96 425.051C200.464 426.582 197.589 427.054 194.828 426.387C193.228 426.007 191.709 425.262 190.357 424.195C190.206 424.075 189.955 424.279 190.029 424.49C191.407 428.372 192.977 432.305 195.61 435.262C196.72 436.618 198.075 437.667 199.577 438.333C201.079 438.999 202.689 439.265 204.29 439.111C206.027 438.888 207.648 437.989 208.892 436.557L208.541 436.505C208.927 437.545 209.109 438.672 209.073 439.804C209.038 440.936 208.787 442.045 208.338 443.05C207.402 445.225 205.814 446.925 203.877 447.827C201.808 448.774 199.58 449.149 197.367 448.923C192.552 448.524 187.997 446.22 184.457 442.391C184.418 442.35 184.367 442.327 184.315 442.325C184.263 442.323 184.211 442.342 184.17 442.38C184.128 442.417 184.099 442.47 184.088 442.53C184.076 442.589 184.083 442.652 184.106 442.707C185.431 445.888 186.759 449.075 188.343 452.095C189.793 454.95 191.565 457.566 193.61 459.872C195.534 462.035 197.804 463.734 200.291 464.872C202.659 465.924 205.221 466.242 207.725 465.792C210.151 465.384 212.412 464.122 214.207 462.175C214.433 461.923 214.643 461.66 214.846 461.385L214.465 461.201C214.209 463.66 213.133 465.902 211.47 467.441C209.619 469.126 207.396 470.16 205.059 470.423C202.692 470.748 200.298 470.67 197.951 470.192C195.671 469.751 193.446 468.982 191.329 467.903C188.931 466.681 186.695 465.067 184.688 463.109C184.469 462.894 184.151 463.261 184.372 463.477C188.07 467.084 192.498 469.526 197.234 470.571C199.627 471.118 202.074 471.268 204.503 471.017C206.945 470.834 209.297 469.878 211.309 468.254C212.299 467.439 213.132 466.391 213.754 465.177C214.375 463.963 214.771 462.61 214.916 461.206C214.915 461.155 214.901 461.106 214.877 461.064C214.852 461.022 214.817 460.989 214.777 460.969C214.737 460.95 214.692 460.944 214.649 460.954C214.607 460.963 214.567 460.987 214.535 461.022C212.928 463.111 210.789 464.544 208.432 465.111C206.03 465.716 203.533 465.569 201.195 464.685C198.704 463.709 196.414 462.141 194.468 460.08C192.422 457.914 190.644 455.425 189.187 452.685C187.637 449.756 186.232 446.725 184.98 443.608L184.496 442.447L184.146 442.763C187.625 446.52 192.061 448.848 196.778 449.391C201.111 449.878 206.179 448.611 208.485 443.859C209.076 442.724 209.426 441.441 209.504 440.116C209.583 438.792 209.388 437.464 208.936 436.246C208.918 436.212 208.895 436.183 208.866 436.161C208.838 436.139 208.805 436.125 208.772 436.12C208.738 436.115 208.704 436.119 208.671 436.132C208.639 436.144 208.61 436.165 208.585 436.193C207.486 437.382 206.124 438.19 204.653 438.526C203.182 438.861 201.66 438.711 200.258 438.093C197.221 436.669 194.7 434.064 193.121 430.718C192.099 428.68 191.213 426.553 190.47 424.357L190.142 424.651C191.657 425.853 193.377 426.659 195.183 427.012C196.99 427.366 198.841 427.259 200.609 426.699C202.377 426.139 204.02 425.14 205.426 423.769C206.832 422.399 207.968 420.69 208.754 418.759C208.778 418.704 208.785 418.642 208.773 418.582C208.762 418.522 208.732 418.469 208.691 418.432C208.649 418.395 208.598 418.375 208.546 418.377C208.493 418.379 208.443 418.403 208.404 418.443C206.851 419.797 205.018 420.646 203.092 420.901C201.166 421.157 199.217 420.81 197.443 419.897C196.448 419.388 195.531 418.692 194.729 417.837C194.518 417.61 194.201 417.977 194.413 418.205L194.402 418.198Z" fill="#D4B874"/>
<path d="M162.634 419.48C163.362 419.48 163.952 418.792 163.952 417.942C163.952 417.093 163.362 416.404 162.634 416.404C161.906 416.404 161.316 417.093 161.316 417.942C161.316 418.792 161.906 419.48 162.634 419.48Z" fill="white"/>
<path d="M183.193 427.099C183.921 427.099 184.511 426.411 184.511 425.561C184.511 424.712 183.921 424.023 183.193 424.023C182.465 424.023 181.875 424.712 181.875 425.561C181.875 426.411 182.465 427.099 183.193 427.099Z" fill="white"/>
<path d="M240.919 395.486C241.647 395.486 242.237 394.797 242.237 393.948C242.237 393.099 241.647 392.41 240.919 392.41C240.192 392.41 239.602 393.099 239.602 393.948C239.602 394.797 240.192 395.486 240.919 395.486Z" fill="white"/>
<path d="M181.876 407.484C182.604 407.484 183.194 406.795 183.194 405.946C183.194 405.097 182.604 404.408 181.876 404.408C181.149 404.408 180.559 405.097 180.559 405.946C180.559 406.795 181.149 407.484 181.876 407.484Z" fill="white"/>
<path d="M243.556 447.795C244.284 447.795 244.874 447.106 244.874 446.257C244.874 445.407 244.284 444.719 243.556 444.719C242.828 444.719 242.238 445.407 242.238 446.257C242.238 447.106 242.828 447.795 243.556 447.795Z" fill="#E6E7E8"/>
<path d="M264.728 415.316C265.456 415.316 266.046 414.628 266.046 413.778C266.046 412.929 265.456 412.24 264.728 412.24C264 412.24 263.41 412.929 263.41 413.778C263.41 414.628 264 415.316 264.728 415.316Z" fill="#E6E7E8"/>
<path d="M178.853 457.074C179.581 457.074 180.171 456.385 180.171 455.536C180.171 454.687 179.581 453.998 178.853 453.998C178.125 453.998 177.535 454.687 177.535 455.536C177.535 456.385 178.125 457.074 178.853 457.074Z" fill="white"/>
<path d="M170.279 398.56C171.007 398.56 171.597 397.872 171.597 397.022C171.597 396.173 171.007 395.484 170.279 395.484C169.551 395.484 168.961 396.173 168.961 397.022C168.961 397.872 169.551 398.56 170.279 398.56Z" fill="white"/>
<path d="M211.654 407.484C212.382 407.484 212.972 406.795 212.972 405.946C212.972 405.097 212.382 404.408 211.654 404.408C210.926 404.408 210.336 405.097 210.336 405.946C210.336 406.795 210.926 407.484 211.654 407.484Z" fill="white"/>
<path d="M207.701 432.08C208.428 432.08 209.018 431.391 209.018 430.542C209.018 429.692 208.428 429.004 207.701 429.004C206.973 429.004 206.383 429.692 206.383 430.542C206.383 431.391 206.973 432.08 207.701 432.08Z" fill="white"/>
<path d="M223.376 462.297C224.104 462.297 224.694 461.608 224.694 460.759C224.694 459.909 224.104 459.221 223.376 459.221C222.649 459.221 222.059 459.909 222.059 460.759C222.059 461.608 222.649 462.297 223.376 462.297Z" fill="white"/>
<path d="M243.556 479.226C244.284 479.226 244.874 478.538 244.874 477.688C244.874 476.839 244.284 476.15 243.556 476.15C242.828 476.15 242.238 476.839 242.238 477.688C242.238 478.538 242.828 479.226 243.556 479.226Z" fill="white"/>
<path d="M211.494 479.863C212.221 479.863 212.811 479.174 212.811 478.325C212.811 477.476 212.221 476.787 211.494 476.787C210.766 476.787 210.176 477.476 210.176 478.325C210.176 479.174 210.766 479.863 211.494 479.863Z" fill="white"/>
<path d="M174.681 493.146C175.409 493.146 175.999 492.458 175.999 491.608C175.999 490.759 175.409 490.07 174.681 490.07C173.953 490.07 173.363 490.759 173.363 491.608C173.363 492.458 173.953 493.146 174.681 493.146Z" fill="white"/>
<path d="M218.779 419.48C219.507 419.48 220.097 418.792 220.097 417.942C220.097 417.093 219.507 416.404 218.779 416.404C218.051 416.404 217.461 417.093 217.461 417.942C217.461 418.792 218.051 419.48 218.779 419.48Z" fill="white"/>
<defs>
<linearGradient id="paint0_linear_32_1116" x1="852.687" y1="524.003" x2="852.687" y2="368.271" gradientUnits="userSpaceOnUse">
<stop stop-color="#808080" stop-opacity="0.251"/>
<stop offset="0.54" stop-color="#808080" stop-opacity="0.122"/>
<stop offset="1" stop-color="#808080" stop-opacity="0.102"/>
</linearGradient>
<linearGradient id="paint1_linear_32_1116" x1="852.793" y1="376.084" x2="852.793" y2="357.299" gradientUnits="userSpaceOnUse">
<stop stop-color="#808080" stop-opacity="0.251"/>
<stop offset="0.54" stop-color="#808080" stop-opacity="0.122"/>
<stop offset="1" stop-color="#808080" stop-opacity="0.102"/>
</linearGradient>
<linearGradient id="paint2_linear_32_1116" x1="814.001" y1="408.808" x2="814.001" y2="357.367" gradientUnits="userSpaceOnUse">
<stop stop-color="#808080" stop-opacity="0.251"/>
<stop offset="0.54" stop-color="#808080" stop-opacity="0.122"/>
<stop offset="1" stop-color="#808080" stop-opacity="0.102"/>
</linearGradient>
<linearGradient id="paint3_linear_32_1116" x1="890.714" y1="408.635" x2="890.714" y2="364.557" gradientUnits="userSpaceOnUse">
<stop stop-color="#808080" stop-opacity="0.251"/>
<stop offset="0.54" stop-color="#808080" stop-opacity="0.122"/>
<stop offset="1" stop-color="#808080" stop-opacity="0.102"/>
</linearGradient>
</defs>
</svg>
