<svg width="391" height="389" viewBox="0 0 391 389" fill="none" xmlns="http://www.w3.org/2000/svg">
<g filter="url(#filter0_d_1879_4523)">
<g clip-path="url(#clip0_1879_4523)">
<rect x="63" y="25" width="261" height="297" rx="14.343" fill="white"/>
<path d="M86.0978 55.1925C87.207 55.1925 88.176 55.5176 89.0047 56.1678C89.8334 56.818 90.2478 57.6595 90.2478 58.6922C90.2478 59.2404 90.0948 59.693 89.7888 60.05C89.4828 60.407 89.1067 60.5854 88.6605 60.5854C88.2142 60.5854 87.8573 60.5281 87.5895 60.4133C87.6278 60.2093 87.6469 59.9926 87.6469 59.7631C87.6341 58.9599 87.4365 58.3097 87.054 57.8125C86.6716 57.3025 86.1106 57.0475 85.3711 57.0475C84.6444 57.0475 83.9687 57.2834 83.344 57.7551C82.9743 58.2906 82.6874 58.9918 82.4834 59.8587C82.2794 60.7257 82.1774 61.5799 82.1774 62.4214C82.1774 63.8238 82.4452 65.0031 82.9806 65.9593C83.5289 66.9027 84.3767 67.3745 85.5241 67.3745C86.5823 67.3745 87.2963 66.9729 87.666 66.1697C88.0102 65.4684 88.1824 64.5377 88.1824 63.3776C88.8326 63.3776 89.3744 63.4987 89.8079 63.7409C90.2414 63.9704 90.4581 64.3529 90.4581 64.8883C90.4581 66.1378 89.9099 67.1768 88.8135 68.0056C87.717 68.8215 86.4803 69.2295 85.1034 69.2295C83.3057 69.2295 81.9416 68.6366 81.0109 67.451C80.0802 66.2525 79.6148 64.6334 79.6148 62.5935C79.6148 60.5536 80.1949 58.8133 81.3551 57.3726C82.528 55.9192 84.109 55.1925 86.0978 55.1925ZM95.3214 69.2295C93.919 69.2295 92.8863 68.8215 92.2233 68.0056C91.5604 67.1768 91.2289 66.0294 91.2289 64.5632C91.2289 63.0843 91.6688 61.803 92.5485 60.7193C93.4282 59.6356 94.5565 59.0938 95.9334 59.0938C98.7637 59.0938 100.179 60.6874 100.179 63.8748C100.179 65.3664 99.7199 66.635 98.802 67.6804C97.884 68.7131 96.7239 69.2295 95.3214 69.2295ZM93.9445 61.1974C93.715 61.9369 93.6003 62.6763 93.6003 63.4158C93.6003 64.1553 93.6258 64.729 93.6768 65.137C93.7278 65.5449 93.8234 65.9529 93.9636 66.3609C94.2569 67.1896 94.8306 67.6039 95.6848 67.6039C96.5517 67.6039 97.1191 67.3745 97.3868 66.9155C97.6673 66.4565 97.8076 65.7489 97.8076 64.7927C97.8076 62.0771 97.1637 60.7193 95.876 60.7193C95.1366 60.7193 94.4927 60.8787 93.9445 61.1974ZM110.595 61.2739L110.404 65.4812C110.404 66.6414 110.582 67.7761 110.939 68.8853C110.582 69.0382 110.174 69.1147 109.715 69.1147C108.631 69.1147 108.09 68.5092 108.09 67.298C108.09 66.7497 108.16 65.8318 108.3 64.5441C108.44 63.2437 108.51 62.4277 108.51 62.0962C108.51 61.4588 108.223 61.14 107.65 61.14C107.229 61.14 106.751 61.446 106.215 62.058C105.693 62.6572 105.24 63.3329 104.858 64.0851C104.488 64.8246 104.271 65.4366 104.207 65.921C104.258 66.9155 104.386 67.8653 104.59 68.7705C104.182 68.9235 103.755 69 103.309 69C102.875 69 102.518 68.898 102.238 68.694C101.97 68.4773 101.836 68.184 101.836 67.8143C101.836 67.4318 101.893 66.7561 102.008 65.7872C102.123 64.8055 102.18 63.8365 102.18 62.8803C102.18 61.9114 102.034 60.8022 101.74 59.5528C102.148 59.3998 102.582 59.3233 103.041 59.3233C103.5 59.3233 103.87 59.4571 104.15 59.7249C104.443 59.9926 104.59 60.3241 104.59 60.7193C104.59 61.1145 104.539 61.7456 104.437 62.6126C104.921 61.7074 105.552 60.9169 106.33 60.2412C107.108 59.5528 107.886 59.2085 108.663 59.2085C109.951 59.2085 110.595 59.897 110.595 61.2739ZM113.634 56.512C114.042 56.3081 114.457 56.2061 114.877 56.2061C115.298 56.2061 115.636 56.3399 115.891 56.6077C116.159 56.8754 116.293 57.2706 116.293 57.7933C116.293 58.3161 116.261 58.9089 116.197 59.5719C117.153 59.5719 118.065 59.438 118.932 59.1703C119.085 59.4253 119.161 59.7249 119.161 60.0691C119.161 60.4006 119.008 60.6747 118.702 60.8914C118.409 61.0954 118.109 61.1974 117.803 61.1974C117.497 61.1974 117.153 61.1592 116.771 61.0827C116.388 61.0062 116.14 60.9616 116.025 60.9488C116.012 61.0635 115.974 61.293 115.91 61.6373C115.859 61.9815 115.814 62.2811 115.776 62.5361C115.674 63.2373 115.623 63.9895 115.623 64.7927C115.623 66.5394 116.191 67.4127 117.325 67.4127C117.746 67.4127 118.23 67.2661 118.779 66.9729C118.944 67.2151 119.027 67.5275 119.027 67.9099C119.027 68.2924 118.817 68.592 118.396 68.8088C117.988 69.0127 117.497 69.1147 116.924 69.1147C114.68 69.1147 113.558 67.8398 113.558 65.2899C113.558 64.9202 113.609 64.2509 113.711 63.2819C113.826 62.313 113.883 61.5289 113.883 60.9297C113.271 60.9679 112.78 61.0763 112.41 61.2548C112.257 61.0253 112.181 60.7639 112.181 60.4707C112.181 60.1647 112.289 59.9161 112.506 59.7249C112.723 59.5209 112.99 59.4189 113.309 59.4189C113.628 59.4189 113.838 59.4253 113.94 59.438C113.953 59.336 113.959 59.2021 113.959 59.0364C113.959 58.0802 113.851 57.2388 113.634 56.512ZM122.155 64.6589C122.155 65.5768 122.301 66.3035 122.594 66.839C122.888 67.3617 123.379 67.6231 124.067 67.6231C124.755 67.6231 125.291 67.3936 125.673 66.9346C126.069 66.4629 126.266 65.8955 126.266 65.2326C126.7 65.2326 127.076 65.3409 127.395 65.5577C127.713 65.7744 127.873 66.074 127.873 66.4565C127.873 67.247 127.452 67.9099 126.611 68.4454C125.769 68.9681 124.883 69.2295 123.952 69.2295C122.499 69.2295 121.447 68.8406 120.797 68.0629C120.147 67.2725 119.821 66.1059 119.821 64.5632C119.821 63.0206 120.255 61.7265 121.122 60.6811C122.002 59.6229 123.168 59.0938 124.622 59.0938C125.616 59.0938 126.413 59.3233 127.012 59.7822C127.624 60.2285 127.93 60.9297 127.93 61.8859C127.93 62.8293 127.497 63.5433 126.63 64.0278C125.775 64.4995 124.73 64.7354 123.493 64.7354C123.06 64.7354 122.614 64.7099 122.155 64.6589ZM122.174 63.1481C122.556 63.2246 122.958 63.2628 123.379 63.2628C124.297 63.2628 125.068 63.0907 125.693 62.7465C125.769 62.4405 125.807 62.1982 125.807 62.0197C125.807 61.5735 125.648 61.2357 125.329 61.0062C125.01 60.7767 124.571 60.6619 124.01 60.6619C123.461 60.6619 122.964 60.8404 122.518 61.1974C122.288 61.8604 122.174 62.5106 122.174 63.1481ZM131.436 65.5194C131.398 65.6979 131.379 65.8445 131.379 65.9593C131.379 66.482 131.532 66.8836 131.838 67.1641C132.156 67.4446 132.577 67.5848 133.1 67.5848C133.635 67.5848 134.075 67.4892 134.419 67.298C134.776 67.094 134.955 66.7944 134.955 66.3991C134.955 66.0039 134.764 65.6916 134.381 65.4621C134.011 65.2198 133.559 65.0286 133.023 64.8883C132.501 64.7481 131.971 64.5951 131.436 64.4294C130.901 64.2509 130.442 63.9768 130.059 63.607C129.689 63.2373 129.504 62.772 129.504 62.211C129.504 61.3313 129.97 60.5918 130.901 59.9926C131.831 59.3934 132.807 59.0938 133.827 59.0938C134.948 59.0938 135.803 59.3233 136.389 59.7822C136.733 60.05 136.905 60.407 136.905 60.8532C136.905 61.2867 136.733 61.6436 136.389 61.9241C136.058 62.1919 135.65 62.3257 135.165 62.3257C135.063 62.3257 134.936 62.313 134.783 62.2875C134.821 62.1217 134.84 61.9751 134.84 61.8476C134.84 61.4779 134.7 61.1974 134.419 61.0062C134.139 60.8149 133.756 60.7193 133.272 60.7193C132.8 60.7193 132.367 60.8149 131.971 61.0062C131.819 61.2102 131.742 61.4715 131.742 61.7903C131.742 62.109 131.927 62.3704 132.297 62.5743C132.666 62.7656 133.113 62.9377 133.635 63.0907C134.171 63.2309 134.706 63.3967 135.242 63.5879C135.777 63.7664 136.23 64.0533 136.599 64.4485C136.969 64.831 137.154 65.3154 137.154 65.9019C137.154 66.8581 136.676 67.6549 135.72 68.2924C134.776 68.9171 133.801 69.2295 132.794 69.2295C131.787 69.2295 130.952 69.051 130.289 68.694C129.638 68.3243 129.313 67.7697 129.313 67.0302C129.313 66.5713 129.479 66.2015 129.81 65.921C130.155 65.6278 130.569 65.4812 131.054 65.4812C131.156 65.4812 131.283 65.4939 131.436 65.5194ZM139.183 56.512C139.591 56.3081 140.005 56.2061 140.426 56.2061C140.847 56.2061 141.184 56.3399 141.439 56.6077C141.707 56.8754 141.841 57.2706 141.841 57.7933C141.841 58.3161 141.809 58.9089 141.745 59.5719C142.702 59.5719 143.613 59.438 144.48 59.1703C144.633 59.4253 144.71 59.7249 144.71 60.0691C144.71 60.4006 144.557 60.6747 144.251 60.8914C143.957 61.0954 143.658 61.1974 143.352 61.1974C143.046 61.1974 142.702 61.1592 142.319 61.0827C141.937 61.0062 141.688 60.9616 141.573 60.9488C141.56 61.0635 141.522 61.293 141.458 61.6373C141.407 61.9815 141.363 62.2811 141.325 62.5361C141.223 63.2373 141.172 63.9895 141.172 64.7927C141.172 66.5394 141.739 67.4127 142.874 67.4127C143.294 67.4127 143.779 67.2661 144.327 66.9729C144.493 67.2151 144.576 67.5275 144.576 67.9099C144.576 68.2924 144.365 68.592 143.945 68.8088C143.537 69.0127 143.046 69.1147 142.472 69.1147C140.228 69.1147 139.106 67.8398 139.106 65.2899C139.106 64.9202 139.157 64.2509 139.259 63.2819C139.374 62.313 139.431 61.5289 139.431 60.9297C138.819 60.9679 138.329 61.0763 137.959 61.2548C137.806 61.0253 137.729 60.7639 137.729 60.4707C137.729 60.1647 137.838 59.9161 138.054 59.7249C138.271 59.5209 138.539 59.4189 138.858 59.4189C139.176 59.4189 139.387 59.4253 139.489 59.438C139.501 59.336 139.508 59.2021 139.508 59.0364C139.508 58.0802 139.399 57.2388 139.183 56.512ZM151.532 55.6515C151.94 55.4985 152.38 55.422 152.852 55.422C153.986 55.422 154.554 55.9383 154.554 56.971C154.554 57.532 154.49 58.4563 154.363 59.744C154.235 61.0189 154.171 62.3449 154.171 63.7218C154.171 65.0987 154.216 66.2398 154.305 67.145C154.649 67.1832 154.994 67.2023 155.338 67.2023C157.021 67.2023 158.5 66.9219 159.775 66.3609C159.928 66.7051 160.004 67.094 160.004 67.5275C160.004 67.9609 159.851 68.337 159.545 68.6558C159.252 68.9618 158.889 69.1147 158.455 69.1147C157.55 69.1147 155.567 69.0382 152.508 68.8853C152.265 68.8725 152.055 68.8024 151.876 68.6749C151.698 68.5346 151.609 68.3625 151.609 68.1585C151.609 67.4828 151.66 66.3418 151.762 64.7354C151.876 63.1289 151.934 61.65 151.934 60.2986C151.934 58.9344 151.8 57.3854 151.532 55.6515ZM162.924 64.6589C162.924 65.5768 163.07 66.3035 163.364 66.839C163.657 67.3617 164.148 67.6231 164.836 67.6231C165.525 67.6231 166.06 67.3936 166.443 66.9346C166.838 66.4629 167.035 65.8955 167.035 65.2326C167.469 65.2326 167.845 65.3409 168.164 65.5577C168.483 65.7744 168.642 66.074 168.642 66.4565C168.642 67.247 168.221 67.9099 167.38 68.4454C166.538 68.9681 165.652 69.2295 164.721 69.2295C163.268 69.2295 162.216 68.8406 161.566 68.0629C160.916 67.2725 160.591 66.1059 160.591 64.5632C160.591 63.0206 161.024 61.7265 161.891 60.6811C162.771 59.6229 163.937 59.0938 165.391 59.0938C166.385 59.0938 167.182 59.3233 167.781 59.7822C168.393 60.2285 168.699 60.9297 168.699 61.8859C168.699 62.8293 168.266 63.5433 167.399 64.0278C166.545 64.4995 165.499 64.7354 164.262 64.7354C163.829 64.7354 163.383 64.7099 162.924 64.6589ZM162.943 63.1481C163.325 63.2246 163.727 63.2628 164.148 63.2628C165.066 63.2628 165.837 63.0907 166.462 62.7465C166.538 62.4405 166.576 62.1982 166.576 62.0197C166.576 61.5735 166.417 61.2357 166.098 61.0062C165.78 60.7767 165.34 60.6619 164.779 60.6619C164.231 60.6619 163.733 60.8404 163.287 61.1974C163.058 61.8604 162.943 62.5106 162.943 63.1481ZM177.981 65.9784C177.534 66.8454 176.973 67.5848 176.298 68.1968C175.622 68.8088 174.946 69.1147 174.271 69.1147C173.595 69.1147 173.072 68.8853 172.702 68.4263C172.345 67.9546 172.09 67.3553 171.937 66.6286C171.784 65.8892 171.644 65.1306 171.517 64.3529C171.402 63.5752 171.198 62.8166 170.905 62.0771C170.612 61.3377 170.21 60.7831 169.7 60.4133C169.866 60.1073 170.114 59.8524 170.446 59.6484C170.777 59.4316 171.134 59.3233 171.517 59.3233C172.116 59.3233 172.6 59.7121 172.97 60.4898C173.34 61.2548 173.576 62.1026 173.678 63.0333C173.792 63.964 173.914 64.8692 174.041 65.7489C174.181 66.6159 174.341 67.1131 174.519 67.2406C174.953 67.2151 175.329 66.941 175.648 66.4183C175.979 65.8828 176.221 65.239 176.374 64.4867C176.655 63.1098 176.795 62.0325 176.795 61.2548C176.795 60.4771 176.757 59.8779 176.68 59.4571C177.126 59.3679 177.509 59.3233 177.828 59.3233C178.924 59.3233 179.472 59.846 179.472 60.8914C179.472 61.5544 179.332 62.3512 179.052 63.2819C178.784 64.1999 178.427 65.0987 177.981 65.9784ZM182.384 64.6589C182.384 65.5768 182.531 66.3035 182.824 66.839C183.117 67.3617 183.608 67.6231 184.296 67.6231C184.985 67.6231 185.52 67.3936 185.903 66.9346C186.298 66.4629 186.496 65.8955 186.496 65.2326C186.929 65.2326 187.305 65.3409 187.624 65.5577C187.943 65.7744 188.102 66.074 188.102 66.4565C188.102 67.247 187.681 67.9099 186.84 68.4454C185.998 68.9681 185.112 69.2295 184.182 69.2295C182.728 69.2295 181.676 68.8406 181.026 68.0629C180.376 67.2725 180.051 66.1059 180.051 64.5632C180.051 63.0206 180.484 61.7265 181.351 60.6811C182.231 59.6229 183.398 59.0938 184.851 59.0938C185.845 59.0938 186.642 59.3233 187.241 59.7822C187.853 60.2285 188.159 60.9297 188.159 61.8859C188.159 62.8293 187.726 63.5433 186.859 64.0278C186.005 64.4995 184.959 64.7354 183.723 64.7354C183.289 64.7354 182.843 64.7099 182.384 64.6589ZM182.403 63.1481C182.786 63.2246 183.187 63.2628 183.608 63.2628C184.526 63.2628 185.297 63.0907 185.922 62.7465C185.998 62.4405 186.037 62.1982 186.037 62.0197C186.037 61.5735 185.877 61.2357 185.559 61.0062C185.24 60.7767 184.8 60.6619 184.239 60.6619C183.691 60.6619 183.194 60.8404 182.747 61.1974C182.518 61.8604 182.403 62.5106 182.403 63.1481ZM190.174 54.8865C190.582 54.7335 191.002 54.657 191.436 54.657C191.869 54.657 192.226 54.8036 192.507 55.0969C192.8 55.3774 192.947 55.7662 192.947 56.2634C192.947 56.7479 192.877 57.7296 192.736 59.2085C192.609 60.6747 192.545 61.8285 192.545 62.67C192.545 64.7481 192.692 66.7816 192.985 68.7705C192.577 68.9235 192.143 69 191.684 69C190.703 69 190.212 68.5219 190.212 67.5657C190.212 67.1067 190.282 66.2079 190.422 64.8692C190.563 63.5178 190.633 62.4341 190.633 61.6181C190.633 58.9025 190.48 56.6587 190.174 54.8865ZM196.801 65.5194C196.763 65.6979 196.744 65.8445 196.744 65.9593C196.744 66.482 196.897 66.8836 197.203 67.1641C197.522 67.4446 197.942 67.5848 198.465 67.5848C199 67.5848 199.44 67.4892 199.785 67.298C200.142 67.094 200.32 66.7944 200.32 66.3991C200.32 66.0039 200.129 65.6916 199.746 65.4621C199.377 65.2198 198.924 65.0286 198.388 64.8883C197.866 64.7481 197.337 64.5951 196.801 64.4294C196.266 64.2509 195.807 63.9768 195.424 63.607C195.055 63.2373 194.87 62.772 194.87 62.211C194.87 61.3313 195.335 60.5918 196.266 59.9926C197.196 59.3934 198.172 59.0938 199.192 59.0938C200.314 59.0938 201.168 59.3233 201.754 59.7822C202.099 60.05 202.271 60.407 202.271 60.8532C202.271 61.2867 202.099 61.6436 201.754 61.9241C201.423 62.1919 201.015 62.3257 200.53 62.3257C200.428 62.3257 200.301 62.313 200.148 62.2875C200.186 62.1217 200.205 61.9751 200.205 61.8476C200.205 61.4779 200.065 61.1974 199.785 61.0062C199.504 60.8149 199.122 60.7193 198.637 60.7193C198.165 60.7193 197.732 60.8149 197.337 61.0062C197.184 61.2102 197.107 61.4715 197.107 61.7903C197.107 62.109 197.292 62.3704 197.662 62.5743C198.031 62.7656 198.478 62.9377 199 63.0907C199.536 63.2309 200.071 63.3967 200.607 63.5879C201.142 63.7664 201.595 64.0533 201.965 64.4485C202.334 64.831 202.519 65.3154 202.519 65.9019C202.519 66.8581 202.041 67.6549 201.085 68.2924C200.142 68.9171 199.166 69.2295 198.159 69.2295C197.152 69.2295 196.317 69.051 195.654 68.694C195.004 68.3243 194.678 67.7697 194.678 67.0302C194.678 66.5713 194.844 66.2015 195.176 65.921C195.52 65.6278 195.934 65.4812 196.419 65.4812C196.521 65.4812 196.648 65.4939 196.801 65.5194Z" fill="#2E3B55"/>
<path d="M267.478 68.0524C267.478 68.0524 261.926 63.9631 261.926 62.4999C261.926 61.0366 267.478 56.9473 267.478 56.9473" stroke="#2E3B55" stroke-width="0.948583" stroke-linecap="round" stroke-linejoin="round"/>
<path d="M275.878 67V65.9608L278.709 63.0702C279.88 61.8877 280.208 61.4517 280.208 60.7888V60.7709C280.208 59.9765 279.665 59.4032 278.769 59.4032C277.855 59.4032 277.24 60.0064 277.24 60.8963L277.234 60.9202L275.801 60.9142L275.795 60.8963C275.795 59.2897 277.049 58.1669 278.847 58.1669C280.525 58.1669 281.731 59.1882 281.731 60.6395V60.6574C281.731 61.6368 281.259 62.4132 279.689 63.9242L277.963 65.5965V65.7219H281.863V67H275.878ZM286.623 57.9459L284.055 69.168H282.669L285.237 57.9459H286.623ZM290.827 67.215C288.988 67.215 287.387 65.9071 287.387 62.8014V62.7895C287.387 59.887 288.695 58.1669 290.863 58.1669C292.446 58.1669 293.628 59.1046 293.903 60.4245L293.915 60.4902H292.404L292.38 60.4304C292.153 59.8272 291.621 59.4331 290.863 59.4331C289.495 59.4331 288.916 60.7709 288.85 62.4192C288.85 62.4849 288.844 62.5506 288.844 62.6163H288.964C289.28 61.9355 290.033 61.3323 291.215 61.3323C292.87 61.3323 294.028 62.5387 294.028 64.1751V64.187C294.028 65.9369 292.696 67.215 290.827 67.215ZM289.113 64.2049C289.113 65.1904 289.86 65.9608 290.815 65.9608C291.771 65.9608 292.523 65.2023 292.523 64.2408V64.2288C292.523 63.2315 291.813 62.5148 290.833 62.5148C289.86 62.5148 289.113 63.2195 289.113 64.193V64.2049Z" fill="#2E3B55"/>
<path d="M302.475 56.9476C302.475 56.9476 308.027 61.0369 308.027 62.5001C308.027 63.9634 302.475 68.0527 302.475 68.0527" stroke="#2E3B55" stroke-width="0.948583" stroke-linecap="round" stroke-linejoin="round"/>
<g clip-path="url(#clip1_1879_4523)">
<circle cx="101.347" cy="113.146" r="22.2104" fill="#F5F5F9"/>
<path d="M102.988 104.92H99.698C97.0005 104.92 95.6518 104.92 94.6957 105.589C94.342 105.837 94.0343 106.145 93.7866 106.498C93.1172 107.455 93.1172 108.803 93.1172 111.501C93.1172 114.198 93.1172 115.547 93.7866 116.503C94.0343 116.857 94.342 117.164 94.6957 117.412C95.6518 118.082 97.0005 118.082 99.698 118.082H102.988C105.686 118.082 107.035 118.082 107.991 117.412C108.345 117.164 108.652 116.857 108.9 116.503C109.569 115.547 109.569 114.198 109.569 111.501C109.569 108.803 109.569 107.455 108.9 106.498C108.652 106.145 108.345 105.837 107.991 105.589C107.035 104.92 105.686 104.92 102.988 104.92Z" stroke="#828999" stroke-width="1.23391" stroke-linecap="round"/>
<path d="M100.516 115.614H102.161" stroke="#828999" stroke-width="1.23391" stroke-linecap="round" stroke-linejoin="round"/>
<path d="M103.398 121.372L103.139 121.028C102.554 120.251 102.409 119.065 102.779 118.082M99.2852 121.372L99.5447 121.028C100.13 120.251 100.275 119.065 99.9047 118.082" stroke="#828999" stroke-width="1.23391" stroke-linecap="round"/>
<path d="M97.2305 121.372H105.457" stroke="#828999" stroke-width="1.23391" stroke-linecap="round"/>
</g>
<path d="M131.926 110.412V102.588H133.325V109.235H136.915V110.412H131.926ZM140.548 110.531C138.786 110.531 137.717 109.349 137.717 107.462V107.457C137.717 105.592 138.796 104.371 140.483 104.371C142.169 104.371 143.21 105.554 143.21 107.343V107.788H139.068C139.084 108.85 139.659 109.469 140.575 109.469C141.307 109.469 141.725 109.1 141.855 108.829L141.871 108.791H143.156L143.14 108.84C142.95 109.604 142.158 110.531 140.548 110.531ZM140.499 105.429C139.745 105.429 139.181 105.939 139.078 106.882H141.893C141.8 105.911 141.253 105.429 140.499 105.429ZM146.014 110.412L143.904 104.485H145.347L146.719 109.094H146.811L148.172 104.485H149.592L147.494 110.412H146.014ZM153.03 110.531C151.268 110.531 150.2 109.349 150.2 107.462V107.457C150.2 105.592 151.279 104.371 152.965 104.371C154.652 104.371 155.693 105.554 155.693 107.343V107.788H151.55C151.566 108.85 152.141 109.469 153.057 109.469C153.789 109.469 154.207 109.1 154.337 108.829L154.353 108.791H155.639L155.622 108.84C155.432 109.604 154.641 110.531 153.03 110.531ZM152.982 105.429C152.228 105.429 151.664 105.939 151.561 106.882H154.375C154.283 105.911 153.735 105.429 152.982 105.429ZM157.097 110.412V102.192H158.447V110.412H157.097ZM165.025 110.412V103.965H164.933L162.986 105.342V104.024L165.03 102.588H166.424V110.412H165.025Z" fill="#2E3B55"/>
<path d="M131.737 123.88V117.794H133.825C135.63 117.794 136.697 118.92 136.697 120.831V120.839C136.697 122.754 135.634 123.88 133.825 123.88H131.737ZM132.496 123.197H133.774C135.132 123.197 135.921 122.328 135.921 120.848V120.839C135.921 119.355 135.124 118.477 133.774 118.477H132.496V123.197ZM139.788 123.96C138.493 123.96 137.692 123.066 137.692 121.611V121.602C137.692 120.143 138.493 119.253 139.788 119.253C141.083 119.253 141.884 120.143 141.884 121.602V121.611C141.884 123.066 141.083 123.96 139.788 123.96ZM139.788 123.311C140.648 123.311 141.133 122.682 141.133 121.611V121.602C141.133 120.527 140.648 119.903 139.788 119.903C138.928 119.903 138.443 120.527 138.443 121.602V121.611C138.443 122.682 138.928 123.311 139.788 123.311ZM143.731 123.88L142.458 119.333H143.192L144.086 122.969H144.153L145.17 119.333H145.865L146.882 122.969H146.949L147.843 119.333H148.573L147.299 123.88H146.561L145.545 120.363H145.477L144.465 123.88H143.731ZM149.543 123.88V119.333H150.277V120.017H150.344C150.572 119.536 150.998 119.253 151.669 119.253C152.689 119.253 153.259 119.856 153.259 120.936V123.88H152.525V121.113C152.525 120.295 152.187 119.903 151.462 119.903C150.737 119.903 150.277 120.392 150.277 121.189V123.88H149.543ZM154.629 123.88V117.528H155.363V123.88H154.629ZM158.64 123.96C157.345 123.96 156.544 123.066 156.544 121.611V121.602C156.544 120.143 157.345 119.253 158.64 119.253C159.935 119.253 160.736 120.143 160.736 121.602V121.611C160.736 123.066 159.935 123.96 158.64 123.96ZM158.64 123.311C159.501 123.311 159.986 122.682 159.986 121.611V121.602C159.986 120.527 159.501 119.903 158.64 119.903C157.78 119.903 157.295 120.527 157.295 121.602V121.611C157.295 122.682 157.78 123.311 158.64 123.311ZM163.123 123.96C162.259 123.96 161.605 123.437 161.605 122.61V122.602C161.605 121.792 162.204 121.324 163.262 121.261L164.566 121.181V120.767C164.566 120.206 164.224 119.903 163.545 119.903C163.001 119.903 162.643 120.105 162.524 120.46L162.52 120.472H161.786L161.791 120.447C161.909 119.734 162.6 119.253 163.57 119.253C164.68 119.253 165.3 119.823 165.3 120.767V123.88H164.566V123.209H164.498C164.211 123.694 163.735 123.96 163.123 123.96ZM162.356 122.594C162.356 123.053 162.748 123.323 163.275 123.323C164.022 123.323 164.566 122.834 164.566 122.184V121.771L163.351 121.847C162.659 121.889 162.356 122.134 162.356 122.585V122.594ZM168.319 123.96C167.168 123.96 166.413 123.028 166.413 121.611V121.602C166.413 120.177 167.164 119.253 168.319 119.253C168.943 119.253 169.487 119.565 169.736 120.05H169.804V117.528H170.538V123.88H169.804V123.154H169.736C169.458 123.661 168.952 123.96 168.319 123.96ZM168.488 123.311C169.315 123.311 169.821 122.661 169.821 121.611V121.602C169.821 120.552 169.315 119.903 168.488 119.903C167.657 119.903 167.164 120.544 167.164 121.602V121.611C167.164 122.669 167.657 123.311 168.488 123.311ZM172.334 118.456C172.056 118.456 171.828 118.228 171.828 117.95C171.828 117.672 172.056 117.444 172.334 117.444C172.613 117.444 172.84 117.672 172.84 117.95C172.84 118.228 172.613 118.456 172.334 118.456ZM171.963 123.88V119.333H172.697V123.88H171.963ZM174.08 123.88V119.333H174.814V120.017H174.882C175.109 119.536 175.535 119.253 176.206 119.253C177.227 119.253 177.796 119.856 177.796 120.936V123.88H177.062V121.113C177.062 120.295 176.725 119.903 175.999 119.903C175.274 119.903 174.814 120.392 174.814 121.189V123.88H174.08ZM180.997 125.483C179.9 125.483 179.2 124.989 179.086 124.243L179.095 124.238H179.854L179.858 124.243C179.938 124.588 180.343 124.833 180.997 124.833C181.811 124.833 182.296 124.449 182.296 123.779V122.859H182.228C181.942 123.361 181.427 123.644 180.803 123.644C179.626 123.644 178.897 122.733 178.897 121.459V121.451C178.897 120.177 179.63 119.253 180.82 119.253C181.461 119.253 181.959 119.57 182.237 120.084H182.287V119.333H183.021V123.817C183.021 124.833 182.237 125.483 180.997 125.483ZM180.963 122.994C181.807 122.994 182.313 122.362 182.313 121.459V121.451C182.313 120.548 181.802 119.903 180.963 119.903C180.12 119.903 179.647 120.548 179.647 121.451V121.459C179.647 122.362 180.12 122.994 180.963 122.994ZM188.065 123.96C187.201 123.96 186.547 123.437 186.547 122.61V122.602C186.547 121.792 187.146 121.324 188.205 121.261L189.508 121.181V120.767C189.508 120.206 189.166 119.903 188.487 119.903C187.943 119.903 187.585 120.105 187.467 120.46L187.462 120.472H186.728L186.733 120.447C186.851 119.734 187.542 119.253 188.512 119.253C189.622 119.253 190.242 119.823 190.242 120.767V123.88H189.508V123.209H189.44C189.153 123.694 188.677 123.96 188.065 123.96ZM187.298 122.594C187.298 123.053 187.69 123.323 188.217 123.323C188.964 123.323 189.508 122.834 189.508 122.184V121.771L188.293 121.847C187.601 121.889 187.298 122.134 187.298 122.585V122.594ZM191.583 125.398V119.333H192.317V120.059H192.384C192.662 119.553 193.169 119.253 193.801 119.253C194.953 119.253 195.707 120.185 195.707 121.602V121.611C195.707 123.036 194.957 123.96 193.801 123.96C193.177 123.96 192.633 123.648 192.384 123.163H192.317V125.398H191.583ZM193.632 123.311C194.463 123.311 194.957 122.669 194.957 121.611V121.602C194.957 120.544 194.463 119.903 193.632 119.903C192.806 119.903 192.3 120.552 192.3 121.602V121.611C192.3 122.661 192.806 123.311 193.632 123.311ZM196.855 125.398V119.333H197.588V120.059H197.656C197.934 119.553 198.44 119.253 199.073 119.253C200.224 119.253 200.979 120.185 200.979 121.602V121.611C200.979 123.036 200.229 123.96 199.073 123.96C198.449 123.96 197.905 123.648 197.656 123.163H197.588V125.398H196.855ZM198.904 123.311C199.735 123.311 200.229 122.669 200.229 121.611V121.602C200.229 120.544 199.735 119.903 198.904 119.903C198.078 119.903 197.572 120.552 197.572 121.602V121.611C197.572 122.661 198.078 123.311 198.904 123.311Z" fill="#586277"/>
<g clip-path="url(#clip2_1879_4523)">
<circle cx="301.548" cy="113.146" r="6.47802" fill="#B88917"/>
<path d="M298.617 113.994C298.617 113.994 299.311 113.994 300.237 115.613C300.237 115.613 302.809 111.372 305.095 110.523" stroke="white" stroke-width="0.694074" stroke-linecap="round" stroke-linejoin="round"/>
</g>
<g clip-path="url(#clip3_1879_4523)">
<circle cx="101.347" cy="167.438" r="22.2104" fill="#F5F5F9"/>
<path d="M98.5693 167.992H98.1918C96.9713 167.992 96.361 167.992 96.1009 167.589C95.8407 167.187 96.0886 166.626 96.5843 165.505L98.0746 162.134C98.5253 161.115 98.7506 160.605 99.1878 160.32C99.625 160.034 100.18 160.034 101.29 160.034H103.008C104.356 160.034 105.03 160.034 105.285 160.475C105.539 160.915 105.205 161.503 104.536 162.68L103.654 164.231C103.321 164.816 103.155 165.108 103.157 165.348C103.16 165.659 103.326 165.946 103.593 166.103C103.799 166.223 104.134 166.223 104.804 166.223C105.651 166.223 106.075 166.223 106.296 166.37C106.582 166.561 106.732 166.901 106.68 167.243C106.639 167.506 106.354 167.821 105.784 168.451L101.231 173.486C100.337 174.475 99.8896 174.969 99.5893 174.813C99.289 174.656 99.4332 174.004 99.7216 172.699L100.287 170.144C100.506 169.15 100.616 168.654 100.352 168.323C100.088 167.992 99.5816 167.992 98.5693 167.992Z" stroke="#828999" stroke-width="1.23391" stroke-linejoin="round"/>
</g>
<path d="M131.926 164.704V156.88H133.325V163.527H136.915V164.704H131.926ZM140.548 164.823C138.786 164.823 137.717 163.641 137.717 161.754V161.749C137.717 159.884 138.796 158.663 140.483 158.663C142.169 158.663 143.21 159.846 143.21 161.635V162.08H139.068C139.084 163.142 139.659 163.761 140.575 163.761C141.307 163.761 141.725 163.392 141.855 163.121L141.871 163.083H143.156L143.14 163.132C142.95 163.896 142.158 164.823 140.548 164.823ZM140.499 159.721C139.745 159.721 139.181 160.231 139.078 161.174H141.893C141.8 160.203 141.253 159.721 140.499 159.721ZM146.014 164.704L143.904 158.777H145.347L146.719 163.386H146.811L148.172 158.777H149.592L147.494 164.704H146.014ZM153.03 164.823C151.268 164.823 150.2 163.641 150.2 161.754V161.749C150.2 159.884 151.279 158.663 152.965 158.663C154.652 158.663 155.693 159.846 155.693 161.635V162.08H151.55C151.566 163.142 152.141 163.761 153.057 163.761C153.789 163.761 154.207 163.392 154.337 163.121L154.353 163.083H155.639L155.622 163.132C155.432 163.896 154.641 164.823 153.03 164.823ZM152.982 159.721C152.228 159.721 151.664 160.231 151.561 161.174H154.375C154.283 160.203 153.735 159.721 152.982 159.721ZM157.097 164.704V156.484H158.447V164.704H157.097ZM163.111 164.704V163.761L165.681 161.136C166.744 160.062 167.042 159.667 167.042 159.065V159.048C167.042 158.327 166.548 157.807 165.735 157.807C164.905 157.807 164.347 158.354 164.347 159.162L164.342 159.184L163.04 159.179L163.035 159.162C163.035 157.704 164.173 156.684 165.806 156.684C167.329 156.684 168.425 157.612 168.425 158.929V158.945C168.425 159.835 167.996 160.54 166.57 161.912L165.003 163.43V163.544H168.544V164.704H163.111Z" fill="#2E3B55"/>
<path d="M131.737 178.172V172.086H133.825C135.63 172.086 136.697 173.212 136.697 175.123V175.131C136.697 177.046 135.634 178.172 133.825 178.172H131.737ZM132.496 177.489H133.774C135.132 177.489 135.921 176.62 135.921 175.14V175.131C135.921 173.647 135.124 172.769 133.774 172.769H132.496V177.489ZM139.788 178.252C138.493 178.252 137.692 177.358 137.692 175.903V175.894C137.692 174.435 138.493 173.545 139.788 173.545C141.083 173.545 141.884 174.435 141.884 175.894V175.903C141.884 177.358 141.083 178.252 139.788 178.252ZM139.788 177.603C140.648 177.603 141.133 176.974 141.133 175.903V175.894C141.133 174.819 140.648 174.195 139.788 174.195C138.928 174.195 138.443 174.819 138.443 175.894V175.903C138.443 176.974 138.928 177.603 139.788 177.603ZM143.731 178.172L142.458 173.625H143.192L144.086 177.261H144.153L145.17 173.625H145.865L146.882 177.261H146.949L147.843 173.625H148.573L147.299 178.172H146.561L145.545 174.655H145.477L144.465 178.172H143.731ZM149.543 178.172V173.625H150.277V174.309H150.344C150.572 173.828 150.998 173.545 151.669 173.545C152.689 173.545 153.259 174.148 153.259 175.228V178.172H152.525V175.405C152.525 174.587 152.187 174.195 151.462 174.195C150.737 174.195 150.277 174.684 150.277 175.481V178.172H149.543ZM154.629 178.172V171.82H155.363V178.172H154.629ZM158.64 178.252C157.345 178.252 156.544 177.358 156.544 175.903V175.894C156.544 174.435 157.345 173.545 158.64 173.545C159.935 173.545 160.736 174.435 160.736 175.894V175.903C160.736 177.358 159.935 178.252 158.64 178.252ZM158.64 177.603C159.501 177.603 159.986 176.974 159.986 175.903V175.894C159.986 174.819 159.501 174.195 158.64 174.195C157.78 174.195 157.295 174.819 157.295 175.894V175.903C157.295 176.974 157.78 177.603 158.64 177.603ZM163.123 178.252C162.259 178.252 161.605 177.729 161.605 176.902V176.894C161.605 176.084 162.204 175.616 163.262 175.553L164.566 175.473V175.059C164.566 174.498 164.224 174.195 163.545 174.195C163.001 174.195 162.643 174.397 162.524 174.752L162.52 174.764H161.786L161.791 174.739C161.909 174.026 162.6 173.545 163.57 173.545C164.68 173.545 165.3 174.115 165.3 175.059V178.172H164.566V177.501H164.498C164.211 177.986 163.735 178.252 163.123 178.252ZM162.356 176.886C162.356 177.345 162.748 177.615 163.275 177.615C164.022 177.615 164.566 177.126 164.566 176.476V176.063L163.351 176.139C162.659 176.181 162.356 176.426 162.356 176.877V176.886ZM168.319 178.252C167.168 178.252 166.413 177.32 166.413 175.903V175.894C166.413 174.469 167.164 173.545 168.319 173.545C168.943 173.545 169.487 173.857 169.736 174.342H169.804V171.82H170.538V178.172H169.804V177.446H169.736C169.458 177.953 168.952 178.252 168.319 178.252ZM168.488 177.603C169.315 177.603 169.821 176.953 169.821 175.903V175.894C169.821 174.844 169.315 174.195 168.488 174.195C167.657 174.195 167.164 174.836 167.164 175.894V175.903C167.164 176.961 167.657 177.603 168.488 177.603ZM172.334 172.748C172.056 172.748 171.828 172.52 171.828 172.242C171.828 171.964 172.056 171.736 172.334 171.736C172.613 171.736 172.84 171.964 172.84 172.242C172.84 172.52 172.613 172.748 172.334 172.748ZM171.963 178.172V173.625H172.697V178.172H171.963ZM174.08 178.172V173.625H174.814V174.309H174.882C175.109 173.828 175.535 173.545 176.206 173.545C177.227 173.545 177.796 174.148 177.796 175.228V178.172H177.062V175.405C177.062 174.587 176.725 174.195 175.999 174.195C175.274 174.195 174.814 174.684 174.814 175.481V178.172H174.08ZM180.997 179.775C179.9 179.775 179.2 179.281 179.086 178.535L179.095 178.53H179.854L179.858 178.535C179.938 178.88 180.343 179.125 180.997 179.125C181.811 179.125 182.296 178.741 182.296 178.071V177.151H182.228C181.942 177.653 181.427 177.936 180.803 177.936C179.626 177.936 178.897 177.025 178.897 175.751V175.743C178.897 174.469 179.63 173.545 180.82 173.545C181.461 173.545 181.959 173.862 182.237 174.376H182.287V173.625H183.021V178.109C183.021 179.125 182.237 179.775 180.997 179.775ZM180.963 177.286C181.807 177.286 182.313 176.654 182.313 175.751V175.743C182.313 174.84 181.802 174.195 180.963 174.195C180.12 174.195 179.647 174.84 179.647 175.743V175.751C179.647 176.654 180.12 177.286 180.963 177.286ZM188.065 178.252C187.201 178.252 186.547 177.729 186.547 176.902V176.894C186.547 176.084 187.146 175.616 188.205 175.553L189.508 175.473V175.059C189.508 174.498 189.166 174.195 188.487 174.195C187.943 174.195 187.585 174.397 187.467 174.752L187.462 174.764H186.728L186.733 174.739C186.851 174.026 187.542 173.545 188.512 173.545C189.622 173.545 190.242 174.115 190.242 175.059V178.172H189.508V177.501H189.44C189.153 177.986 188.677 178.252 188.065 178.252ZM187.298 176.886C187.298 177.345 187.69 177.615 188.217 177.615C188.964 177.615 189.508 177.126 189.508 176.476V176.063L188.293 176.139C187.601 176.181 187.298 176.426 187.298 176.877V176.886ZM191.583 179.69V173.625H192.317V174.351H192.384C192.662 173.845 193.169 173.545 193.801 173.545C194.953 173.545 195.707 174.477 195.707 175.894V175.903C195.707 177.328 194.957 178.252 193.801 178.252C193.177 178.252 192.633 177.94 192.384 177.455H192.317V179.69H191.583ZM193.632 177.603C194.463 177.603 194.957 176.961 194.957 175.903V175.894C194.957 174.836 194.463 174.195 193.632 174.195C192.806 174.195 192.3 174.844 192.3 175.894V175.903C192.3 176.953 192.806 177.603 193.632 177.603ZM196.855 179.69V173.625H197.588V174.351H197.656C197.934 173.845 198.44 173.545 199.073 173.545C200.224 173.545 200.979 174.477 200.979 175.894V175.903C200.979 177.328 200.229 178.252 199.073 178.252C198.449 178.252 197.905 177.94 197.656 177.455H197.588V179.69H196.855ZM198.904 177.603C199.735 177.603 200.229 176.961 200.229 175.903V175.894C200.229 174.836 199.735 174.195 198.904 174.195C198.078 174.195 197.572 174.844 197.572 175.894V175.903C197.572 176.953 198.078 177.603 198.904 177.603Z" fill="#586277"/>
<g clip-path="url(#clip4_1879_4523)">
<circle cx="301.548" cy="167.437" r="6.47802" fill="#B88917"/>
<path d="M298.617 168.287C298.617 168.287 299.311 168.287 300.237 169.906C300.237 169.906 302.809 165.665 305.095 164.816" stroke="white" stroke-width="0.694074" stroke-linecap="round" stroke-linejoin="round"/>
</g>
<g clip-path="url(#clip5_1879_4523)">
<circle cx="101.347" cy="221.73" r="22.2104" fill="#F5F5F9"/>
<path d="M100.521 229.134H99.698C96.5958 229.134 95.0447 229.134 94.0809 228.171C93.1172 227.207 93.1172 225.656 93.1172 222.554V220.086C93.1172 216.983 93.1172 215.432 94.0809 214.469C95.0447 213.505 96.5958 213.505 99.698 213.505H101.343C104.445 213.505 105.997 213.505 106.96 214.469C107.924 215.432 107.924 216.983 107.924 220.086V220.497" stroke="#828999" stroke-width="1.23391" stroke-linecap="round" stroke-linejoin="round"/>
<path d="M105.791 223.709C105.965 223.266 106.592 223.266 106.767 223.709L106.797 223.786C107.223 224.867 108.079 225.723 109.16 226.149L109.237 226.179C109.68 226.354 109.68 226.981 109.237 227.155L109.16 227.185C108.079 227.612 107.223 228.468 106.797 229.549L106.767 229.626C106.592 230.068 105.965 230.068 105.791 229.626L105.761 229.549C105.334 228.468 104.478 227.612 103.397 227.185L103.32 227.155C102.878 226.981 102.878 226.354 103.32 226.179L103.397 226.149C104.478 225.723 105.334 224.867 105.761 223.786L105.791 223.709Z" stroke="#828999" stroke-width="1.23391" stroke-linecap="round" stroke-linejoin="round"/>
<path d="M97.2305 217.617H103.811M97.2305 221.319H103.811M97.2305 225.021H100.521" stroke="#828999" stroke-width="1.23391" stroke-linecap="round" stroke-linejoin="round"/>
</g>
<path d="M131.926 218.996V211.171H133.325V217.819H136.915V218.996H131.926ZM140.548 219.115C138.786 219.115 137.717 217.933 137.717 216.046V216.041C137.717 214.176 138.796 212.955 140.483 212.955C142.169 212.955 143.21 214.138 143.21 215.927V216.372H139.068C139.084 217.434 139.659 218.053 140.575 218.053C141.307 218.053 141.725 217.684 141.855 217.413L141.871 217.375H143.156L143.14 217.424C142.95 218.188 142.158 219.115 140.548 219.115ZM140.499 214.013C139.745 214.013 139.181 214.523 139.078 215.466H141.893C141.8 214.495 141.253 214.013 140.499 214.013ZM146.014 218.996L143.904 213.069H145.347L146.719 217.678H146.811L148.172 213.069H149.592L147.494 218.996H146.014ZM153.03 219.115C151.268 219.115 150.2 217.933 150.2 216.046V216.041C150.2 214.176 151.279 212.955 152.965 212.955C154.652 212.955 155.693 214.138 155.693 215.927V216.372H151.55C151.566 217.434 152.141 218.053 153.057 218.053C153.789 218.053 154.207 217.684 154.337 217.413L154.353 217.375H155.639L155.622 217.424C155.432 218.188 154.641 219.115 153.03 219.115ZM152.982 214.013C152.228 214.013 151.664 214.523 151.561 215.466H154.375C154.283 214.495 153.735 214.013 152.982 214.013ZM157.097 218.996V210.776H158.447V218.996H157.097ZM165.941 219.153C164.228 219.153 163.105 218.221 163.002 216.881L162.997 216.816H164.331L164.336 216.876C164.412 217.537 165.025 218.009 165.941 218.009C166.847 218.009 167.449 217.505 167.449 216.778V216.767C167.449 215.943 166.841 215.488 165.838 215.488H164.916V214.447H165.811C166.673 214.447 167.248 213.959 167.248 213.275V213.265C167.248 212.549 166.765 212.126 165.93 212.126C165.106 212.126 164.537 212.565 164.466 213.265L164.461 213.319H163.159L163.165 213.259C163.284 211.904 164.352 211.014 165.93 211.014C167.541 211.014 168.587 211.855 168.587 213.08V213.091C168.587 214.062 167.888 214.707 166.95 214.902V214.929C168.099 215.038 168.864 215.721 168.864 216.805V216.816C168.864 218.194 167.676 219.153 165.941 219.153Z" fill="#2E3B55"/>
<path d="M131.737 232.464V226.378H133.825C135.63 226.378 136.697 227.504 136.697 229.415V229.423C136.697 231.338 135.634 232.464 133.825 232.464H131.737ZM132.496 231.781H133.774C135.132 231.781 135.921 230.912 135.921 229.432V229.423C135.921 227.939 135.124 227.061 133.774 227.061H132.496V231.781ZM139.788 232.544C138.493 232.544 137.692 231.65 137.692 230.195V230.186C137.692 228.727 138.493 227.837 139.788 227.837C141.083 227.837 141.884 228.727 141.884 230.186V230.195C141.884 231.65 141.083 232.544 139.788 232.544ZM139.788 231.895C140.648 231.895 141.133 231.266 141.133 230.195V230.186C141.133 229.111 140.648 228.487 139.788 228.487C138.928 228.487 138.443 229.111 138.443 230.186V230.195C138.443 231.266 138.928 231.895 139.788 231.895ZM143.731 232.464L142.458 227.917H143.192L144.086 231.553H144.153L145.17 227.917H145.865L146.882 231.553H146.949L147.843 227.917H148.573L147.299 232.464H146.561L145.545 228.947H145.477L144.465 232.464H143.731ZM149.543 232.464V227.917H150.277V228.601H150.344C150.572 228.12 150.998 227.837 151.669 227.837C152.689 227.837 153.259 228.44 153.259 229.52V232.464H152.525V229.697C152.525 228.879 152.187 228.487 151.462 228.487C150.737 228.487 150.277 228.976 150.277 229.773V232.464H149.543ZM154.629 232.464V226.112H155.363V232.464H154.629ZM158.64 232.544C157.345 232.544 156.544 231.65 156.544 230.195V230.186C156.544 228.727 157.345 227.837 158.64 227.837C159.935 227.837 160.736 228.727 160.736 230.186V230.195C160.736 231.65 159.935 232.544 158.64 232.544ZM158.64 231.895C159.501 231.895 159.986 231.266 159.986 230.195V230.186C159.986 229.111 159.501 228.487 158.64 228.487C157.78 228.487 157.295 229.111 157.295 230.186V230.195C157.295 231.266 157.78 231.895 158.64 231.895ZM163.123 232.544C162.259 232.544 161.605 232.021 161.605 231.194V231.186C161.605 230.376 162.204 229.908 163.262 229.845L164.566 229.765V229.351C164.566 228.79 164.224 228.487 163.545 228.487C163.001 228.487 162.643 228.689 162.524 229.044L162.52 229.056H161.786L161.791 229.031C161.909 228.318 162.6 227.837 163.57 227.837C164.68 227.837 165.3 228.407 165.3 229.351V232.464H164.566V231.793H164.498C164.211 232.278 163.735 232.544 163.123 232.544ZM162.356 231.178C162.356 231.637 162.748 231.907 163.275 231.907C164.022 231.907 164.566 231.418 164.566 230.768V230.355L163.351 230.431C162.659 230.473 162.356 230.718 162.356 231.169V231.178ZM168.319 232.544C167.168 232.544 166.413 231.612 166.413 230.195V230.186C166.413 228.761 167.164 227.837 168.319 227.837C168.943 227.837 169.487 228.149 169.736 228.634H169.804V226.112H170.538V232.464H169.804V231.738H169.736C169.458 232.245 168.952 232.544 168.319 232.544ZM168.488 231.895C169.315 231.895 169.821 231.245 169.821 230.195V230.186C169.821 229.136 169.315 228.487 168.488 228.487C167.657 228.487 167.164 229.128 167.164 230.186V230.195C167.164 231.253 167.657 231.895 168.488 231.895ZM172.334 227.04C172.056 227.04 171.828 226.812 171.828 226.534C171.828 226.256 172.056 226.028 172.334 226.028C172.613 226.028 172.84 226.256 172.84 226.534C172.84 226.812 172.613 227.04 172.334 227.04ZM171.963 232.464V227.917H172.697V232.464H171.963ZM174.08 232.464V227.917H174.814V228.601H174.882C175.109 228.12 175.535 227.837 176.206 227.837C177.227 227.837 177.796 228.44 177.796 229.52V232.464H177.062V229.697C177.062 228.879 176.725 228.487 175.999 228.487C175.274 228.487 174.814 228.976 174.814 229.773V232.464H174.08ZM180.997 234.067C179.9 234.067 179.2 233.573 179.086 232.827L179.095 232.822H179.854L179.858 232.827C179.938 233.172 180.343 233.417 180.997 233.417C181.811 233.417 182.296 233.033 182.296 232.363V231.443H182.228C181.942 231.945 181.427 232.228 180.803 232.228C179.626 232.228 178.897 231.317 178.897 230.043V230.035C178.897 228.761 179.63 227.837 180.82 227.837C181.461 227.837 181.959 228.154 182.237 228.668H182.287V227.917H183.021V232.401C183.021 233.417 182.237 234.067 180.997 234.067ZM180.963 231.578C181.807 231.578 182.313 230.946 182.313 230.043V230.035C182.313 229.132 181.802 228.487 180.963 228.487C180.12 228.487 179.647 229.132 179.647 230.035V230.043C179.647 230.946 180.12 231.578 180.963 231.578ZM188.065 232.544C187.201 232.544 186.547 232.021 186.547 231.194V231.186C186.547 230.376 187.146 229.908 188.205 229.845L189.508 229.765V229.351C189.508 228.79 189.166 228.487 188.487 228.487C187.943 228.487 187.585 228.689 187.467 229.044L187.462 229.056H186.728L186.733 229.031C186.851 228.318 187.542 227.837 188.512 227.837C189.622 227.837 190.242 228.407 190.242 229.351V232.464H189.508V231.793H189.44C189.153 232.278 188.677 232.544 188.065 232.544ZM187.298 231.178C187.298 231.637 187.69 231.907 188.217 231.907C188.964 231.907 189.508 231.418 189.508 230.768V230.355L188.293 230.431C187.601 230.473 187.298 230.718 187.298 231.169V231.178ZM191.583 233.982V227.917H192.317V228.643H192.384C192.662 228.137 193.169 227.837 193.801 227.837C194.953 227.837 195.707 228.769 195.707 230.186V230.195C195.707 231.62 194.957 232.544 193.801 232.544C193.177 232.544 192.633 232.232 192.384 231.747H192.317V233.982H191.583ZM193.632 231.895C194.463 231.895 194.957 231.253 194.957 230.195V230.186C194.957 229.128 194.463 228.487 193.632 228.487C192.806 228.487 192.3 229.136 192.3 230.186V230.195C192.3 231.245 192.806 231.895 193.632 231.895ZM196.855 233.982V227.917H197.588V228.643H197.656C197.934 228.137 198.44 227.837 199.073 227.837C200.224 227.837 200.979 228.769 200.979 230.186V230.195C200.979 231.62 200.229 232.544 199.073 232.544C198.449 232.544 197.905 232.232 197.656 231.747H197.588V233.982H196.855ZM198.904 231.895C199.735 231.895 200.229 231.253 200.229 230.195V230.186C200.229 229.128 199.735 228.487 198.904 228.487C198.078 228.487 197.572 229.136 197.572 230.186V230.195C197.572 231.245 198.078 231.895 198.904 231.895Z" fill="#ABB1BB"/>
<g clip-path="url(#clip6_1879_4523)">
<circle cx="301.548" cy="221.729" r="6.47802" fill="#B88917"/>
<path d="M298.617 222.579C298.617 222.579 299.311 222.579 300.237 224.198C300.237 224.198 302.809 219.957 305.095 219.108" stroke="white" stroke-width="0.694074" stroke-linecap="round" stroke-linejoin="round"/>
</g>
<g clip-path="url(#clip7_1879_4523)">
<circle cx="101.347" cy="276.022" r="22.2104" fill="#F5F5F9"/>
<path d="M93.1172 282.604H106.279" stroke="#828999" stroke-width="1.23391" stroke-linecap="round" stroke-linejoin="round"/>
<path d="M94.6168 276.158C94.3906 275.993 94.1849 275.788 93.9382 275.068C93.8712 274.889 93.6183 273.995 93.4035 273.176C93.2223 272.485 93.0608 271.855 93.1361 271.695C93.1978 271.531 93.2801 271.407 93.5474 271.243C93.7119 271.142 94.5551 270.934 94.7196 270.893C94.8842 270.852 95.1104 270.832 95.2955 270.893C95.6451 270.955 96.3648 272.004 96.5499 272.127C96.6322 272.209 96.8995 272.449 97.208 272.477C97.4342 272.497 97.6605 272.436 97.9072 272.333C98.1334 272.239 102.596 270.071 103.007 269.886C106.36 268.487 108.794 270.786 109.165 271.28C109.547 271.757 109.629 271.901 109.527 272.312C109.394 272.744 109.033 272.826 108.827 272.888C108.622 272.95 105.784 273.711 104.673 274.019C104.431 274.098 104.312 274.257 104.282 274.286C104.138 274.492 103.485 275.891 103.299 276.199C103.172 276.528 102.822 276.939 102.37 277.104C101.897 277.268 101.074 277.454 100.889 277.515C100.704 277.577 100.272 277.7 100.128 277.659C99.9432 277.618 99.7663 277.433 99.8486 277.145C99.9309 276.857 100.087 276.055 100.108 275.932C100.128 275.808 100.334 275.294 100.108 275.274C100.067 275.212 99.6347 275.397 98.9972 275.541C98.5235 275.674 98.0275 275.806 97.681 275.891C96.3443 276.281 95.6203 276.384 95.46 276.384C95.1515 276.384 94.9253 276.343 94.6168 276.158Z" stroke="#828999" stroke-width="1.23391"/>
</g>
<path d="M131.926 273.288V265.463H133.325V272.111H136.915V273.288H131.926ZM140.548 273.407C138.786 273.407 137.717 272.225 137.717 270.338V270.333C137.717 268.468 138.796 267.247 140.483 267.247C142.169 267.247 143.21 268.43 143.21 270.219V270.664H139.068C139.084 271.726 139.659 272.345 140.575 272.345C141.307 272.345 141.725 271.976 141.855 271.705L141.871 271.667H143.156L143.14 271.716C142.95 272.48 142.158 273.407 140.548 273.407ZM140.499 268.305C139.745 268.305 139.181 268.815 139.078 269.758H141.893C141.8 268.787 141.253 268.305 140.499 268.305ZM146.014 273.288L143.904 267.361H145.347L146.719 271.97H146.811L148.172 267.361H149.592L147.494 273.288H146.014ZM153.03 273.407C151.268 273.407 150.2 272.225 150.2 270.338V270.333C150.2 268.468 151.279 267.247 152.965 267.247C154.652 267.247 155.693 268.43 155.693 270.219V270.664H151.55C151.566 271.726 152.141 272.345 153.057 272.345C153.789 272.345 154.207 271.976 154.337 271.705L154.353 271.667H155.639L155.622 271.716C155.432 272.48 154.641 273.407 153.03 273.407ZM152.982 268.305C152.228 268.305 151.664 268.815 151.561 269.758H154.375C154.283 268.787 153.735 268.305 152.982 268.305ZM157.097 273.288V265.068H158.447V273.288H157.097ZM166.722 273.288V271.786H162.894V270.642C163.908 268.88 165.019 267.079 166.082 265.463H168.061V270.631H169.113V271.786H168.061V273.288H166.722ZM164.195 270.664H166.744V266.581H166.662C165.86 267.806 164.954 269.254 164.195 270.582V270.664Z" fill="#2E3B55"/>
<path d="M131.737 286.756V280.67H133.825C135.63 280.67 136.697 281.796 136.697 283.707V283.715C136.697 285.63 135.634 286.756 133.825 286.756H131.737ZM132.496 286.073H133.774C135.132 286.073 135.921 285.204 135.921 283.724V283.715C135.921 282.231 135.124 281.353 133.774 281.353H132.496V286.073ZM139.788 286.836C138.493 286.836 137.692 285.942 137.692 284.487V284.478C137.692 283.019 138.493 282.129 139.788 282.129C141.083 282.129 141.884 283.019 141.884 284.478V284.487C141.884 285.942 141.083 286.836 139.788 286.836ZM139.788 286.187C140.648 286.187 141.133 285.558 141.133 284.487V284.478C141.133 283.403 140.648 282.779 139.788 282.779C138.928 282.779 138.443 283.403 138.443 284.478V284.487C138.443 285.558 138.928 286.187 139.788 286.187ZM143.731 286.756L142.458 282.209H143.192L144.086 285.845H144.153L145.17 282.209H145.865L146.882 285.845H146.949L147.843 282.209H148.573L147.299 286.756H146.561L145.545 283.238H145.477L144.465 286.756H143.731ZM149.543 286.756V282.209H150.277V282.893H150.344C150.572 282.412 150.998 282.129 151.669 282.129C152.689 282.129 153.259 282.732 153.259 283.812V286.756H152.525V283.989C152.525 283.171 152.187 282.779 151.462 282.779C150.737 282.779 150.277 283.268 150.277 284.065V286.756H149.543ZM154.629 286.756V280.404H155.363V286.756H154.629ZM158.64 286.836C157.345 286.836 156.544 285.942 156.544 284.487V284.478C156.544 283.019 157.345 282.129 158.64 282.129C159.935 282.129 160.736 283.019 160.736 284.478V284.487C160.736 285.942 159.935 286.836 158.64 286.836ZM158.64 286.187C159.501 286.187 159.986 285.558 159.986 284.487V284.478C159.986 283.403 159.501 282.779 158.64 282.779C157.78 282.779 157.295 283.403 157.295 284.478V284.487C157.295 285.558 157.78 286.187 158.64 286.187ZM163.123 286.836C162.259 286.836 161.605 286.313 161.605 285.486V285.478C161.605 284.668 162.204 284.2 163.262 284.137L164.566 284.057V283.643C164.566 283.082 164.224 282.779 163.545 282.779C163.001 282.779 162.643 282.981 162.524 283.335L162.52 283.348H161.786L161.791 283.323C161.909 282.61 162.6 282.129 163.57 282.129C164.68 282.129 165.3 282.699 165.3 283.643V286.756H164.566V286.085H164.498C164.211 286.57 163.735 286.836 163.123 286.836ZM162.356 285.47C162.356 285.929 162.748 286.199 163.275 286.199C164.022 286.199 164.566 285.71 164.566 285.06V284.647L163.351 284.723C162.659 284.765 162.356 285.01 162.356 285.461V285.47ZM168.319 286.836C167.168 286.836 166.413 285.904 166.413 284.487V284.478C166.413 283.053 167.164 282.129 168.319 282.129C168.943 282.129 169.487 282.441 169.736 282.926H169.804V280.404H170.538V286.756H169.804V286.03H169.736C169.458 286.537 168.952 286.836 168.319 286.836ZM168.488 286.187C169.315 286.187 169.821 285.537 169.821 284.487V284.478C169.821 283.428 169.315 282.779 168.488 282.779C167.657 282.779 167.164 283.42 167.164 284.478V284.487C167.164 285.545 167.657 286.187 168.488 286.187ZM172.334 281.332C172.056 281.332 171.828 281.104 171.828 280.826C171.828 280.548 172.056 280.32 172.334 280.32C172.613 280.32 172.84 280.548 172.84 280.826C172.84 281.104 172.613 281.332 172.334 281.332ZM171.963 286.756V282.209H172.697V286.756H171.963ZM174.08 286.756V282.209H174.814V282.893H174.882C175.109 282.412 175.535 282.129 176.206 282.129C177.227 282.129 177.796 282.732 177.796 283.812V286.756H177.062V283.989C177.062 283.171 176.725 282.779 175.999 282.779C175.274 282.779 174.814 283.268 174.814 284.065V286.756H174.08ZM180.997 288.358C179.9 288.358 179.2 287.865 179.086 287.119L179.095 287.114H179.854L179.858 287.119C179.938 287.464 180.343 287.709 180.997 287.709C181.811 287.709 182.296 287.325 182.296 286.655V285.735H182.228C181.942 286.237 181.427 286.52 180.803 286.52C179.626 286.52 178.897 285.609 178.897 284.335V284.327C178.897 283.053 179.63 282.129 180.82 282.129C181.461 282.129 181.959 282.446 182.237 282.96H182.287V282.209H183.021V286.693C183.021 287.709 182.237 288.358 180.997 288.358ZM180.963 285.87C181.807 285.87 182.313 285.238 182.313 284.335V284.327C182.313 283.424 181.802 282.779 180.963 282.779C180.12 282.779 179.647 283.424 179.647 284.327V284.335C179.647 285.238 180.12 285.87 180.963 285.87ZM188.065 286.836C187.201 286.836 186.547 286.313 186.547 285.486V285.478C186.547 284.668 187.146 284.2 188.205 284.137L189.508 284.057V283.643C189.508 283.082 189.166 282.779 188.487 282.779C187.943 282.779 187.585 282.981 187.467 283.335L187.462 283.348H186.728L186.733 283.323C186.851 282.61 187.542 282.129 188.512 282.129C189.622 282.129 190.242 282.699 190.242 283.643V286.756H189.508V286.085H189.44C189.153 286.57 188.677 286.836 188.065 286.836ZM187.298 285.47C187.298 285.929 187.69 286.199 188.217 286.199C188.964 286.199 189.508 285.71 189.508 285.06V284.647L188.293 284.723C187.601 284.765 187.298 285.01 187.298 285.461V285.47ZM191.583 288.274V282.209H192.317V282.935H192.384C192.662 282.429 193.169 282.129 193.801 282.129C194.953 282.129 195.707 283.061 195.707 284.478V284.487C195.707 285.912 194.957 286.836 193.801 286.836C193.177 286.836 192.633 286.524 192.384 286.039H192.317V288.274H191.583ZM193.632 286.187C194.463 286.187 194.957 285.545 194.957 284.487V284.478C194.957 283.42 194.463 282.779 193.632 282.779C192.806 282.779 192.3 283.428 192.3 284.478V284.487C192.3 285.537 192.806 286.187 193.632 286.187ZM196.855 288.274V282.209H197.588V282.935H197.656C197.934 282.429 198.44 282.129 199.073 282.129C200.224 282.129 200.979 283.061 200.979 284.478V284.487C200.979 285.912 200.229 286.836 199.073 286.836C198.449 286.836 197.905 286.524 197.656 286.039H197.588V288.274H196.855ZM198.904 286.187C199.735 286.187 200.229 285.545 200.229 284.487V284.478C200.229 283.42 199.735 282.779 198.904 282.779C198.078 282.779 197.572 283.428 197.572 284.478V284.487C197.572 285.537 198.078 286.187 198.904 286.187Z" fill="#ABB1BB"/>
<g clip-path="url(#clip8_1879_4523)">
<circle cx="301.548" cy="276.021" r="6.47802" fill="#B88917"/>
<path d="M298.617 276.871C298.617 276.871 299.311 276.871 300.237 278.49C300.237 278.49 302.809 274.249 305.095 273.4" stroke="white" stroke-width="0.694074" stroke-linecap="round" stroke-linejoin="round"/>
</g>
<g clip-path="url(#clip9_1879_4523)">
<circle cx="101.347" cy="330.313" r="22.2104" fill="#F5F5F9"/>
</g>
<path d="M131.926 327.58V319.755H133.325V326.403H136.915V327.58H131.926ZM140.548 327.699C138.786 327.699 137.717 326.517 137.717 324.63V324.625C137.717 322.76 138.796 321.539 140.483 321.539C142.169 321.539 143.21 322.722 143.21 324.511V324.956H139.068C139.084 326.018 139.659 326.637 140.575 326.637C141.307 326.637 141.725 326.268 141.855 325.997L141.871 325.959H143.156L143.14 326.008C142.95 326.772 142.158 327.699 140.548 327.699ZM140.499 322.597C139.745 322.597 139.181 323.107 139.078 324.05H141.893C141.8 323.079 141.253 322.597 140.499 322.597ZM146.014 327.58L143.904 321.653H145.347L146.719 326.262H146.811L148.172 321.653H149.592L147.494 327.58H146.014ZM153.03 327.699C151.268 327.699 150.2 326.517 150.2 324.63V324.625C150.2 322.76 151.279 321.539 152.965 321.539C154.652 321.539 155.693 322.722 155.693 324.511V324.956H151.55C151.566 326.018 152.141 326.637 153.057 326.637C153.789 326.637 154.207 326.268 154.337 325.997L154.353 325.959H155.639L155.622 326.008C155.432 326.772 154.641 327.699 153.03 327.699ZM152.982 322.597C152.228 322.597 151.664 323.107 151.561 324.05H154.375C154.283 323.079 153.735 322.597 152.982 322.597ZM157.097 327.58V319.36H158.447V327.58H157.097ZM165.936 327.775C164.336 327.775 163.257 326.799 163.154 325.514L163.149 325.444H164.439L164.445 325.482C164.548 326.121 165.139 326.631 165.941 326.631C166.858 326.631 167.487 325.986 167.487 325.064V325.053C167.487 324.142 166.847 323.502 165.952 323.502C165.513 323.502 165.133 323.633 164.846 323.893C164.705 324.012 164.575 324.164 164.483 324.337H163.284L163.664 319.755H168.36V320.905H164.754L164.537 323.285H164.629C164.954 322.76 165.562 322.445 166.299 322.445C167.758 322.445 168.815 323.53 168.815 325.026V325.037C168.815 326.664 167.628 327.775 165.936 327.775Z" fill="white"/>
</g>
</g>
<defs>
<filter id="filter0_d_1879_4523" x="0.84707" y="-37.1529" width="390.087" height="426.087" filterUnits="userSpaceOnUse" color-interpolation-filters="sRGB">
<feFlood flood-opacity="0" result="BackgroundImageFix"/>
<feColorMatrix in="SourceAlpha" type="matrix" values="0 0 0 0 0 0 0 0 0 0 0 0 0 0 0 0 0 0 127 0" result="hardAlpha"/>
<feMorphology radius="7.17149" operator="erode" in="SourceAlpha" result="effect1_dropShadow_1879_4523"/>
<feOffset dx="2.3905" dy="2.3905"/>
<feGaussianBlur stdDeviation="35.8575"/>
<feComposite in2="hardAlpha" operator="out"/>
<feColorMatrix type="matrix" values="0 0 0 0 0 0 0 0 0 0 0 0 0 0 0 0 0 0 0.08 0"/>
<feBlend mode="normal" in2="BackgroundImageFix" result="effect1_dropShadow_1879_4523"/>
<feBlend mode="normal" in="SourceGraphic" in2="effect1_dropShadow_1879_4523" result="shape"/>
</filter>
<clipPath id="clip0_1879_4523">
<rect x="63" y="25" width="261" height="297" rx="14.343" fill="white"/>
</clipPath>
<clipPath id="clip1_1879_4523">
<rect width="44.4207" height="44.4207" fill="white" transform="translate(79.1367 90.9355)"/>
</clipPath>
<clipPath id="clip2_1879_4523">
<rect width="12.956" height="12.956" fill="white" transform="translate(295.07 106.668)"/>
</clipPath>
<clipPath id="clip3_1879_4523">
<rect width="44.4207" height="44.4207" fill="white" transform="translate(79.1367 145.228)"/>
</clipPath>
<clipPath id="clip4_1879_4523">
<rect width="12.956" height="12.956" fill="white" transform="translate(295.07 160.96)"/>
</clipPath>
<clipPath id="clip5_1879_4523">
<rect width="44.4207" height="44.4207" fill="white" transform="translate(79.1367 199.52)"/>
</clipPath>
<clipPath id="clip6_1879_4523">
<rect width="12.956" height="12.956" fill="white" transform="translate(295.07 215.252)"/>
</clipPath>
<clipPath id="clip7_1879_4523">
<rect width="44.4207" height="44.4207" fill="white" transform="translate(79.1367 253.812)"/>
</clipPath>
<clipPath id="clip8_1879_4523">
<rect width="12.956" height="12.956" fill="white" transform="translate(295.07 269.544)"/>
</clipPath>
<clipPath id="clip9_1879_4523">
<rect width="44.4207" height="44.4207" fill="white" transform="translate(79.1367 308.104)"/>
</clipPath>
</defs>
</svg>
