<svg width="20" height="21" viewBox="0 0 20 21" fill="none" xmlns="http://www.w3.org/2000/svg">
<g clip-path="url(#clip0_1879_3742)">
<g clip-path="url(#clip1_1879_3742)">
<g clip-path="url(#clip2_1879_3742)">
<path fill-rule="evenodd" clip-rule="evenodd" d="M17.164 17.6885H14.324V13.0465C14.324 11.9405 14.305 10.5165 12.846 10.5165C11.366 10.5165 11.142 11.7235 11.142 12.9685V17.6885H8.30103V8.14448H11.026V9.44848H11.065C11.444 8.69848 12.371 7.90848 13.755 7.90848C16.633 7.90848 17.165 9.88348 17.165 12.4545L17.164 17.6885ZM5.09703 6.84048C4.88003 6.84048 4.66603 6.79648 4.46603 6.71048C4.26468 6.6234 4.08278 6.49692 3.93103 6.33848C3.77678 6.17735 3.65521 5.98786 3.57303 5.78048C3.4051 5.35795 3.40475 4.88727 3.57203 4.46448C3.65403 4.25548 3.77503 4.06548 3.92803 3.90548C4.07977 3.74679 4.26166 3.61998 4.46303 3.53248C4.66303 3.44548 4.87703 3.40148 5.09303 3.40048C5.53103 3.40048 5.95003 3.58048 6.25903 3.90348C6.56903 4.22548 6.74303 4.66348 6.74303 5.11948C6.74303 5.57548 6.57003 6.01348 6.26203 6.33548C6.11208 6.49405 5.93152 6.62056 5.73128 6.70736C5.53104 6.79416 5.31527 6.83945 5.09703 6.84048ZM3.67303 17.6885H6.51803V8.14448H3.67203L3.67303 17.6885ZM18.579 0.646484H2.24603C1.46603 0.646484 0.832031 1.29248 0.832031 2.08848V19.2035C0.832031 19.9995 1.46603 20.6465 2.24603 20.6465H18.58C19.362 20.6465 19.999 19.9995 19.999 19.2035V2.08848C19.999 1.29248 19.362 0.646484 18.579 0.646484Z" fill="white"/>
</g>
</g>
</g>
<defs>
<clipPath id="clip0_1879_3742">
<rect width="20" height="20" fill="white" transform="translate(0 0.646484)"/>
</clipPath>
<clipPath id="clip1_1879_3742">
<rect width="20" height="20" fill="white" transform="translate(0 0.646484)"/>
</clipPath>
<clipPath id="clip2_1879_3742">
<rect width="20" height="21" fill="white" transform="translate(0 0.146484)"/>
</clipPath>
</defs>
</svg>
