<svg width="46" height="46" viewBox="0 0 46 46" fill="none" xmlns="http://www.w3.org/2000/svg">
<g clip-path="url(#clip0_1879_5420)">
<path d="M10.281 29.4487L7.41817 27.2257C6.25043 26.319 6.03575 24.6125 6.94249 23.4448L9.16546 20.5819C9.5457 20.0922 9.78968 19.1948 9.71391 18.5925L9.26138 14.9956C9.07616 13.5234 10.1292 12.1674 11.6014 11.9822L15.1983 11.5296C15.8005 11.4539 16.6095 10.9952 16.9898 10.5055L19.2128 7.64267C20.1195 6.47493 21.8259 6.26025 22.9937 7.16699L25.8565 9.39001C26.3462 9.77026 27.2436 10.0142 27.8459 9.93842L31.4428 9.48589C32.915 9.30067 34.2711 10.3536 34.4563 11.8258L34.9088 15.4228C34.9846 16.025 35.4432 16.8341 35.9329 17.2143L38.7958 19.4373C39.9635 20.344 40.1782 22.0505 39.2715 23.2182L37.0485 26.0811C36.6682 26.5707 36.4242 27.4682 36.5 28.0704L36.9525 31.6671C37.1377 33.1394 36.0848 34.4956 34.6126 34.6808L31.0157 35.1333C30.4134 35.2091 29.6044 35.6678 29.2242 36.1575L27.0012 39.0203C26.0944 40.1881 24.388 40.4027 23.2203 39.496L20.3574 37.273C19.8677 36.8928 18.9703 36.6488 18.368 36.7246L14.7712 37.1771C13.2989 37.3623 11.9428 36.3091 11.7576 34.8369L11.3051 31.2402C11.2272 30.6212 10.7686 29.8122 10.281 29.4487Z" stroke="black" stroke-width="1.89693" stroke-linecap="round" stroke-linejoin="round"/>
<path d="M18.7355 28.9616L27.5105 17.661" stroke="black" stroke-width="1.89693" stroke-linecap="round" stroke-linejoin="round"/>
<path d="M27.8242 26.9688L27.8378 26.967" stroke="black" stroke-width="2.52923" stroke-linecap="round" stroke-linejoin="round"/>
<path d="M18.4062 19.6562L18.4198 19.6545" stroke="black" stroke-width="2.52923" stroke-linecap="round" stroke-linejoin="round"/>
</g>
<defs>
<clipPath id="clip0_1879_5420">
<rect width="40.4677" height="40.4677" fill="white" transform="translate(0.523438 5.76172) rotate(-7.17075)"/>
</clipPath>
</defs>
</svg>
