<svg width="164" height="50" viewBox="0 0 164 50" fill="none" xmlns="http://www.w3.org/2000/svg">
<path d="M6.34364 19.2871H7.27014L13.5189 24.6346V25.8362L7.27014 32.2652H6.36854C6.10062 32.2652 5.84485 32.1534 5.6629 31.9567L0.217342 26.0711C0.0776146 25.9201 0 25.722 0 25.5162C0 25.2981 0.0872318 25.089 0.242269 24.9355L5.66733 19.5652C5.84733 19.3871 6.09037 19.2871 6.34364 19.2871Z" fill="url(#paint0_linear_2605_1976)" fill-opacity="0.5"/>
<path d="M46.7071 19.2871H45.7806L39.5319 24.6346V25.8362L45.7806 32.2652H46.6822C46.9502 32.2652 47.2059 32.1534 47.3879 31.9567L52.8334 26.0711C52.9732 25.9201 53.0508 25.722 53.0508 25.5162C53.0508 25.2981 52.9635 25.089 52.8085 24.9355L47.3835 19.5652C47.2035 19.3871 46.9604 19.2871 46.7071 19.2871Z" fill="url(#paint1_linear_2605_1976)" fill-opacity="0.5"/>
<path d="M7.43149 20.0659L11.7769 24.5743V27.5785H11.5366L7.39525 31.7736C7.08444 32.0885 6.91016 32.5131 6.91016 32.9555V34.7143C6.91016 35.1476 7.0773 35.5641 7.37677 35.8772L11.7006 40.3976C12.018 40.7294 12.4572 40.9171 12.9164 40.9171H18.5664V41.6381L25.8752 49.0044C26.0812 49.212 26.3616 49.3288 26.654 49.3288C26.939 49.3288 27.2128 49.2179 27.4174 49.0197L34.789 41.8784L34.9092 40.9171H40.0508C40.4909 40.9171 40.9134 40.7447 41.2279 40.4368L46.0001 35.764C46.3232 35.4475 46.5054 35.0143 46.5054 34.5619V33.0158C46.5054 32.5733 46.331 32.1485 46.02 31.8336L41.6987 27.4583V24.5743L46.02 20.1989C46.331 19.8841 46.5054 19.4593 46.5054 19.0168V16.1882C46.5054 15.7481 46.3329 15.3255 46.025 15.0111L41.2922 10.1787C40.9758 9.85559 40.5425 9.67349 40.0903 9.67349H34.9092V8.32749C34.9092 7.88131 34.732 7.4534 34.4165 7.1379L27.6998 0.421259C27.4301 0.151531 27.0643 0 26.6828 0C26.2954 0 25.9243 0.156328 25.6536 0.433584L19.1651 7.08039C18.8583 7.39464 18.6866 7.8164 18.6866 8.25557V9.67349H13.4851C13.0449 9.67349 12.6223 9.84601 12.3078 10.154L7.42551 14.9367C7.09643 15.2591 6.91393 15.7023 6.92061 16.1629L6.96061 18.9227C6.9668 19.3497 7.13514 19.7584 7.43149 20.0659Z" fill="#2E3B55"/>
<path d="M17.6627 21.0296L9.19092 13.2188L6.84766 15.3217V19.5275L12.4955 25.4758L17.6627 21.0296Z" fill="#586277"/>
<path d="M46.5631 32.3855L41.3958 27.0981L38.5719 30.2826L45.2412 36.5914L46.5631 35.2695V32.3855Z" fill="#586277"/>
<path d="M28.9764 10.2148H24.8461C24.5943 10.2148 24.3525 10.3137 24.1727 10.4901L11.8231 22.6099C11.6389 22.7907 11.5352 23.0379 11.5352 23.296V28.5877C11.5352 28.8633 11.6534 29.1256 11.8599 29.3081L24.1805 40.196C24.3562 40.3513 24.5826 40.437 24.8171 40.437H29.0577C29.3033 40.437 29.5396 40.343 29.7181 40.1743L41.2361 29.2866C41.4163 29.1162 41.5238 28.8828 41.5359 28.635L41.7968 23.3126C41.8099 23.0448 41.7106 22.7837 41.5229 22.5923L29.6627 10.5029C29.4819 10.3187 29.2346 10.2148 28.9764 10.2148Z" fill="#1C2333"/>
<path d="M22.3147 20.9264L26.2331 18.1132C26.6061 17.8453 27.1077 17.8423 27.484 18.1057L31.4711 20.8967C31.5973 20.985 31.7032 21.0993 31.7816 21.2318L33.1555 23.5532C33.3141 23.8212 33.3495 24.1445 33.2526 24.4404L31.3314 30.3109C31.2728 30.4899 31.1685 30.6505 31.0288 30.7768L27.5989 33.8778C27.1796 34.2568 26.5392 34.2492 26.1292 33.8602L22.3618 30.286C22.2354 30.166 22.1398 30.0173 22.0832 29.8524L20.2471 24.5014C20.1337 24.171 20.1869 23.8061 20.39 23.5218L22.0654 21.1763C22.1342 21.0799 22.2184 20.9955 22.3147 20.9264Z" fill="url(#paint2_radial_2605_1976)"/>
<path d="M68.1863 11.6401C68.9969 11.3361 69.8709 11.1841 70.8083 11.1841C73.0629 11.1841 74.1903 12.2101 74.1903 14.2621C74.1903 15.3767 74.0636 17.2134 73.8103 19.7721C73.5569 22.3054 73.4303 24.9401 73.4303 27.6761C73.4303 30.4121 73.5189 32.6794 73.6963 34.4781C74.3803 34.5541 75.0643 34.5921 75.7483 34.5921C79.0923 34.5921 82.0309 34.0347 84.5643 32.9201C84.8683 33.6041 85.0203 34.3767 85.0203 35.2381C85.0203 36.0994 84.7163 36.8467 84.1083 37.4801C83.5256 38.0881 82.8036 38.3921 81.9423 38.3921C80.1436 38.3921 76.2043 38.2401 70.1243 37.9361C69.6429 37.9107 69.2249 37.7714 68.8703 37.5181C68.5156 37.2394 68.3383 36.8974 68.3383 36.4921C68.3383 35.1494 68.4396 32.8821 68.6423 29.6901C68.8703 26.4981 68.9843 23.5594 68.9843 20.8741C68.9843 18.1634 68.7183 15.0854 68.1863 11.6401ZM87.8198 34.2881L88.1998 26.3841C88.1998 23.9267 87.8451 21.5961 87.1358 19.3921C87.8451 19.0881 88.7191 18.9361 89.7578 18.9361C91.7844 18.9361 92.7978 20.0634 92.7978 22.3181C92.7978 23.5847 92.6584 25.3707 92.3798 27.6761C92.1011 29.9561 91.9618 31.6154 91.9618 32.6541C91.9618 33.9207 92.5318 34.5541 93.6718 34.5541C94.3558 34.5541 95.1538 33.9841 96.0658 32.8441C97.0031 31.6787 97.8011 30.3867 98.4598 28.9681C99.1438 27.5241 99.5491 26.3461 99.6758 25.4341C99.5238 22.6474 99.3084 20.6334 99.0298 19.3921C99.8404 19.0881 100.664 18.9361 101.5 18.9361C102.361 18.9361 103.07 19.2021 103.628 19.7341C104.21 20.2661 104.502 20.9247 104.502 21.7101C104.502 22.4954 104.388 23.8001 104.16 25.6241C103.932 27.4481 103.818 29.3607 103.818 31.3621C103.818 33.3381 104.046 35.4534 104.502 37.7081C103.514 38.0121 102.627 38.1641 101.842 38.1641C100.271 38.1641 99.4858 37.1254 99.4858 35.0481C99.4858 34.1361 99.5871 32.8694 99.7898 31.2481C98.7764 33.4014 97.5351 35.1367 96.0658 36.4541C94.6218 37.7461 93.1524 38.3921 91.6578 38.3921C89.0991 38.3921 87.8198 37.0241 87.8198 34.2881ZM125.849 20.1521C125.266 25.1934 124.975 28.7781 124.975 30.9061C124.975 36.2514 125.317 41.6854 126.001 47.2081C125.241 47.5121 124.43 47.6641 123.569 47.6641C122.707 47.6641 121.973 47.3727 121.365 46.7901C120.757 46.2074 120.453 45.4727 120.453 44.5861C120.453 43.0661 120.541 40.6467 120.719 37.3281C120.921 34.0094 121.048 31.7801 121.099 30.6401C119.401 34.3894 117.679 36.7581 115.931 37.7461C115.171 38.1767 114.36 38.3921 113.499 38.3921C111.573 38.3921 110.091 37.6827 109.053 36.2641C108.039 34.8454 107.533 33.0721 107.533 30.9441C107.533 27.6507 108.445 24.7881 110.269 22.3561C112.093 19.9241 114.537 18.7081 117.603 18.7081C120.668 18.7081 123.417 19.1894 125.849 20.1521ZM121.289 22.5461C119.946 22.1407 118.806 21.9381 117.869 21.9381C115.969 21.9381 114.525 22.3434 113.537 23.1541C112.65 25.1807 112.207 27.4987 112.207 30.1081C112.207 31.2734 112.371 32.3881 112.701 33.4521C113.03 34.4907 113.575 35.0101 114.335 35.0101C115.221 35.0101 116.387 33.7054 117.831 31.0961C119.275 28.4867 120.427 25.6367 121.289 22.5461ZM130.892 13.3501C131.702 12.9447 132.526 12.7421 133.362 12.7421C134.198 12.7421 134.869 13.0081 135.376 13.5401C135.908 14.0721 136.174 14.8574 136.174 15.8961C136.174 16.9347 136.11 18.1127 135.984 19.4301C137.884 19.4301 139.695 19.1641 141.418 18.6321C141.722 19.1387 141.874 19.7341 141.874 20.4181C141.874 21.0767 141.57 21.6214 140.962 22.0521C140.379 22.4574 139.784 22.6601 139.176 22.6601C138.568 22.6601 137.884 22.5841 137.124 22.4321C136.364 22.2801 135.87 22.1914 135.642 22.1661C135.616 22.3941 135.54 22.8501 135.414 23.5341C135.312 24.2181 135.224 24.8134 135.148 25.3201C134.945 26.7134 134.844 28.2081 134.844 29.8041C134.844 33.2747 135.971 35.0101 138.226 35.0101C139.062 35.0101 140.024 34.7187 141.114 34.1361C141.443 34.6174 141.608 35.2381 141.608 35.9981C141.608 36.7581 141.19 37.3534 140.354 37.7841C139.543 38.1894 138.568 38.3921 137.428 38.3921C132.969 38.3921 130.74 35.8587 130.74 30.7921C130.74 30.0574 130.841 28.7274 131.044 26.8021C131.272 24.8767 131.386 23.3187 131.386 22.1281C130.17 22.2041 129.194 22.4194 128.46 22.7741C128.156 22.3181 128.004 21.7987 128.004 21.2161C128.004 20.6081 128.219 20.1141 128.65 19.7341C129.08 19.3287 129.612 19.1261 130.246 19.1261C130.879 19.1261 131.297 19.1387 131.5 19.1641C131.525 18.9614 131.538 18.6954 131.538 18.3661C131.538 16.4661 131.322 14.7941 130.892 13.3501ZM161.768 20.2661C161.084 23.1794 160.742 26.1054 160.742 29.0441C160.742 31.9574 161.071 34.8454 161.73 37.7081C160.818 38.0121 159.88 38.1641 158.918 38.1641C157.955 38.1641 157.284 37.8854 156.904 37.3281C156.524 36.7454 156.334 35.9221 156.334 34.8581C156.334 33.7687 156.498 32.2867 156.828 30.4121C155.029 34.2627 153.294 36.6947 151.622 37.7081C150.862 38.1641 150.076 38.3921 149.266 38.3921C147.34 38.3921 145.846 37.6827 144.782 36.2641C143.718 34.8201 143.186 33.0341 143.186 30.9061C143.186 27.6634 144.085 24.8261 145.884 22.3941C147.682 19.9367 150.013 18.7081 152.876 18.7081C155.764 18.7081 158.728 19.2274 161.768 20.2661ZM156.79 22.5461C155.447 22.1407 154.307 21.9381 153.37 21.9381C151.47 21.9381 150.051 22.3561 149.114 23.1921C148.252 25.3201 147.822 27.4861 147.822 29.6901C147.822 30.8554 147.999 32.0334 148.354 33.2241C148.734 34.4147 149.304 35.0101 150.064 35.0101C150.95 35.0101 152.09 33.7054 153.484 31.0961C154.877 28.4867 155.979 25.6367 156.79 22.5461Z" fill="#2E3B55"/>
<defs>
<linearGradient id="paint0_linear_2605_1976" x1="0.540754" y1="25.1152" x2="11.5361" y2="25.7762" gradientUnits="userSpaceOnUse">
<stop stop-color="#D5D8DD"/>
<stop offset="1" stop-color="#737477"/>
</linearGradient>
<linearGradient id="paint1_linear_2605_1976" x1="53.0508" y1="25.7762" x2="40.7336" y2="25.7762" gradientUnits="userSpaceOnUse">
<stop stop-color="#D5D8DD"/>
<stop offset="1" stop-color="#737477"/>
</linearGradient>
<radialGradient id="paint2_radial_2605_1976" cx="0" cy="0" r="1" gradientUnits="userSpaceOnUse" gradientTransform="translate(26.7357 26.1078) rotate(90) scale(8.44177 6.6693)">
<stop stop-color="#F1E7D1"/>
<stop offset="1" stop-color="#D4B874"/>
</radialGradient>
</defs>
</svg>
