<svg width="383" height="382" viewBox="0 0 383 382" fill="none" xmlns="http://www.w3.org/2000/svg">
<path d="M280.781 34.6152V323.919H70.3047V346.92H303.782V34.6152H280.781Z" fill="#ABB1BB"/>
<path d="M70.3047 335.767H292.628V34.6152H280.781V323.919H70.3047V335.767Z" fill="black" fill-opacity="0.0313726"/>
<path d="M106.657 11.9062L47.5938 70.9691V324.211H281.071V11.9062H106.657Z" fill="#F5F5F9"/>
<path d="M182.132 299.995C228.316 299.995 265.756 262.555 265.756 216.37C265.756 170.186 228.316 132.746 182.132 132.746C135.948 132.746 98.5078 170.186 98.5078 216.37C98.5078 262.555 135.948 299.995 182.132 299.995Z" fill="#D4B874"/>
<path d="M224.377 258.617C201.087 281.907 163.175 281.907 139.885 258.617C116.595 235.327 116.595 197.416 139.885 174.126C163.175 150.836 201.087 150.836 224.377 174.126C247.724 197.416 247.724 235.327 224.377 258.617Z" fill="#B88917"/>
<path d="M259.63 279.941L247.783 268.094C245.761 270.637 243.622 273.122 241.253 275.491C238.883 277.861 236.398 279.999 233.855 282.021L245.703 293.869C244.374 299.879 245.992 306.352 250.615 311.033L303.957 364.374C311.18 371.598 322.912 371.598 330.136 364.374C337.36 357.15 337.36 345.419 330.136 338.195L276.795 284.853C274.591 282.637 271.857 281.022 268.852 280.162C265.848 279.302 262.673 279.226 259.63 279.941Z" fill="#2E3B55"/>
<path d="M106.368 70.6781V11.6152L47.3047 70.6781H106.368Z" fill="#ABB1BB"/>
<path d="M188.257 216.371L207.27 197.357C208.946 195.682 208.946 192.908 207.27 191.232C205.594 189.556 202.82 189.556 201.144 191.232L182.131 210.245L163.117 191.232C161.441 189.556 158.667 189.556 156.991 191.232C155.315 192.908 155.315 195.682 156.991 197.357L176.005 216.371L156.991 235.384C155.315 237.06 155.315 239.834 156.991 241.51C157.858 242.377 158.956 242.782 160.054 242.782C161.152 242.782 162.25 242.377 163.117 241.51L182.131 222.497L201.144 241.51C202.011 242.377 203.109 242.782 204.207 242.782C205.305 242.782 206.403 242.377 207.27 241.51C208.946 239.834 208.946 237.06 207.27 235.384L188.257 216.371Z" fill="white"/>
<path d="M139.135 41.7254H248.65C251.019 41.7254 252.984 39.7605 252.984 37.391C252.984 35.0216 251.019 33.0566 248.65 33.0566H139.135C136.766 33.0566 134.801 35.0216 134.801 37.391C134.801 39.7605 136.766 41.7254 139.135 41.7254ZM248.592 56.1732H139.135C136.766 56.1732 134.801 58.1381 134.801 60.5076C134.801 62.877 136.766 64.8419 139.135 64.8419H248.65C251.019 64.8419 252.984 62.877 252.984 60.5076C252.984 58.1381 251.019 56.1732 248.592 56.1732ZM248.592 79.2898H191.09C188.72 79.2898 186.755 81.2547 186.755 83.6242C186.755 85.9936 188.72 87.9585 191.09 87.9585H248.592C249.742 87.9585 250.844 87.5019 251.657 86.689C252.47 85.8762 252.927 84.7737 252.927 83.6242C252.927 82.4746 252.47 81.3722 251.657 80.5593C250.844 79.7465 249.742 79.2898 248.592 79.2898ZM248.592 102.406H191.09C188.72 102.406 186.755 104.371 186.755 106.741C186.755 109.11 188.72 111.075 191.09 111.075H248.592C249.742 111.075 250.844 110.618 251.657 109.806C252.47 108.993 252.927 107.89 252.927 106.741C252.927 105.591 252.47 104.489 251.657 103.676C250.844 102.863 249.742 102.406 248.592 102.406Z" fill="#E3D0A2"/>
</svg>
