<svg width="392" height="376" viewBox="0 0 392 376" fill="none" xmlns="http://www.w3.org/2000/svg">
<g filter="url(#filter0_d_1879_4620)">
<g clip-path="url(#clip0_1879_4620)">
<rect x="63" y="63" width="261.162" height="245.624" rx="14.343" fill="white"/>
<path d="M85.6822 94.782C87.1101 94.2975 88.589 94.0553 90.119 94.0553C91.6489 94.0553 92.9174 94.3804 93.9246 95.0306C94.9318 95.6808 95.4354 96.6753 95.4354 98.0139C95.4354 99.3526 94.9637 100.481 94.0202 101.399C93.0768 102.304 91.9421 102.757 90.6162 102.757C89.6472 102.757 89.1628 102.387 89.1628 101.647C89.1628 101.418 89.2074 101.176 89.2966 100.921C89.6409 101.01 89.9532 101.055 90.2337 101.055C91.1134 101.055 91.7764 100.812 92.2226 100.328C92.6816 99.8435 92.9111 99.1741 92.9111 98.3199C92.9111 97.453 92.6688 96.8091 92.1843 96.3884C91.6999 95.9677 91.0242 95.7573 90.1572 95.7573C89.711 95.7573 89.1691 95.8338 88.5317 95.9868C88.4297 97.555 88.3787 98.9446 88.3787 100.156C88.3787 103.547 88.5125 106.001 88.7803 107.519C88.3723 107.672 87.9388 107.748 87.4798 107.748C87.0209 107.748 86.6193 107.601 86.275 107.308C85.9435 107.015 85.7778 106.626 85.7778 106.142C85.7778 105.657 85.8416 104.816 85.969 103.617C86.0965 102.406 86.1603 101.437 86.1603 100.71C86.1603 98.492 86.0009 96.5159 85.6822 94.782ZM104.204 98.7407C103.86 100.207 103.688 101.679 103.688 103.158C103.688 104.624 103.853 106.078 104.185 107.519C103.726 107.672 103.254 107.748 102.77 107.748C102.285 107.748 101.947 107.608 101.756 107.327C101.565 107.034 101.469 106.62 101.469 106.084C101.469 105.536 101.552 104.79 101.718 103.847C100.813 105.785 99.9393 107.009 99.0978 107.519C98.7153 107.748 98.3201 107.863 97.9121 107.863C96.9432 107.863 96.191 107.506 95.6555 106.792C95.12 106.065 94.8523 105.166 94.8523 104.095C94.8523 102.463 95.3049 101.036 96.2101 99.8116C97.1153 98.5749 98.2882 97.9566 99.7289 97.9566C101.182 97.9566 102.674 98.2179 104.204 98.7407ZM101.699 99.8881C101.023 99.6841 100.449 99.5821 99.9775 99.5821C99.0213 99.5821 98.3074 99.7925 97.8356 100.213C97.4021 101.284 97.1854 102.374 97.1854 103.483C97.1854 104.07 97.2747 104.663 97.4531 105.262C97.6444 105.861 97.9312 106.161 98.3137 106.161C98.76 106.161 99.3337 105.504 100.035 104.191C100.736 102.878 101.291 101.444 101.699 99.8881ZM108.697 107.519C108.301 107.672 107.881 107.748 107.434 107.748C106.988 107.748 106.625 107.646 106.344 107.442C106.077 107.225 105.943 106.932 105.943 106.562C105.943 106.18 106 105.491 106.115 104.497C106.23 103.503 106.287 102.54 106.287 101.609C106.287 100.666 106.14 99.563 105.847 98.3008C106.255 98.1478 106.657 98.0713 107.052 98.0713C107.447 98.0713 107.785 98.2052 108.065 98.4729C108.359 98.7407 108.505 99.0976 108.505 99.5439C108.505 99.7733 108.467 100.118 108.391 100.577C108.314 101.023 108.269 101.361 108.257 101.59C108.754 100.455 109.34 99.5694 110.016 98.9319C110.705 98.2817 111.387 97.9566 112.062 97.9566C112.534 97.9566 112.91 98.1223 113.191 98.4538C113.471 98.7853 113.611 99.206 113.611 99.716C113.611 100.213 113.484 100.621 113.229 100.94C112.974 101.246 112.655 101.399 112.273 101.399C111.903 101.399 111.603 101.361 111.374 101.284C111.412 101.131 111.431 100.991 111.431 100.863C111.431 100.341 111.246 100.079 110.877 100.079C110.316 100.079 109.787 100.647 109.289 101.781C108.805 102.903 108.48 103.955 108.314 104.937C108.378 105.893 108.505 106.754 108.697 107.519ZM115.371 95.2601C115.779 95.0561 116.194 94.9541 116.614 94.9541C117.035 94.9541 117.373 95.088 117.628 95.3557C117.896 95.6234 118.03 96.0187 118.03 96.5414C118.03 97.0641 117.998 97.657 117.934 98.3199C118.89 98.3199 119.802 98.1861 120.669 97.9183C120.822 98.1733 120.898 98.4729 120.898 98.8171C120.898 99.1486 120.745 99.4227 120.439 99.6395C120.146 99.8435 119.846 99.9455 119.54 99.9455C119.234 99.9455 118.89 99.9072 118.508 99.8307C118.125 99.7542 117.877 99.7096 117.762 99.6969C117.749 99.8116 117.711 100.041 117.647 100.385C117.596 100.73 117.552 101.029 117.513 101.284C117.411 101.985 117.36 102.738 117.36 103.541C117.36 105.287 117.928 106.161 119.062 106.161C119.483 106.161 119.968 106.014 120.516 105.721C120.682 105.963 120.764 106.276 120.764 106.658C120.764 107.04 120.554 107.34 120.133 107.557C119.725 107.761 119.234 107.863 118.661 107.863C116.417 107.863 115.295 106.588 115.295 104.038C115.295 103.668 115.346 102.999 115.448 102.03C115.563 101.061 115.62 100.277 115.62 99.6777C115.008 99.716 114.517 99.8243 114.147 100.003C113.994 99.7733 113.918 99.512 113.918 99.2188C113.918 98.9128 114.026 98.6642 114.243 98.4729C114.46 98.2689 114.728 98.1669 115.046 98.1669C115.365 98.1669 115.575 98.1733 115.677 98.1861C115.69 98.0841 115.697 97.9502 115.697 97.7845C115.697 96.8283 115.588 95.9868 115.371 95.2601ZM122.247 98.2434C122.655 98.1287 123.063 98.0713 123.471 98.0713C123.892 98.0713 124.249 98.1988 124.542 98.4538C124.835 98.7088 124.982 99.0403 124.982 99.4482C124.982 99.8435 124.912 100.538 124.771 101.533C124.644 102.514 124.58 103.279 124.58 103.828C124.58 105.256 124.714 106.486 124.982 107.519C124.587 107.672 124.159 107.748 123.701 107.748C123.242 107.748 122.878 107.646 122.61 107.442C122.343 107.225 122.209 106.919 122.209 106.524C122.209 106.116 122.285 105.453 122.438 104.535C122.591 103.617 122.668 102.859 122.668 102.259C122.668 100.666 122.528 99.3271 122.247 98.2434ZM122.496 93.9214C122.942 93.7174 123.382 93.6154 123.815 93.6154C124.249 93.6154 124.567 93.7302 124.771 93.9597C124.988 94.1764 125.097 94.5015 125.097 94.935C125.097 95.3685 124.95 95.7509 124.657 96.0824C124.376 96.4139 124.006 96.5796 123.548 96.5796C122.604 96.5796 122.132 96.0888 122.132 95.1071C122.132 94.6736 122.253 94.2784 122.496 93.9214ZM130.851 107.978C129.486 107.978 128.441 107.614 127.714 106.887C126.988 106.161 126.624 105.115 126.624 103.751C126.624 102.094 127.09 100.698 128.02 99.563C128.951 98.4155 130.188 97.8418 131.73 97.8418C132.61 97.8418 133.324 98.0203 133.872 98.3773C134.42 98.7215 134.695 99.2379 134.695 99.9263C134.695 100.373 134.516 100.774 134.159 101.131C133.802 101.475 133.401 101.647 132.954 101.647C132.852 101.647 132.725 101.635 132.572 101.609C132.61 101.444 132.629 101.297 132.629 101.169C132.629 100.71 132.508 100.322 132.266 100.003C132.024 99.6841 131.622 99.5247 131.061 99.5247C130.5 99.5247 129.977 99.7542 129.493 100.213C129.149 101.106 128.976 102.221 128.976 103.56C128.976 105.383 129.665 106.295 131.042 106.295C131.781 106.295 132.33 106.059 132.687 105.587C133.056 105.103 133.241 104.561 133.241 103.961C133.675 103.961 134.051 104.07 134.369 104.287C134.688 104.503 134.848 104.803 134.848 105.185C134.848 106.014 134.42 106.69 133.566 107.213C132.725 107.723 131.82 107.978 130.851 107.978ZM136.609 98.2434C137.017 98.1287 137.425 98.0713 137.833 98.0713C138.253 98.0713 138.61 98.1988 138.904 98.4538C139.197 98.7088 139.343 99.0403 139.343 99.4482C139.343 99.8435 139.273 100.538 139.133 101.533C139.006 102.514 138.942 103.279 138.942 103.828C138.942 105.256 139.076 106.486 139.343 107.519C138.948 107.672 138.521 107.748 138.062 107.748C137.603 107.748 137.24 107.646 136.972 107.442C136.704 107.225 136.57 106.919 136.57 106.524C136.57 106.116 136.647 105.453 136.8 104.535C136.953 103.617 137.029 102.859 137.029 102.259C137.029 100.666 136.889 99.3271 136.609 98.2434ZM136.857 93.9214C137.304 93.7174 137.743 93.6154 138.177 93.6154C138.61 93.6154 138.929 93.7302 139.133 93.9597C139.35 94.1764 139.458 94.5015 139.458 94.935C139.458 95.3685 139.312 95.7509 139.018 96.0824C138.738 96.4139 138.368 96.5796 137.909 96.5796C136.966 96.5796 136.494 96.0888 136.494 95.1071C136.494 94.6736 136.615 94.2784 136.857 93.9214ZM143.874 105.874C144.396 106.065 145.002 106.161 145.69 106.161C146.379 106.161 146.984 106.027 147.507 105.759C148.132 104.688 148.444 103.407 148.444 101.915C148.444 100.411 148.183 99.6586 147.66 99.6586C147.01 99.6586 146.277 100.315 145.461 101.628C144.658 102.942 144.129 104.357 143.874 105.874ZM143.874 101.953C145.225 99.2889 146.723 97.9566 148.368 97.9566C149.235 97.9566 149.853 98.3135 150.223 99.0275C150.605 99.7287 150.796 100.621 150.796 101.705C150.796 103.26 150.338 104.675 149.42 105.95C148.502 107.225 147.348 107.863 145.958 107.863C145.168 107.863 144.447 107.735 143.797 107.48C143.823 109.227 143.931 110.827 144.122 112.28C143.714 112.433 143.294 112.51 142.86 112.51C142.427 112.51 142.07 112.363 141.789 112.07C141.509 111.79 141.368 111.356 141.368 110.77C141.368 110.183 141.445 109.182 141.598 107.767C141.751 106.352 141.827 105.243 141.827 104.44C141.827 101.788 141.687 99.7415 141.407 98.3008C141.815 98.1478 142.242 98.0713 142.688 98.0713C143.147 98.0713 143.498 98.2052 143.74 98.4729C143.995 98.7279 144.122 99.1359 144.122 99.6969C144.122 100.245 144.039 100.997 143.874 101.953ZM161.109 98.7407C160.765 100.207 160.593 101.679 160.593 103.158C160.593 104.624 160.758 106.078 161.09 107.519C160.631 107.672 160.159 107.748 159.675 107.748C159.19 107.748 158.852 107.608 158.661 107.327C158.47 107.034 158.374 106.62 158.374 106.084C158.374 105.536 158.457 104.79 158.623 103.847C157.718 105.785 156.844 107.009 156.003 107.519C155.62 107.748 155.225 107.863 154.817 107.863C153.848 107.863 153.096 107.506 152.561 106.792C152.025 106.065 151.757 105.166 151.757 104.095C151.757 102.463 152.21 101.036 153.115 99.8116C154.02 98.5749 155.193 97.9566 156.634 97.9566C158.087 97.9566 159.579 98.2179 161.109 98.7407ZM158.604 99.8881C157.928 99.6841 157.354 99.5821 156.883 99.5821C155.926 99.5821 155.212 99.7925 154.741 100.213C154.307 101.284 154.09 102.374 154.09 103.483C154.09 104.07 154.18 104.663 154.358 105.262C154.549 105.861 154.836 106.161 155.219 106.161C155.665 106.161 156.239 105.504 156.94 104.191C157.641 102.878 158.196 101.444 158.604 99.8881ZM171.702 100.022L171.511 104.229C171.511 105.389 171.689 106.524 172.046 107.633C171.689 107.786 171.281 107.863 170.822 107.863C169.739 107.863 169.197 107.257 169.197 106.046C169.197 105.498 169.267 104.58 169.407 103.292C169.548 101.992 169.618 101.176 169.618 100.844C169.618 100.207 169.331 99.8881 168.757 99.8881C168.336 99.8881 167.858 100.194 167.323 100.806C166.8 101.405 166.347 102.081 165.965 102.833C165.595 103.573 165.378 104.185 165.315 104.669C165.366 105.664 165.493 106.613 165.697 107.519C165.289 107.672 164.862 107.748 164.416 107.748C163.982 107.748 163.625 107.646 163.345 107.442C163.077 107.225 162.943 106.932 162.943 106.562C162.943 106.18 163.001 105.504 163.115 104.535C163.23 103.554 163.288 102.585 163.288 101.628C163.288 100.659 163.141 99.5502 162.848 98.3008C163.256 98.1478 163.689 98.0713 164.148 98.0713C164.607 98.0713 164.977 98.2052 165.257 98.4729C165.551 98.7407 165.697 99.0721 165.697 99.4674C165.697 99.8626 165.646 100.494 165.544 101.361C166.029 100.455 166.66 99.665 167.438 98.9893C168.215 98.3008 168.993 97.9566 169.771 97.9566C171.058 97.9566 171.702 98.645 171.702 100.022ZM174.742 95.2601C175.15 95.0561 175.564 94.9541 175.985 94.9541C176.405 94.9541 176.743 95.088 176.998 95.3557C177.266 95.6234 177.4 96.0187 177.4 96.5414C177.4 97.0641 177.368 97.657 177.304 98.3199C178.26 98.3199 179.172 98.1861 180.039 97.9183C180.192 98.1733 180.268 98.4729 180.268 98.8171C180.268 99.1486 180.116 99.4227 179.81 99.6395C179.516 99.8435 179.217 99.9455 178.911 99.9455C178.605 99.9455 178.26 99.9072 177.878 99.8307C177.496 99.7542 177.247 99.7096 177.132 99.6969C177.119 99.8116 177.081 100.041 177.017 100.385C176.966 100.73 176.922 101.029 176.884 101.284C176.782 101.985 176.731 102.738 176.731 103.541C176.731 105.287 177.298 106.161 178.433 106.161C178.853 106.161 179.338 106.014 179.886 105.721C180.052 105.963 180.135 106.276 180.135 106.658C180.135 107.04 179.924 107.34 179.504 107.557C179.096 107.761 178.605 107.863 178.031 107.863C175.787 107.863 174.665 106.588 174.665 104.038C174.665 103.668 174.716 102.999 174.818 102.03C174.933 101.061 174.99 100.277 174.99 99.6777C174.378 99.716 173.887 99.8243 173.518 100.003C173.365 99.7733 173.288 99.512 173.288 99.2188C173.288 98.9128 173.397 98.6642 173.613 98.4729C173.83 98.2689 174.098 98.1669 174.417 98.1669C174.735 98.1669 174.946 98.1733 175.048 98.1861C175.06 98.0841 175.067 97.9502 175.067 97.7845C175.067 96.8283 174.958 95.9868 174.742 95.2601ZM183.243 104.267C183.205 104.446 183.185 104.593 183.185 104.707C183.185 105.23 183.338 105.632 183.644 105.912C183.963 106.193 184.384 106.333 184.907 106.333C185.442 106.333 185.882 106.237 186.226 106.046C186.583 105.842 186.762 105.542 186.762 105.147C186.762 104.752 186.57 104.44 186.188 104.21C185.818 103.968 185.366 103.777 184.83 103.636C184.307 103.496 183.778 103.343 183.243 103.177C182.707 102.999 182.248 102.725 181.866 102.355C181.496 101.985 181.311 101.52 181.311 100.959C181.311 100.079 181.777 99.3399 182.707 98.7407C183.638 98.1414 184.613 97.8418 185.633 97.8418C186.755 97.8418 187.61 98.0713 188.196 98.5303C188.54 98.798 188.712 99.155 188.712 99.6012C188.712 100.035 188.54 100.392 188.196 100.672C187.864 100.94 187.457 101.074 186.972 101.074C186.87 101.074 186.743 101.061 186.59 101.036C186.628 100.87 186.647 100.723 186.647 100.596C186.647 100.226 186.507 99.9455 186.226 99.7542C185.946 99.563 185.563 99.4674 185.079 99.4674C184.607 99.4674 184.174 99.563 183.778 99.7542C183.625 99.9582 183.549 100.22 183.549 100.538C183.549 100.857 183.734 101.118 184.103 101.322C184.473 101.514 184.919 101.686 185.442 101.839C185.978 101.979 186.513 102.145 187.049 102.336C187.584 102.514 188.037 102.801 188.406 103.197C188.776 103.579 188.961 104.063 188.961 104.65C188.961 105.606 188.483 106.403 187.527 107.04C186.583 107.665 185.608 107.978 184.601 107.978C183.593 107.978 182.758 107.799 182.095 107.442C181.445 107.072 181.12 106.518 181.12 105.778C181.12 105.319 181.286 104.95 181.617 104.669C181.962 104.376 182.376 104.229 182.86 104.229C182.962 104.229 183.09 104.242 183.243 104.267Z" fill="#2E3B55"/>
<rect x="213.602" y="85.71" width="89.046" height="31.0765" rx="7.17149" fill="#F5F5F9"/>
<path d="M224.418 104.748V97.4468H225.617V104.748H224.418ZM225.242 101.619V100.524H228.955V101.619H225.242ZM225.242 98.542V97.4468H229.132V98.542H225.242ZM230.284 104.748V99.7414H231.431V104.748H230.284ZM230.858 98.8236C230.663 98.8236 230.499 98.7575 230.367 98.6254C230.242 98.4933 230.18 98.3299 230.18 98.1352C230.18 97.9405 230.242 97.7771 230.367 97.6449C230.499 97.5128 230.663 97.4468 230.858 97.4468C231.059 97.4468 231.223 97.5128 231.348 97.6449C231.473 97.7771 231.535 97.9405 231.535 98.1352C231.535 98.3299 231.473 98.4933 231.348 98.6254C231.223 98.7575 231.059 98.8236 230.858 98.8236ZM232.822 104.748V97.2382H233.97V104.748H232.822ZM236.112 104.748V97.6554H237.26V104.748H236.112ZM234.913 100.784V99.7414H238.459V100.784H234.913ZM241.581 104.852C241.08 104.852 240.628 104.741 240.225 104.519C239.828 104.289 239.512 103.976 239.275 103.58C239.046 103.183 238.931 102.738 238.931 102.245C238.931 101.751 239.046 101.309 239.275 100.92C239.505 100.524 239.814 100.211 240.204 99.9813C240.6 99.7519 241.038 99.6371 241.518 99.6371C241.984 99.6371 242.394 99.7449 242.749 99.9605C243.11 100.176 243.392 100.472 243.594 100.847C243.802 101.223 243.907 101.65 243.907 102.13C243.907 102.213 243.9 102.3 243.886 102.391C243.879 102.474 243.865 102.568 243.844 102.672H239.734V101.734H243.249L242.822 102.109C242.808 101.803 242.749 101.546 242.644 101.337C242.54 101.129 242.391 100.969 242.196 100.858C242.008 100.746 241.775 100.691 241.497 100.691C241.205 100.691 240.951 100.753 240.736 100.878C240.52 101.004 240.353 101.181 240.235 101.41C240.117 101.633 240.058 101.901 240.058 102.213C240.058 102.526 240.12 102.801 240.245 103.037C240.371 103.274 240.548 103.458 240.777 103.59C241.007 103.715 241.271 103.778 241.57 103.778C241.827 103.778 242.064 103.733 242.279 103.642C242.502 103.552 242.69 103.42 242.843 103.246L243.573 103.987C243.329 104.272 243.034 104.487 242.686 104.633C242.338 104.779 241.97 104.852 241.581 104.852ZM244.931 104.748V99.7414H246.078V104.748H244.931ZM246.078 101.963L245.682 101.765C245.682 101.132 245.821 100.621 246.099 100.232C246.384 99.8353 246.812 99.6371 247.382 99.6371C247.632 99.6371 247.858 99.6823 248.06 99.7727C248.261 99.8631 248.449 100.009 248.623 100.211L247.872 100.983C247.782 100.885 247.681 100.816 247.569 100.774C247.458 100.732 247.33 100.711 247.184 100.711C246.864 100.711 246.599 100.812 246.391 101.014C246.182 101.216 246.078 101.532 246.078 101.963ZM255.132 104.852C254.603 104.852 254.113 104.758 253.661 104.571C253.216 104.376 252.826 104.108 252.493 103.768C252.159 103.42 251.902 103.02 251.721 102.568C251.54 102.109 251.45 101.619 251.45 101.097C251.45 100.576 251.54 100.089 251.721 99.6371C251.902 99.1782 252.159 98.7784 252.493 98.4376C252.826 98.0969 253.216 97.8292 253.661 97.6345C254.113 97.4398 254.603 97.3425 255.132 97.3425C255.723 97.3425 256.234 97.4398 256.665 97.6345C257.096 97.8292 257.478 98.0934 257.812 98.4272L256.999 99.2408C256.783 99.0044 256.519 98.8201 256.206 98.688C255.9 98.5559 255.542 98.4898 255.132 98.4898C254.77 98.4898 254.44 98.5524 254.141 98.6775C253.842 98.8027 253.581 98.9835 253.358 99.2199C253.143 99.4494 252.976 99.7241 252.858 100.044C252.739 100.364 252.68 100.715 252.68 101.097C252.68 101.48 252.739 101.831 252.858 102.151C252.976 102.471 253.143 102.749 253.358 102.985C253.581 103.215 253.842 103.392 254.141 103.517C254.44 103.642 254.77 103.705 255.132 103.705C255.577 103.705 255.952 103.639 256.258 103.507C256.571 103.368 256.835 103.18 257.051 102.944L257.864 103.757C257.531 104.098 257.138 104.366 256.686 104.56C256.234 104.755 255.716 104.852 255.132 104.852ZM261.024 104.852C260.538 104.852 260.096 104.738 259.7 104.508C259.303 104.272 258.987 103.955 258.751 103.559C258.521 103.163 258.406 102.721 258.406 102.234C258.406 101.748 258.521 101.309 258.751 100.92C258.987 100.531 259.303 100.221 259.7 99.9918C260.096 99.7554 260.538 99.6371 261.024 99.6371C261.518 99.6371 261.963 99.7519 262.359 99.9813C262.756 100.211 263.069 100.524 263.298 100.92C263.535 101.309 263.653 101.748 263.653 102.234C263.653 102.721 263.535 103.163 263.298 103.559C263.069 103.955 262.756 104.272 262.359 104.508C261.963 104.738 261.518 104.852 261.024 104.852ZM261.024 103.747C261.309 103.747 261.56 103.684 261.775 103.559C261.998 103.427 262.168 103.246 262.286 103.017C262.412 102.787 262.474 102.526 262.474 102.234C262.474 101.942 262.412 101.685 262.286 101.462C262.161 101.24 261.991 101.066 261.775 100.941C261.56 100.809 261.309 100.743 261.024 100.743C260.746 100.743 260.496 100.809 260.273 100.941C260.058 101.066 259.887 101.24 259.762 101.462C259.644 101.685 259.585 101.942 259.585 102.234C259.585 102.526 259.644 102.787 259.762 103.017C259.887 103.246 260.058 103.427 260.273 103.559C260.496 103.684 260.746 103.747 261.024 103.747ZM268.143 104.748V101.859C268.143 101.525 268.035 101.25 267.82 101.035C267.611 100.819 267.34 100.711 267.006 100.711C266.783 100.711 266.585 100.76 266.411 100.858C266.238 100.955 266.102 101.09 266.005 101.264C265.907 101.438 265.859 101.636 265.859 101.859L265.41 101.608C265.41 101.226 265.494 100.889 265.66 100.597C265.827 100.298 266.057 100.065 266.349 99.8979C266.648 99.7241 266.982 99.6371 267.35 99.6371C267.726 99.6371 268.059 99.7345 268.352 99.9292C268.644 100.117 268.873 100.364 269.04 100.67C269.207 100.969 269.29 101.282 269.29 101.608V104.748H268.143ZM264.711 104.748V99.7414H265.859V104.748H264.711ZM271.261 104.748V97.6554H272.408V104.748H271.261ZM270.061 100.784V99.7414H273.608V100.784H270.061ZM276.729 104.852C276.228 104.852 275.776 104.741 275.373 104.519C274.977 104.289 274.66 103.976 274.424 103.58C274.194 103.183 274.08 102.738 274.08 102.245C274.08 101.751 274.194 101.309 274.424 100.92C274.653 100.524 274.963 100.211 275.352 99.9813C275.749 99.7519 276.187 99.6371 276.666 99.6371C277.132 99.6371 277.543 99.7449 277.897 99.9605C278.259 100.176 278.54 100.472 278.742 100.847C278.951 101.223 279.055 101.65 279.055 102.13C279.055 102.213 279.048 102.3 279.034 102.391C279.027 102.474 279.013 102.568 278.992 102.672H274.883V101.734H278.398L277.97 102.109C277.956 101.803 277.897 101.546 277.793 101.337C277.689 101.129 277.539 100.969 277.344 100.858C277.157 100.746 276.924 100.691 276.646 100.691C276.354 100.691 276.1 100.753 275.884 100.878C275.669 101.004 275.502 101.181 275.383 101.41C275.265 101.633 275.206 101.901 275.206 102.213C275.206 102.526 275.269 102.801 275.394 103.037C275.519 103.274 275.696 103.458 275.926 103.59C276.155 103.715 276.42 103.778 276.719 103.778C276.976 103.778 277.212 103.733 277.428 103.642C277.65 103.552 277.838 103.42 277.991 103.246L278.721 103.987C278.478 104.272 278.182 104.487 277.835 104.633C277.487 104.779 277.118 104.852 276.729 104.852ZM281.717 104.852C281.438 104.852 281.171 104.818 280.913 104.748C280.656 104.672 280.42 104.567 280.204 104.435C279.989 104.296 279.801 104.129 279.641 103.934L280.371 103.204C280.545 103.406 280.743 103.559 280.966 103.663C281.195 103.761 281.452 103.809 281.737 103.809C281.995 103.809 282.189 103.771 282.322 103.695C282.454 103.618 282.52 103.507 282.52 103.361C282.52 103.208 282.457 103.09 282.332 103.006C282.207 102.923 282.043 102.853 281.842 102.798C281.647 102.735 281.438 102.672 281.216 102.61C281 102.547 280.792 102.464 280.59 102.359C280.395 102.248 280.235 102.099 280.11 101.911C279.985 101.723 279.923 101.48 279.923 101.181C279.923 100.861 279.996 100.586 280.142 100.357C280.295 100.127 280.507 99.9501 280.778 99.8249C281.056 99.6997 281.386 99.6371 281.769 99.6371C282.172 99.6371 282.527 99.7102 282.833 99.8562C283.146 99.9953 283.406 100.207 283.615 100.492L282.885 101.223C282.739 101.042 282.572 100.906 282.384 100.816C282.196 100.725 281.981 100.68 281.737 100.68C281.508 100.68 281.331 100.715 281.206 100.784C281.08 100.854 281.018 100.955 281.018 101.087C281.018 101.226 281.08 101.334 281.206 101.41C281.331 101.487 281.491 101.553 281.685 101.608C281.887 101.664 282.096 101.727 282.311 101.796C282.534 101.859 282.742 101.949 282.937 102.067C283.139 102.179 283.302 102.332 283.427 102.526C283.552 102.714 283.615 102.961 283.615 103.267C283.615 103.754 283.445 104.14 283.104 104.425C282.763 104.71 282.301 104.852 281.717 104.852ZM285.427 104.748V97.6554H286.574V104.748H285.427ZM284.227 100.784V99.7414H287.773V100.784H284.227ZM290.247 104.852C289.969 104.852 289.701 104.818 289.444 104.748C289.187 104.672 288.95 104.567 288.735 104.435C288.519 104.296 288.331 104.129 288.171 103.934L288.902 103.204C289.075 103.406 289.274 103.559 289.496 103.663C289.726 103.761 289.983 103.809 290.268 103.809C290.525 103.809 290.72 103.771 290.852 103.695C290.984 103.618 291.05 103.507 291.05 103.361C291.05 103.208 290.988 103.09 290.863 103.006C290.737 102.923 290.574 102.853 290.372 102.798C290.178 102.735 289.969 102.672 289.746 102.61C289.531 102.547 289.322 102.464 289.121 102.359C288.926 102.248 288.766 102.099 288.641 101.911C288.516 101.723 288.453 101.48 288.453 101.181C288.453 100.861 288.526 100.586 288.672 100.357C288.825 100.127 289.037 99.9501 289.308 99.8249C289.587 99.6997 289.917 99.6371 290.299 99.6371C290.703 99.6371 291.057 99.7102 291.363 99.8562C291.676 99.9953 291.937 100.207 292.145 100.492L291.415 101.223C291.269 101.042 291.102 100.906 290.915 100.816C290.727 100.725 290.511 100.68 290.268 100.68C290.039 100.68 289.861 100.715 289.736 100.784C289.611 100.854 289.548 100.955 289.548 101.087C289.548 101.226 289.611 101.334 289.736 101.41C289.861 101.487 290.021 101.553 290.216 101.608C290.417 101.664 290.626 101.727 290.842 101.796C291.064 101.859 291.273 101.949 291.467 102.067C291.669 102.179 291.833 102.332 291.958 102.526C292.083 102.714 292.145 102.961 292.145 103.267C292.145 103.754 291.975 104.14 291.634 104.425C291.294 104.71 290.831 104.852 290.247 104.852Z" fill="#2E3B55"/>
<path d="M85.8054 136.153L89.5873 128.753V128.671H85.0817V127.732H90.6553V128.706L86.9085 136.153H85.8054ZM95.0616 136.352C93.5208 136.352 91.8926 135.266 91.8926 132.097V132.086C91.8926 129.214 93.089 127.533 95.1316 127.533C96.544 127.533 97.5945 128.362 97.8805 129.605L97.898 129.681H96.8416L96.8183 129.617C96.5615 128.911 95.972 128.473 95.12 128.473C93.5909 128.473 92.9664 129.967 92.9022 131.724C92.8964 131.788 92.8964 131.858 92.8964 131.922H93.0073C93.3166 131.233 94.1103 130.621 95.2484 130.621C96.83 130.621 98.0089 131.823 98.0089 133.439V133.451C98.0089 135.132 96.7599 136.352 95.0616 136.352ZM93.1473 133.439C93.1473 134.548 93.9819 135.424 95.0499 135.424C96.1063 135.424 96.9525 134.566 96.9525 133.475V133.463C96.9525 132.342 96.1588 131.537 95.0674 131.537C93.9761 131.537 93.1473 132.336 93.1473 133.434V133.439ZM102.514 136.352C100.653 136.352 99.5438 134.653 99.5438 131.945V131.934C99.5438 129.226 100.653 127.533 102.514 127.533C104.376 127.533 105.497 129.226 105.497 131.934V131.945C105.497 134.653 104.376 136.352 102.514 136.352ZM102.514 135.435C103.722 135.435 104.44 134.093 104.44 131.945V131.934C104.44 129.786 103.722 128.455 102.514 128.455C101.306 128.455 100.6 129.786 100.6 131.934V131.945C100.6 134.093 101.306 135.435 102.514 135.435Z" fill="#2E3B55"/>
<path d="M114.178 137.153V131.92H112.279V131.258H116.813V131.92H114.914V137.153H114.178ZM117.9 137.153V131.001H118.611V133.411H118.676C118.897 132.945 119.309 132.672 119.959 132.672C120.948 132.672 121.499 133.256 121.499 134.302V137.153H120.788V134.473C120.788 133.681 120.461 133.301 119.759 133.301C119.056 133.301 118.611 133.775 118.611 134.547V137.153H117.9ZM123.162 131.9C122.892 131.9 122.672 131.679 122.672 131.409C122.672 131.14 122.892 130.919 123.162 130.919C123.431 130.919 123.652 131.14 123.652 131.409C123.652 131.679 123.431 131.9 123.162 131.9ZM122.802 137.153V132.749H123.513V137.153H122.802ZM126.365 137.231C125.384 137.231 124.71 136.757 124.628 136.03H125.356C125.474 136.398 125.825 136.639 126.389 136.639C126.982 136.639 127.402 136.357 127.402 135.956V135.948C127.402 135.65 127.178 135.442 126.634 135.311L125.952 135.147C125.127 134.951 124.755 134.592 124.755 133.959V133.955C124.755 133.223 125.458 132.672 126.393 132.672C127.317 132.672 127.958 133.133 128.056 133.852H127.357C127.264 133.505 126.92 133.264 126.389 133.264C125.866 133.264 125.482 133.534 125.482 133.922V133.93C125.482 134.228 125.703 134.416 126.222 134.543L126.9 134.706C127.729 134.906 128.13 135.266 128.13 135.895V135.903C128.13 136.688 127.366 137.231 126.365 137.231ZM132.436 137.153L131.202 132.749H131.913L132.779 136.271H132.844L133.829 132.749H134.503L135.487 136.271H135.553L136.419 132.749H137.125L135.892 137.153H135.177L134.192 133.746H134.127L133.146 137.153H132.436ZM139.699 137.231C138.441 137.231 137.681 136.349 137.681 134.968V134.964C137.681 133.603 138.457 132.672 139.654 132.672C140.851 132.672 141.578 133.562 141.578 134.878V135.156H138.408C138.429 136.067 138.931 136.598 139.716 136.598C140.312 136.598 140.68 136.316 140.798 136.05L140.815 136.014H141.525L141.517 136.046C141.366 136.643 140.737 137.231 139.699 137.231ZM139.65 133.305C138.997 133.305 138.498 133.75 138.421 134.588H140.855C140.782 133.718 140.3 133.305 139.65 133.305ZM144.479 137.231C143.221 137.231 142.461 136.349 142.461 134.968V134.964C142.461 133.603 143.237 132.672 144.434 132.672C145.631 132.672 146.358 133.562 146.358 134.878V135.156H143.188C143.209 136.067 143.711 136.598 144.495 136.598C145.092 136.598 145.46 136.316 145.578 136.05L145.594 136.014H146.305L146.297 136.046C146.146 136.643 145.517 137.231 144.479 137.231ZM144.43 133.305C143.776 133.305 143.278 133.75 143.2 134.588H145.635C145.562 133.718 145.08 133.305 144.43 133.305ZM147.502 137.153V131.001H148.213V134.674H148.278L150.182 132.749H151.044L149.124 134.6L151.171 137.153H150.276L148.626 135.082L148.213 135.482V137.153H147.502Z" fill="#ABB1BB"/>
<path d="M160.3 132.659C160.3 132.659 158.1 135.647 157.312 135.647C156.525 135.647 154.324 132.659 154.324 132.659" stroke="#ABB1BB" stroke-width="0.918862" stroke-linecap="round" stroke-linejoin="round"/>
<g filter="url(#filter1_d_1879_4620)">
<rect x="84.5156" y="188.757" width="6.57387" height="55.5791" rx="3.28693" fill="#D5D8DD"/>
</g>
<g filter="url(#filter2_d_1879_4620)">
<rect x="84.5156" y="249.117" width="6.57387" height="6.57387" rx="3.28693" fill="#D5D8DD"/>
</g>
<g filter="url(#filter3_d_1879_4620)">
<rect x="119.777" y="177.401" width="6.57387" height="66.9339" rx="3.28693" fill="#828999"/>
</g>
<g filter="url(#filter4_d_1879_4620)">
<rect x="119.777" y="249.116" width="6.57387" height="6.57387" rx="3.28693" fill="#828999"/>
</g>
<g filter="url(#filter5_d_1879_4620)">
<rect x="155.035" y="193.537" width="6.57387" height="32.2717" rx="3.28693" fill="#828999"/>
</g>
<g filter="url(#filter6_d_1879_4620)">
<rect x="155.035" y="249.116" width="6.57387" height="6.57387" rx="3.28693" fill="#828999"/>
</g>
<g filter="url(#filter7_d_1879_4620)">
<rect x="190.297" y="198.916" width="6.57387" height="45.4194" rx="3.28693" fill="#828999"/>
</g>
<g filter="url(#filter8_d_1879_4620)">
<rect x="190.297" y="249.116" width="6.57387" height="6.57387" rx="3.28693" fill="#828999"/>
</g>
<g filter="url(#filter9_d_1879_4620)">
<rect x="225.555" y="172.621" width="6.57387" height="65.7387" rx="3.28693" fill="#828999"/>
</g>
<g filter="url(#filter10_d_1879_4620)">
<rect x="225.555" y="249.117" width="6.57387" height="6.57387" rx="3.28693" fill="#828999"/>
</g>
<g filter="url(#filter11_d_1879_4620)">
<rect x="260.816" y="163.656" width="6.57387" height="80.6793" rx="3.28693" fill="#E3D0A2"/>
</g>
<g filter="url(#filter12_d_1879_4620)">
<rect x="260.816" y="249.116" width="6.57387" height="6.57387" rx="3.28693" fill="#E3D0A2"/>
</g>
<g filter="url(#filter13_d_1879_4620)">
<rect x="296.074" y="188.757" width="6.57387" height="55.5791" rx="3.28693" fill="#D5D8DD"/>
</g>
<g filter="url(#filter14_d_1879_4620)">
<rect x="296.074" y="249.117" width="6.57387" height="6.57387" rx="3.28693" fill="#D5D8DD"/>
</g>
<path d="M87.2896 271.607C85.921 271.607 85.0508 270.933 84.9773 269.916L84.9732 269.859H85.9945L85.9986 269.899C86.0476 270.394 86.5746 270.721 87.3222 270.721C88.0331 270.721 88.5315 270.369 88.5315 269.863V269.859C88.5315 269.434 88.2251 269.176 87.4652 269.013L86.832 268.882C85.6268 268.629 85.1039 268.065 85.1039 267.187V267.183C85.1039 266.129 86.0109 265.418 87.2855 265.418C88.5928 265.418 89.4058 266.133 89.4793 267.08L89.4834 267.134H88.4743L88.4661 267.085C88.3926 266.627 87.9555 266.3 87.2814 266.304C86.6277 266.304 86.162 266.611 86.162 267.113V267.117C86.162 267.534 86.4602 267.795 87.1956 267.951L87.8288 268.085C89.0708 268.347 89.5896 268.845 89.5896 269.736V269.74C89.5896 270.888 88.7031 271.607 87.2896 271.607Z" fill="#ABB1BB"/>
<path d="M119.93 271.46V265.565H121.14L122.913 270.1H122.982L124.751 265.565H125.96V271.46H125.012V267.268H124.939L123.305 271.46H122.586L120.952 267.268H120.882V271.46H119.93Z" fill="#2E3B55"/>
<path d="M158.081 271.46V266.451H156.267V265.565H160.953V266.451H159.135V271.46H158.081Z" fill="#2E3B55"/>
<path d="M192.515 271.46L190.934 265.565H192.033L193.042 269.989H193.103L194.263 265.565H195.199L196.375 269.989H196.433L197.442 265.565H198.532L196.951 271.46H195.963L194.762 267.24H194.7L193.507 271.46H192.515Z" fill="#2E3B55"/>
<path d="M230.452 271.46V266.451H228.638V265.565H233.324V266.451H231.506V271.46H230.452Z" fill="#2E3B55"/>
<path d="M263.672 271.46V265.565H267.431V266.451H264.727V268.196H267.198V269.054H264.727V271.46H263.672Z" fill="#2E3B55"/>
<path d="M299.407 271.607C298.038 271.607 297.168 270.933 297.094 269.916L297.09 269.859H298.112L298.116 269.899C298.165 270.394 298.692 270.721 299.439 270.721C300.15 270.721 300.649 270.369 300.649 269.863V269.859C300.649 269.434 300.342 269.176 299.582 269.013L298.949 268.882C297.744 268.629 297.221 268.065 297.221 267.187V267.183C297.221 266.129 298.128 265.418 299.403 265.418C300.71 265.418 301.523 266.133 301.596 267.08L301.601 267.134H300.591L300.583 267.085C300.51 266.627 300.073 266.3 299.399 266.304C298.745 266.304 298.279 266.611 298.279 267.113V267.117C298.279 267.534 298.577 267.795 299.313 267.951L299.946 268.085C301.188 268.347 301.707 268.845 301.707 269.736V269.74C301.707 270.888 300.82 271.607 299.407 271.607Z" fill="#ABB1BB"/>
<rect x="245.875" y="144.532" width="34.0646" height="13.7454" rx="6.87268" fill="#E3D0A2"/>
<path d="M258.778 153.905V152.858H256.316V152.284C256.999 151.139 257.773 149.906 258.48 148.852H259.394V152.294H260.112V152.858H259.394V153.905H258.778ZM256.96 152.298H258.781V149.437H258.739C258.172 150.285 257.51 151.328 256.96 152.256V152.298ZM262.777 154.024C261.66 154.024 260.994 153.005 260.994 151.381V151.374C260.994 149.749 261.66 148.733 262.777 148.733C263.894 148.733 264.566 149.749 264.566 151.374V151.381C264.566 153.005 263.894 154.024 262.777 154.024ZM262.777 153.475C263.501 153.475 263.932 152.669 263.932 151.381V151.374C263.932 150.085 263.501 149.287 262.777 149.287C262.052 149.287 261.628 150.085 261.628 151.374V151.381C261.628 152.669 262.052 153.475 262.777 153.475ZM267.322 153.989C266.278 153.989 265.602 153.408 265.536 152.61L265.532 152.568H266.138L266.142 152.603C266.191 153.1 266.649 153.443 267.322 153.443C267.984 153.443 268.435 153.072 268.435 152.536V152.529C268.435 151.909 267.991 151.563 267.283 151.563H266.649V151.03H267.255C267.858 151.03 268.278 150.659 268.278 150.155V150.148C268.278 149.619 267.931 149.315 267.315 149.315C266.72 149.315 266.296 149.63 266.243 150.141L266.24 150.176H265.634L265.637 150.141C265.718 149.318 266.369 148.768 267.315 148.768C268.278 148.768 268.912 149.304 268.912 150.071V150.078C268.912 150.701 268.47 151.128 267.84 151.261V151.275C268.575 151.339 269.076 151.797 269.076 152.515V152.522C269.076 153.366 268.334 153.989 267.322 153.989Z" fill="white"/>
</g>
</g>
<defs>
<filter id="filter0_d_1879_4620" x="0.84707" y="0.84707" width="390.247" height="374.711" filterUnits="userSpaceOnUse" color-interpolation-filters="sRGB">
<feFlood flood-opacity="0" result="BackgroundImageFix"/>
<feColorMatrix in="SourceAlpha" type="matrix" values="0 0 0 0 0 0 0 0 0 0 0 0 0 0 0 0 0 0 127 0" result="hardAlpha"/>
<feMorphology radius="7.17149" operator="erode" in="SourceAlpha" result="effect1_dropShadow_1879_4620"/>
<feOffset dx="2.3905" dy="2.3905"/>
<feGaussianBlur stdDeviation="35.8575"/>
<feComposite in2="hardAlpha" operator="out"/>
<feColorMatrix type="matrix" values="0 0 0 0 0 0 0 0 0 0 0 0 0 0 0 0 0 0 0.08 0"/>
<feBlend mode="normal" in2="BackgroundImageFix" result="effect1_dropShadow_1879_4620"/>
<feBlend mode="normal" in="SourceGraphic" in2="effect1_dropShadow_1879_4620" result="shape"/>
</filter>
<filter id="filter1_d_1879_4620" x="63.0011" y="167.242" width="54.3842" height="103.389" filterUnits="userSpaceOnUse" color-interpolation-filters="sRGB">
<feFlood flood-opacity="0" result="BackgroundImageFix"/>
<feColorMatrix in="SourceAlpha" type="matrix" values="0 0 0 0 0 0 0 0 0 0 0 0 0 0 0 0 0 0 127 0" result="hardAlpha"/>
<feOffset dx="2.3905" dy="2.3905"/>
<feGaussianBlur stdDeviation="11.9525"/>
<feComposite in2="hardAlpha" operator="out"/>
<feColorMatrix type="matrix" values="0 0 0 0 0 0 0 0 0 0 0 0 0 0 0 0 0 0 0.06 0"/>
<feBlend mode="normal" in2="BackgroundImageFix" result="effect1_dropShadow_1879_4620"/>
<feBlend mode="normal" in="SourceGraphic" in2="effect1_dropShadow_1879_4620" result="shape"/>
</filter>
<filter id="filter2_d_1879_4620" x="63.0011" y="227.603" width="54.3842" height="54.3842" filterUnits="userSpaceOnUse" color-interpolation-filters="sRGB">
<feFlood flood-opacity="0" result="BackgroundImageFix"/>
<feColorMatrix in="SourceAlpha" type="matrix" values="0 0 0 0 0 0 0 0 0 0 0 0 0 0 0 0 0 0 127 0" result="hardAlpha"/>
<feOffset dx="2.3905" dy="2.3905"/>
<feGaussianBlur stdDeviation="11.9525"/>
<feComposite in2="hardAlpha" operator="out"/>
<feColorMatrix type="matrix" values="0 0 0 0 0 0 0 0 0 0 0 0 0 0 0 0 0 0 0.06 0"/>
<feBlend mode="normal" in2="BackgroundImageFix" result="effect1_dropShadow_1879_4620"/>
<feBlend mode="normal" in="SourceGraphic" in2="effect1_dropShadow_1879_4620" result="shape"/>
</filter>
<filter id="filter3_d_1879_4620" x="98.2629" y="155.887" width="54.3842" height="114.744" filterUnits="userSpaceOnUse" color-interpolation-filters="sRGB">
<feFlood flood-opacity="0" result="BackgroundImageFix"/>
<feColorMatrix in="SourceAlpha" type="matrix" values="0 0 0 0 0 0 0 0 0 0 0 0 0 0 0 0 0 0 127 0" result="hardAlpha"/>
<feOffset dx="2.3905" dy="2.3905"/>
<feGaussianBlur stdDeviation="11.9525"/>
<feComposite in2="hardAlpha" operator="out"/>
<feColorMatrix type="matrix" values="0 0 0 0 0 0 0 0 0 0 0 0 0 0 0 0 0 0 0.06 0"/>
<feBlend mode="normal" in2="BackgroundImageFix" result="effect1_dropShadow_1879_4620"/>
<feBlend mode="normal" in="SourceGraphic" in2="effect1_dropShadow_1879_4620" result="shape"/>
</filter>
<filter id="filter4_d_1879_4620" x="98.2629" y="227.602" width="54.3842" height="54.3842" filterUnits="userSpaceOnUse" color-interpolation-filters="sRGB">
<feFlood flood-opacity="0" result="BackgroundImageFix"/>
<feColorMatrix in="SourceAlpha" type="matrix" values="0 0 0 0 0 0 0 0 0 0 0 0 0 0 0 0 0 0 127 0" result="hardAlpha"/>
<feOffset dx="2.3905" dy="2.3905"/>
<feGaussianBlur stdDeviation="11.9525"/>
<feComposite in2="hardAlpha" operator="out"/>
<feColorMatrix type="matrix" values="0 0 0 0 0 0 0 0 0 0 0 0 0 0 0 0 0 0 0.06 0"/>
<feBlend mode="normal" in2="BackgroundImageFix" result="effect1_dropShadow_1879_4620"/>
<feBlend mode="normal" in="SourceGraphic" in2="effect1_dropShadow_1879_4620" result="shape"/>
</filter>
<filter id="filter5_d_1879_4620" x="133.521" y="172.023" width="54.3842" height="80.0814" filterUnits="userSpaceOnUse" color-interpolation-filters="sRGB">
<feFlood flood-opacity="0" result="BackgroundImageFix"/>
<feColorMatrix in="SourceAlpha" type="matrix" values="0 0 0 0 0 0 0 0 0 0 0 0 0 0 0 0 0 0 127 0" result="hardAlpha"/>
<feOffset dx="2.3905" dy="2.3905"/>
<feGaussianBlur stdDeviation="11.9525"/>
<feComposite in2="hardAlpha" operator="out"/>
<feColorMatrix type="matrix" values="0 0 0 0 0 0 0 0 0 0 0 0 0 0 0 0 0 0 0.06 0"/>
<feBlend mode="normal" in2="BackgroundImageFix" result="effect1_dropShadow_1879_4620"/>
<feBlend mode="normal" in="SourceGraphic" in2="effect1_dropShadow_1879_4620" result="shape"/>
</filter>
<filter id="filter6_d_1879_4620" x="133.521" y="227.602" width="54.3842" height="54.3842" filterUnits="userSpaceOnUse" color-interpolation-filters="sRGB">
<feFlood flood-opacity="0" result="BackgroundImageFix"/>
<feColorMatrix in="SourceAlpha" type="matrix" values="0 0 0 0 0 0 0 0 0 0 0 0 0 0 0 0 0 0 127 0" result="hardAlpha"/>
<feOffset dx="2.3905" dy="2.3905"/>
<feGaussianBlur stdDeviation="11.9525"/>
<feComposite in2="hardAlpha" operator="out"/>
<feColorMatrix type="matrix" values="0 0 0 0 0 0 0 0 0 0 0 0 0 0 0 0 0 0 0.06 0"/>
<feBlend mode="normal" in2="BackgroundImageFix" result="effect1_dropShadow_1879_4620"/>
<feBlend mode="normal" in="SourceGraphic" in2="effect1_dropShadow_1879_4620" result="shape"/>
</filter>
<filter id="filter7_d_1879_4620" x="168.782" y="177.402" width="54.3842" height="93.2299" filterUnits="userSpaceOnUse" color-interpolation-filters="sRGB">
<feFlood flood-opacity="0" result="BackgroundImageFix"/>
<feColorMatrix in="SourceAlpha" type="matrix" values="0 0 0 0 0 0 0 0 0 0 0 0 0 0 0 0 0 0 127 0" result="hardAlpha"/>
<feOffset dx="2.3905" dy="2.3905"/>
<feGaussianBlur stdDeviation="11.9525"/>
<feComposite in2="hardAlpha" operator="out"/>
<feColorMatrix type="matrix" values="0 0 0 0 0 0 0 0 0 0 0 0 0 0 0 0 0 0 0.06 0"/>
<feBlend mode="normal" in2="BackgroundImageFix" result="effect1_dropShadow_1879_4620"/>
<feBlend mode="normal" in="SourceGraphic" in2="effect1_dropShadow_1879_4620" result="shape"/>
</filter>
<filter id="filter8_d_1879_4620" x="168.782" y="227.602" width="54.3842" height="54.3842" filterUnits="userSpaceOnUse" color-interpolation-filters="sRGB">
<feFlood flood-opacity="0" result="BackgroundImageFix"/>
<feColorMatrix in="SourceAlpha" type="matrix" values="0 0 0 0 0 0 0 0 0 0 0 0 0 0 0 0 0 0 127 0" result="hardAlpha"/>
<feOffset dx="2.3905" dy="2.3905"/>
<feGaussianBlur stdDeviation="11.9525"/>
<feComposite in2="hardAlpha" operator="out"/>
<feColorMatrix type="matrix" values="0 0 0 0 0 0 0 0 0 0 0 0 0 0 0 0 0 0 0.06 0"/>
<feBlend mode="normal" in2="BackgroundImageFix" result="effect1_dropShadow_1879_4620"/>
<feBlend mode="normal" in="SourceGraphic" in2="effect1_dropShadow_1879_4620" result="shape"/>
</filter>
<filter id="filter9_d_1879_4620" x="204.04" y="151.107" width="54.3842" height="113.548" filterUnits="userSpaceOnUse" color-interpolation-filters="sRGB">
<feFlood flood-opacity="0" result="BackgroundImageFix"/>
<feColorMatrix in="SourceAlpha" type="matrix" values="0 0 0 0 0 0 0 0 0 0 0 0 0 0 0 0 0 0 127 0" result="hardAlpha"/>
<feOffset dx="2.3905" dy="2.3905"/>
<feGaussianBlur stdDeviation="11.9525"/>
<feComposite in2="hardAlpha" operator="out"/>
<feColorMatrix type="matrix" values="0 0 0 0 0 0 0 0 0 0 0 0 0 0 0 0 0 0 0.06 0"/>
<feBlend mode="normal" in2="BackgroundImageFix" result="effect1_dropShadow_1879_4620"/>
<feBlend mode="normal" in="SourceGraphic" in2="effect1_dropShadow_1879_4620" result="shape"/>
</filter>
<filter id="filter10_d_1879_4620" x="204.04" y="227.603" width="54.3842" height="54.3842" filterUnits="userSpaceOnUse" color-interpolation-filters="sRGB">
<feFlood flood-opacity="0" result="BackgroundImageFix"/>
<feColorMatrix in="SourceAlpha" type="matrix" values="0 0 0 0 0 0 0 0 0 0 0 0 0 0 0 0 0 0 127 0" result="hardAlpha"/>
<feOffset dx="2.3905" dy="2.3905"/>
<feGaussianBlur stdDeviation="11.9525"/>
<feComposite in2="hardAlpha" operator="out"/>
<feColorMatrix type="matrix" values="0 0 0 0 0 0 0 0 0 0 0 0 0 0 0 0 0 0 0.06 0"/>
<feBlend mode="normal" in2="BackgroundImageFix" result="effect1_dropShadow_1879_4620"/>
<feBlend mode="normal" in="SourceGraphic" in2="effect1_dropShadow_1879_4620" result="shape"/>
</filter>
<filter id="filter11_d_1879_4620" x="239.302" y="142.142" width="54.3842" height="128.49" filterUnits="userSpaceOnUse" color-interpolation-filters="sRGB">
<feFlood flood-opacity="0" result="BackgroundImageFix"/>
<feColorMatrix in="SourceAlpha" type="matrix" values="0 0 0 0 0 0 0 0 0 0 0 0 0 0 0 0 0 0 127 0" result="hardAlpha"/>
<feOffset dx="2.3905" dy="2.3905"/>
<feGaussianBlur stdDeviation="11.9525"/>
<feComposite in2="hardAlpha" operator="out"/>
<feColorMatrix type="matrix" values="0 0 0 0 0 0 0 0 0 0 0 0 0 0 0 0 0 0 0.06 0"/>
<feBlend mode="normal" in2="BackgroundImageFix" result="effect1_dropShadow_1879_4620"/>
<feBlend mode="normal" in="SourceGraphic" in2="effect1_dropShadow_1879_4620" result="shape"/>
</filter>
<filter id="filter12_d_1879_4620" x="239.302" y="227.602" width="54.3842" height="54.3842" filterUnits="userSpaceOnUse" color-interpolation-filters="sRGB">
<feFlood flood-opacity="0" result="BackgroundImageFix"/>
<feColorMatrix in="SourceAlpha" type="matrix" values="0 0 0 0 0 0 0 0 0 0 0 0 0 0 0 0 0 0 127 0" result="hardAlpha"/>
<feOffset dx="2.3905" dy="2.3905"/>
<feGaussianBlur stdDeviation="11.9525"/>
<feComposite in2="hardAlpha" operator="out"/>
<feColorMatrix type="matrix" values="0 0 0 0 0 0 0 0 0 0 0 0 0 0 0 0 0 0 0.06 0"/>
<feBlend mode="normal" in2="BackgroundImageFix" result="effect1_dropShadow_1879_4620"/>
<feBlend mode="normal" in="SourceGraphic" in2="effect1_dropShadow_1879_4620" result="shape"/>
</filter>
<filter id="filter13_d_1879_4620" x="274.56" y="167.242" width="54.3842" height="103.389" filterUnits="userSpaceOnUse" color-interpolation-filters="sRGB">
<feFlood flood-opacity="0" result="BackgroundImageFix"/>
<feColorMatrix in="SourceAlpha" type="matrix" values="0 0 0 0 0 0 0 0 0 0 0 0 0 0 0 0 0 0 127 0" result="hardAlpha"/>
<feOffset dx="2.3905" dy="2.3905"/>
<feGaussianBlur stdDeviation="11.9525"/>
<feComposite in2="hardAlpha" operator="out"/>
<feColorMatrix type="matrix" values="0 0 0 0 0 0 0 0 0 0 0 0 0 0 0 0 0 0 0.06 0"/>
<feBlend mode="normal" in2="BackgroundImageFix" result="effect1_dropShadow_1879_4620"/>
<feBlend mode="normal" in="SourceGraphic" in2="effect1_dropShadow_1879_4620" result="shape"/>
</filter>
<filter id="filter14_d_1879_4620" x="274.56" y="227.603" width="54.3842" height="54.3842" filterUnits="userSpaceOnUse" color-interpolation-filters="sRGB">
<feFlood flood-opacity="0" result="BackgroundImageFix"/>
<feColorMatrix in="SourceAlpha" type="matrix" values="0 0 0 0 0 0 0 0 0 0 0 0 0 0 0 0 0 0 127 0" result="hardAlpha"/>
<feOffset dx="2.3905" dy="2.3905"/>
<feGaussianBlur stdDeviation="11.9525"/>
<feComposite in2="hardAlpha" operator="out"/>
<feColorMatrix type="matrix" values="0 0 0 0 0 0 0 0 0 0 0 0 0 0 0 0 0 0 0.06 0"/>
<feBlend mode="normal" in2="BackgroundImageFix" result="effect1_dropShadow_1879_4620"/>
<feBlend mode="normal" in="SourceGraphic" in2="effect1_dropShadow_1879_4620" result="shape"/>
</filter>
<clipPath id="clip0_1879_4620">
<rect x="63" y="63" width="261.162" height="245.624" rx="14.343" fill="white"/>
</clipPath>
</defs>
</svg>
