<svg width="392" height="334" viewBox="0 0 392 334" fill="none" xmlns="http://www.w3.org/2000/svg">
<g filter="url(#filter0_d_1879_4704)">
<rect x="63" y="63" width="261.162" height="245.624" rx="14.343" fill="white"/>
<path d="M75.3736 100.759C76.8015 100.274 78.2804 100.032 79.8104 100.032C81.3403 100.032 82.6088 100.357 83.616 101.007C84.6232 101.657 85.1268 102.652 85.1268 103.991C85.1268 105.329 84.6551 106.457 83.7116 107.375C82.7682 108.281 81.6335 108.733 80.3076 108.733C79.3386 108.733 78.8542 108.364 78.8542 107.624C78.8542 107.395 78.8988 107.152 78.988 106.897C79.3323 106.987 79.6446 107.031 79.9251 107.031C80.8048 107.031 81.4678 106.789 81.914 106.305C82.373 105.82 82.6025 105.151 82.6025 104.296C82.6025 103.43 82.3602 102.786 81.8757 102.365C81.3913 101.944 80.7156 101.734 79.8486 101.734C79.4024 101.734 78.8605 101.81 78.2231 101.963C78.1211 103.532 78.0701 104.921 78.0701 106.132C78.0701 109.524 78.2039 111.978 78.4717 113.495C78.0637 113.648 77.6302 113.725 77.1712 113.725C76.7123 113.725 76.3107 113.578 75.9664 113.285C75.635 112.992 75.4692 112.603 75.4692 112.118C75.4692 111.634 75.533 110.792 75.6605 109.594C75.7879 108.383 75.8517 107.414 75.8517 106.687C75.8517 104.469 75.6923 102.492 75.3736 100.759ZM86.7107 111.774L86.9019 107.796C86.9019 106.559 86.7234 105.387 86.3664 104.277C86.7234 104.124 87.1633 104.048 87.686 104.048C88.7059 104.048 89.2159 104.615 89.2159 105.75C89.2159 106.387 89.1458 107.286 89.0056 108.446C88.8653 109.594 88.7952 110.429 88.7952 110.952C88.7952 111.589 89.0821 111.908 89.6558 111.908C90 111.908 90.4016 111.621 90.8606 111.047C91.3323 110.461 91.7339 109.811 92.0654 109.097C92.4096 108.37 92.6136 107.777 92.6774 107.318C92.6009 105.916 92.4925 104.902 92.3523 104.277C92.7602 104.124 93.1746 104.048 93.5953 104.048C94.0288 104.048 94.3858 104.182 94.6663 104.449C94.9595 104.717 95.1061 105.049 95.1061 105.444C95.1061 105.839 95.0487 106.496 94.934 107.414C94.8192 108.332 94.7619 109.294 94.7619 110.301C94.7619 111.296 94.8766 112.36 95.1061 113.495C94.6089 113.648 94.1627 113.725 93.7674 113.725C92.977 113.725 92.5817 113.202 92.5817 112.156C92.5817 111.697 92.6327 111.06 92.7347 110.244C92.2248 111.328 91.6 112.201 90.8606 112.864C90.1339 113.514 89.3944 113.839 88.6422 113.839C87.3545 113.839 86.7107 113.151 86.7107 111.774ZM99.8633 113.495C99.4681 113.648 99.0474 113.725 98.6012 113.725C98.1549 113.725 97.7916 113.623 97.5111 113.419C97.2434 113.202 97.1095 112.909 97.1095 112.539C97.1095 112.156 97.1669 111.468 97.2816 110.474C97.3964 109.479 97.4537 108.517 97.4537 107.586C97.4537 106.642 97.3071 105.54 97.0139 104.277C97.4218 104.124 97.8235 104.048 98.2187 104.048C98.6139 104.048 98.9518 104.182 99.2323 104.449C99.5255 104.717 99.6721 105.074 99.6721 105.52C99.6721 105.75 99.6339 106.094 99.5574 106.553C99.4809 106.999 99.4362 107.337 99.4235 107.567C99.9207 106.432 100.507 105.546 101.183 104.908C101.871 104.258 102.553 103.933 103.229 103.933C103.701 103.933 104.077 104.099 104.357 104.43C104.638 104.762 104.778 105.183 104.778 105.693C104.778 106.19 104.651 106.598 104.396 106.916C104.141 107.222 103.822 107.375 103.44 107.375C103.07 107.375 102.77 107.337 102.541 107.261C102.579 107.108 102.598 106.967 102.598 106.84C102.598 106.317 102.413 106.056 102.043 106.056C101.483 106.056 100.953 106.623 100.456 107.758C99.9717 108.88 99.6466 109.932 99.4809 110.913C99.5446 111.87 99.6721 112.73 99.8633 113.495ZM109.598 113.954C108.234 113.954 107.188 113.591 106.462 112.864C105.735 112.137 105.372 111.092 105.372 109.728C105.372 108.07 105.837 106.674 106.768 105.54C107.698 104.392 108.935 103.818 110.478 103.818C111.357 103.818 112.071 103.997 112.62 104.354C113.168 104.698 113.442 105.214 113.442 105.903C113.442 106.349 113.263 106.751 112.906 107.108C112.55 107.452 112.148 107.624 111.702 107.624C111.6 107.624 111.472 107.611 111.319 107.586C111.357 107.42 111.377 107.273 111.377 107.146C111.377 106.687 111.255 106.298 111.013 105.979C110.771 105.661 110.369 105.501 109.808 105.501C109.247 105.501 108.725 105.731 108.24 106.19C107.896 107.082 107.724 108.198 107.724 109.536C107.724 111.36 108.412 112.271 109.789 112.271C110.529 112.271 111.077 112.035 111.434 111.564C111.804 111.079 111.989 110.537 111.989 109.938C112.422 109.938 112.798 110.046 113.117 110.263C113.436 110.48 113.595 110.78 113.595 111.162C113.595 111.991 113.168 112.666 112.314 113.189C111.472 113.699 110.567 113.954 109.598 113.954ZM124.115 105.999L123.924 110.206C123.924 111.328 124.109 112.462 124.478 113.61C124.083 113.763 123.681 113.839 123.273 113.839C122.164 113.839 121.61 113.253 121.61 112.08C121.61 111.213 121.686 110.193 121.839 109.02C121.992 107.847 122.069 107.127 122.069 106.859C122.069 106.196 121.769 105.865 121.17 105.865C120.532 105.865 119.825 106.464 119.047 107.662C118.269 108.848 117.823 109.842 117.708 110.646C117.734 111.015 117.861 111.965 118.091 113.495C117.696 113.648 117.262 113.725 116.79 113.725C115.809 113.725 115.318 113.247 115.318 112.29C115.318 111.831 115.388 110.933 115.528 109.594C115.669 108.242 115.739 107.159 115.739 106.343C115.739 103.627 115.586 101.383 115.28 99.6111C115.688 99.4581 116.108 99.3816 116.542 99.3816C116.975 99.3816 117.332 99.5282 117.613 99.8215C117.906 100.102 118.053 100.491 118.053 100.988C118.053 101.485 117.983 102.512 117.842 104.067C117.715 105.622 117.651 106.834 117.651 107.701C118.097 106.757 118.747 105.897 119.602 105.119C120.469 104.328 121.329 103.933 122.183 103.933C123.471 103.933 124.115 104.622 124.115 105.999ZM135.169 104.717C134.825 106.183 134.652 107.656 134.652 109.135C134.652 110.601 134.818 112.054 135.15 113.495C134.691 113.648 134.219 113.725 133.734 113.725C133.25 113.725 132.912 113.584 132.721 113.304C132.53 113.011 132.434 112.596 132.434 112.061C132.434 111.513 132.517 110.767 132.683 109.823C131.777 111.761 130.904 112.985 130.063 113.495C129.68 113.725 129.285 113.839 128.877 113.839C127.908 113.839 127.156 113.482 126.62 112.768C126.085 112.042 125.817 111.143 125.817 110.072C125.817 108.44 126.27 107.012 127.175 105.788C128.08 104.551 129.253 103.933 130.694 103.933C132.147 103.933 133.639 104.194 135.169 104.717ZM132.664 105.865C131.988 105.661 131.414 105.559 130.942 105.559C129.986 105.559 129.272 105.769 128.8 106.19C128.367 107.261 128.15 108.351 128.15 109.46C128.15 110.046 128.239 110.639 128.418 111.238C128.609 111.838 128.896 112.137 129.279 112.137C129.725 112.137 130.299 111.481 131 110.168C131.701 108.854 132.256 107.42 132.664 105.865ZM138.552 110.244C138.514 110.423 138.495 110.569 138.495 110.684C138.495 111.207 138.648 111.608 138.954 111.889C139.273 112.169 139.693 112.309 140.216 112.309C140.751 112.309 141.191 112.214 141.536 112.023C141.893 111.819 142.071 111.519 142.071 111.124C142.071 110.729 141.88 110.416 141.497 110.187C141.128 109.944 140.675 109.753 140.139 109.613C139.617 109.473 139.088 109.32 138.552 109.154C138.017 108.975 137.558 108.701 137.175 108.332C136.806 107.962 136.621 107.497 136.621 106.936C136.621 106.056 137.086 105.316 138.017 104.717C138.947 104.118 139.923 103.818 140.943 103.818C142.065 103.818 142.919 104.048 143.505 104.507C143.85 104.775 144.022 105.132 144.022 105.578C144.022 106.011 143.85 106.368 143.505 106.649C143.174 106.916 142.766 107.05 142.281 107.05C142.179 107.05 142.052 107.038 141.899 107.012C141.937 106.846 141.956 106.7 141.956 106.572C141.956 106.203 141.816 105.922 141.536 105.731C141.255 105.54 140.873 105.444 140.388 105.444C139.916 105.444 139.483 105.54 139.088 105.731C138.935 105.935 138.858 106.196 138.858 106.515C138.858 106.834 139.043 107.095 139.413 107.299C139.783 107.49 140.229 107.662 140.751 107.815C141.287 107.956 141.822 108.121 142.358 108.313C142.893 108.491 143.346 108.778 143.716 109.173C144.085 109.556 144.27 110.04 144.27 110.627C144.27 111.583 143.792 112.38 142.836 113.017C141.893 113.642 140.917 113.954 139.91 113.954C138.903 113.954 138.068 113.776 137.405 113.419C136.755 113.049 136.429 112.494 136.429 111.755C136.429 111.296 136.595 110.926 136.927 110.646C137.271 110.352 137.685 110.206 138.17 110.206C138.272 110.206 138.399 110.219 138.552 110.244ZM147.274 109.383C147.274 110.301 147.421 111.028 147.714 111.564C148.007 112.086 148.498 112.348 149.187 112.348C149.875 112.348 150.411 112.118 150.793 111.659C151.188 111.187 151.386 110.62 151.386 109.957C151.819 109.957 152.195 110.066 152.514 110.282C152.833 110.499 152.992 110.799 152.992 111.181C152.992 111.972 152.572 112.635 151.73 113.17C150.889 113.693 150.003 113.954 149.072 113.954C147.618 113.954 146.567 113.565 145.916 112.788C145.266 111.997 144.941 110.831 144.941 109.288C144.941 107.745 145.375 106.451 146.242 105.406C147.121 104.347 148.288 103.818 149.741 103.818C150.736 103.818 151.533 104.048 152.132 104.507C152.744 104.953 153.05 105.654 153.05 106.61C153.05 107.554 152.616 108.268 151.749 108.752C150.895 109.224 149.85 109.46 148.613 109.46C148.179 109.46 147.733 109.434 147.274 109.383ZM147.293 107.873C147.676 107.949 148.077 107.987 148.498 107.987C149.416 107.987 150.187 107.815 150.812 107.471C150.889 107.165 150.927 106.923 150.927 106.744C150.927 106.298 150.768 105.96 150.449 105.731C150.13 105.501 149.69 105.387 149.129 105.387C148.581 105.387 148.084 105.565 147.638 105.922C147.408 106.585 147.293 107.235 147.293 107.873ZM160.423 100.759C161.851 100.274 163.33 100.032 164.86 100.032C166.39 100.032 167.658 100.357 168.665 101.007C169.673 101.657 170.176 102.652 170.176 103.991C170.176 105.329 169.705 106.457 168.761 107.375C167.818 108.281 166.683 108.733 165.357 108.733C164.388 108.733 163.904 108.364 163.904 107.624C163.904 107.395 163.948 107.152 164.037 106.897C164.382 106.987 164.694 107.031 164.975 107.031C165.854 107.031 166.517 106.789 166.963 106.305C167.422 105.82 167.652 105.151 167.652 104.296C167.652 103.43 167.41 102.786 166.925 102.365C166.441 101.944 165.765 101.734 164.898 101.734C164.452 101.734 163.91 101.81 163.272 101.963C163.17 103.532 163.119 104.921 163.119 106.132C163.119 109.524 163.253 111.978 163.521 113.495C163.113 113.648 162.68 113.725 162.221 113.725C161.762 113.725 161.36 113.578 161.016 113.285C160.684 112.992 160.519 112.603 160.519 112.118C160.519 111.634 160.582 110.792 160.71 109.594C160.837 108.383 160.901 107.414 160.901 106.687C160.901 104.469 160.742 102.492 160.423 100.759ZM171.76 99.6111C172.168 99.4581 172.589 99.3816 173.022 99.3816C173.456 99.3816 173.813 99.5282 174.093 99.8215C174.386 100.102 174.533 100.491 174.533 100.988C174.533 101.473 174.463 102.454 174.323 103.933C174.195 105.399 174.131 106.553 174.131 107.395C174.131 109.473 174.278 111.506 174.571 113.495C174.163 113.648 173.73 113.725 173.271 113.725C172.289 113.725 171.798 113.247 171.798 112.29C171.798 111.831 171.868 110.933 172.009 109.594C172.149 108.242 172.219 107.159 172.219 106.343C172.219 103.627 172.066 101.383 171.76 99.6111ZM185.425 104.717C185.081 106.183 184.909 107.656 184.909 109.135C184.909 110.601 185.075 112.054 185.406 113.495C184.947 113.648 184.475 113.725 183.991 113.725C183.506 113.725 183.169 113.584 182.977 113.304C182.786 113.011 182.69 112.596 182.69 112.061C182.69 111.513 182.773 110.767 182.939 109.823C182.034 111.761 181.161 112.985 180.319 113.495C179.937 113.725 179.541 113.839 179.133 113.839C178.164 113.839 177.412 113.482 176.877 112.768C176.341 112.042 176.074 111.143 176.074 110.072C176.074 108.44 176.526 107.012 177.431 105.788C178.337 104.551 179.51 103.933 180.95 103.933C182.404 103.933 183.895 104.194 185.425 104.717ZM182.92 105.865C182.244 105.661 181.671 105.559 181.199 105.559C180.243 105.559 179.529 105.769 179.057 106.19C178.623 107.261 178.407 108.351 178.407 109.46C178.407 110.046 178.496 110.639 178.674 111.238C178.866 111.838 179.153 112.137 179.535 112.137C179.981 112.137 180.555 111.481 181.256 110.168C181.957 108.854 182.512 107.42 182.92 105.865ZM196.018 105.999L195.827 110.206C195.827 111.366 196.006 112.501 196.363 113.61C196.006 113.763 195.598 113.839 195.139 113.839C194.055 113.839 193.513 113.234 193.513 112.023C193.513 111.474 193.583 110.556 193.724 109.269C193.864 107.968 193.934 107.152 193.934 106.821C193.934 106.183 193.647 105.865 193.073 105.865C192.653 105.865 192.174 106.171 191.639 106.783C191.116 107.382 190.664 108.058 190.281 108.81C189.911 109.549 189.695 110.161 189.631 110.646C189.682 111.64 189.809 112.59 190.013 113.495C189.606 113.648 189.178 113.725 188.732 113.725C188.299 113.725 187.942 113.623 187.661 113.419C187.393 113.202 187.26 112.909 187.26 112.539C187.26 112.156 187.317 111.481 187.432 110.512C187.546 109.53 187.604 108.561 187.604 107.605C187.604 106.636 187.457 105.527 187.164 104.277C187.572 104.124 188.005 104.048 188.464 104.048C188.923 104.048 189.293 104.182 189.574 104.449C189.867 104.717 190.013 105.049 190.013 105.444C190.013 105.839 189.962 106.47 189.86 107.337C190.345 106.432 190.976 105.642 191.754 104.966C192.531 104.277 193.309 103.933 194.087 103.933C195.375 103.933 196.018 104.622 196.018 105.999Z" fill="#2E3B55"/>
<g clip-path="url(#clip0_1879_4704)">
<circle cx="291.143" cy="107.224" r="21.5145" fill="#F5F5F9"/>
<path d="M294.73 103.639L286.363 112.005" stroke="#2E3B55" stroke-width="1.19525" stroke-linecap="round"/>
<path d="M287.957 102.593C287.957 102.593 294.37 102.053 295.343 103.026C296.316 103.999 295.776 110.412 295.776 110.412" stroke="#2E3B55" stroke-width="1.19525" stroke-linecap="round" stroke-linejoin="round"/>
</g>
<mask id="path-6-inside-1_1879_4704" fill="white">
<path d="M164.682 141.74C164.414 141.906 164.148 142.075 163.883 142.247L170.796 152.928C170.999 152.797 171.203 152.668 171.408 152.54L164.682 141.74Z"/>
</mask>
<path d="M164.682 141.74C164.414 141.906 164.148 142.075 163.883 142.247L170.796 152.928C170.999 152.797 171.203 152.668 171.408 152.54L164.682 141.74Z" stroke="#586277" stroke-width="32.2274" mask="url(#path-6-inside-1_1879_4704)"/>
<mask id="path-7-inside-2_1879_4704" fill="white">
<path d="M160.468 144.647C160.217 144.839 159.968 145.032 159.721 145.227L167.608 155.212C167.797 155.062 167.988 154.914 168.18 154.768L160.468 144.647Z"/>
</mask>
<path d="M160.468 144.647C160.217 144.839 159.968 145.032 159.721 145.227L167.608 155.212C167.797 155.062 167.988 154.914 168.18 154.768L160.468 144.647Z" stroke="#586277" stroke-width="32.2274" mask="url(#path-7-inside-2_1879_4704)"/>
<mask id="path-8-inside-3_1879_4704" fill="white">
<path d="M156.423 148.053C156.192 148.268 155.963 148.484 155.736 148.703L164.555 157.874C164.729 157.707 164.905 157.541 165.082 157.376L156.423 148.053Z"/>
</mask>
<path d="M156.423 148.053C156.192 148.268 155.963 148.484 155.736 148.703L164.555 157.874C164.729 157.707 164.905 157.541 165.082 157.376L156.423 148.053Z" stroke="#586277" stroke-width="32.2274" mask="url(#path-8-inside-3_1879_4704)"/>
<mask id="path-9-inside-4_1879_4704" fill="white">
<path d="M153.041 151.485C152.83 151.719 152.621 151.955 152.414 152.193L162.01 160.548C162.169 160.366 162.329 160.185 162.491 160.006L153.041 151.485Z"/>
</mask>
<path d="M153.041 151.485C152.83 151.719 152.621 151.955 152.414 152.193L162.01 160.548C162.169 160.366 162.329 160.185 162.491 160.006L153.041 151.485Z" stroke="#586277" stroke-width="32.2274" mask="url(#path-9-inside-4_1879_4704)"/>
<mask id="path-10-inside-5_1879_4704" fill="white">
<path d="M150 155.172C149.81 155.424 149.622 155.677 149.437 155.932L159.73 163.412C159.872 163.217 160.015 163.023 160.161 162.83L150 155.172Z"/>
</mask>
<path d="M150 155.172C149.81 155.424 149.622 155.677 149.437 155.932L159.73 163.412C159.872 163.217 160.015 163.023 160.161 162.83L150 155.172Z" stroke="#586277" stroke-width="32.2274" mask="url(#path-10-inside-5_1879_4704)"/>
<mask id="path-11-inside-6_1879_4704" fill="white">
<path d="M147.166 159.317C147.001 159.585 146.837 159.854 146.676 160.126L157.615 166.624C157.738 166.417 157.863 166.21 157.99 166.005L147.166 159.317Z"/>
</mask>
<path d="M147.166 159.317C147.001 159.585 146.837 159.854 146.676 160.126L157.615 166.624C157.738 166.417 157.863 166.21 157.99 166.005L147.166 159.317Z" stroke="#586277" stroke-width="32.2274" mask="url(#path-11-inside-6_1879_4704)"/>
<mask id="path-12-inside-7_1879_4704" fill="white">
<path d="M144.606 163.951C144.467 164.234 144.331 164.518 144.197 164.803L155.715 170.208C155.818 169.989 155.923 169.771 156.029 169.555L144.606 163.951Z"/>
</mask>
<path d="M144.606 163.951C144.467 164.234 144.331 164.518 144.197 164.803L155.715 170.208C155.818 169.989 155.923 169.771 156.029 169.555L144.606 163.951Z" stroke="#586277" stroke-width="32.2274" mask="url(#path-12-inside-7_1879_4704)"/>
<mask id="path-13-inside-8_1879_4704" fill="white">
<path d="M142.597 168.575C142.485 168.87 142.376 169.166 142.269 169.462L154.239 173.777C154.321 173.55 154.404 173.323 154.49 173.097L142.597 168.575Z"/>
</mask>
<path d="M142.597 168.575C142.485 168.87 142.376 169.166 142.269 169.462L154.239 173.777C154.321 173.55 154.404 173.323 154.49 173.097L142.597 168.575Z" stroke="#586277" stroke-width="32.2274" mask="url(#path-13-inside-8_1879_4704)"/>
<mask id="path-14-inside-9_1879_4704" fill="white">
<path d="M140.968 173.576C140.885 173.88 140.805 174.185 140.727 174.491L153.057 177.629C153.117 177.395 153.179 177.161 153.242 176.928L140.968 173.576Z"/>
</mask>
<path d="M140.968 173.576C140.885 173.88 140.805 174.185 140.727 174.491L153.057 177.629C153.117 177.395 153.179 177.161 153.242 176.928L140.968 173.576Z" stroke="#586277" stroke-width="32.2274" mask="url(#path-14-inside-9_1879_4704)"/>
<mask id="path-15-inside-10_1879_4704" fill="white">
<path d="M139.853 178.572C139.799 178.883 139.748 179.194 139.699 179.505L152.27 181.47C152.308 181.231 152.347 180.993 152.388 180.755L139.853 178.572Z"/>
</mask>
<path d="M139.853 178.572C139.799 178.883 139.748 179.194 139.699 179.505L152.27 181.47C152.308 181.231 152.347 180.993 152.388 180.755L139.853 178.572Z" stroke="#586277" stroke-width="32.2274" mask="url(#path-15-inside-10_1879_4704)"/>
<mask id="path-16-inside-11_1879_4704" fill="white">
<path d="M139.207 183.739C139.182 184.054 139.161 184.368 139.142 184.683L151.844 185.436C151.858 185.195 151.874 184.954 151.893 184.713L139.207 183.739Z"/>
</mask>
<path d="M139.207 183.739C139.182 184.054 139.161 184.368 139.142 184.683L151.844 185.436C151.858 185.195 151.874 184.954 151.893 184.713L139.207 183.739Z" stroke="#586277" stroke-width="32.2274" mask="url(#path-16-inside-11_1879_4704)"/>
<mask id="path-17-inside-12_1879_4704" fill="white">
<path d="M139.054 188.786C139.059 189.101 139.067 189.416 139.078 189.732L151.794 189.304C151.786 189.062 151.78 188.821 151.776 188.58L139.054 188.786Z"/>
</mask>
<path d="M139.054 188.786C139.059 189.101 139.067 189.416 139.078 189.732L151.794 189.304C151.786 189.062 151.78 188.821 151.776 188.58L139.054 188.786Z" stroke="#586277" stroke-width="32.2274" mask="url(#path-17-inside-12_1879_4704)"/>
<mask id="path-18-inside-13_1879_4704" fill="white">
<path d="M139.358 193.711C139.392 194.024 139.428 194.338 139.467 194.651L152.092 193.072C152.062 192.832 152.035 192.592 152.009 192.352L139.358 193.711Z"/>
</mask>
<path d="M139.358 193.711C139.392 194.024 139.428 194.338 139.467 194.651L152.092 193.072C152.062 192.832 152.035 192.592 152.009 192.352L139.358 193.711Z" stroke="#586277" stroke-width="32.2274" mask="url(#path-18-inside-13_1879_4704)"/>
<mask id="path-19-inside-14_1879_4704" fill="white">
<path d="M140.143 198.767C140.206 199.076 140.272 199.384 140.34 199.692L152.761 196.934C152.709 196.698 152.658 196.462 152.61 196.225L140.143 198.767Z"/>
</mask>
<path d="M140.143 198.767C140.206 199.076 140.272 199.384 140.34 199.692L152.761 196.934C152.709 196.698 152.658 196.462 152.61 196.225L140.143 198.767Z" stroke="#586277" stroke-width="32.2274" mask="url(#path-19-inside-14_1879_4704)"/>
<mask id="path-20-inside-15_1879_4704" fill="white">
<path d="M141.389 203.691C141.48 203.992 141.574 204.293 141.671 204.593L153.781 200.689C153.707 200.459 153.635 200.228 153.564 199.997L141.389 203.691Z"/>
</mask>
<path d="M141.389 203.691C141.48 203.992 141.574 204.293 141.671 204.593L153.781 200.689C153.707 200.459 153.635 200.228 153.564 199.997L141.389 203.691Z" stroke="#586277" stroke-width="32.2274" mask="url(#path-20-inside-15_1879_4704)"/>
<mask id="path-21-inside-16_1879_4704" fill="white">
<path d="M143.161 208.653C143.281 208.944 143.404 209.234 143.529 209.524L155.204 204.465C155.108 204.244 155.014 204.021 154.922 203.798L143.161 208.653Z"/>
</mask>
<path d="M143.161 208.653C143.281 208.944 143.404 209.234 143.529 209.524L155.204 204.465C155.108 204.244 155.014 204.021 154.922 203.798L143.161 208.653Z" stroke="#586277" stroke-width="32.2274" mask="url(#path-21-inside-16_1879_4704)"/>
<mask id="path-22-inside-17_1879_4704" fill="white">
<path d="M145.342 213.301C145.489 213.58 145.639 213.857 145.791 214.134L156.936 207.997C156.82 207.785 156.705 207.573 156.593 207.359L145.342 213.301Z"/>
</mask>
<path d="M145.342 213.301C145.489 213.58 145.639 213.857 145.791 214.134L156.936 207.997C156.82 207.785 156.705 207.573 156.593 207.359L145.342 213.301Z" stroke="#586277" stroke-width="32.2274" mask="url(#path-22-inside-17_1879_4704)"/>
<mask id="path-23-inside-18_1879_4704" fill="white">
<path d="M147.71 217.352C147.881 217.617 148.054 217.881 148.229 218.143L158.805 211.068C158.67 210.867 158.538 210.665 158.407 210.462L147.71 217.352Z"/>
</mask>
<path d="M147.71 217.352C147.881 217.617 148.054 217.881 148.229 218.143L158.805 211.068C158.67 210.867 158.538 210.665 158.407 210.462L147.71 217.352Z" stroke="#586277" stroke-width="32.2274" mask="url(#path-23-inside-18_1879_4704)"/>
<mask id="path-24-inside-19_1879_4704" fill="white">
<path d="M150.641 221.468C150.835 221.716 151.032 221.963 151.231 222.207L161.104 214.182C160.952 213.994 160.801 213.806 160.652 213.615L150.641 221.468Z"/>
</mask>
<path d="M150.641 221.468C150.835 221.716 151.032 221.963 151.231 222.207L161.104 214.182C160.952 213.994 160.801 213.806 160.652 213.615L150.641 221.468Z" stroke="#586277" stroke-width="32.2274" mask="url(#path-24-inside-19_1879_4704)"/>
<mask id="path-25-inside-20_1879_4704" fill="white">
<path d="M154.976 226.359C155.198 226.581 155.423 226.802 155.65 227.022L164.489 217.869C164.316 217.702 164.143 217.532 163.972 217.362L154.976 226.359Z"/>
</mask>
<path d="M154.976 226.359C155.198 226.581 155.423 226.802 155.65 227.022L164.489 217.869C164.316 217.702 164.143 217.532 163.972 217.362L154.976 226.359Z" stroke="#586277" stroke-width="32.2274" mask="url(#path-25-inside-20_1879_4704)"/>
<mask id="path-26-inside-21_1879_4704" fill="white">
<path d="M159.49 230.396C159.737 230.593 159.985 230.788 160.235 230.98L168.001 220.902C167.81 220.755 167.62 220.605 167.431 220.455L159.49 230.396Z"/>
</mask>
<path d="M159.49 230.396C159.737 230.593 159.985 230.788 160.235 230.98L168.001 220.902C167.81 220.755 167.62 220.605 167.431 220.455L159.49 230.396Z" stroke="#586277" stroke-width="32.2274" mask="url(#path-26-inside-21_1879_4704)"/>
<mask id="path-27-inside-22_1879_4704" fill="white">
<path d="M163.864 233.547C164.128 233.719 164.394 233.888 164.662 234.055L171.393 223.257C171.188 223.129 170.984 223 170.781 222.869L163.864 233.547Z"/>
</mask>
<path d="M163.864 233.547C164.128 233.719 164.394 233.888 164.662 234.055L171.393 223.257C171.188 223.129 170.984 223 170.781 222.869L163.864 233.547Z" stroke="#586277" stroke-width="32.2274" mask="url(#path-27-inside-22_1879_4704)"/>
<mask id="path-28-inside-23_1879_4704" fill="white">
<path d="M168.174 236.067C168.453 236.213 168.734 236.357 169.016 236.499L174.728 225.129C174.512 225.021 174.297 224.911 174.083 224.798L168.174 236.067Z"/>
</mask>
<path d="M168.174 236.067C168.453 236.213 168.734 236.357 169.016 236.499L174.728 225.129C174.512 225.021 174.297 224.911 174.083 224.798L168.174 236.067Z" stroke="#586277" stroke-width="32.2274" mask="url(#path-28-inside-23_1879_4704)"/>
<mask id="path-29-inside-24_1879_4704" fill="white">
<path d="M172.429 238.069C172.72 238.19 173.012 238.31 173.305 238.426L178.014 226.606C177.789 226.516 177.566 226.425 177.343 226.332L172.429 238.069Z"/>
</mask>
<path d="M172.429 238.069C172.72 238.19 173.012 238.31 173.305 238.426L178.014 226.606C177.789 226.516 177.566 226.425 177.343 226.332L172.429 238.069Z" stroke="#586277" stroke-width="32.2274" mask="url(#path-29-inside-24_1879_4704)"/>
<mask id="path-30-inside-25_1879_4704" fill="white">
<path d="M177.432 239.881C177.733 239.973 178.036 240.064 178.339 240.151L181.869 227.927C181.637 227.86 181.406 227.791 181.175 227.72L177.432 239.881Z"/>
</mask>
<path d="M177.432 239.881C177.733 239.973 178.036 240.064 178.339 240.151L181.869 227.927C181.637 227.86 181.406 227.791 181.175 227.72L177.432 239.881Z" stroke="#586277" stroke-width="32.2274" mask="url(#path-30-inside-25_1879_4704)"/>
<mask id="path-31-inside-26_1879_4704" fill="white">
<path d="M182.262 241.128C182.57 241.193 182.879 241.255 183.189 241.314L185.585 228.818C185.348 228.773 185.111 228.725 184.875 228.675L182.262 241.128Z"/>
</mask>
<path d="M182.262 241.128C182.57 241.193 182.879 241.255 183.189 241.314L185.585 228.818C185.348 228.773 185.111 228.725 184.875 228.675L182.262 241.128Z" stroke="#586277" stroke-width="32.2274" mask="url(#path-31-inside-26_1879_4704)"/>
<mask id="path-32-inside-27_1879_4704" fill="white">
<path d="M188.204 235.64C187.822 239.133 190.348 242.313 193.862 242.285C200.173 242.235 206.445 241.087 212.391 238.875C220.33 235.922 227.469 231.155 233.24 224.955C239.011 218.754 243.254 211.291 245.63 203.161C248.007 195.03 248.451 186.457 246.928 178.124C245.405 169.792 241.956 161.93 236.857 155.166C231.758 148.402 225.15 142.923 217.558 139.165C209.967 135.407 201.603 133.474 193.132 133.52C186.788 133.555 180.516 134.699 174.595 136.885C171.299 138.102 170.061 141.971 171.654 145.103C173.248 148.234 177.07 149.429 180.407 148.331C184.525 146.976 188.841 146.268 193.202 146.244C199.691 146.208 206.098 147.689 211.914 150.568C217.729 153.446 222.791 157.644 226.697 162.825C230.603 168.007 233.245 174.029 234.412 180.412C235.579 186.795 235.238 193.363 233.418 199.591C231.597 205.819 228.347 211.536 223.926 216.286C219.506 221.036 214.036 224.688 207.955 226.95C203.867 228.47 199.58 229.335 195.249 229.524C191.739 229.677 188.587 232.147 188.204 235.64Z"/>
</mask>
<path d="M188.204 235.64C187.822 239.133 190.348 242.313 193.862 242.285C200.173 242.235 206.445 241.087 212.391 238.875C220.33 235.922 227.469 231.155 233.24 224.955C239.011 218.754 243.254 211.291 245.63 203.161C248.007 195.03 248.451 186.457 246.928 178.124C245.405 169.792 241.956 161.93 236.857 155.166C231.758 148.402 225.15 142.923 217.558 139.165C209.967 135.407 201.603 133.474 193.132 133.52C186.788 133.555 180.516 134.699 174.595 136.885C171.299 138.102 170.061 141.971 171.654 145.103C173.248 148.234 177.07 149.429 180.407 148.331C184.525 146.976 188.841 146.268 193.202 146.244C199.691 146.208 206.098 147.689 211.914 150.568C217.729 153.446 222.791 157.644 226.697 162.825C230.603 168.007 233.245 174.029 234.412 180.412C235.579 186.795 235.238 193.363 233.418 199.591C231.597 205.819 228.347 211.536 223.926 216.286C219.506 221.036 214.036 224.688 207.955 226.95C203.867 228.47 199.58 229.335 195.249 229.524C191.739 229.677 188.587 232.147 188.204 235.64Z" stroke="#2E3B55" stroke-width="32.2274" stroke-linejoin="round" mask="url(#path-32-inside-27_1879_4704)"/>
<g filter="url(#filter1_d_1879_4704)">
<circle cx="193.133" cy="188.202" r="36.7539" fill="white"/>
</g>
<path d="M184.987 186.744V185.451H181.69V184.466C182.564 182.948 183.521 181.398 184.436 180.007H186.14V184.456H187.046V185.451H186.14V186.744H184.987ZM182.811 184.484H185.005V180.969H184.935C184.244 182.024 183.465 183.27 182.811 184.414V184.484ZM190.772 186.912C189.17 186.912 188.208 185.554 188.208 183.378V183.368C188.208 181.193 189.17 179.839 190.772 179.839C192.373 179.839 193.344 181.193 193.344 183.368V183.378C193.344 185.554 192.373 186.912 190.772 186.912ZM190.772 185.936C191.631 185.936 192.13 184.975 192.13 183.378V183.368C192.13 181.772 191.631 180.819 190.772 180.819C189.912 180.819 189.422 181.772 189.422 183.368V183.378C189.422 184.975 189.912 185.936 190.772 185.936ZM197.047 179.666L195.039 188.439H193.956L195.963 179.666H197.047ZM199.437 186.744V181.193H199.358L197.682 182.379V181.244L199.442 180.007H200.642V186.744H199.437ZM204.946 186.912C203.569 186.912 202.64 186.072 202.551 184.965L202.547 184.905H203.658L203.662 184.937C203.751 185.488 204.26 185.927 204.951 185.927C205.74 185.927 206.282 185.371 206.282 184.578V184.568C206.282 183.784 205.731 183.233 204.96 183.233C204.582 183.233 204.255 183.345 204.008 183.569C203.887 183.672 203.775 183.803 203.695 183.952H202.663L202.99 180.007H207.033V180.997H203.929L203.742 183.046H203.821C204.101 182.593 204.624 182.323 205.259 182.323C206.515 182.323 207.426 183.256 207.426 184.545V184.554C207.426 185.955 206.403 186.912 204.946 186.912ZM211.175 186.912C209.573 186.912 208.612 185.554 208.612 183.378V183.368C208.612 181.193 209.573 179.839 211.175 179.839C212.776 179.839 213.747 181.193 213.747 183.368V183.378C213.747 185.554 212.776 186.912 211.175 186.912ZM211.175 185.936C212.034 185.936 212.533 184.975 212.533 183.378V183.368C212.533 181.772 212.034 180.819 211.175 180.819C210.316 180.819 209.825 181.772 209.825 183.368V183.378C209.825 184.975 210.316 185.936 211.175 185.936Z" fill="#2E3B55"/>
<path d="M154.484 197.537V192.484H156.414C157.387 192.484 158.024 193.079 158.024 193.986V193.993C158.024 194.694 157.643 195.24 157.009 195.44L158.178 197.537H157.44L156.358 195.538H155.114V197.537H154.484ZM155.114 194.977H156.358C157.005 194.977 157.373 194.631 157.373 194.014V194.007C157.373 193.405 156.981 193.044 156.33 193.044H155.114V194.977ZM160.528 197.604C159.45 197.604 158.798 196.847 158.798 195.664V195.66C158.798 194.494 159.464 193.696 160.49 193.696C161.516 193.696 162.139 194.459 162.139 195.587V195.825H159.422C159.439 196.606 159.87 197.061 160.542 197.061C161.053 197.061 161.369 196.819 161.47 196.592L161.484 196.56H162.093L162.086 196.588C161.957 197.099 161.418 197.604 160.528 197.604ZM160.486 194.239C159.926 194.239 159.499 194.62 159.432 195.338H161.519C161.456 194.592 161.043 194.239 160.486 194.239ZM163.084 197.537V193.762H163.694V194.337H163.75C163.918 193.93 164.275 193.696 164.769 193.696C165.28 193.696 165.637 193.965 165.812 194.358H165.868C166.071 193.958 166.502 193.696 167.024 193.696C167.794 193.696 168.225 194.137 168.225 194.928V197.537H167.616V195.068C167.616 194.512 167.36 194.235 166.828 194.235C166.302 194.235 165.956 194.631 165.956 195.11V197.537H165.346V194.974C165.346 194.526 165.038 194.235 164.562 194.235C164.068 194.235 163.694 194.666 163.694 195.198V197.537H163.084ZM170.361 197.604C169.643 197.604 169.1 197.169 169.1 196.483V196.476C169.1 195.804 169.598 195.415 170.476 195.363L171.558 195.296V194.953C171.558 194.487 171.275 194.235 170.711 194.235C170.259 194.235 169.962 194.403 169.864 194.697L169.86 194.708H169.251L169.254 194.687C169.352 194.095 169.927 193.696 170.732 193.696C171.653 193.696 172.168 194.168 172.168 194.953V197.537H171.558V196.98H171.502C171.264 197.383 170.869 197.604 170.361 197.604ZM169.724 196.469C169.724 196.851 170.049 197.075 170.487 197.075C171.107 197.075 171.558 196.669 171.558 196.129V195.786L170.55 195.849C169.976 195.884 169.724 196.087 169.724 196.462V196.469ZM173.603 193.034C173.372 193.034 173.183 192.845 173.183 192.614C173.183 192.383 173.372 192.194 173.603 192.194C173.835 192.194 174.024 192.383 174.024 192.614C174.024 192.845 173.835 193.034 173.603 193.034ZM173.295 197.537V193.762H173.905V197.537H173.295ZM175.053 197.537V193.762H175.662V194.33H175.718C175.908 193.93 176.261 193.696 176.818 193.696C177.665 193.696 178.138 194.196 178.138 195.093V197.537H177.529V195.24C177.529 194.561 177.249 194.235 176.646 194.235C176.044 194.235 175.662 194.641 175.662 195.303V197.537H175.053ZM179.563 193.034C179.332 193.034 179.143 192.845 179.143 192.614C179.143 192.383 179.332 192.194 179.563 192.194C179.794 192.194 179.984 192.383 179.984 192.614C179.984 192.845 179.794 193.034 179.563 193.034ZM179.255 197.537V193.762H179.865V197.537H179.255ZM181.013 197.537V193.762H181.622V194.33H181.678C181.867 193.93 182.221 193.696 182.778 193.696C183.625 193.696 184.098 194.196 184.098 195.093V197.537H183.489V195.24C183.489 194.561 183.209 194.235 182.606 194.235C182.004 194.235 181.622 194.641 181.622 195.303V197.537H181.013ZM186.756 198.868C185.845 198.868 185.264 198.458 185.17 197.838L185.177 197.835H185.807L185.81 197.838C185.877 198.125 186.213 198.328 186.756 198.328C187.432 198.328 187.834 198.01 187.834 197.453V196.69H187.778C187.54 197.106 187.113 197.341 186.595 197.341C185.618 197.341 185.012 196.585 185.012 195.527V195.52C185.012 194.463 185.621 193.696 186.609 193.696C187.141 193.696 187.554 193.958 187.785 194.386H187.827V193.762H188.437V197.485C188.437 198.328 187.785 198.868 186.756 198.868ZM186.728 196.802C187.428 196.802 187.848 196.276 187.848 195.527V195.52C187.848 194.771 187.425 194.235 186.728 194.235C186.028 194.235 185.635 194.771 185.635 195.52V195.527C185.635 196.276 186.028 196.802 186.728 196.802ZM191.665 197.537V192.484H193.57C194.519 192.484 195.191 193.139 195.191 194.098V194.105C195.191 195.065 194.519 195.734 193.57 195.734H192.296V197.537H191.665ZM193.409 193.044H192.296V195.173H193.409C194.13 195.173 194.547 194.778 194.547 194.112V194.105C194.547 193.44 194.13 193.044 193.409 193.044ZM197.044 197.604C196.326 197.604 195.783 197.169 195.783 196.483V196.476C195.783 195.804 196.281 195.415 197.159 195.363L198.241 195.296V194.953C198.241 194.487 197.958 194.235 197.394 194.235C196.942 194.235 196.645 194.403 196.547 194.697L196.543 194.708H195.934L195.937 194.687C196.035 194.095 196.61 193.696 197.415 193.696C198.336 193.696 198.851 194.168 198.851 194.953V197.537H198.241V196.98H198.185C197.947 197.383 197.552 197.604 197.044 197.604ZM196.407 196.469C196.407 196.851 196.732 197.075 197.17 197.075C197.79 197.075 198.241 196.669 198.241 196.129V195.786L197.233 195.849C196.659 195.884 196.407 196.087 196.407 196.462V196.469ZM199.964 197.537V193.762H200.574V194.323H200.63C200.773 193.927 201.127 193.696 201.638 193.696C201.754 193.696 201.883 193.71 201.943 193.72V194.312C201.817 194.291 201.701 194.277 201.568 194.277C200.987 194.277 200.574 194.645 200.574 195.198V197.537H199.964ZM204.247 197.565C203.47 197.565 203.144 197.278 203.144 196.557V194.267H202.549V193.762H203.144V192.785H203.774V193.762H204.601V194.267H203.774V196.403C203.774 196.847 203.928 197.026 204.32 197.026C204.429 197.026 204.489 197.022 204.601 197.012V197.53C204.482 197.551 204.366 197.565 204.247 197.565ZM205.833 193.034C205.602 193.034 205.413 192.845 205.413 192.614C205.413 192.383 205.602 192.194 205.833 192.194C206.064 192.194 206.253 192.383 206.253 192.614C206.253 192.845 206.064 193.034 205.833 193.034ZM205.525 197.537V193.762H206.134V197.537H205.525ZM208.827 197.604C207.77 197.604 207.094 196.837 207.094 195.639V195.632C207.094 194.459 207.766 193.696 208.824 193.696C209.741 193.696 210.291 194.224 210.403 194.897L210.406 194.918H209.801L209.797 194.907C209.703 194.536 209.366 194.235 208.824 194.235C208.144 194.235 207.717 194.781 207.717 195.632V195.639C207.717 196.508 208.151 197.064 208.824 197.064C209.331 197.064 209.654 196.84 209.794 196.42L209.801 196.399L210.403 196.396L210.396 196.434C210.242 197.117 209.734 197.604 208.827 197.604ZM211.618 193.034C211.387 193.034 211.198 192.845 211.198 192.614C211.198 192.383 211.387 192.194 211.618 192.194C211.849 192.194 212.038 192.383 212.038 192.614C212.038 192.845 211.849 193.034 211.618 193.034ZM211.31 197.537V193.762H211.919V197.537H211.31ZM213.068 198.798V193.762H213.677V194.365H213.733C213.964 193.944 214.384 193.696 214.91 193.696C215.866 193.696 216.492 194.47 216.492 195.646V195.653C216.492 196.837 215.869 197.604 214.91 197.604C214.391 197.604 213.94 197.345 213.733 196.942H213.677V198.798H213.068ZM214.77 197.064C215.459 197.064 215.869 196.532 215.869 195.653V195.646C215.869 194.767 215.459 194.235 214.77 194.235C214.083 194.235 213.663 194.774 213.663 195.646V195.653C213.663 196.525 214.083 197.064 214.77 197.064ZM218.481 197.604C217.763 197.604 217.221 197.169 217.221 196.483V196.476C217.221 195.804 217.718 195.415 218.597 195.363L219.679 195.296V194.953C219.679 194.487 219.395 194.235 218.831 194.235C218.38 194.235 218.082 194.403 217.984 194.697L217.981 194.708H217.371L217.375 194.687C217.473 194.095 218.047 193.696 218.853 193.696C219.773 193.696 220.288 194.168 220.288 194.953V197.537H219.679V196.98H219.623C219.385 197.383 218.989 197.604 218.481 197.604ZM217.844 196.469C217.844 196.851 218.17 197.075 218.607 197.075C219.227 197.075 219.679 196.669 219.679 196.129V195.786L218.67 195.849C218.096 195.884 217.844 196.087 217.844 196.462V196.469ZM221.402 197.537V193.762H222.011V194.33H222.067C222.256 193.93 222.61 193.696 223.167 193.696C224.014 193.696 224.487 194.196 224.487 195.093V197.537H223.877V195.24C223.877 194.561 223.597 194.235 222.995 194.235C222.393 194.235 222.011 194.641 222.011 195.303V197.537H221.402ZM226.931 197.565C226.154 197.565 225.828 197.278 225.828 196.557V194.267H225.233V193.762H225.828V192.785H226.458V193.762H227.285V194.267H226.458V196.403C226.458 196.847 226.612 197.026 227.004 197.026C227.113 197.026 227.173 197.022 227.285 197.012V197.53C227.166 197.551 227.05 197.565 226.931 197.565ZM229.421 197.604C228.58 197.604 228.002 197.197 227.932 196.574H228.556C228.657 196.889 228.958 197.096 229.442 197.096C229.949 197.096 230.31 196.854 230.31 196.511V196.504C230.31 196.248 230.117 196.07 229.652 195.958L229.067 195.818C228.36 195.65 228.041 195.342 228.041 194.799V194.795C228.041 194.168 228.643 193.696 229.445 193.696C230.237 193.696 230.786 194.091 230.87 194.708H230.272C230.191 194.41 229.897 194.203 229.442 194.203C228.993 194.203 228.664 194.435 228.664 194.767V194.774C228.664 195.03 228.853 195.191 229.298 195.3L229.879 195.44C230.59 195.611 230.933 195.919 230.933 196.459V196.466C230.933 197.138 230.279 197.604 229.421 197.604Z" fill="#ABB1BB"/>
<rect x="74.3555" y="260.216" width="115.64" height="31.0765" rx="7.17149" fill="#F5F5F9"/>
<path d="M90.0024 279.358C89.4253 279.358 88.935 279.254 88.5317 279.045C88.1284 278.837 87.7668 278.531 87.447 278.127L88.2605 277.314C88.4622 277.606 88.7021 277.835 88.9802 278.002C89.2584 278.162 89.613 278.242 90.0441 278.242C90.4475 278.242 90.7673 278.159 91.0037 277.992C91.2471 277.825 91.3688 277.595 91.3688 277.303C91.3688 277.06 91.3062 276.862 91.1811 276.709C91.0559 276.556 90.889 276.431 90.6804 276.333C90.4787 276.229 90.2528 276.139 90.0024 276.062C89.759 275.979 89.5122 275.888 89.2619 275.791C89.0185 275.687 88.7925 275.558 88.5839 275.405C88.3822 275.252 88.2188 275.054 88.0937 274.811C87.9685 274.567 87.9059 274.258 87.9059 273.882C87.9059 273.451 88.0102 273.086 88.2188 272.787C88.4344 272.481 88.723 272.248 89.0845 272.088C89.4461 271.928 89.8494 271.848 90.2945 271.848C90.7743 271.848 91.2019 271.942 91.5774 272.13C91.9599 272.318 92.2693 272.558 92.5057 272.85L91.6921 273.663C91.4835 273.427 91.2645 273.253 91.035 273.142C90.8125 273.023 90.5552 272.964 90.2632 272.964C89.9016 272.964 89.6165 273.037 89.4079 273.183C89.2062 273.329 89.1054 273.535 89.1054 273.799C89.1054 274.021 89.168 274.202 89.2932 274.341C89.4183 274.473 89.5817 274.588 89.7834 274.685C89.992 274.776 90.218 274.863 90.4614 274.946C90.7117 275.03 90.9585 275.123 91.2019 275.228C91.4523 275.332 91.6782 275.468 91.8799 275.635C92.0885 275.794 92.2554 276.003 92.3806 276.26C92.5057 276.518 92.5683 276.841 92.5683 277.23C92.5683 277.884 92.3354 278.402 91.8695 278.785C91.4105 279.167 90.7882 279.358 90.0024 279.358ZM95.977 279.358C95.4764 279.358 95.0244 279.247 94.6211 279.024C94.2247 278.795 93.9083 278.482 93.6719 278.086C93.4424 277.689 93.3277 277.244 93.3277 276.751C93.3277 276.257 93.4424 275.815 93.6719 275.426C93.9014 275.03 94.2108 274.717 94.6002 274.487C94.9966 274.258 95.4346 274.143 95.9144 274.143C96.3803 274.143 96.7906 274.251 97.1452 274.466C97.5068 274.682 97.7884 274.977 97.9901 275.353C98.1987 275.728 98.303 276.156 98.303 276.636C98.303 276.719 98.296 276.806 98.2821 276.897C98.2752 276.98 98.2613 277.074 98.2404 277.178H94.1308V276.24H97.6459L97.2182 276.615C97.2043 276.309 97.1452 276.052 97.0409 275.843C96.9366 275.635 96.7871 275.475 96.5924 275.363C96.4047 275.252 96.1717 275.196 95.8936 275.196C95.6015 275.196 95.3477 275.259 95.1321 275.384C94.9166 275.509 94.7497 275.687 94.6315 275.916C94.5133 276.139 94.4542 276.406 94.4542 276.719C94.4542 277.032 94.5168 277.307 94.6419 277.543C94.7671 277.78 94.9444 277.964 95.1739 278.096C95.4033 278.221 95.6676 278.284 95.9666 278.284C96.2239 278.284 96.4603 278.239 96.6758 278.148C96.8984 278.058 97.0861 277.926 97.2391 277.752L97.9692 278.492C97.7258 278.778 97.4303 278.993 97.0826 279.139C96.735 279.285 96.3664 279.358 95.977 279.358ZM101.653 279.358C101.152 279.358 100.7 279.247 100.297 279.024C99.9007 278.795 99.5843 278.482 99.3479 278.086C99.1184 277.689 99.0037 277.244 99.0037 276.751C99.0037 276.257 99.1184 275.815 99.3479 275.426C99.5774 275.03 99.8868 274.717 100.276 274.487C100.673 274.258 101.111 274.143 101.59 274.143C102.056 274.143 102.467 274.251 102.821 274.466C103.183 274.682 103.464 274.977 103.666 275.353C103.875 275.728 103.979 276.156 103.979 276.636C103.979 276.719 103.972 276.806 103.958 276.897C103.951 276.98 103.937 277.074 103.916 277.178H99.8068V276.24H103.322L102.894 276.615C102.88 276.309 102.821 276.052 102.717 275.843C102.613 275.635 102.463 275.475 102.268 275.363C102.081 275.252 101.848 275.196 101.57 275.196C101.278 275.196 101.024 275.259 100.808 275.384C100.593 275.509 100.426 275.687 100.308 275.916C100.189 276.139 100.13 276.406 100.13 276.719C100.13 277.032 100.193 277.307 100.318 277.543C100.443 277.78 100.62 277.964 100.85 278.096C101.079 278.221 101.344 278.284 101.643 278.284C101.9 278.284 102.136 278.239 102.352 278.148C102.574 278.058 102.762 277.926 102.915 277.752L103.645 278.492C103.402 278.778 103.106 278.993 102.759 279.139C102.411 279.285 102.042 279.358 101.653 279.358ZM109.292 279.358C108.84 279.358 108.43 279.243 108.061 279.014C107.7 278.785 107.411 278.475 107.195 278.086C106.987 277.689 106.883 277.248 106.883 276.761C106.883 276.267 106.987 275.826 107.195 275.436C107.411 275.04 107.7 274.727 108.061 274.498C108.43 274.261 108.84 274.143 109.292 274.143C109.674 274.143 110.012 274.226 110.304 274.393C110.603 274.553 110.839 274.776 111.013 275.061C111.187 275.346 111.274 275.669 111.274 276.031V277.47C111.274 277.832 111.187 278.155 111.013 278.44C110.846 278.725 110.613 278.951 110.314 279.118C110.015 279.278 109.674 279.358 109.292 279.358ZM109.48 278.273C109.904 278.273 110.245 278.131 110.502 277.846C110.766 277.561 110.898 277.196 110.898 276.751C110.898 276.452 110.839 276.187 110.721 275.958C110.603 275.728 110.436 275.551 110.22 275.426C110.012 275.294 109.765 275.228 109.48 275.228C109.202 275.228 108.955 275.294 108.739 275.426C108.531 275.551 108.364 275.728 108.239 275.958C108.12 276.187 108.061 276.452 108.061 276.751C108.061 277.05 108.12 277.314 108.239 277.543C108.364 277.773 108.531 277.954 108.739 278.086C108.955 278.211 109.202 278.273 109.48 278.273ZM110.825 279.254V277.908L111.023 276.688L110.825 275.478V274.247H111.973V279.254H110.825ZM115.655 279.358C115.162 279.358 114.713 279.243 114.31 279.014C113.913 278.785 113.601 278.472 113.371 278.075C113.142 277.679 113.027 277.237 113.027 276.751C113.027 276.257 113.142 275.815 113.371 275.426C113.601 275.03 113.913 274.717 114.31 274.487C114.713 274.258 115.162 274.143 115.655 274.143C116.045 274.143 116.406 274.219 116.74 274.372C117.081 274.518 117.369 274.731 117.606 275.009L116.855 275.77C116.709 275.596 116.532 275.468 116.323 275.384C116.121 275.294 115.899 275.249 115.655 275.249C115.37 275.249 115.116 275.315 114.894 275.447C114.678 275.572 114.508 275.746 114.383 275.968C114.265 276.191 114.206 276.452 114.206 276.751C114.206 277.043 114.265 277.303 114.383 277.533C114.508 277.755 114.678 277.933 114.894 278.065C115.116 278.19 115.37 278.253 115.655 278.253C115.899 278.253 116.121 278.211 116.323 278.127C116.532 278.037 116.709 277.905 116.855 277.731L117.606 278.492C117.369 278.771 117.081 278.986 116.74 279.139C116.406 279.285 116.045 279.358 115.655 279.358ZM119.217 279.254V272.161H120.365V279.254H119.217ZM118.018 275.29V274.247H121.564V275.29H118.018ZM122.513 279.254V274.247H123.66V279.254H122.513ZM123.086 273.329C122.892 273.329 122.728 273.263 122.596 273.131C122.471 272.999 122.408 272.836 122.408 272.641C122.408 272.446 122.471 272.283 122.596 272.151C122.728 272.019 122.892 271.953 123.086 271.953C123.288 271.953 123.451 272.019 123.576 272.151C123.702 272.283 123.764 272.446 123.764 272.641C123.764 272.836 123.702 272.999 123.576 273.131C123.451 273.263 123.288 273.329 123.086 273.329ZM126.741 279.254L124.457 274.247H125.729L127.471 278.326H126.72L128.472 274.247H129.693L127.408 279.254H126.741ZM132.625 279.358C132.125 279.358 131.673 279.247 131.269 279.024C130.873 278.795 130.557 278.482 130.32 278.086C130.091 277.689 129.976 277.244 129.976 276.751C129.976 276.257 130.091 275.815 130.32 275.426C130.55 275.03 130.859 274.717 131.248 274.487C131.645 274.258 132.083 274.143 132.563 274.143C133.029 274.143 133.439 274.251 133.793 274.466C134.155 274.682 134.437 274.977 134.638 275.353C134.847 275.728 134.951 276.156 134.951 276.636C134.951 276.719 134.944 276.806 134.93 276.897C134.923 276.98 134.909 277.074 134.889 277.178H130.779V276.24H134.294L133.866 276.615C133.853 276.309 133.793 276.052 133.689 275.843C133.585 275.635 133.435 275.475 133.241 275.363C133.053 275.252 132.82 275.196 132.542 275.196C132.25 275.196 131.996 275.259 131.78 275.384C131.565 275.509 131.398 275.687 131.28 275.916C131.162 276.139 131.102 276.406 131.102 276.719C131.102 277.032 131.165 277.307 131.29 277.543C131.415 277.78 131.593 277.964 131.822 278.096C132.052 278.221 132.316 278.284 132.615 278.284C132.872 278.284 133.109 278.239 133.324 278.148C133.547 278.058 133.734 277.926 133.887 277.752L134.617 278.492C134.374 278.778 134.079 278.993 133.731 279.139C133.383 279.285 133.015 279.358 132.625 279.358ZM140.473 279.358C139.979 279.358 139.531 279.243 139.127 279.014C138.731 278.785 138.418 278.472 138.189 278.075C137.959 277.679 137.844 277.237 137.844 276.751C137.844 276.257 137.959 275.815 138.189 275.426C138.418 275.03 138.731 274.717 139.127 274.487C139.531 274.258 139.979 274.143 140.473 274.143C140.862 274.143 141.224 274.219 141.558 274.372C141.898 274.518 142.187 274.731 142.423 275.009L141.672 275.77C141.526 275.596 141.349 275.468 141.14 275.384C140.939 275.294 140.716 275.249 140.473 275.249C140.188 275.249 139.934 275.315 139.711 275.447C139.496 275.572 139.325 275.746 139.2 275.968C139.082 276.191 139.023 276.452 139.023 276.751C139.023 277.043 139.082 277.303 139.2 277.533C139.325 277.755 139.496 277.933 139.711 278.065C139.934 278.19 140.188 278.253 140.473 278.253C140.716 278.253 140.939 278.211 141.14 278.127C141.349 278.037 141.526 277.905 141.672 277.731L142.423 278.492C142.187 278.771 141.898 278.986 141.558 279.139C141.224 279.285 140.862 279.358 140.473 279.358ZM145.548 279.358C145.061 279.358 144.619 279.243 144.223 279.014C143.827 278.778 143.51 278.461 143.274 278.065C143.044 277.668 142.93 277.227 142.93 276.74C142.93 276.253 143.044 275.815 143.274 275.426C143.51 275.037 143.827 274.727 144.223 274.498C144.619 274.261 145.061 274.143 145.548 274.143C146.041 274.143 146.486 274.258 146.883 274.487C147.279 274.717 147.592 275.03 147.821 275.426C148.058 275.815 148.176 276.253 148.176 276.74C148.176 277.227 148.058 277.668 147.821 278.065C147.592 278.461 147.279 278.778 146.883 279.014C146.486 279.243 146.041 279.358 145.548 279.358ZM145.548 278.253C145.833 278.253 146.083 278.19 146.299 278.065C146.521 277.933 146.691 277.752 146.81 277.522C146.935 277.293 146.997 277.032 146.997 276.74C146.997 276.448 146.935 276.191 146.81 275.968C146.685 275.746 146.514 275.572 146.299 275.447C146.083 275.315 145.833 275.249 145.548 275.249C145.269 275.249 145.019 275.315 144.797 275.447C144.581 275.572 144.411 275.746 144.286 275.968C144.167 276.191 144.108 276.448 144.108 276.74C144.108 277.032 144.167 277.293 144.286 277.522C144.411 277.752 144.581 277.933 144.797 278.065C145.019 278.19 145.269 278.253 145.548 278.253ZM152.666 279.254V276.365C152.666 276.031 152.558 275.756 152.343 275.541C152.134 275.325 151.863 275.217 151.529 275.217C151.307 275.217 151.109 275.266 150.935 275.363C150.761 275.461 150.625 275.596 150.528 275.77C150.431 275.944 150.382 276.142 150.382 276.365L149.933 276.114C149.933 275.732 150.017 275.395 150.184 275.103C150.351 274.804 150.58 274.571 150.872 274.404C151.171 274.23 151.505 274.143 151.873 274.143C152.249 274.143 152.583 274.24 152.875 274.435C153.167 274.623 153.396 274.87 153.563 275.176C153.73 275.475 153.813 275.788 153.813 276.114V279.254H152.666ZM149.235 279.254V274.247H150.382V279.254H149.235ZM155.784 279.254V272.161H156.931V279.254H155.784ZM154.585 275.29V274.247H158.131V275.29H154.585ZM161.252 279.358C160.752 279.358 160.3 279.247 159.896 279.024C159.5 278.795 159.184 278.482 158.947 278.086C158.718 277.689 158.603 277.244 158.603 276.751C158.603 276.257 158.718 275.815 158.947 275.426C159.177 275.03 159.486 274.717 159.875 274.487C160.272 274.258 160.71 274.143 161.19 274.143C161.656 274.143 162.066 274.251 162.42 274.466C162.782 274.682 163.064 274.977 163.265 275.353C163.474 275.728 163.578 276.156 163.578 276.636C163.578 276.719 163.571 276.806 163.557 276.897C163.55 276.98 163.536 277.074 163.516 277.178H159.406V276.24H162.921L162.493 276.615C162.48 276.309 162.42 276.052 162.316 275.843C162.212 275.635 162.062 275.475 161.868 275.363C161.68 275.252 161.447 275.196 161.169 275.196C160.877 275.196 160.623 275.259 160.407 275.384C160.192 275.509 160.025 275.687 159.907 275.916C159.789 276.139 159.729 276.406 159.729 276.719C159.729 277.032 159.792 277.307 159.917 277.543C160.042 277.78 160.22 277.964 160.449 278.096C160.679 278.221 160.943 278.284 161.242 278.284C161.499 278.284 161.736 278.239 161.951 278.148C162.174 278.058 162.361 277.926 162.514 277.752L163.244 278.492C163.001 278.778 162.706 278.993 162.358 279.139C162.01 279.285 161.642 279.358 161.252 279.358ZM166.24 279.358C165.962 279.358 165.694 279.323 165.437 279.254C165.179 279.177 164.943 279.073 164.727 278.941C164.512 278.802 164.324 278.635 164.164 278.44L164.894 277.71C165.068 277.912 165.266 278.065 165.489 278.169C165.718 278.266 165.976 278.315 166.261 278.315C166.518 278.315 166.713 278.277 166.845 278.2C166.977 278.124 167.043 278.013 167.043 277.867C167.043 277.714 166.98 277.595 166.855 277.512C166.73 277.429 166.567 277.359 166.365 277.303C166.17 277.241 165.962 277.178 165.739 277.116C165.524 277.053 165.315 276.97 165.113 276.865C164.919 276.754 164.759 276.605 164.634 276.417C164.508 276.229 164.446 275.986 164.446 275.687C164.446 275.367 164.519 275.092 164.665 274.863C164.818 274.633 165.03 274.456 165.301 274.331C165.579 274.206 165.91 274.143 166.292 274.143C166.695 274.143 167.05 274.216 167.356 274.362C167.669 274.501 167.93 274.713 168.138 274.998L167.408 275.728C167.262 275.548 167.095 275.412 166.907 275.322C166.72 275.231 166.504 275.186 166.261 275.186C166.031 275.186 165.854 275.221 165.729 275.29C165.604 275.36 165.541 275.461 165.541 275.593C165.541 275.732 165.604 275.84 165.729 275.916C165.854 275.993 166.014 276.059 166.209 276.114C166.41 276.17 166.619 276.233 166.834 276.302C167.057 276.365 167.266 276.455 167.46 276.573C167.662 276.685 167.825 276.838 167.95 277.032C168.076 277.22 168.138 277.467 168.138 277.773C168.138 278.26 167.968 278.645 167.627 278.931C167.286 279.216 166.824 279.358 166.24 279.358ZM169.95 279.254V272.161H171.097V279.254H169.95ZM168.75 275.29V274.247H172.297V275.29H168.75ZM174.77 279.358C174.492 279.358 174.225 279.323 173.967 279.254C173.71 279.177 173.474 279.073 173.258 278.941C173.042 278.802 172.855 278.635 172.695 278.44L173.425 277.71C173.599 277.912 173.797 278.065 174.019 278.169C174.249 278.266 174.506 278.315 174.791 278.315C175.049 278.315 175.243 278.277 175.375 278.2C175.507 278.124 175.574 278.013 175.574 277.867C175.574 277.714 175.511 277.595 175.386 277.512C175.261 277.429 175.097 277.359 174.896 277.303C174.701 277.241 174.492 277.178 174.27 277.116C174.054 277.053 173.846 276.97 173.644 276.865C173.449 276.754 173.289 276.605 173.164 276.417C173.039 276.229 172.976 275.986 172.976 275.687C172.976 275.367 173.049 275.092 173.195 274.863C173.348 274.633 173.56 274.456 173.832 274.331C174.11 274.206 174.44 274.143 174.823 274.143C175.226 274.143 175.58 274.216 175.886 274.362C176.199 274.501 176.46 274.713 176.669 274.998L175.939 275.728C175.793 275.548 175.626 275.412 175.438 275.322C175.25 275.231 175.035 275.186 174.791 275.186C174.562 275.186 174.384 275.221 174.259 275.29C174.134 275.36 174.072 275.461 174.072 275.593C174.072 275.732 174.134 275.84 174.259 275.916C174.384 275.993 174.544 276.059 174.739 276.114C174.941 276.17 175.149 276.233 175.365 276.302C175.587 276.365 175.796 276.455 175.991 276.573C176.192 276.685 176.356 276.838 176.481 277.032C176.606 277.22 176.669 277.467 176.669 277.773C176.669 278.26 176.498 278.645 176.158 278.931C175.817 279.216 175.354 279.358 174.77 279.358Z" fill="#2E3B55"/>
<rect x="196.867" y="260.216" width="115.64" height="31.0765" rx="7.17149" fill="#2E3B55"/>
<path d="M209.304 276.156V275.165H211.15C211.519 275.165 211.804 275.071 212.006 274.884C212.214 274.689 212.319 274.421 212.319 274.08C212.319 273.774 212.218 273.517 212.016 273.309C211.814 273.1 211.529 272.996 211.161 272.996H209.304V271.953H211.213C211.672 271.953 212.075 272.046 212.423 272.234C212.771 272.415 213.038 272.665 213.226 272.985C213.421 273.298 213.518 273.656 213.518 274.06C213.518 274.484 213.421 274.852 213.226 275.165C213.038 275.478 212.771 275.721 212.423 275.895C212.075 276.069 211.672 276.156 211.213 276.156H209.304ZM208.48 279.254V271.953H209.68V279.254H208.48ZM212.485 279.254L209.93 276.083L211.046 275.676L213.998 279.254H212.485ZM217.008 279.358C216.508 279.358 216.056 279.247 215.652 279.024C215.256 278.795 214.94 278.482 214.703 278.086C214.474 277.689 214.359 277.244 214.359 276.751C214.359 276.257 214.474 275.815 214.703 275.426C214.933 275.03 215.242 274.717 215.631 274.487C216.028 274.258 216.466 274.143 216.946 274.143C217.412 274.143 217.822 274.251 218.176 274.466C218.538 274.682 218.82 274.977 219.021 275.353C219.23 275.728 219.334 276.156 219.334 276.636C219.334 276.719 219.327 276.806 219.313 276.897C219.306 276.98 219.292 277.074 219.272 277.178H215.162V276.24H218.677L218.249 276.615C218.236 276.309 218.176 276.052 218.072 275.843C217.968 275.635 217.818 275.475 217.624 275.363C217.436 275.252 217.203 275.196 216.925 275.196C216.633 275.196 216.379 275.259 216.163 275.384C215.948 275.509 215.781 275.687 215.663 275.916C215.544 276.139 215.485 276.406 215.485 276.719C215.485 277.032 215.548 277.307 215.673 277.543C215.798 277.78 215.976 277.964 216.205 278.096C216.435 278.221 216.699 278.284 216.998 278.284C217.255 278.284 217.491 278.239 217.707 278.148C217.93 278.058 218.117 277.926 218.27 277.752L219 278.492C218.757 278.778 218.462 278.993 218.114 279.139C217.766 279.285 217.398 279.358 217.008 279.358ZM220.358 279.254V274.247H221.506V279.254H220.358ZM223.686 279.254V276.271C223.686 275.937 223.581 275.68 223.373 275.499C223.164 275.311 222.907 275.217 222.601 275.217C222.392 275.217 222.204 275.259 222.038 275.343C221.878 275.426 221.749 275.548 221.652 275.708C221.554 275.861 221.506 276.048 221.506 276.271L221.057 276.02C221.057 275.638 221.141 275.308 221.307 275.03C221.474 274.751 221.7 274.536 221.985 274.383C222.27 274.223 222.59 274.143 222.945 274.143C223.3 274.143 223.619 274.219 223.905 274.372C224.19 274.525 224.416 274.741 224.583 275.019C224.749 275.297 224.833 275.631 224.833 276.02V279.254H223.686ZM227.013 279.254V276.271C227.013 275.937 226.909 275.68 226.7 275.499C226.491 275.311 226.234 275.217 225.928 275.217C225.726 275.217 225.542 275.259 225.375 275.343C225.208 275.426 225.076 275.548 224.979 275.708C224.882 275.861 224.833 276.048 224.833 276.271L224.186 276.02C224.221 275.638 224.332 275.308 224.52 275.03C224.708 274.751 224.948 274.536 225.24 274.383C225.539 274.223 225.866 274.143 226.22 274.143C226.582 274.143 226.909 274.219 227.201 274.372C227.493 274.525 227.726 274.741 227.899 275.019C228.073 275.297 228.16 275.631 228.16 276.02V279.254H227.013ZM231.543 279.358C231.091 279.358 230.681 279.243 230.312 279.014C229.951 278.785 229.662 278.475 229.447 278.086C229.238 277.689 229.134 277.248 229.134 276.761C229.134 276.267 229.238 275.826 229.447 275.436C229.662 275.04 229.951 274.727 230.312 274.498C230.681 274.261 231.091 274.143 231.543 274.143C231.926 274.143 232.263 274.226 232.555 274.393C232.854 274.553 233.09 274.776 233.264 275.061C233.438 275.346 233.525 275.669 233.525 276.031V277.47C233.525 277.832 233.438 278.155 233.264 278.44C233.097 278.725 232.864 278.951 232.565 279.118C232.266 279.278 231.926 279.358 231.543 279.358ZM231.731 278.273C232.155 278.273 232.496 278.131 232.753 277.846C233.017 277.561 233.149 277.196 233.149 276.751C233.149 276.452 233.09 276.187 232.972 275.958C232.854 275.728 232.687 275.551 232.471 275.426C232.263 275.294 232.016 275.228 231.731 275.228C231.453 275.228 231.206 275.294 230.99 275.426C230.782 275.551 230.615 275.728 230.49 275.958C230.371 276.187 230.312 276.452 230.312 276.751C230.312 277.05 230.371 277.314 230.49 277.543C230.615 277.773 230.782 277.954 230.99 278.086C231.206 278.211 231.453 278.273 231.731 278.273ZM233.076 279.254V277.908L233.275 276.688L233.076 275.478V274.247H234.224V279.254H233.076ZM235.612 279.254V274.247H236.759V279.254H235.612ZM236.185 273.329C235.991 273.329 235.827 273.263 235.695 273.131C235.57 272.999 235.507 272.836 235.507 272.641C235.507 272.446 235.57 272.283 235.695 272.151C235.827 272.019 235.991 271.953 236.185 271.953C236.387 271.953 236.55 272.019 236.676 272.151C236.801 272.283 236.863 272.446 236.863 272.641C236.863 272.836 236.801 272.999 236.676 273.131C236.55 273.263 236.387 273.329 236.185 273.329ZM241.582 279.254V276.365C241.582 276.031 241.474 275.756 241.259 275.541C241.05 275.325 240.779 275.217 240.445 275.217C240.222 275.217 240.024 275.266 239.85 275.363C239.677 275.461 239.541 275.596 239.444 275.77C239.346 275.944 239.298 276.142 239.298 276.365L238.849 276.114C238.849 275.732 238.933 275.395 239.099 275.103C239.266 274.804 239.496 274.571 239.788 274.404C240.087 274.23 240.421 274.143 240.789 274.143C241.165 274.143 241.498 274.24 241.79 274.435C242.083 274.623 242.312 274.87 242.479 275.176C242.646 275.475 242.729 275.788 242.729 276.114V279.254H241.582ZM238.15 279.254V274.247H239.298V279.254H238.15ZM244.01 279.254V274.247H245.157V279.254H244.01ZM244.584 273.329C244.389 273.329 244.225 273.263 244.093 273.131C243.968 272.999 243.906 272.836 243.906 272.641C243.906 272.446 243.968 272.283 244.093 272.151C244.225 272.019 244.389 271.953 244.584 271.953C244.785 271.953 244.949 272.019 245.074 272.151C245.199 272.283 245.262 272.446 245.262 272.641C245.262 272.836 245.199 272.999 245.074 273.131C244.949 273.263 244.785 273.329 244.584 273.329ZM249.98 279.254V276.365C249.98 276.031 249.872 275.756 249.657 275.541C249.448 275.325 249.177 275.217 248.843 275.217C248.621 275.217 248.422 275.266 248.249 275.363C248.075 275.461 247.939 275.596 247.842 275.77C247.744 275.944 247.696 276.142 247.696 276.365L247.247 276.114C247.247 275.732 247.331 275.395 247.498 275.103C247.664 274.804 247.894 274.571 248.186 274.404C248.485 274.23 248.819 274.143 249.187 274.143C249.563 274.143 249.897 274.24 250.189 274.435C250.481 274.623 250.71 274.87 250.877 275.176C251.044 275.475 251.127 275.788 251.127 276.114V279.254H249.98ZM246.548 279.254V274.247H247.696V279.254H246.548ZM254.484 281.444C253.955 281.444 253.493 281.347 253.096 281.152C252.7 280.964 252.38 280.697 252.137 280.349L252.888 279.598C253.089 279.848 253.319 280.036 253.576 280.161C253.833 280.287 254.143 280.349 254.504 280.349C254.956 280.349 255.315 280.231 255.579 279.994C255.843 279.765 255.975 279.449 255.975 279.045V277.815L256.173 276.709L255.975 275.593V274.247H257.123V279.045C257.123 279.525 257.011 279.942 256.789 280.297C256.566 280.659 256.257 280.94 255.86 281.142C255.464 281.343 255.005 281.444 254.484 281.444ZM254.431 279.15C253.986 279.15 253.583 279.042 253.222 278.826C252.867 278.604 252.585 278.301 252.377 277.919C252.175 277.536 252.074 277.109 252.074 276.636C252.074 276.163 252.175 275.739 252.377 275.363C252.585 274.988 252.867 274.692 253.222 274.477C253.583 274.254 253.986 274.143 254.431 274.143C254.828 274.143 255.176 274.223 255.475 274.383C255.774 274.543 256.006 274.765 256.173 275.05C256.34 275.329 256.424 275.655 256.424 276.031V277.262C256.424 277.63 256.337 277.957 256.163 278.242C255.996 278.527 255.763 278.75 255.464 278.91C255.165 279.07 254.821 279.15 254.431 279.15ZM254.661 278.065C254.939 278.065 255.182 278.006 255.391 277.888C255.6 277.769 255.76 277.606 255.871 277.397C255.989 277.182 256.048 276.931 256.048 276.646C256.048 276.361 255.989 276.114 255.871 275.906C255.76 275.69 255.6 275.523 255.391 275.405C255.182 275.287 254.939 275.228 254.661 275.228C254.383 275.228 254.136 275.287 253.92 275.405C253.712 275.523 253.548 275.69 253.43 275.906C253.312 276.114 253.253 276.361 253.253 276.646C253.253 276.924 253.312 277.171 253.43 277.387C253.548 277.602 253.712 277.769 253.92 277.888C254.136 278.006 254.383 278.065 254.661 278.065ZM264.167 279.358C263.639 279.358 263.148 279.264 262.696 279.077C262.251 278.882 261.862 278.614 261.528 278.273C261.194 277.926 260.937 277.526 260.756 277.074C260.576 276.615 260.485 276.125 260.485 275.603C260.485 275.082 260.576 274.595 260.756 274.143C260.937 273.684 261.194 273.284 261.528 272.944C261.862 272.603 262.251 272.335 262.696 272.14C263.148 271.946 263.639 271.848 264.167 271.848C264.758 271.848 265.269 271.946 265.7 272.14C266.132 272.335 266.514 272.599 266.848 272.933L266.034 273.747C265.819 273.51 265.554 273.326 265.241 273.194C264.935 273.062 264.577 272.996 264.167 272.996C263.806 272.996 263.475 273.058 263.176 273.183C262.877 273.309 262.616 273.489 262.394 273.726C262.178 273.955 262.012 274.23 261.893 274.55C261.775 274.87 261.716 275.221 261.716 275.603C261.716 275.986 261.775 276.337 261.893 276.657C262.012 276.977 262.178 277.255 262.394 277.491C262.616 277.721 262.877 277.898 263.176 278.023C263.475 278.148 263.806 278.211 264.167 278.211C264.612 278.211 264.988 278.145 265.294 278.013C265.607 277.874 265.871 277.686 266.086 277.449L266.9 278.263C266.566 278.604 266.173 278.871 265.721 279.066C265.269 279.261 264.751 279.358 264.167 279.358ZM270.06 279.358C269.573 279.358 269.132 279.243 268.735 279.014C268.339 278.778 268.023 278.461 267.786 278.065C267.557 277.668 267.442 277.227 267.442 276.74C267.442 276.253 267.557 275.815 267.786 275.426C268.023 275.037 268.339 274.727 268.735 274.498C269.132 274.261 269.573 274.143 270.06 274.143C270.554 274.143 270.999 274.258 271.395 274.487C271.791 274.717 272.104 275.03 272.334 275.426C272.57 275.815 272.688 276.253 272.688 276.74C272.688 277.227 272.57 277.668 272.334 278.065C272.104 278.461 271.791 278.778 271.395 279.014C270.999 279.243 270.554 279.358 270.06 279.358ZM270.06 278.253C270.345 278.253 270.595 278.19 270.811 278.065C271.033 277.933 271.204 277.752 271.322 277.522C271.447 277.293 271.51 277.032 271.51 276.74C271.51 276.448 271.447 276.191 271.322 275.968C271.197 275.746 271.027 275.572 270.811 275.447C270.595 275.315 270.345 275.249 270.06 275.249C269.782 275.249 269.531 275.315 269.309 275.447C269.093 275.572 268.923 275.746 268.798 275.968C268.68 276.191 268.621 276.448 268.621 276.74C268.621 277.032 268.68 277.293 268.798 277.522C268.923 277.752 269.093 277.933 269.309 278.065C269.531 278.19 269.782 278.253 270.06 278.253ZM277.178 279.254V276.365C277.178 276.031 277.071 275.756 276.855 275.541C276.647 275.325 276.375 275.217 276.042 275.217C275.819 275.217 275.621 275.266 275.447 275.363C275.273 275.461 275.138 275.596 275.04 275.77C274.943 275.944 274.894 276.142 274.894 276.365L274.446 276.114C274.446 275.732 274.529 275.395 274.696 275.103C274.863 274.804 275.092 274.571 275.384 274.404C275.683 274.23 276.017 274.143 276.386 274.143C276.761 274.143 277.095 274.24 277.387 274.435C277.679 274.623 277.909 274.87 278.076 275.176C278.242 275.475 278.326 275.788 278.326 276.114V279.254H277.178ZM273.747 279.254V274.247H274.894V279.254H273.747ZM280.296 279.254V272.161H281.444V279.254H280.296ZM279.097 275.29V274.247H282.643V275.29H279.097ZM285.765 279.358C285.264 279.358 284.812 279.247 284.409 279.024C284.012 278.795 283.696 278.482 283.459 278.086C283.23 277.689 283.115 277.244 283.115 276.751C283.115 276.257 283.23 275.815 283.459 275.426C283.689 275.03 283.998 274.717 284.388 274.487C284.784 274.258 285.222 274.143 285.702 274.143C286.168 274.143 286.578 274.251 286.933 274.466C287.294 274.682 287.576 274.977 287.778 275.353C287.986 275.728 288.091 276.156 288.091 276.636C288.091 276.719 288.084 276.806 288.07 276.897C288.063 276.98 288.049 277.074 288.028 277.178H283.918V276.24H287.433L287.006 276.615C286.992 276.309 286.933 276.052 286.828 275.843C286.724 275.635 286.575 275.475 286.38 275.363C286.192 275.252 285.959 275.196 285.681 275.196C285.389 275.196 285.135 275.259 284.92 275.384C284.704 275.509 284.537 275.687 284.419 275.916C284.301 276.139 284.242 276.406 284.242 276.719C284.242 277.032 284.304 277.307 284.429 277.543C284.555 277.78 284.732 277.964 284.961 278.096C285.191 278.221 285.455 278.284 285.754 278.284C286.011 278.284 286.248 278.239 286.463 278.148C286.686 278.058 286.874 277.926 287.027 277.752L287.757 278.492C287.513 278.778 287.218 278.993 286.87 279.139C286.523 279.285 286.154 279.358 285.765 279.358ZM290.752 279.358C290.474 279.358 290.206 279.323 289.949 279.254C289.692 279.177 289.455 279.073 289.24 278.941C289.024 278.802 288.836 278.635 288.677 278.44L289.407 277.71C289.581 277.912 289.779 278.065 290.001 278.169C290.231 278.266 290.488 278.315 290.773 278.315C291.03 278.315 291.225 278.277 291.357 278.2C291.489 278.124 291.555 278.013 291.555 277.867C291.555 277.714 291.493 277.595 291.368 277.512C291.242 277.429 291.079 277.359 290.877 277.303C290.683 277.241 290.474 277.178 290.252 277.116C290.036 277.053 289.827 276.97 289.626 276.865C289.431 276.754 289.271 276.605 289.146 276.417C289.021 276.229 288.958 275.986 288.958 275.687C288.958 275.367 289.031 275.092 289.177 274.863C289.33 274.633 289.542 274.456 289.813 274.331C290.092 274.206 290.422 274.143 290.804 274.143C291.208 274.143 291.562 274.216 291.868 274.362C292.181 274.501 292.442 274.713 292.651 274.998L291.92 275.728C291.774 275.548 291.607 275.412 291.42 275.322C291.232 275.231 291.016 275.186 290.773 275.186C290.544 275.186 290.366 275.221 290.241 275.29C290.116 275.36 290.053 275.461 290.053 275.593C290.053 275.732 290.116 275.84 290.241 275.916C290.366 275.993 290.526 276.059 290.721 276.114C290.923 276.17 291.131 276.233 291.347 276.302C291.569 276.365 291.778 276.455 291.973 276.573C292.174 276.685 292.338 276.838 292.463 277.032C292.588 277.22 292.651 277.467 292.651 277.773C292.651 278.26 292.48 278.645 292.139 278.931C291.799 279.216 291.336 279.358 290.752 279.358ZM294.462 279.254V272.161H295.61V279.254H294.462ZM293.263 275.29V274.247H296.809V275.29H293.263ZM299.283 279.358C299.005 279.358 298.737 279.323 298.48 279.254C298.222 279.177 297.986 279.073 297.77 278.941C297.555 278.802 297.367 278.635 297.207 278.44L297.937 277.71C298.111 277.912 298.309 278.065 298.532 278.169C298.761 278.266 299.018 278.315 299.304 278.315C299.561 278.315 299.756 278.277 299.888 278.2C300.02 278.124 300.086 278.013 300.086 277.867C300.086 277.714 300.023 277.595 299.898 277.512C299.773 277.429 299.61 277.359 299.408 277.303C299.213 277.241 299.005 277.178 298.782 277.116C298.567 277.053 298.358 276.97 298.156 276.865C297.962 276.754 297.802 276.605 297.676 276.417C297.551 276.229 297.489 275.986 297.489 275.687C297.489 275.367 297.562 275.092 297.708 274.863C297.861 274.633 298.073 274.456 298.344 274.331C298.622 274.206 298.952 274.143 299.335 274.143C299.738 274.143 300.093 274.216 300.399 274.362C300.712 274.501 300.972 274.713 301.181 274.998L300.451 275.728C300.305 275.548 300.138 275.412 299.95 275.322C299.763 275.231 299.547 275.186 299.304 275.186C299.074 275.186 298.897 275.221 298.772 275.29C298.646 275.36 298.584 275.461 298.584 275.593C298.584 275.732 298.646 275.84 298.772 275.916C298.897 275.993 299.057 276.059 299.251 276.114C299.453 276.17 299.662 276.233 299.877 276.302C300.1 276.365 300.308 276.455 300.503 276.573C300.705 276.685 300.868 276.838 300.993 277.032C301.118 277.22 301.181 277.467 301.181 277.773C301.181 278.26 301.011 278.645 300.67 278.931C300.329 279.216 299.867 279.358 299.283 279.358Z" fill="#F5F5F9"/>
</g>
<defs>
<filter id="filter0_d_1879_4704" x="0.84707" y="0.84707" width="390.247" height="374.711" filterUnits="userSpaceOnUse" color-interpolation-filters="sRGB">
<feFlood flood-opacity="0" result="BackgroundImageFix"/>
<feColorMatrix in="SourceAlpha" type="matrix" values="0 0 0 0 0 0 0 0 0 0 0 0 0 0 0 0 0 0 127 0" result="hardAlpha"/>
<feMorphology radius="7.17149" operator="erode" in="SourceAlpha" result="effect1_dropShadow_1879_4704"/>
<feOffset dx="2.3905" dy="2.3905"/>
<feGaussianBlur stdDeviation="35.8575"/>
<feComposite in2="hardAlpha" operator="out"/>
<feColorMatrix type="matrix" values="0 0 0 0 0 0 0 0 0 0 0 0 0 0 0 0 0 0 0.08 0"/>
<feBlend mode="normal" in2="BackgroundImageFix" result="effect1_dropShadow_1879_4704"/>
<feBlend mode="normal" in="SourceGraphic" in2="effect1_dropShadow_1879_4704" result="shape"/>
</filter>
<filter id="filter1_d_1879_4704" x="135.209" y="130.278" width="120.553" height="120.553" filterUnits="userSpaceOnUse" color-interpolation-filters="sRGB">
<feFlood flood-opacity="0" result="BackgroundImageFix"/>
<feColorMatrix in="SourceAlpha" type="matrix" values="0 0 0 0 0 0 0 0 0 0 0 0 0 0 0 0 0 0 127 0" result="hardAlpha"/>
<feOffset dx="2.35225" dy="2.35225"/>
<feGaussianBlur stdDeviation="11.7612"/>
<feComposite in2="hardAlpha" operator="out"/>
<feColorMatrix type="matrix" values="0 0 0 0 0 0 0 0 0 0 0 0 0 0 0 0 0 0 0.06 0"/>
<feBlend mode="normal" in2="BackgroundImageFix" result="effect1_dropShadow_1879_4704"/>
<feBlend mode="normal" in="SourceGraphic" in2="effect1_dropShadow_1879_4704" result="shape"/>
</filter>
<clipPath id="clip0_1879_4704">
<rect width="43.029" height="43.029" fill="white" transform="translate(269.629 85.71)"/>
</clipPath>
</defs>
</svg>
