<svg width="297" height="222" viewBox="0 0 297 222" fill="none" xmlns="http://www.w3.org/2000/svg">
<g filter="url(#filter0_b_2224_17153)">
<rect x="-41.0156" y="38.5264" width="317.602" height="183.988" rx="20" transform="rotate(-6.89867 -41.0156 38.5264)" fill="white" fill-opacity="0.4"/>
<rect x="-39.9028" y="39.399" width="315.602" height="181.988" rx="19" transform="rotate(-6.89867 -39.9028 39.399)" stroke="white" stroke-width="2"/>
</g>
<rect x="-8.67457" y="56.3345" width="19.5556" height="19.5556" rx="9.77778" transform="rotate(-6.9 -8.67457 56.3345)" stroke="#828999" stroke-width="0.444444"/>
<path d="M6.86626 64.527C6.57138 62.0902 4.35687 60.3538 1.92007 60.6487C-0.516755 60.9436 -2.25313 63.1581 -1.95825 65.5949C-1.66336 68.0317 0.551129 69.7681 2.98795 69.4732C5.42475 69.1783 7.16115 66.9638 6.86626 64.527Z" stroke="#2E3B55" stroke-width="0.666667"/>
<path d="M5.10335 64.741C5.28028 66.2031 4.23845 67.5318 2.77636 67.7087C1.31427 67.8856 -0.0144217 66.8438 -0.191354 65.3817C-0.368287 63.9196 0.673541 62.5909 2.13563 62.414C2.55043 62.3638 2.95444 62.4117 3.32451 62.5395C3.65759 62.6544 3.82414 62.7119 3.88892 62.9316C3.95369 63.1513 3.82012 63.3217 3.55294 63.6624L2.456 65.0614" stroke="#2E3B55" stroke-width="0.666667" stroke-linecap="round" stroke-linejoin="round"/>
<path d="M18.7069 65.3886L18.1802 61.0363L20.9973 60.6954L21.0766 61.3499L19.0376 61.5966L19.1803 62.776L21.1077 62.5427L21.1825 63.161L19.2551 63.3943L19.4059 64.64L21.4448 64.3932L21.524 65.0477L18.7069 65.3886ZM22.4108 64.9404L22.0119 61.6437L22.7629 61.5528L22.8238 62.0565L22.8751 62.0503C22.9893 61.6785 23.28 61.426 23.7566 61.3683C24.4926 61.2793 24.9474 61.6741 25.0423 62.4583L25.3003 64.5908L24.5493 64.6816L24.3124 62.7241C24.2503 62.2114 24.0108 61.9772 23.5554 62.0323C23.109 62.0863 22.8695 62.4336 22.9293 62.9282L23.1618 64.8495L22.4108 64.9404ZM27.7448 65.4701C26.8762 65.5752 26.3095 65.2674 26.1669 64.7215L26.1688 64.7121L26.9199 64.6212L26.924 64.6299C27.0008 64.8348 27.269 64.9523 27.6883 64.9016C28.201 64.8396 28.4708 64.5651 28.4197 64.1429L28.3434 63.5125L28.2921 63.5187C28.1448 63.8946 27.8093 64.1311 27.3538 64.1862C26.5183 64.2873 25.9214 63.7046 25.8083 62.7696L25.8076 62.7635C25.6922 61.8104 26.1314 61.0901 26.982 60.9872C27.4374 60.9321 27.8204 61.1122 28.0526 61.4636L28.0918 61.4588L28.0261 60.9159L28.7772 60.825L29.1663 64.0403C29.2582 64.8004 28.707 65.3537 27.7448 65.4701ZM27.5138 63.5609C28.0356 63.4977 28.3007 63.0586 28.2303 62.4765L28.2296 62.4705C28.1591 61.8883 27.7935 61.5225 27.2747 61.5853C26.7529 61.6484 26.5062 62.0883 26.5767 62.6705L26.5774 62.6765C26.6479 63.2586 26.992 63.624 27.5138 63.5609ZM31.0014 63.9559C30.3741 64.0318 29.8719 63.7009 29.7993 63.1007L29.7986 63.0946C29.7274 62.5065 30.1352 62.1083 30.9316 61.9629L31.773 61.8091L31.7387 61.5255C31.6989 61.1968 31.4628 61.0417 31.0587 61.0906C30.7148 61.1322 30.5066 61.2829 30.4575 61.5092L30.4559 61.5216L29.7471 61.6074L29.7468 61.5799C29.7521 61.0162 30.2384 60.5839 31.0226 60.489C31.8702 60.3865 32.3963 60.739 32.4807 61.4358L32.7533 63.6888L32.0113 63.7786L31.9566 63.3262L31.9053 63.3324C31.763 63.674 31.4358 63.9034 31.0014 63.9559ZM30.5369 62.9747C30.5708 63.2552 30.8292 63.3922 31.161 63.3521C31.6134 63.2973 31.9124 62.9612 31.865 62.5691L31.8329 62.3037L31.0967 62.4418C30.6807 62.5196 30.5033 62.6972 30.5362 62.9687L30.5369 62.9747ZM35.2129 64.5664C34.3443 64.6715 33.7776 64.3636 33.635 63.8178L33.6369 63.8084L34.388 63.7175L34.3921 63.7262C34.4689 63.9311 34.7371 64.0486 35.1564 63.9979C35.6691 63.9358 35.9389 63.6614 35.8878 63.2391L35.8115 62.6088L35.7602 62.615C35.6129 62.9909 35.2774 63.2273 34.8219 63.2824C33.9864 63.3835 33.3895 62.8009 33.2764 61.8658L33.2756 61.8598C33.1603 60.9067 33.5995 60.1864 34.4501 60.0835C34.9055 60.0283 35.2885 60.2085 35.5207 60.5598L35.5599 60.5551L35.4942 60.0122L36.2453 59.9213L36.6343 63.1366C36.7263 63.8966 36.1751 64.4499 35.2129 64.5664ZM34.9819 62.6571C35.5037 62.594 35.7688 62.1549 35.6984 61.5727L35.6976 61.5667C35.6272 60.9846 35.2616 60.6187 34.7428 60.6815C34.221 60.7447 33.9743 61.1846 34.0448 61.7667L34.0455 61.7728C34.116 62.3549 34.4601 62.7203 34.9819 62.6571ZM38.9837 63.0022C38.0035 63.1208 37.3297 62.5352 37.2027 61.4856L37.2023 61.4826C37.0768 60.445 37.5949 59.6937 38.5329 59.5802C39.4709 59.4667 40.1296 60.0541 40.2501 61.0495L40.28 61.2968L37.9756 61.5757C38.0562 62.1657 38.4176 62.4709 38.9273 62.4092C39.3345 62.3599 39.5419 62.1267 39.596 61.9672L39.6025 61.945L40.3174 61.8584L40.3116 61.8867C40.2575 62.3247 39.8796 62.8938 38.9837 63.0022ZM38.6131 60.1673C38.1939 60.218 37.9145 60.5395 37.9207 61.0712L39.4861 60.8818C39.3695 60.3481 39.0324 60.1165 38.6131 60.1673ZM42.4026 62.5762C41.5762 62.6762 40.9722 62.0852 40.8459 61.0416L40.8452 61.0356C40.7181 59.986 41.1551 59.2721 41.9906 59.171C42.443 59.1162 42.847 59.2938 43.062 59.6289L43.1133 59.6227L42.8954 57.822L43.6494 57.7308L44.2028 62.3033L43.4487 62.3946L43.3863 61.8788L43.335 61.885C43.1975 62.2658 42.8671 62.52 42.4026 62.5762ZM42.5613 61.9144C43.074 61.8523 43.3418 61.4098 43.2619 60.7493L43.2611 60.7432C43.1812 60.0827 42.8122 59.7142 42.3025 59.7759C41.7927 59.8376 41.528 60.2797 41.6083 60.9433L41.609 60.9493C41.6893 61.6129 42.0485 61.9764 42.5613 61.9144ZM48.6708 61.8728C47.5699 62.006 46.8038 61.4408 46.6877 60.4816L46.3424 57.6283L47.1206 57.5341L47.4582 60.3241C47.5308 60.9243 47.944 61.2783 48.5924 61.1998C49.2379 61.1217 49.5517 60.6798 49.479 60.0795L49.1414 57.2896L49.9196 57.1954L50.2649 60.0487C50.381 61.0079 49.7778 61.7388 48.6708 61.8728ZM52.6923 61.3433C51.8538 61.4448 51.3004 61.12 51.1695 60.5697L51.1688 60.5636L51.9138 60.4735L51.9175 60.4792C52.0237 60.6989 52.2632 60.8321 52.6372 60.7868C53.0112 60.7416 53.2502 60.5413 53.2203 60.294L53.2195 60.2879C53.1962 60.0949 53.0361 59.9857 52.6643 59.9481L52.1158 59.8921C51.4716 59.8292 51.1373 59.5698 51.0785 59.0842L51.0781 59.0812C51.0062 58.487 51.4995 58.0111 52.2777 57.9169C53.08 57.8198 53.6078 58.1599 53.7206 58.6879L53.7213 58.694L53.0156 58.7794L53.0114 58.7707C52.932 58.5691 52.6944 58.4265 52.3415 58.4692C52.0067 58.5097 51.7851 58.7018 51.815 58.9491L51.8154 58.9522C51.8387 59.1452 51.9917 59.246 52.3575 59.2844L52.9056 59.3374C53.5686 59.4041 53.9064 59.6417 53.9645 60.1213L53.9652 60.1273C54.0411 60.7547 53.5037 61.2451 52.6923 61.3433ZM56.2605 60.9115C55.2802 61.0301 54.6065 60.4445 54.4794 59.3949L54.4791 59.3918C54.3535 58.3543 54.8716 57.603 55.8097 57.4895C56.7477 57.376 57.4064 57.9634 57.5268 58.9588L57.5567 59.2061L55.2524 59.4849C55.333 60.075 55.6943 60.3802 56.204 60.3185C56.6112 60.2692 56.8186 60.036 56.8728 59.8764L56.8793 59.8542L57.5941 59.7677L57.5883 59.796C57.5342 60.234 57.1563 60.8031 56.2605 60.9115ZM55.8899 58.0765C55.4706 58.1273 55.1913 58.4488 55.1975 58.9805L56.7629 58.7911C56.6462 58.2574 56.3091 58.0258 55.8899 58.0765ZM58.4844 60.575L58.0855 57.2783L58.8365 57.1875L58.8978 57.6942L58.9491 57.688C59.018 57.3216 59.2944 57.077 59.7288 57.0244C59.8434 57.0105 59.9628 57.0114 60.0378 57.0237L60.1192 57.6963C59.9956 57.6868 59.8698 57.6837 59.7401 57.6994C59.2394 57.76 58.9468 58.0983 59.0037 58.5689L59.2355 60.4842L58.4844 60.575ZM62.2356 60.1884C61.3971 60.2899 60.8436 59.9651 60.7128 59.4148L60.712 59.4088L61.457 59.3186L61.4608 59.3243C61.5669 59.544 61.8065 59.6772 62.1805 59.632C62.5545 59.5867 62.7934 59.3864 62.7635 59.1391L62.7628 59.1331C62.7394 58.94 62.5793 58.8309 62.2075 58.7932L61.659 58.7372C61.0149 58.6744 60.6805 58.4149 60.6217 57.9293L60.6214 57.9263C60.5495 57.3321 61.0427 56.8562 61.8209 56.762C62.6232 56.6649 63.151 57.005 63.2638 57.5331L63.2646 57.5391L62.5588 57.6245L62.5547 57.6158C62.4752 57.4143 62.2376 57.2717 61.8847 57.3144C61.5499 57.3549 61.3283 57.547 61.3582 57.7943L61.3586 57.7973C61.382 57.9903 61.5349 58.0912 61.9007 58.1295L62.4488 58.1826C63.1118 58.2492 63.4496 58.4868 63.5077 58.9664L63.5084 58.9725C63.5843 59.5998 63.0469 60.0902 62.2356 60.1884Z" fill="#2E3B55"/>
<g clip-path="url(#clip0_2224_17153)">
<rect x="221.066" y="32.5615" width="37.3333" height="11.5556" rx="5.77778" transform="rotate(-6.9 221.066 32.5615)" fill="#F5F5F9"/>
<path d="M226.875 39.5819L225.424 35.9723L226.119 35.8882L227.096 38.6108L227.135 38.6061L227.531 35.7174L228.123 35.6457L229.206 38.3555L229.242 38.3511L229.542 35.474L230.232 35.3904L229.683 39.2421L229.057 39.3178L227.974 36.7392L227.935 36.7439L227.504 39.5058L226.875 39.5819ZM232.226 38.9921C231.386 39.0937 230.808 38.5918 230.7 37.6921L230.699 37.6895C230.592 36.8002 231.036 36.1562 231.84 36.0589C232.644 35.9616 233.208 36.4651 233.312 37.3183L233.337 37.5303L231.362 37.7693C231.431 38.2751 231.741 38.5366 232.178 38.4838C232.527 38.4415 232.705 38.2416 232.751 38.1049L232.757 38.0858L233.369 38.0117L233.364 38.0359C233.318 38.4114 232.994 38.8991 232.226 38.9921ZM231.909 36.5621C231.549 36.6056 231.31 36.8811 231.315 37.3369L232.657 37.1746C232.557 36.7171 232.268 36.5186 231.909 36.5621ZM235.349 38.6141C234.509 38.7158 233.931 38.2138 233.823 37.3142L233.822 37.3116C233.715 36.4222 234.159 35.7783 234.963 35.681C235.767 35.5837 236.331 36.0872 236.435 36.9404L236.46 37.1524L234.485 37.3914C234.554 37.8972 234.864 38.1587 235.301 38.1058C235.65 38.0636 235.828 37.8637 235.874 37.7269L235.88 37.7079L236.492 37.6338L236.487 37.658C236.441 38.0334 236.117 38.5212 235.349 38.6141ZM235.032 36.1842C234.672 36.2277 234.433 36.5032 234.438 36.959L235.78 36.7966C235.68 36.3392 235.391 36.1407 235.032 36.1842ZM237.281 38.3226L236.807 34.4033L237.451 34.3254L237.723 36.5772L237.767 36.5719L238.669 35.2876L239.414 35.1975L238.421 36.5295L239.833 38.0138L239.057 38.1077L238.002 36.9946L237.805 37.252L237.925 38.2447L237.281 38.3226ZM240.353 37.9509L239.878 34.0316L240.522 33.9537L240.996 37.873L240.353 37.9509ZM242.233 38.7306C242.156 38.74 242.065 38.7484 241.987 38.75L241.927 38.2562C241.979 38.2551 242.052 38.249 242.119 38.2408C242.383 38.2089 242.527 38.0813 242.566 37.8169L242.584 37.6835L241.231 34.9775L241.934 34.8924L242.861 37.0205L242.91 37.0146L243.299 34.7272L243.977 34.6453L243.312 37.6531C243.155 38.3909 242.859 38.6549 242.233 38.7306Z" fill="#2E3B55"/>
<path d="M254.073 33.3798C254.073 33.3798 252.851 35.5423 252.327 35.6056C251.804 35.6689 250.102 33.8604 250.102 33.8604" stroke="#141B34" stroke-width="0.5" stroke-linecap="round" stroke-linejoin="round"/>
</g>
<g clip-path="url(#clip1_2224_17153)">
<rect x="-4.10156" y="91.2031" width="22" height="106" rx="5.33333" transform="rotate(-6.9 -4.10156 91.2031)" fill="#D5D8DD"/>
<path d="M11.1785 188.069L10.7445 184.483L10.6932 184.489L9.70312 185.387L9.61442 184.654L10.6548 183.717L11.43 183.623L11.9567 187.975L11.1785 188.069ZM14.7749 187.744C13.7403 187.87 13.0128 187.067 12.8427 185.662L12.8419 185.656C12.6718 184.25 13.1873 183.3 14.2219 183.175C15.2564 183.05 15.9897 183.848 16.1597 185.254L16.1605 185.26C16.3306 186.666 15.8094 187.619 14.7749 187.744ZM14.6986 187.114C15.2535 187.047 15.5011 186.386 15.3763 185.355L15.3755 185.349C15.2507 184.317 14.8535 183.741 14.2985 183.808C13.7436 183.875 13.5013 184.529 13.6261 185.561L13.6269 185.567C13.7517 186.598 14.1436 187.181 14.6986 187.114ZM18.8829 187.247C17.8484 187.372 17.1208 186.57 16.9507 185.164L16.95 185.158C16.7799 183.753 17.2954 182.803 18.3299 182.678C19.3645 182.553 20.0977 183.351 20.2678 184.757L20.2685 184.763C20.4386 186.168 19.9175 187.122 18.8829 187.247ZM18.8066 186.617C19.3616 186.55 19.6091 185.889 19.4843 184.858L19.4836 184.852C19.3588 183.82 18.9616 183.244 18.4066 183.311C17.8516 183.378 17.6094 184.032 17.7342 185.063L17.7349 185.07C17.8598 186.101 18.2516 186.684 18.8066 186.617ZM22.0568 184.721C21.4475 184.795 21.0237 184.378 20.9339 183.636L20.9336 183.633C20.8438 182.891 21.1559 182.385 21.7652 182.311C22.3714 182.238 22.7983 182.654 22.8881 183.396L22.8884 183.399C22.9782 184.141 22.6631 184.648 22.0568 184.721ZM22.8421 186.658L22.2208 186.733L24.6348 182.025L25.2562 181.95L22.8421 186.658ZM22.0039 184.284C22.2784 184.25 22.4043 183.951 22.3455 183.465L22.3451 183.462C22.286 182.973 22.0926 182.715 21.8181 182.748C21.5406 182.782 21.4204 183.078 21.4795 183.567L21.4799 183.57C21.5386 184.055 21.7264 184.317 22.0039 184.284ZM25.7118 186.372C25.1025 186.446 24.6753 186.026 24.5855 185.284L24.5851 185.281C24.4953 184.539 24.8108 184.036 25.4201 183.962C26.0264 183.889 26.4528 184.302 26.5426 185.044L26.543 185.047C26.6328 185.789 26.318 186.299 25.7118 186.372ZM25.6588 185.935C25.9333 185.901 26.0592 185.602 26.0001 185.113L25.9997 185.11C25.941 184.624 25.7475 184.366 25.473 184.399C25.1956 184.433 25.0723 184.729 25.1311 185.215L25.1314 185.218C25.1906 185.707 25.3813 185.968 25.6588 185.935Z" fill="#2E3B55"/>
</g>
<rect x="22.707" y="87.959" width="22" height="106" rx="5.33333" transform="rotate(-6.9 22.707 87.959)" fill="#F5F5F9"/>
<rect x="28.5938" y="136.604" width="22" height="57" rx="5.33333" transform="rotate(-6.9 28.5938 136.604)" fill="#D5D8DD"/>
<path d="M40.4913 184.632C39.6015 184.74 38.9356 184.27 38.7918 183.562L38.784 183.523L39.5019 183.436L39.5075 183.457C39.6078 183.806 39.9709 184.05 40.4173 183.996C40.927 183.934 41.2335 183.533 41.1714 183.02L41.1707 183.014C41.1094 182.507 40.7104 182.194 40.2127 182.254C39.9684 182.284 39.7661 182.382 39.6237 182.546C39.5533 182.622 39.4912 182.715 39.4516 182.818L38.785 182.899L38.6877 180.324L41.2997 180.008L41.3771 180.648L39.3713 180.89L39.4109 182.229L39.4622 182.223C39.6078 181.908 39.9244 181.693 40.3346 181.643C41.146 181.545 41.8071 182.077 41.9079 182.909L41.9086 182.915C42.0181 183.82 41.4324 184.518 40.4913 184.632ZM44.915 183.987L44.8139 183.151L42.6845 183.409L42.6074 182.773C43.0528 181.724 43.55 180.648 44.0324 179.678L45.1333 179.544L45.4811 182.419L46.0663 182.348L46.144 182.99L45.5589 183.061L45.66 183.897L44.915 183.987ZM43.3328 182.697L44.7504 182.526L44.4755 180.254L44.4303 180.26C44.0664 180.996 43.6601 181.862 43.3273 182.652L43.3328 182.697ZM47.731 181.614C47.1218 181.688 46.698 181.271 46.6082 180.529L46.6078 180.526C46.518 179.784 46.8301 179.278 47.4394 179.204C48.0457 179.131 48.4725 179.547 48.5623 180.289L48.5627 180.292C48.6524 181.034 48.3373 181.541 47.731 181.614ZM48.5163 183.551L47.895 183.626L50.3091 178.918L50.9304 178.843L48.5163 183.551ZM47.6781 181.177C47.9526 181.143 48.0785 180.844 48.0197 180.358L48.0194 180.355C47.9602 179.866 47.7668 179.608 47.4923 179.641C47.2148 179.675 47.0946 179.971 47.1537 180.46L47.1541 180.463C47.2129 180.948 47.4006 181.21 47.6781 181.177ZM51.386 183.265C50.7767 183.339 50.3495 182.919 50.2597 182.177L50.2594 182.174C50.1696 181.432 50.4851 180.929 51.0943 180.855C51.7006 180.782 52.1271 181.195 52.2169 181.937L52.2172 181.94C52.307 182.682 51.9922 183.192 51.386 183.265ZM51.3331 182.828C51.6075 182.794 51.7334 182.495 51.6743 182.006L51.6739 182.003C51.6152 181.517 51.4217 181.259 51.1473 181.292C50.8698 181.326 50.7465 181.622 50.8053 182.108L50.8056 182.111C50.8648 182.6 51.0556 182.861 51.3331 182.828Z" fill="#2E3B55"/>
<rect x="49.5117" y="84.7158" width="23" height="106" rx="5.33333" transform="rotate(-6.9 49.5117 84.7158)" fill="#F5F5F9"/>
<rect x="57.8008" y="153.216" width="23" height="37" rx="5.33333" transform="rotate(-6.9 57.8008 153.216)" fill="#D5D8DD"/>
<path d="M67.2965 181.368C66.3433 181.483 65.6562 181.04 65.5087 180.302L65.5014 180.266L66.2433 180.176L66.2504 180.209C66.3371 180.572 66.7097 180.793 67.2194 180.731C67.7231 180.67 68.024 180.349 67.9751 179.945L67.9744 179.939C67.9189 179.481 67.5504 179.268 66.9924 179.336L66.4797 179.398L66.4096 178.819L66.9073 178.758C67.3868 178.7 67.6737 178.39 67.6277 178.01L67.627 178.004C67.5788 177.606 67.2819 177.403 66.8174 177.459C66.3589 177.515 66.0718 177.798 66.0797 178.191L66.0803 178.222L65.3564 178.31L65.3554 178.276C65.3305 177.514 65.8649 176.947 66.7426 176.841C67.6384 176.733 68.2771 177.13 68.3596 177.811L68.3603 177.817C68.4256 178.357 68.08 178.763 67.5713 178.935L67.5731 178.95C68.2199 178.933 68.6911 179.262 68.7641 179.865L68.7649 179.871C68.8576 180.637 68.2616 181.251 67.2965 181.368ZM70.8178 180.853L70.3838 177.267L70.3326 177.273L69.3425 178.17L69.2538 177.437L70.2942 176.5L71.0693 176.406L71.596 180.759L70.8178 180.853ZM73.4801 178.499C72.8708 178.572 72.447 178.155 72.3572 177.413L72.3568 177.41C72.267 176.668 72.5792 176.162 73.1884 176.089C73.7947 176.015 74.2215 176.432 74.3113 177.174L74.3117 177.177C74.4015 177.919 74.0863 178.425 73.4801 178.499ZM74.2653 180.436L73.644 180.511L76.0581 175.803L76.6794 175.727L74.2653 180.436ZM73.4271 178.061C73.7016 178.028 73.8275 177.728 73.7688 177.243L73.7684 177.24C73.7093 176.751 73.5158 176.493 73.2414 176.526C72.9639 176.56 72.8436 176.856 72.9027 177.344L72.9031 177.347C72.9619 177.833 73.1496 178.095 73.4271 178.061ZM77.135 180.15C76.5257 180.223 76.0985 179.804 76.0087 179.062L76.0084 179.059C75.9186 178.317 76.2341 177.813 76.8434 177.74C77.4496 177.666 77.8761 178.08 77.9659 178.822L77.9662 178.825C78.056 179.567 77.7413 180.076 77.135 180.15ZM77.0821 179.712C77.3566 179.679 77.4825 179.379 77.4233 178.891L77.423 178.888C77.3642 178.402 77.1708 178.144 76.8963 178.177C76.6188 178.211 76.4955 178.507 76.5543 178.993L76.5547 178.996C76.6138 179.484 76.8046 179.746 77.0821 179.712Z" fill="#2E3B55"/>
<rect x="77.3047" y="81.3516" width="22" height="106" rx="5.33333" transform="rotate(-6.9 77.3047 81.3516)" fill="#F5F5F9"/>
<rect x="81.8711" y="119.076" width="22" height="68" rx="5.33333" transform="rotate(-6.9 81.8711 119.076)" fill="#D5D8DD"/>
<path d="M95.1795 178.014C94.2505 178.126 93.3622 177.564 93.1724 175.995L93.1717 175.989C92.9943 174.523 93.5497 173.575 94.6446 173.442C95.4439 173.346 96.0984 173.747 96.3178 174.397L96.3278 174.429L95.5647 174.521L95.549 174.493C95.3975 174.202 95.105 174.035 94.722 174.082C94.0312 174.165 93.8204 174.876 93.888 175.713C93.892 175.746 93.893 175.78 93.897 175.813L93.9574 175.805C94.0756 175.442 94.4188 175.092 95.016 175.019C95.8515 174.918 96.5103 175.457 96.6103 176.283L96.6111 176.289C96.718 177.173 96.1235 177.9 95.1795 178.014ZM94.1298 176.599C94.1901 177.096 94.6142 177.44 95.0968 177.381C95.5794 177.323 95.913 176.894 95.8543 176.408L95.8535 176.402C95.7926 175.899 95.3899 175.58 94.8952 175.64C94.4036 175.699 94.0696 176.101 94.1291 176.593L94.1298 176.599ZM99.2091 177.526C98.3193 177.634 97.6534 177.164 97.5096 176.456L97.5018 176.417L98.2197 176.33L98.2252 176.351C98.3256 176.7 98.6887 176.944 99.1351 176.89C99.6448 176.828 99.9513 176.427 99.8892 175.914L99.8885 175.908C99.8272 175.401 99.4282 175.088 98.9305 175.148C98.6862 175.178 98.4838 175.276 98.3415 175.44C98.2711 175.516 98.2089 175.609 98.1693 175.712L97.5028 175.793L97.4055 173.218L100.017 172.902L100.095 173.542L98.0891 173.784L98.1287 175.123L98.18 175.117C98.3255 174.802 98.6422 174.587 99.0524 174.537C99.8637 174.439 100.525 174.971 100.626 175.803L100.626 175.809C100.736 176.714 100.15 177.412 99.2091 177.526ZM102.299 175.01C101.689 175.084 101.265 174.667 101.176 173.925L101.175 173.922C101.086 173.18 101.398 172.674 102.007 172.6C102.613 172.527 103.04 172.944 103.13 173.685L103.13 173.689C103.22 174.43 102.905 174.937 102.299 175.01ZM103.084 176.947L102.462 177.022L104.877 172.314L105.498 172.239L103.084 176.947ZM102.246 174.573C102.52 174.54 102.646 174.24 102.587 173.754L102.587 173.751C102.528 173.263 102.334 173.004 102.06 173.038C101.782 173.071 101.662 173.367 101.721 173.856L101.722 173.859C101.78 174.345 101.968 174.606 102.246 174.573ZM105.953 176.661C105.344 176.735 104.917 176.315 104.827 175.573L104.827 175.57C104.737 174.828 105.053 174.325 105.662 174.251C106.268 174.178 106.695 174.591 106.784 175.333L106.785 175.336C106.875 176.078 106.56 176.588 105.953 176.661ZM105.901 176.224C106.175 176.191 106.301 175.891 106.242 175.402L106.241 175.399C106.183 174.914 105.989 174.655 105.715 174.689C105.437 174.722 105.314 175.019 105.373 175.504L105.373 175.507C105.432 175.996 105.623 176.257 105.901 176.224Z" fill="#2E3B55"/>
<rect x="104.113" y="78.1084" width="22" height="106" rx="5.33333" transform="rotate(-6.9 104.113 78.1084)" fill="#F5F5F9"/>
<rect x="107.238" y="103.92" width="22" height="80" rx="5.33333" transform="rotate(-6.9 107.238 103.92)" fill="#D5D8DD"/>
<path d="M121.949 174.754C120.948 174.875 120.188 174.441 120.098 173.696L120.098 173.69C120.03 173.132 120.385 172.651 120.95 172.463L120.948 172.445C120.434 172.373 120.058 172.048 120.001 171.581L120.001 171.575C119.92 170.905 120.5 170.336 121.401 170.227C122.303 170.118 123.002 170.532 123.083 171.201L123.084 171.208C123.141 171.675 122.853 172.08 122.371 172.273L122.373 172.291C122.97 172.338 123.426 172.721 123.494 173.279L123.494 173.285C123.585 174.03 122.951 174.633 121.949 174.754ZM121.63 172.112C122.085 172.057 122.37 171.753 122.324 171.373L122.323 171.367C122.277 170.987 121.928 170.76 121.473 170.815C121.017 170.87 120.733 171.174 120.779 171.554L120.779 171.56C120.825 171.94 121.174 172.167 121.63 172.112ZM121.877 174.16C122.399 174.097 122.734 173.75 122.683 173.331L122.682 173.325C122.631 172.903 122.226 172.643 121.701 172.706C121.174 172.77 120.846 173.119 120.897 173.541L120.897 173.547C120.948 173.966 121.356 174.223 121.877 174.16ZM124.475 174.36L124.412 173.835L125.665 172.202C126.184 171.533 126.323 171.293 126.282 170.958L126.281 170.949C126.233 170.548 125.923 170.292 125.471 170.346C125.009 170.402 124.736 170.744 124.79 171.194L124.788 171.206L124.064 171.291L124.06 171.282C123.962 170.471 124.527 169.827 125.435 169.717C126.282 169.615 126.954 170.057 127.042 170.79L127.044 170.799C127.103 171.293 126.913 171.714 126.212 172.573L125.442 173.523L125.45 173.587L127.419 173.348L127.498 173.994L124.475 174.36ZM129.035 171.776C128.425 171.85 128.002 171.433 127.912 170.691L127.911 170.688C127.822 169.946 128.134 169.44 128.743 169.366C129.349 169.293 129.776 169.709 129.866 170.451L129.866 170.454C129.956 171.196 129.641 171.702 129.035 171.776ZM129.82 173.713L129.199 173.788L131.613 169.08L132.234 169.005L129.82 173.713ZM128.982 171.338C129.256 171.305 129.382 171.005 129.323 170.52L129.323 170.517C129.264 170.028 129.071 169.77 128.796 169.803C128.519 169.837 128.398 170.133 128.457 170.622L128.458 170.625C128.517 171.11 128.704 171.372 128.982 171.338ZM132.69 173.427C132.08 173.501 131.653 173.081 131.563 172.339L131.563 172.336C131.473 171.594 131.789 171.091 132.398 171.017C133.004 170.944 133.431 171.357 133.521 172.099L133.521 172.102C133.611 172.844 133.296 173.353 132.69 173.427ZM132.637 172.989C132.911 172.956 133.037 172.656 132.978 172.168L132.978 172.165C132.919 171.679 132.725 171.421 132.451 171.454C132.173 171.488 132.05 171.784 132.109 172.27L132.109 172.273C132.168 172.762 132.359 173.023 132.637 172.989Z" fill="#2E3B55"/>
<rect x="130.918" y="74.8643" width="23" height="106" rx="5.33333" transform="rotate(-6.9 130.918 74.8643)" fill="#F5F5F9"/>
<rect x="139.207" y="143.364" width="23" height="37" rx="5.33333" transform="rotate(-6.9 139.207 143.364)" fill="#D5D8DD"/>
<path d="M148.703 171.516C147.75 171.631 147.062 171.188 146.915 170.45L146.908 170.414L147.65 170.325L147.657 170.357C147.743 170.72 148.116 170.941 148.626 170.88C149.129 170.819 149.43 170.498 149.381 170.094L149.381 170.088C149.325 169.629 148.957 169.417 148.399 169.484L147.886 169.546L147.816 168.967L148.314 168.907C148.793 168.849 149.08 168.539 149.034 168.159L149.033 168.153C148.985 167.754 148.688 167.552 148.224 167.608C147.765 167.663 147.478 167.946 147.486 168.34L147.487 168.37L146.763 168.458L146.762 168.424C146.737 167.662 147.271 167.096 148.149 166.99C149.045 166.881 149.683 167.278 149.766 167.96L149.767 167.966C149.832 168.506 149.486 168.912 148.978 169.084L148.979 169.099C149.626 169.082 150.097 169.41 150.17 170.013L150.171 170.019C150.264 170.786 149.668 171.399 148.703 171.516ZM152.224 171.001L151.79 167.415L151.739 167.421L150.749 168.318L150.66 167.585L151.7 166.649L152.476 166.555L153.002 170.907L152.224 171.001ZM154.886 168.647C154.277 168.721 153.853 168.304 153.763 167.562L153.763 167.559C153.673 166.817 153.985 166.311 154.595 166.237C155.201 166.164 155.628 166.58 155.718 167.322L155.718 167.325C155.808 168.067 155.493 168.574 154.886 168.647ZM155.672 170.584L155.05 170.659L157.464 165.951L158.086 165.876L155.672 170.584ZM154.833 168.21C155.108 168.176 155.234 167.877 155.175 167.391L155.175 167.388C155.116 166.899 154.922 166.641 154.648 166.674C154.37 166.708 154.25 167.004 154.309 167.493L154.309 167.496C154.368 167.981 154.556 168.243 154.833 168.21ZM158.541 170.298C157.932 170.372 157.505 169.952 157.415 169.21L157.415 169.207C157.325 168.465 157.64 167.962 158.25 167.888C158.856 167.815 159.282 168.228 159.372 168.97L159.372 168.973C159.462 169.715 159.148 170.225 158.541 170.298ZM158.488 169.861C158.763 169.827 158.889 169.528 158.83 169.039L158.829 169.036C158.77 168.55 158.577 168.292 158.303 168.325C158.025 168.359 157.902 168.655 157.961 169.141L157.961 169.144C158.02 169.633 158.211 169.894 158.488 169.861Z" fill="#2E3B55"/>
<rect x="158.383" y="71.541" width="22" height="106" rx="5.33333" transform="rotate(-6.9 158.383 71.541)" fill="#F5F5F9"/>
<rect x="161.508" y="97.3525" width="22" height="80" rx="5.33333" transform="rotate(-6.9 161.508 97.3525)" fill="#D5D8DD"/>
<path d="M176.219 168.187C175.217 168.308 174.458 167.873 174.368 167.128L174.367 167.122C174.3 166.564 174.655 166.084 175.219 165.896L175.217 165.878C174.703 165.805 174.328 165.481 174.271 165.013L174.27 165.007C174.189 164.338 174.769 163.769 175.671 163.659C176.573 163.55 177.272 163.965 177.353 164.634L177.353 164.64C177.41 165.108 177.122 165.513 176.641 165.706L176.643 165.724C177.239 165.771 177.696 166.153 177.763 166.711L177.764 166.717C177.854 167.462 177.22 168.066 176.219 168.187ZM175.899 165.545C176.355 165.489 176.639 165.186 176.593 164.806L176.592 164.8C176.546 164.42 176.198 164.192 175.742 164.248C175.287 164.303 175.002 164.606 175.048 164.986L175.049 164.992C175.095 165.373 175.444 165.6 175.899 165.545ZM176.147 167.593C176.669 167.529 177.003 167.183 176.952 166.764L176.952 166.758C176.901 166.335 176.496 166.075 175.971 166.139C175.443 166.203 175.115 166.551 175.166 166.974L175.167 166.98C175.218 167.399 175.625 167.656 176.147 167.593ZM178.745 167.792L178.681 167.267L179.934 165.635C180.453 164.966 180.593 164.726 180.552 164.391L180.551 164.382C180.502 163.981 180.193 163.724 179.74 163.779C179.279 163.835 179.005 164.177 179.06 164.626L179.058 164.639L178.334 164.724L178.33 164.715C178.231 163.903 178.796 163.26 179.704 163.15C180.552 163.047 181.223 163.489 181.312 164.222L181.313 164.231C181.373 164.726 181.182 165.147 180.481 166.006L179.712 166.956L179.719 167.019L181.689 166.781L181.767 167.427L178.745 167.792ZM183.304 165.208C182.695 165.282 182.271 164.865 182.181 164.123L182.181 164.12C182.091 163.378 182.403 162.872 183.013 162.798C183.619 162.725 184.046 163.142 184.136 163.884L184.136 163.887C184.226 164.629 183.911 165.135 183.304 165.208ZM184.09 167.145L183.468 167.221L185.882 162.512L186.504 162.437L184.09 167.145ZM183.251 164.771C183.526 164.738 183.652 164.438 183.593 163.952L183.593 163.949C183.533 163.461 183.34 163.203 183.066 163.236C182.788 163.269 182.668 163.566 182.727 164.054L182.727 164.057C182.786 164.543 182.974 164.805 183.251 164.771ZM186.959 166.859C186.35 166.933 185.923 166.514 185.833 165.772L185.833 165.769C185.743 165.027 186.058 164.523 186.668 164.449C187.274 164.376 187.7 164.79 187.79 165.532L187.79 165.535C187.88 166.277 187.565 166.786 186.959 166.859ZM186.906 166.422C187.181 166.389 187.307 166.089 187.248 165.6L187.247 165.597C187.188 165.112 186.995 164.854 186.721 164.887C186.443 164.92 186.32 165.217 186.379 165.702L186.379 165.706C186.438 166.194 186.629 166.456 186.906 166.422Z" fill="#2E3B55"/>
<rect x="185.52" y="68.2568" width="22" height="106" rx="5.33333" transform="rotate(-6.9 185.52 68.2568)" fill="#F5F5F9"/>
<rect x="188.645" y="94.0684" width="22" height="80" rx="5.33333" transform="rotate(-6.9 188.645 94.0684)" fill="#D5D8DD"/>
<path d="M203.356 164.903C202.354 165.024 201.595 164.589 201.504 163.844L201.504 163.838C201.436 163.28 201.791 162.8 202.356 162.612L202.354 162.594C201.84 162.521 201.464 162.197 201.408 161.729L201.407 161.723C201.326 161.053 201.906 160.484 202.808 160.375C203.71 160.266 204.408 160.68 204.489 161.35L204.49 161.356C204.547 161.823 204.259 162.229 203.778 162.422L203.78 162.44C204.376 162.487 204.832 162.869 204.9 163.427L204.901 163.433C204.991 164.178 204.357 164.781 203.356 164.903ZM203.036 162.26C203.491 162.205 203.776 161.901 203.73 161.521L203.729 161.515C203.683 161.135 203.334 160.908 202.879 160.963C202.423 161.018 202.139 161.322 202.185 161.702L202.186 161.708C202.232 162.088 202.58 162.315 203.036 162.26ZM203.284 164.308C203.805 164.245 204.14 163.899 204.089 163.479L204.088 163.473C204.037 163.051 203.633 162.791 203.108 162.855C202.58 162.918 202.252 163.267 202.303 163.689L202.304 163.695C202.354 164.115 202.762 164.371 203.284 164.308ZM205.882 164.508L205.818 163.983L207.071 162.35C207.59 161.682 207.729 161.441 207.689 161.107L207.688 161.098C207.639 160.696 207.33 160.44 206.877 160.495C206.416 160.551 206.142 160.893 206.196 161.342L206.195 161.355L205.47 161.439L205.466 161.431C205.368 160.619 205.933 159.976 206.841 159.866C207.688 159.763 208.36 160.205 208.449 160.938L208.45 160.947C208.51 161.442 208.319 161.863 207.618 162.722L206.848 163.672L206.856 163.735L208.826 163.497L208.904 164.142L205.882 164.508ZM210.441 161.924C209.832 161.998 209.408 161.581 209.318 160.839L209.318 160.836C209.228 160.094 209.54 159.588 210.149 159.514C210.756 159.441 211.182 159.858 211.272 160.6L211.273 160.603C211.362 161.345 211.047 161.851 210.441 161.924ZM211.226 163.861L210.605 163.936L213.019 159.228L213.64 159.153L211.226 163.861ZM210.388 161.487C210.663 161.454 210.788 161.154 210.73 160.668L210.729 160.665C210.67 160.177 210.477 159.918 210.202 159.952C209.925 159.985 209.805 160.281 209.864 160.77L209.864 160.773C209.923 161.259 210.111 161.52 210.388 161.487ZM214.096 163.575C213.487 163.649 213.059 163.229 212.97 162.487L212.969 162.484C212.88 161.742 213.195 161.239 213.804 161.165C214.411 161.092 214.837 161.506 214.927 162.247L214.927 162.251C215.017 162.992 214.702 163.502 214.096 163.575ZM214.043 163.138C214.317 163.105 214.443 162.805 214.384 162.316L214.384 162.313C214.325 161.828 214.132 161.569 213.857 161.603C213.58 161.636 213.456 161.933 213.515 162.418L213.516 162.421C213.575 162.91 213.766 163.171 214.043 163.138Z" fill="#2E3B55"/>
<rect x="212.324" y="65.0137" width="23" height="106" rx="5.33333" transform="rotate(-6.9 212.324 65.0137)" fill="#F5F5F9"/>
<rect x="218.328" y="114.651" width="23" height="56" rx="5.33333" transform="rotate(-6.9 218.328 114.651)" fill="#D5D8DD"/>
<path d="M230.533 161.526L230.432 160.69L228.302 160.948L228.225 160.311C228.671 159.263 229.168 158.187 229.65 157.216L230.751 157.083L231.099 159.957L231.684 159.887L231.762 160.529L231.177 160.6L231.278 161.435L230.533 161.526ZM228.951 160.236L230.368 160.064L230.093 157.793L230.048 157.799C229.684 158.534 229.278 159.4 228.945 160.191L228.951 160.236ZM234.349 161.174C233.42 161.286 232.532 160.724 232.342 159.155L232.341 159.149C232.164 157.683 232.72 156.735 233.814 156.602C234.614 156.505 235.268 156.907 235.488 157.556L235.498 157.589L234.735 157.681L234.719 157.653C234.567 157.362 234.275 157.195 233.892 157.242C233.201 157.325 232.99 158.036 233.058 158.873C233.062 158.906 233.063 158.939 233.067 158.973L233.127 158.965C233.245 158.602 233.589 158.251 234.186 158.179C235.021 158.078 235.68 158.617 235.78 159.443L235.781 159.449C235.888 160.333 235.293 161.06 234.349 161.174ZM233.3 159.758C233.36 160.256 233.784 160.6 234.267 160.541C234.749 160.483 235.083 160.054 235.024 159.568L235.023 159.562C234.962 159.058 234.56 158.74 234.065 158.8C233.573 158.859 233.239 159.261 233.299 159.752L233.3 159.758ZM237.469 158.654C236.86 158.728 236.436 158.311 236.346 157.569L236.346 157.566C236.256 156.824 236.568 156.318 237.177 156.244C237.783 156.171 238.21 156.587 238.3 157.329L238.3 157.332C238.39 158.074 238.075 158.581 237.469 158.654ZM238.254 160.591L237.633 160.666L240.047 155.958L240.668 155.883L238.254 160.591ZM237.416 158.217C237.69 158.184 237.816 157.884 237.758 157.398L237.757 157.395C237.698 156.906 237.505 156.648 237.23 156.681C236.953 156.715 236.832 157.011 236.892 157.5L236.892 157.503C236.951 157.988 237.138 158.25 237.416 158.217ZM241.124 160.305C240.515 160.379 240.087 159.959 239.998 159.217L239.997 159.214C239.907 158.472 240.223 157.969 240.832 157.895C241.438 157.822 241.865 158.235 241.955 158.977L241.955 158.98C242.045 159.722 241.73 160.232 241.124 160.305ZM241.071 159.868C241.345 159.835 241.471 159.535 241.412 159.046L241.412 159.043C241.353 158.557 241.16 158.299 240.885 158.332C240.608 158.366 240.484 158.663 240.543 159.148L240.543 159.151C240.603 159.64 240.793 159.901 241.071 159.868Z" fill="#2E3B55"/>
<rect x="239.789" y="61.6895" width="22" height="106" rx="5.33333" transform="rotate(-6.9 239.789 61.6895)" fill="#F5F5F9"/>
<rect x="242.914" y="87.501" width="22" height="80" rx="5.33333" transform="rotate(-6.9 242.914 87.501)" fill="#D5D8DD"/>
<path d="M257.625 158.335C256.624 158.456 255.864 158.022 255.774 157.277L255.773 157.271C255.706 156.713 256.061 156.232 256.626 156.045L256.623 156.026C256.11 155.954 255.734 155.629 255.677 155.162L255.676 155.156C255.595 154.486 256.175 153.917 257.077 153.808C257.979 153.699 258.678 154.113 258.759 154.783L258.76 154.789C258.816 155.256 258.529 155.661 258.047 155.854L258.049 155.872C258.646 155.919 259.102 156.302 259.17 156.86L259.17 156.866C259.26 157.611 258.626 158.214 257.625 158.335ZM257.305 155.693C257.761 155.638 258.045 155.334 257.999 154.954L257.999 154.948C257.953 154.568 257.604 154.341 257.148 154.396C256.693 154.451 256.408 154.755 256.454 155.135L256.455 155.141C256.501 155.521 256.85 155.748 257.305 155.693ZM257.553 157.741C258.075 157.678 258.409 157.331 258.359 156.912L258.358 156.906C258.307 156.484 257.902 156.224 257.377 156.287C256.849 156.351 256.521 156.7 256.572 157.122L256.573 157.128C256.624 157.547 257.031 157.804 257.553 157.741ZM260.151 157.941L260.088 157.416L261.341 155.783C261.86 155.114 261.999 154.874 261.958 154.539L261.957 154.53C261.909 154.129 261.599 153.873 261.147 153.927C260.685 153.983 260.411 154.326 260.466 154.775L260.464 154.787L259.74 154.872L259.736 154.863C259.638 154.052 260.202 153.408 261.11 153.298C261.958 153.196 262.63 153.638 262.718 154.371L262.719 154.38C262.779 154.874 262.588 155.295 261.887 156.154L261.118 157.105L261.126 157.168L263.095 156.93L263.173 157.575L260.151 157.941ZM264.711 155.357C264.101 155.431 263.677 155.014 263.588 154.272L263.587 154.269C263.497 153.527 263.81 153.021 264.419 152.947C265.025 152.874 265.452 153.29 265.542 154.032L265.542 154.035C265.632 154.777 265.317 155.284 264.711 155.357ZM265.496 157.294L264.874 157.369L267.289 152.661L267.91 152.586L265.496 157.294ZM264.658 154.92C264.932 154.886 265.058 154.586 264.999 154.101L264.999 154.098C264.94 153.609 264.746 153.351 264.472 153.384C264.194 153.418 264.074 153.714 264.133 154.203L264.134 154.206C264.192 154.691 264.38 154.953 264.658 154.92ZM268.365 157.008C267.756 157.082 267.329 156.662 267.239 155.92L267.239 155.917C267.149 155.175 267.465 154.672 268.074 154.598C268.68 154.525 269.107 154.938 269.196 155.68L269.197 155.683C269.286 156.425 268.972 156.934 268.365 157.008ZM268.313 156.571C268.587 156.537 268.713 156.237 268.654 155.749L268.653 155.746C268.595 155.26 268.401 155.002 268.127 155.035C267.849 155.069 267.726 155.365 267.785 155.851L267.785 155.854C267.844 156.343 268.035 156.604 268.313 156.571Z" fill="#2E3B55"/>
<defs>
<filter id="filter0_b_2224_17153" x="-78.7617" y="-37.3662" width="412.895" height="296.293" filterUnits="userSpaceOnUse" color-interpolation-filters="sRGB">
<feFlood flood-opacity="0" result="BackgroundImageFix"/>
<feGaussianBlur in="BackgroundImageFix" stdDeviation="20"/>
<feComposite in2="SourceAlpha" operator="in" result="effect1_backgroundBlur_2224_17153"/>
<feBlend mode="normal" in="SourceGraphic" in2="effect1_backgroundBlur_2224_17153" result="shape"/>
</filter>
<clipPath id="clip0_2224_17153">
<rect x="221.066" y="32.5615" width="37.3333" height="11.5556" rx="5.77778" transform="rotate(-6.9 221.066 32.5615)" fill="white"/>
</clipPath>
<clipPath id="clip1_2224_17153">
<rect width="22" height="106" fill="white" transform="translate(-4.47656 90.8574) rotate(-6.9)"/>
</clipPath>
</defs>
</svg>
