<svg width="310" height="298" viewBox="0 0 310 298" fill="none" xmlns="http://www.w3.org/2000/svg">
<g filter="url(#filter0_d_1879_4666)">
<rect x="50" y="50" width="206.428" height="194.146" rx="11.337" fill="white"/>
<rect x="58.2625" y="64.2625" width="23.1" height="23.1" rx="11.55" stroke="#828999" stroke-width="0.525"/>
<path d="M75.3281 76.0752C75.3281 73.1757 72.9776 70.8252 70.0781 70.8252C67.1786 70.8252 64.8281 73.1757 64.8281 76.0752C64.8281 78.9747 67.1786 81.3252 70.0781 81.3252C72.9776 81.3252 75.3281 78.9747 75.3281 76.0752Z" stroke="#2E3B55" stroke-width="0.7875"/>
<path d="M73.2258 76.0748C73.2258 77.8145 71.8155 79.2248 70.0758 79.2248C68.3361 79.2248 66.9258 77.8145 66.9258 76.0748C66.9258 74.3351 68.3361 72.9248 70.0758 72.9248C70.5693 72.9248 71.0363 73.0383 71.4522 73.2406C71.8264 73.4227 72.0136 73.5138 72.0584 73.7806C72.1032 74.0474 71.9224 74.2282 71.5607 74.5899L70.0758 76.0748" stroke="#2E3B55" stroke-width="0.7875" stroke-linecap="round" stroke-linejoin="round"/>
<path d="M89.088 78.3125V73.1338H92.44V73.9125H90.014V75.3158H92.3073V76.0515H90.014V77.5337H92.44V78.3125H89.088ZM93.4952 78.3125V74.3899H94.3888V74.9892H94.4498C94.6364 74.5693 95.0133 74.3145 95.5803 74.3145C96.456 74.3145 96.9333 74.8421 96.9333 75.7752V78.3125H96.0397V75.9833C96.0397 75.3732 95.792 75.0646 95.2501 75.0646C94.719 75.0646 94.3888 75.4378 94.3888 76.0264V78.3125H93.4952ZM99.6752 79.6906C98.6416 79.6906 98.0207 79.2492 97.931 78.5888L97.9346 78.5781H98.8282L98.8318 78.5888C98.8928 78.8401 99.1907 79.0159 99.6896 79.0159C100.3 79.0159 100.655 78.7324 100.655 78.23V77.4799H100.594C100.368 77.8998 99.9408 78.1295 99.3989 78.1295C98.4047 78.1295 97.7875 77.3615 97.7875 76.2489V76.2417C97.7875 75.1076 98.4047 74.3253 99.4168 74.3253C99.9587 74.3253 100.382 74.5908 100.605 75.0359H100.651V74.3899H101.545V78.2156C101.545 79.12 100.82 79.6906 99.6752 79.6906ZM99.6752 77.4189C100.296 77.4189 100.669 76.9416 100.669 76.2489V76.2417C100.669 75.5491 100.292 75.0682 99.6752 75.0682C99.0543 75.0682 98.7026 75.5491 98.7026 76.2417V76.2489C98.7026 76.9416 99.0543 77.4189 99.6752 77.4189ZM103.709 78.3771C102.963 78.3771 102.421 77.9177 102.421 77.2035V77.1964C102.421 76.4965 102.955 76.0874 103.91 76.03L104.919 75.969V75.6316C104.919 75.2404 104.664 75.0251 104.183 75.0251C103.774 75.0251 103.508 75.1722 103.418 75.4306L103.415 75.445H102.571L102.575 75.4127C102.661 74.7523 103.293 74.3145 104.226 74.3145C105.234 74.3145 105.801 74.8026 105.801 75.6316V78.3125H104.919V77.7742H104.858C104.642 78.1546 104.226 78.3771 103.709 78.3771ZM103.304 77.1605C103.304 77.4942 103.587 77.6916 103.982 77.6916C104.52 77.6916 104.919 77.3399 104.919 76.8734V76.5575L104.036 76.615C103.537 76.6473 103.304 76.8303 103.304 77.1533V77.1605ZM108.561 79.6906C107.528 79.6906 106.907 79.2492 106.817 78.5888L106.821 78.5781H107.714L107.718 78.5888C107.779 78.8401 108.077 79.0159 108.576 79.0159C109.186 79.0159 109.541 78.7324 109.541 78.23V77.4799H109.48C109.254 77.8998 108.827 78.1295 108.285 78.1295C107.291 78.1295 106.673 77.3615 106.673 76.2489V76.2417C106.673 75.1076 107.291 74.3253 108.303 74.3253C108.845 74.3253 109.268 74.5908 109.491 75.0359H109.537V74.3899H110.431V78.2156C110.431 79.12 109.706 79.6906 108.561 79.6906ZM108.561 77.4189C109.182 77.4189 109.555 76.9416 109.555 76.2489V76.2417C109.555 75.5491 109.179 75.0682 108.561 75.0682C107.94 75.0682 107.589 75.5491 107.589 76.2417V76.2489C107.589 76.9416 107.94 77.4189 108.561 77.4189ZM113.205 78.3915C112.039 78.3915 111.332 77.6091 111.332 76.3602V76.3566C111.332 75.122 112.046 74.3145 113.162 74.3145C114.278 74.3145 114.967 75.0969 114.967 76.2812V76.5755H112.225C112.236 77.2789 112.617 77.688 113.223 77.688C113.708 77.688 113.984 77.444 114.07 77.2646L114.081 77.2394H114.931L114.921 77.2717C114.795 77.7778 114.271 78.3915 113.205 78.3915ZM113.173 75.0143C112.674 75.0143 112.301 75.3517 112.233 75.9761H114.095C114.034 75.3337 113.672 75.0143 113.173 75.0143ZM117.275 78.3771C116.292 78.3771 115.667 77.5983 115.667 76.3566V76.3494C115.667 75.1005 116.281 74.3253 117.275 74.3253C117.813 74.3253 118.262 74.5908 118.467 75.0143H118.528V72.8718H119.425V78.3125H118.528V77.6988H118.467C118.251 78.1259 117.828 78.3771 117.275 78.3771ZM117.555 77.6234C118.165 77.6234 118.542 77.1425 118.542 76.3566V76.3494C118.542 75.5634 118.161 75.0789 117.555 75.0789C116.948 75.0789 116.575 75.5598 116.575 76.3494V76.3566C116.575 77.1461 116.945 77.6234 117.555 77.6234ZM124.725 78.4417C123.416 78.4417 122.597 77.6701 122.597 76.5288V73.1338H123.523V76.4535C123.523 77.1677 123.957 77.6414 124.729 77.6414C125.497 77.6414 125.928 77.1677 125.928 76.4535V73.1338H126.854V76.5288C126.854 77.6701 126.043 78.4417 124.725 78.4417ZM129.517 78.3915C128.519 78.3915 127.916 77.9321 127.841 77.2681V77.261H128.727L128.731 77.2681C128.824 77.5409 129.086 77.7311 129.531 77.7311C129.976 77.7311 130.285 77.5301 130.285 77.2358V77.2287C130.285 76.999 130.112 76.8482 129.682 76.7513L129.046 76.6078C128.3 76.4427 127.945 76.091 127.945 75.5132V75.5096C127.945 74.8026 128.591 74.3145 129.517 74.3145C130.471 74.3145 131.042 74.7882 131.099 75.4235V75.4306H130.26L130.256 75.4199C130.191 75.1722 129.933 74.9713 129.513 74.9713C129.115 74.9713 128.828 75.1651 128.828 75.4594V75.4629C128.828 75.6926 128.993 75.8326 129.416 75.9295L130.051 76.0695C130.819 76.2417 131.182 76.5683 131.182 77.1389V77.1461C131.182 77.8926 130.482 78.3915 129.517 78.3915ZM133.762 78.3915C132.596 78.3915 131.889 77.6091 131.889 76.3602V76.3566C131.889 75.122 132.603 74.3145 133.719 74.3145C134.835 74.3145 135.524 75.0969 135.524 76.2812V76.5755H132.782C132.793 77.2789 133.174 77.688 133.78 77.688C134.265 77.688 134.541 77.444 134.627 77.2646L134.638 77.2394H135.489L135.478 77.2717C135.352 77.7778 134.828 78.3915 133.762 78.3915ZM133.73 75.0143C133.231 75.0143 132.858 75.3517 132.79 75.9761H134.652C134.591 75.3337 134.229 75.0143 133.73 75.0143ZM136.418 78.3125V74.3899H137.312V74.9928H137.373C137.505 74.5729 137.864 74.3253 138.381 74.3253C138.518 74.3253 138.657 74.3432 138.744 74.3683V75.1687C138.6 75.1399 138.453 75.1184 138.299 75.1184C137.703 75.1184 137.312 75.4737 137.312 76.0336V78.3125H136.418ZM140.872 78.3915C139.874 78.3915 139.271 77.9321 139.196 77.2681V77.261H140.082L140.086 77.2681C140.179 77.5409 140.441 77.7311 140.886 77.7311C141.331 77.7311 141.64 77.5301 141.64 77.2358V77.2287C141.64 76.999 141.468 76.8482 141.037 76.7513L140.402 76.6078C139.655 76.4427 139.3 76.091 139.3 75.5132V75.5096C139.3 74.8026 139.946 74.3145 140.872 74.3145C141.826 74.3145 142.397 74.7882 142.454 75.4235V75.4306H141.615L141.611 75.4199C141.547 75.1722 141.288 74.9713 140.868 74.9713C140.47 74.9713 140.183 75.1651 140.183 75.4594V75.4629C140.183 75.6926 140.348 75.8326 140.771 75.9295L141.407 76.0695C142.175 76.2417 142.537 76.5683 142.537 77.1389V77.1461C142.537 77.8926 141.837 78.3915 140.872 78.3915Z" fill="#2E3B55"/>
<rect x="202.898" y="68.9873" width="44.1" height="13.65" rx="6.825" fill="#F5F5F9"/>
<path d="M208.996 78.1377L207.806 73.6988H208.633L209.393 77.0303H209.439L210.313 73.6988H211.017L211.903 77.0303H211.946L212.706 73.6988H213.527L212.337 78.1377H211.592L210.688 74.96H210.642L209.744 78.1377H208.996ZM215.354 78.2054C214.355 78.2054 213.749 77.5348 213.749 76.4643V76.4612C213.749 75.403 214.361 74.7108 215.318 74.7108C216.274 74.7108 216.865 75.3814 216.865 76.3966V76.6488H214.515C214.524 77.2518 214.85 77.6024 215.37 77.6024C215.785 77.6024 216.022 77.3933 216.096 77.2395L216.105 77.2179H216.834L216.825 77.2456C216.717 77.6793 216.268 78.2054 215.354 78.2054ZM215.327 75.3107C214.899 75.3107 214.579 75.5999 214.521 76.1351H216.117C216.065 75.5845 215.754 75.3107 215.327 75.3107ZM219.071 78.2054C218.071 78.2054 217.465 77.5348 217.465 76.4643V76.4612C217.465 75.403 218.077 74.7108 219.034 74.7108C219.99 74.7108 220.581 75.3814 220.581 76.3966V76.6488H218.231C218.24 77.2518 218.566 77.6024 219.086 77.6024C219.501 77.6024 219.738 77.3933 219.812 77.2395L219.821 77.2179H220.55L220.541 77.2456C220.433 77.6793 219.984 78.2054 219.071 78.2054ZM219.043 75.3107C218.615 75.3107 218.295 75.5999 218.237 76.1351H219.833C219.781 75.5845 219.47 75.3107 219.043 75.3107ZM221.378 78.1377V73.4742H222.144V76.1536H222.196L223.436 74.7754H224.322L222.968 76.1966L224.414 78.1377H223.491L222.411 76.6827L222.144 76.9564V78.1377H221.378ZM225.032 78.1377V73.4742H225.798V78.1377H225.032ZM227.127 79.3189C227.035 79.3189 226.927 79.3159 226.835 79.3066V78.7191C226.896 78.7252 226.982 78.7283 227.062 78.7283C227.376 78.7283 227.564 78.5991 227.647 78.2946L227.687 78.1408L226.484 74.7754H227.321L228.105 77.4025H228.164L228.945 74.7754H229.751L228.545 78.2084C228.256 79.0513 227.871 79.3189 227.127 79.3189Z" fill="#2E3B55"/>
<path d="M241.495 74.6309C241.495 74.6309 239.755 76.9934 239.132 76.9934C238.509 76.9934 236.77 74.6309 236.77 74.6309" stroke="#141B34" stroke-width="0.590625" stroke-linecap="round" stroke-linejoin="round"/>
<g clip-path="url(#clip0_1879_4666)">
<rect x="59.1797" y="105.803" width="25.9875" height="125.213" rx="6.3" fill="#D5D8DD"/>
<path d="M63.3518 221.478V217.21H63.2907L62.0023 218.122V217.25L63.3553 216.299H64.2777V221.478H63.3518ZM67.6153 221.607C66.3844 221.607 65.645 220.562 65.645 218.89V218.883C65.645 217.21 66.3844 216.17 67.6153 216.17C68.8463 216.17 69.5928 217.21 69.5928 218.883V218.89C69.5928 220.562 68.8463 221.607 67.6153 221.607ZM67.6153 220.857C68.2757 220.857 68.6597 220.117 68.6597 218.89V218.883C68.6597 217.655 68.2757 216.923 67.6153 216.923C66.955 216.923 66.5781 217.655 66.5781 218.883V218.89C66.5781 220.117 66.955 220.857 67.6153 220.857ZM72.5034 221.607C71.2724 221.607 70.5331 220.562 70.5331 218.89V218.883C70.5331 217.21 71.2724 216.17 72.5034 216.17C73.7344 216.17 74.4808 217.21 74.4808 218.883V218.89C74.4808 220.562 73.7344 221.607 72.5034 221.607ZM72.5034 220.857C73.1637 220.857 73.5477 220.117 73.5477 218.89V218.883C73.5477 217.655 73.1637 216.923 72.5034 216.923C71.843 216.923 71.4662 217.655 71.4662 218.883V218.89C71.4662 220.117 71.843 220.857 72.5034 220.857ZM76.5839 219.095C75.859 219.095 75.4211 218.545 75.4211 217.663V217.659C75.4211 216.776 75.859 216.227 76.5839 216.227C77.3053 216.227 77.7467 216.776 77.7467 217.659V217.663C77.7467 218.545 77.3053 219.095 76.5839 219.095ZM77.2299 221.478H76.4906L79.9897 216.299H80.7291L77.2299 221.478ZM76.5839 218.574C76.9105 218.574 77.1007 218.24 77.1007 217.663V217.659C77.1007 217.078 76.9105 216.747 76.5839 216.747C76.2537 216.747 76.0707 217.078 76.0707 217.659V217.663C76.0707 218.24 76.2537 218.574 76.5839 218.574ZM80.6357 221.549C79.9108 221.549 79.4694 220.997 79.4694 220.114V220.11C79.4694 219.227 79.9108 218.682 80.6357 218.682C81.3571 218.682 81.7985 219.227 81.7985 220.11V220.114C81.7985 220.997 81.3571 221.549 80.6357 221.549ZM80.6357 221.029C80.9623 221.029 81.1525 220.695 81.1525 220.114V220.11C81.1525 219.532 80.9623 219.202 80.6357 219.202C80.3056 219.202 80.1189 219.532 80.1189 220.11V220.114C80.1189 220.695 80.3056 221.029 80.6357 221.029Z" fill="#2E3B55"/>
</g>
<rect x="91.0742" y="105.803" width="25.9875" height="125.213" rx="6.3" fill="#F5F5F9"/>
<rect x="91.0742" y="163.685" width="25.9875" height="67.3313" rx="6.3" fill="#D5D8DD"/>
<path d="M98.2125 221.607C97.1538 221.607 96.4396 220.961 96.3714 220.11L96.3678 220.064H97.222L97.2256 220.089C97.2937 220.512 97.6849 220.849 98.2161 220.849C98.8226 220.849 99.2389 220.422 99.2389 219.812V219.805C99.2389 219.202 98.8154 218.779 98.2233 218.779C97.9326 218.779 97.6813 218.865 97.4911 219.037C97.3978 219.116 97.3117 219.217 97.2507 219.331H96.4575L96.7088 216.299H99.8167V217.06H97.4301L97.2866 218.635H97.3476C97.5629 218.287 97.9649 218.079 98.453 218.079C99.4184 218.079 100.118 218.797 100.118 219.787V219.794C100.118 220.871 99.3322 221.607 98.2125 221.607ZM103.492 221.478V220.483H100.958V219.726C101.629 218.56 102.365 217.368 103.068 216.299H104.378V219.719H105.074V220.483H104.378V221.478H103.492ZM101.819 219.741H103.506V217.038H103.452C102.921 217.849 102.322 218.807 101.819 219.687V219.741ZM107.131 219.095C106.406 219.095 105.968 218.545 105.968 217.663V217.659C105.968 216.776 106.406 216.227 107.131 216.227C107.852 216.227 108.294 216.776 108.294 217.659V217.663C108.294 218.545 107.852 219.095 107.131 219.095ZM107.777 221.478H107.038L110.537 216.299H111.276L107.777 221.478ZM107.131 218.574C107.457 218.574 107.648 218.24 107.648 217.663V217.659C107.648 217.078 107.457 216.747 107.131 216.747C106.801 216.747 106.618 217.078 106.618 217.659V217.663C106.618 218.24 106.801 218.574 107.131 218.574ZM111.183 221.549C110.458 221.549 110.016 220.997 110.016 220.114V220.11C110.016 219.227 110.458 218.682 111.183 218.682C111.904 218.682 112.345 219.227 112.345 220.11V220.114C112.345 220.997 111.904 221.549 111.183 221.549ZM111.183 221.029C111.509 221.029 111.699 220.695 111.699 220.114V220.11C111.699 219.532 111.509 219.202 111.183 219.202C110.852 219.202 110.666 219.532 110.666 220.11V220.114C110.666 220.695 110.852 221.029 111.183 221.029Z" fill="#2E3B55"/>
<rect x="122.973" y="105.803" width="27.1688" height="125.213" rx="6.3" fill="#F5F5F9"/>
<rect x="122.973" y="187.31" width="27.1688" height="43.7062" rx="6.3" fill="#D5D8DD"/>
<path d="M130.111 221.582C128.977 221.582 128.234 220.964 128.165 220.078L128.162 220.035H129.045L129.048 220.074C129.099 220.512 129.504 220.824 130.111 220.824C130.71 220.824 131.108 220.491 131.108 220.01V220.003C131.108 219.457 130.706 219.156 130.042 219.156H129.432V218.466H130.024C130.595 218.466 130.976 218.143 130.976 217.691V217.684C130.976 217.21 130.656 216.93 130.103 216.93C129.558 216.93 129.181 217.221 129.134 217.684L129.131 217.72H128.27L128.273 217.681C128.352 216.783 129.059 216.195 130.103 216.195C131.169 216.195 131.862 216.751 131.862 217.562V217.569C131.862 218.212 131.399 218.639 130.778 218.768V218.786C131.539 218.858 132.045 219.31 132.045 220.028V220.035C132.045 220.946 131.259 221.582 130.111 221.582ZM134.313 221.478V217.21H134.252L132.964 218.122V217.25L134.317 216.299H135.239V221.478H134.313ZM137.769 219.095C137.044 219.095 136.606 218.545 136.606 217.663V217.659C136.606 216.776 137.044 216.227 137.769 216.227C138.491 216.227 138.932 216.776 138.932 217.659V217.663C138.932 218.545 138.491 219.095 137.769 219.095ZM138.415 221.478H137.676L141.175 216.299H141.914L138.415 221.478ZM137.769 218.574C138.096 218.574 138.286 218.24 138.286 217.663V217.659C138.286 217.078 138.096 216.747 137.769 216.747C137.439 216.747 137.256 217.078 137.256 217.659V217.663C137.256 218.24 137.439 218.574 137.769 218.574ZM141.821 221.549C141.096 221.549 140.655 220.997 140.655 220.114V220.11C140.655 219.227 141.096 218.682 141.821 218.682C142.542 218.682 142.984 219.227 142.984 220.11V220.114C142.984 220.997 142.542 221.549 141.821 221.549ZM141.821 221.029C142.148 221.029 142.338 220.695 142.338 220.114V220.11C142.338 219.532 142.148 219.202 141.821 219.202C141.491 219.202 141.304 219.532 141.304 220.11V220.114C141.304 220.695 141.491 221.029 141.821 221.029Z" fill="#2E3B55"/>
<rect x="156.043" y="105.803" width="25.9875" height="125.213" rx="6.3" fill="#F5F5F9"/>
<rect x="156.043" y="150.69" width="25.9875" height="80.325" rx="6.3" fill="#D5D8DD"/>
<path d="M163.285 221.607C162.18 221.607 161.218 220.821 161.218 218.955V218.947C161.218 217.203 162.004 216.17 163.307 216.17C164.258 216.17 164.968 216.733 165.133 217.526L165.14 217.566H164.232L164.218 217.53C164.082 217.167 163.762 216.93 163.307 216.93C162.485 216.93 162.137 217.734 162.097 218.725C162.097 218.764 162.094 218.804 162.094 218.843H162.165C162.355 218.434 162.808 218.072 163.518 218.072C164.512 218.072 165.209 218.797 165.209 219.78V219.787C165.209 220.839 164.408 221.607 163.285 221.607ZM162.255 219.798C162.255 220.39 162.704 220.853 163.278 220.853C163.852 220.853 164.304 220.397 164.304 219.819V219.812C164.304 219.213 163.877 218.782 163.289 218.782C162.704 218.782 162.255 219.206 162.255 219.791V219.798ZM168.08 221.607C167.021 221.607 166.307 220.961 166.239 220.11L166.235 220.064H167.089L167.093 220.089C167.161 220.512 167.552 220.849 168.083 220.849C168.69 220.849 169.106 220.422 169.106 219.812V219.805C169.106 219.202 168.683 218.779 168.091 218.779C167.8 218.779 167.549 218.865 167.358 219.037C167.265 219.116 167.179 219.217 167.118 219.331H166.325L166.576 216.299H169.684V217.06H167.297L167.154 218.635H167.215C167.43 218.287 167.832 218.079 168.32 218.079C169.286 218.079 169.985 218.797 169.985 219.787V219.794C169.985 220.871 169.199 221.607 168.08 221.607ZM172.06 219.095C171.335 219.095 170.897 218.545 170.897 217.663V217.659C170.897 216.776 171.335 216.227 172.06 216.227C172.781 216.227 173.223 216.776 173.223 217.659V217.663C173.223 218.545 172.781 219.095 172.06 219.095ZM172.706 221.478H171.966L175.466 216.299H176.205L172.706 221.478ZM172.06 218.574C172.386 218.574 172.577 218.24 172.577 217.663V217.659C172.577 217.078 172.386 216.747 172.06 216.747C171.73 216.747 171.547 217.078 171.547 217.659V217.663C171.547 218.24 171.73 218.574 172.06 218.574ZM176.112 221.549C175.387 221.549 174.945 220.997 174.945 220.114V220.11C174.945 219.227 175.387 218.682 176.112 218.682C176.833 218.682 177.274 219.227 177.274 220.11V220.114C177.274 220.997 176.833 221.549 176.112 221.549ZM176.112 221.029C176.438 221.029 176.628 220.695 176.628 220.114V220.11C176.628 219.532 176.438 219.202 176.112 219.202C175.781 219.202 175.595 219.532 175.595 220.11V220.114C175.595 220.695 175.781 221.029 176.112 221.029Z" fill="#2E3B55"/>
<rect x="187.938" y="105.803" width="25.9875" height="125.213" rx="6.3" fill="#F5F5F9"/>
<rect x="187.938" y="136.516" width="25.9875" height="94.5" rx="6.3" fill="#D5D8DD"/>
<path d="M195.14 221.582C193.949 221.582 193.12 220.964 193.12 220.078V220.071C193.12 219.407 193.604 218.894 194.293 218.754V218.732C193.701 218.574 193.306 218.14 193.306 217.584V217.576C193.306 216.78 194.067 216.195 195.14 216.195C196.213 216.195 196.974 216.78 196.974 217.576V217.584C196.974 218.14 196.58 218.574 195.987 218.732V218.754C196.68 218.894 197.161 219.407 197.161 220.071V220.078C197.161 220.964 196.332 221.582 195.14 221.582ZM195.14 218.438C195.682 218.438 196.059 218.122 196.059 217.67V217.663C196.059 217.21 195.682 216.895 195.14 216.895C194.598 216.895 194.222 217.21 194.222 217.663V217.67C194.222 218.122 194.598 218.438 195.14 218.438ZM195.14 220.875C195.761 220.875 196.203 220.516 196.203 220.017V220.01C196.203 219.507 195.765 219.145 195.14 219.145C194.512 219.145 194.078 219.507 194.078 220.01V220.017C194.078 220.516 194.52 220.875 195.14 220.875ZM198.159 221.478V220.853L199.86 219.116C200.563 218.405 200.761 218.143 200.761 217.745V217.734C200.761 217.257 200.434 216.913 199.896 216.913C199.347 216.913 198.977 217.275 198.977 217.81L198.973 217.824L198.112 217.82L198.108 217.81C198.108 216.844 198.862 216.17 199.942 216.17C200.951 216.17 201.676 216.783 201.676 217.655V217.666C201.676 218.255 201.392 218.721 200.448 219.629L199.411 220.634V220.71H201.755V221.478H198.159ZM203.872 219.095C203.147 219.095 202.709 218.545 202.709 217.663V217.659C202.709 216.776 203.147 216.227 203.872 216.227C204.593 216.227 205.035 216.776 205.035 217.659V217.663C205.035 218.545 204.593 219.095 203.872 219.095ZM204.518 221.478H203.779L207.278 216.299H208.017L204.518 221.478ZM203.872 218.574C204.199 218.574 204.389 218.24 204.389 217.663V217.659C204.389 217.078 204.199 216.747 203.872 216.747C203.542 216.747 203.359 217.078 203.359 217.659V217.663C203.359 218.24 203.542 218.574 203.872 218.574ZM207.924 221.549C207.199 221.549 206.758 220.997 206.758 220.114V220.11C206.758 219.227 207.199 218.682 207.924 218.682C208.645 218.682 209.087 219.227 209.087 220.11V220.114C209.087 220.997 208.645 221.549 207.924 221.549ZM207.924 221.029C208.251 221.029 208.441 220.695 208.441 220.114V220.11C208.441 219.532 208.251 219.202 207.924 219.202C207.594 219.202 207.407 219.532 207.407 220.11V220.114C207.407 220.695 207.594 221.029 207.924 221.029Z" fill="#2E3B55"/>
<rect x="219.832" y="105.803" width="27.1688" height="125.213" rx="6.3" fill="#F5F5F9"/>
<rect x="219.832" y="164.865" width="27.1688" height="66.15" rx="6.3" fill="#D5D8DD"/>
<path d="M227.491 221.478V220.483H224.957V219.726C225.628 218.56 226.364 217.368 227.067 216.299H228.377V219.719H229.073V220.483H228.377V221.478H227.491ZM225.818 219.741H227.505V217.038H227.451C226.92 217.849 226.321 218.807 225.818 219.687V219.741ZM232.016 221.607C230.911 221.607 229.949 220.821 229.949 218.955V218.947C229.949 217.203 230.735 216.17 232.038 216.17C232.989 216.17 233.699 216.733 233.865 217.526L233.872 217.566H232.964L232.949 217.53C232.813 217.167 232.494 216.93 232.038 216.93C231.216 216.93 230.868 217.734 230.828 218.725C230.828 218.764 230.825 218.804 230.825 218.843H230.897C231.087 218.434 231.539 218.072 232.25 218.072C233.244 218.072 233.94 218.797 233.94 219.78V219.787C233.94 220.839 233.14 221.607 232.016 221.607ZM230.986 219.798C230.986 220.39 231.435 220.853 232.009 220.853C232.583 220.853 233.035 220.397 233.035 219.819V219.812C233.035 219.213 232.608 218.782 232.02 218.782C231.435 218.782 230.986 219.206 230.986 219.791V219.798ZM236.032 219.095C235.307 219.095 234.869 218.545 234.869 217.663V217.659C234.869 216.776 235.307 216.227 236.032 216.227C236.754 216.227 237.195 216.776 237.195 217.659V217.663C237.195 218.545 236.754 219.095 236.032 219.095ZM236.678 221.478H235.939L239.438 216.299H240.177L236.678 221.478ZM236.032 218.574C236.359 218.574 236.549 218.24 236.549 217.663V217.659C236.549 217.078 236.359 216.747 236.032 216.747C235.702 216.747 235.519 217.078 235.519 217.659V217.663C235.519 218.24 235.702 218.574 236.032 218.574ZM240.084 221.549C239.359 221.549 238.918 220.997 238.918 220.114V220.11C238.918 219.227 239.359 218.682 240.084 218.682C240.805 218.682 241.247 219.227 241.247 220.11V220.114C241.247 220.997 240.805 221.549 240.084 221.549ZM240.084 221.029C240.411 221.029 240.601 220.695 240.601 220.114V220.11C240.601 219.532 240.411 219.202 240.084 219.202C239.754 219.202 239.567 219.532 239.567 220.11V220.114C239.567 220.695 239.754 221.029 240.084 221.029Z" fill="#2E3B55"/>
</g>
<defs>
<filter id="filter0_d_1879_4666" x="0.873002" y="0.873002" width="308.463" height="296.179" filterUnits="userSpaceOnUse" color-interpolation-filters="sRGB">
<feFlood flood-opacity="0" result="BackgroundImageFix"/>
<feColorMatrix in="SourceAlpha" type="matrix" values="0 0 0 0 0 0 0 0 0 0 0 0 0 0 0 0 0 0 127 0" result="hardAlpha"/>
<feMorphology radius="5.6685" operator="erode" in="SourceAlpha" result="effect1_dropShadow_1879_4666"/>
<feOffset dx="1.8895" dy="1.8895"/>
<feGaussianBlur stdDeviation="28.3425"/>
<feComposite in2="hardAlpha" operator="out"/>
<feColorMatrix type="matrix" values="0 0 0 0 0 0 0 0 0 0 0 0 0 0 0 0 0 0 0.08 0"/>
<feBlend mode="normal" in2="BackgroundImageFix" result="effect1_dropShadow_1879_4666"/>
<feBlend mode="normal" in="SourceGraphic" in2="effect1_dropShadow_1879_4666" result="shape"/>
</filter>
<clipPath id="clip0_1879_4666">
<rect width="25.9875" height="125.213" fill="white" transform="translate(58.7891 105.344)"/>
</clipPath>
</defs>
</svg>
