<svg width="181" height="32" viewBox="0 0 181 32" fill="none" xmlns="http://www.w3.org/2000/svg">
<g clip-path="url(#clip0_1879_3817)">
<g clip-path="url(#clip1_1879_3817)">
<g clip-path="url(#clip2_1879_3817)">
<path d="M36.1804 6.18693C37.0134 3.79493 35.8334 1.14993 33.5454 0.278933C31.2584 -0.591067 28.7284 0.641933 27.8954 3.03393L19.9664 25.8139C19.1334 28.2049 20.3134 30.8499 22.6014 31.7209C24.8884 32.5909 27.4184 31.3579 28.2514 28.9659L36.1804 6.18693Z" fill="#828999"/>
<path d="M-1.17814 6.18693C-2.01114 3.79493 -0.83114 1.14993 1.45586 0.278933C3.74386 -0.591067 6.27386 0.641933 7.10586 3.03393L15.0359 25.8139C15.8679 28.2049 14.6889 30.8499 12.4009 31.7209C10.1129 32.5909 7.58386 31.3579 6.75086 28.9659L-1.17914 6.18593L-1.17814 6.18693ZM12.0509 6.18693C11.2179 3.79493 12.3979 1.14993 14.6859 0.278933C16.9729 -0.591067 19.5029 0.641933 20.3359 3.03393L28.2649 25.8139C29.0979 28.2049 27.9179 30.8499 25.6299 31.7209C23.3429 32.5909 20.8129 31.3579 19.9799 28.9659L12.0519 6.18593L12.0509 6.18693Z" fill="#828999"/>
<path d="M52.7438 24.2163C52.2318 24.2163 51.8158 24.0963 51.4958 23.8563C51.1758 23.6003 50.9198 23.2163 50.7278 22.7043L45.8808 9.07226C45.6728 8.46426 45.7128 7.94426 46.0008 7.51226C46.3048 7.08026 46.8248 6.86426 47.5608 6.86426C48.0728 6.86426 48.4648 6.98426 48.7368 7.22426C49.0248 7.46426 49.2568 7.84026 49.4328 8.35226L53.3928 20.1363H52.3608L56.5368 8.37626C56.7288 7.86426 56.9608 7.48826 57.2328 7.24826C57.5208 6.99226 57.8968 6.86426 58.3608 6.86426C58.8088 6.86426 59.1688 6.99226 59.4408 7.24826C59.7128 7.48826 59.9448 7.87226 60.1368 8.40026L64.1208 20.1363H63.2328L67.2648 8.35226C67.4248 7.85626 67.6488 7.48826 67.9368 7.24826C68.2248 6.99226 68.6168 6.86426 69.1128 6.86426C69.7368 6.86426 70.1928 7.08026 70.4808 7.51226C70.7688 7.94426 70.8008 8.46426 70.5768 9.07226L65.6808 22.7283C65.5048 23.2243 65.2648 23.6003 64.9608 23.8563C64.6568 24.0963 64.2408 24.2163 63.7128 24.2163C63.2008 24.2163 62.7928 24.0963 62.4888 23.8563C62.1848 23.6003 61.9368 23.2163 61.7448 22.7043L57.9528 11.9763H58.5288L54.6888 22.7283C54.4968 23.2243 54.2488 23.6003 53.9448 23.8563C53.6568 24.0963 53.2568 24.2163 52.7448 24.2163H52.7438ZM77.6238 24.2643C76.2318 24.2643 75.0318 24.0163 74.0238 23.5203C73.0318 23.0083 72.2638 22.2963 71.7198 21.3843C71.1918 20.4563 70.9278 19.3683 70.9278 18.1203C70.9278 16.9043 71.1838 15.8403 71.6958 14.9283C72.1883 14.02 72.9292 13.2708 73.8318 12.7683C74.7598 12.2403 75.8078 11.9763 76.9758 11.9763C77.8238 11.9763 78.5918 12.1203 79.2798 12.4083C79.9678 12.6803 80.5598 13.0803 81.0558 13.6083C81.5518 14.1203 81.9278 14.7523 82.1838 15.5043C82.4398 16.2403 82.5678 17.0643 82.5678 17.9763C82.5678 18.2803 82.4718 18.5123 82.2798 18.6723C82.0878 18.8163 81.8078 18.8883 81.4398 18.8883H73.9038V17.0163H79.9518L79.5678 17.3523C79.5678 16.6963 79.4718 16.1523 79.2798 15.7203C79.0878 15.2723 78.8078 14.9363 78.4398 14.7123C78.0878 14.4883 77.6478 14.3763 77.1198 14.3763C76.5278 14.3763 76.0238 14.5123 75.6078 14.7843C75.1918 15.0563 74.8718 15.4483 74.6478 15.9603C74.4238 16.4723 74.3118 17.0883 74.3118 17.8083V18.0003C74.3118 19.2163 74.5918 20.1123 75.1518 20.6883C75.7278 21.2643 76.5758 21.5523 77.6958 21.5523C78.0798 21.5523 78.5198 21.5043 79.0158 21.4083C79.5118 21.3123 79.9758 21.1603 80.4078 20.9523C80.7758 20.7763 81.1038 20.7203 81.3918 20.7843C81.6798 20.8323 81.9038 20.9603 82.0638 21.1683C82.2238 21.3763 82.3118 21.6163 82.3278 21.8883C82.3598 22.1603 82.3038 22.4323 82.1598 22.7043C82.0158 22.9603 81.7758 23.1763 81.4398 23.3523C80.8615 23.6688 80.2384 23.8954 79.5918 24.0243C78.9198 24.1843 78.2638 24.2643 77.6238 24.2643ZM91.9478 24.2643C91.0038 24.2643 90.1638 24.0323 89.4278 23.5683C88.7078 23.0883 88.2278 22.4563 87.9878 21.6723L88.2518 20.8803V22.3683C88.2518 22.9603 88.0998 23.4163 87.7958 23.7363C87.4918 24.0563 87.0518 24.2163 86.4758 24.2163C85.8998 24.2163 85.4518 24.0563 85.1318 23.7363C84.8278 23.4163 84.6758 22.9603 84.6758 22.3683V8.71226C84.6758 8.10426 84.8278 7.64826 85.1318 7.34426C85.4518 7.02426 85.9078 6.86426 86.4998 6.86426C87.0758 6.86426 87.5158 7.02426 87.8198 7.34426C88.1398 7.64826 88.2998 8.10426 88.2998 8.71226V14.4003H88.0118C88.2678 13.6803 88.7558 13.0963 89.4758 12.6483C90.1958 12.2003 91.0198 11.9763 91.9478 11.9763C92.9878 11.9763 93.8918 12.2243 94.6598 12.7203C95.4278 13.2163 96.0278 13.9203 96.4598 14.8323C96.8918 15.7443 97.1078 16.8323 97.1078 18.0963C97.1078 19.3603 96.8918 20.4563 96.4598 21.3843C96.0278 22.3123 95.4198 23.0243 94.6358 23.5203C93.8678 24.0163 92.9718 24.2643 91.9478 24.2643ZM90.8678 21.5523C91.3798 21.5523 91.8278 21.4243 92.2118 21.1683C92.6118 20.9123 92.9158 20.5363 93.1238 20.0403C93.3478 19.5283 93.4598 18.8803 93.4598 18.0963C93.4598 16.9283 93.2198 16.0723 92.7398 15.5283C92.2598 14.9683 91.6358 14.6883 90.8678 14.6883C90.3558 14.6883 89.8998 14.8083 89.4998 15.0483C89.1158 15.2883 88.8118 15.6643 88.5878 16.1763C88.3638 16.6723 88.2518 17.3123 88.2518 18.0963C88.2518 19.2643 88.4918 20.1363 88.9718 20.7123C89.4518 21.2723 90.0838 21.5523 90.8678 21.5523ZM104.989 28.5843C104.125 28.5843 103.293 28.5123 102.493 28.3683C101.772 28.2439 101.07 28.0261 100.405 27.7203C100.037 27.5603 99.7728 27.3523 99.6128 27.0963C99.4708 26.8487 99.4041 26.5651 99.4208 26.2803C99.4528 25.9923 99.5488 25.7363 99.7088 25.5123C99.8848 25.2883 100.101 25.1283 100.357 25.0323C100.613 24.9523 100.885 24.9763 101.173 25.1043C101.877 25.4243 102.525 25.6323 103.117 25.7283C103.725 25.8243 104.245 25.8723 104.677 25.8723C105.701 25.8723 106.469 25.6403 106.981 25.1763C107.493 24.7123 107.749 24.0003 107.749 23.0403V21.2163H107.965C107.725 21.9523 107.229 22.5523 106.477 23.0163C105.727 23.4796 104.862 23.7209 103.981 23.7123C102.925 23.7123 102.005 23.4723 101.221 22.9923C100.437 22.4963 99.8288 21.8083 99.3968 20.9283C98.9648 20.0323 98.7488 19.0003 98.7488 17.8323C98.7488 16.9523 98.8688 16.1523 99.1088 15.4323C99.3404 14.7548 99.6987 14.1277 100.165 13.5843C100.624 13.0757 101.189 12.6742 101.821 12.4083C102.503 12.115 103.239 11.9678 103.981 11.9763C104.925 11.9763 105.757 12.2083 106.477 12.6723C107.213 13.1203 107.701 13.7123 107.941 14.4483L107.701 15.2163V13.8483C107.701 13.2563 107.853 12.8083 108.157 12.5043C108.477 12.1843 108.925 12.0243 109.501 12.0243C110.077 12.0243 110.517 12.1843 110.821 12.5043C111.125 12.8083 111.277 13.2563 111.277 13.8483V22.6323C111.277 24.6003 110.733 26.0803 109.645 27.0723C108.573 28.0803 107.021 28.5843 104.989 28.5843ZM105.061 21.0003C105.605 21.0003 106.069 20.8723 106.453 20.6163C106.853 20.3603 107.165 20.0003 107.389 19.5363C107.613 19.0563 107.725 18.4883 107.725 17.8323C107.725 16.8403 107.477 16.0723 106.981 15.5283C106.501 14.9683 105.861 14.6883 105.061 14.6883C104.517 14.6883 104.045 14.8163 103.645 15.0723C103.245 15.3123 102.933 15.6723 102.709 16.1523C102.501 16.6163 102.397 17.1763 102.397 17.8323C102.397 18.8243 102.637 19.6003 103.117 20.1603C103.597 20.7203 104.245 21.0003 105.061 21.0003ZM120.21 24.2643C118.818 24.2643 117.618 24.0163 116.61 23.5203C115.618 23.0083 114.85 22.2963 114.306 21.3843C113.778 20.4563 113.514 19.3683 113.514 18.1203C113.514 16.9043 113.77 15.8403 114.282 14.9283C114.774 14.02 115.515 13.2708 116.418 12.7683C117.346 12.2403 118.394 11.9763 119.562 11.9763C120.41 11.9763 121.178 12.1203 121.866 12.4083C122.554 12.6803 123.146 13.0803 123.642 13.6083C124.138 14.1203 124.514 14.7523 124.77 15.5043C125.026 16.2403 125.154 17.0643 125.154 17.9763C125.154 18.2803 125.058 18.5123 124.866 18.6723C124.674 18.8163 124.394 18.8883 124.026 18.8883H116.49V17.0163H122.538L122.154 17.3523C122.154 16.6963 122.058 16.1523 121.866 15.7203C121.674 15.2723 121.394 14.9363 121.026 14.7123C120.674 14.4883 120.234 14.3763 119.706 14.3763C119.114 14.3763 118.61 14.5123 118.194 14.7843C117.778 15.0563 117.458 15.4483 117.234 15.9603C117.01 16.4723 116.898 17.0883 116.898 17.8083V18.0003C116.898 19.2163 117.178 20.1123 117.738 20.6883C118.314 21.2643 119.162 21.5523 120.282 21.5523C120.666 21.5523 121.106 21.5043 121.602 21.4083C122.098 21.3123 122.562 21.1603 122.994 20.9523C123.362 20.7763 123.69 20.7203 123.978 20.7843C124.266 20.8323 124.49 20.9603 124.65 21.1683C124.81 21.3763 124.898 21.6163 124.914 21.8883C124.946 22.1603 124.89 22.4323 124.746 22.7043C124.602 22.9603 124.362 23.1763 124.026 23.3523C123.448 23.6688 122.824 23.8954 122.178 24.0243C121.506 24.1843 120.85 24.2643 120.21 24.2643ZM131.246 24.2643C130.382 24.2643 129.606 24.0963 128.918 23.7603C128.23 23.4243 127.694 22.9683 127.31 22.3923C126.926 21.8172 126.725 21.1395 126.734 20.4483C126.734 19.5843 126.958 18.9043 127.406 18.4083C127.854 17.8963 128.582 17.5363 129.59 17.3283C130.598 17.1043 131.934 16.9923 133.598 16.9923H134.87V18.8643H133.622C132.806 18.8643 132.142 18.9123 131.63 19.0083C131.134 19.0883 130.774 19.2323 130.55 19.4403C130.342 19.6483 130.238 19.9363 130.238 20.3043C130.238 20.7523 130.39 21.1203 130.694 21.4083C131.014 21.6963 131.47 21.8403 132.062 21.8403C132.491 21.8494 132.914 21.7415 133.286 21.5283C133.646 21.3122 133.944 21.0062 134.15 20.6403C134.358 20.2563 134.462 19.8243 134.462 19.3443V16.5843C134.462 15.8803 134.302 15.3843 133.982 15.0963C133.662 14.7923 133.118 14.6403 132.35 14.6403C131.918 14.6403 131.446 14.6963 130.934 14.8083C130.368 14.9254 129.813 15.0941 129.278 15.3123C128.926 15.4723 128.614 15.5123 128.342 15.4323C128.085 15.3481 127.865 15.1787 127.718 14.9523C127.576 14.7211 127.502 14.4553 127.502 14.1843C127.502 13.8963 127.582 13.6243 127.742 13.3683C127.902 13.0963 128.166 12.8963 128.534 12.7683C129.214 12.4854 129.922 12.2762 130.646 12.1443C131.256 12.0377 131.874 11.9815 132.494 11.9763C133.726 11.9763 134.734 12.1603 135.518 12.5283C136.318 12.8803 136.918 13.4323 137.318 14.1843C137.718 14.9203 137.918 15.8723 137.918 17.0403V22.3683C137.918 22.9603 137.774 23.4163 137.486 23.7363C137.198 24.0563 136.782 24.2163 136.238 24.2163C135.694 24.2163 135.27 24.0563 134.966 23.7363C134.678 23.4163 134.534 22.9603 134.534 22.3683V21.4803L134.702 21.6243C134.618 22.1416 134.403 22.629 134.078 23.0403C133.763 23.4326 133.36 23.7451 132.902 23.9523C132.422 24.1603 131.87 24.2643 131.246 24.2643ZM142.494 24.2163C141.886 24.2163 141.422 24.0563 141.102 23.7363C140.782 23.4163 140.622 22.9603 140.622 22.3683V13.8483C140.622 13.2563 140.774 12.8083 141.078 12.5043C141.398 12.1843 141.838 12.0243 142.398 12.0243C142.974 12.0243 143.414 12.1843 143.718 12.5043C144.022 12.8083 144.174 13.2563 144.174 13.8483V15.0963H143.934C144.126 14.1363 144.55 13.3923 145.206 12.8643C145.862 12.3363 146.71 12.0403 147.75 11.9763C148.15 11.9443 148.454 12.0483 148.662 12.2883C148.886 12.5123 149.006 12.8883 149.022 13.4163C149.054 13.9123 148.95 14.3043 148.71 14.5923C148.486 14.8803 148.102 15.0563 147.558 15.1203L147.006 15.1683C146.094 15.2483 145.414 15.5123 144.966 15.9603C144.534 16.4083 144.318 17.0563 144.318 17.9043V22.3683C144.318 22.9603 144.158 23.4163 143.838 23.7363C143.534 24.0563 143.086 24.2163 142.494 24.2163Z" fill="#120A0B"/>
</g>
</g>
<g opacity="0.14">
<rect width="1" height="20" transform="translate(180 6)" fill="#120A0B"/>
</g>
</g>
<defs>
<clipPath id="clip0_1879_3817">
<rect width="181" height="32" fill="white"/>
</clipPath>
<clipPath id="clip1_1879_3817">
<rect width="148" height="32" fill="white"/>
</clipPath>
<clipPath id="clip2_1879_3817">
<rect width="148" height="32" fill="white"/>
</clipPath>
</defs>
</svg>
