<svg width="181" height="32" viewBox="0 0 181 32" fill="none" xmlns="http://www.w3.org/2000/svg">
<g clip-path="url(#clip0_1879_3833)">
<g clip-path="url(#clip1_1879_3833)">
<g clip-path="url(#clip2_1879_3833)">
<path d="M36.7848 7.52C35.561 6.95622 34.2293 6.66517 32.8818 6.667C30.4066 6.667 28.0327 7.6503 26.2824 9.40057C24.5321 11.1509 23.5488 13.5247 23.5488 16C23.5488 18.4753 24.5321 20.8492 26.2824 22.5994C28.0327 24.3497 30.4066 25.333 32.8818 25.333C34.2293 25.3348 35.561 25.0437 36.7848 24.48C33.9568 28.997 28.9368 32 23.2148 32C14.3778 32 7.21484 24.837 7.21484 16C7.21484 7.163 14.3778 0 23.2148 0C28.9368 0 33.9568 3.003 36.7848 7.52Z" fill="#828999"/>
<path d="M36.7841 15.9997C36.7924 16.5176 36.6975 17.0319 36.5051 17.5128C36.3126 17.9937 36.0264 18.4314 35.6631 18.8006C35.2998 19.1697 34.8667 19.4629 34.389 19.663C33.9113 19.8631 33.3985 19.9662 32.8806 19.9662C32.3626 19.9662 31.8499 19.8631 31.3721 19.663C30.8944 19.4629 30.4613 19.1697 30.098 18.8006C29.7347 18.4314 29.4485 17.9937 29.2561 17.5128C29.0636 17.0319 28.9688 16.5176 28.9771 15.9997C28.9935 14.9753 29.4119 13.9983 30.1422 13.2797C30.8725 12.561 31.856 12.1582 32.8806 12.1582C33.9051 12.1582 34.8887 12.561 35.6189 13.2797C36.3492 13.9983 36.7677 14.9753 36.7841 15.9997Z" fill="#828999"/>
<path d="M54.0843 24.312C52.9807 24.3188 51.8883 24.0897 50.8803 23.64C49.8868 23.1886 48.9902 22.5488 48.2403 21.756C47.4835 20.9486 46.8816 20.009 46.4643 18.984C46.0364 17.9075 45.8205 16.7584 45.8283 15.6C45.8283 14.392 46.0403 13.264 46.4643 12.216C46.8777 11.189 47.4801 10.2488 48.2403 9.444C49.0003 8.644 49.8803 8.02 50.8803 7.572C51.8803 7.116 52.9483 6.888 54.0843 6.888C55.4443 6.888 56.6963 7.204 57.8403 7.836C58.9669 8.4446 59.9396 9.3024 60.6843 10.344L57.7323 11.94C57.2851 11.4126 56.7336 10.9836 56.1123 10.68C55.4842 10.3609 54.7889 10.1963 54.0843 10.2C53.4043 10.2 52.7643 10.34 52.1643 10.62C51.5643 10.9 51.0363 11.288 50.5803 11.784C50.1277 12.2876 49.7699 12.869 49.5243 13.5C49.2644 14.1693 49.1341 14.882 49.1403 15.6C49.1403 16.344 49.2683 17.044 49.5243 17.7C49.7699 18.331 50.1277 18.9124 50.5803 19.416C51.0363 19.904 51.5643 20.292 52.1643 20.58C52.7643 20.86 53.4043 21 54.0843 21C54.7891 21.0055 55.4848 20.8408 56.1123 20.52C56.7324 20.2093 57.2834 19.7767 57.7323 19.248L60.6843 20.856C59.9351 21.8936 58.9634 22.7505 57.8403 23.364C56.6963 23.996 55.4443 24.312 54.0843 24.312ZM67.5493 24.312C66.4807 24.322 65.4315 24.0264 64.5253 23.46C63.6224 22.8932 62.8757 22.1093 62.3533 21.18C61.8173 20.22 61.5493 19.16 61.5493 18C61.5493 17.12 61.7053 16.3 62.0173 15.54C62.3293 14.772 62.7573 14.1 63.3013 13.524C63.845 12.946 64.4975 12.481 65.2213 12.156C65.9531 11.8272 66.7471 11.6594 67.5493 11.664C68.6533 11.664 69.6573 11.948 70.5613 12.516C71.4702 13.0807 72.2183 13.8701 72.7333 14.808C73.2773 15.768 73.5493 16.832 73.5493 18C73.5493 18.872 73.3933 19.688 73.0813 20.448C72.778 21.1945 72.3386 21.8781 71.7853 22.464C71.245 23.0374 70.5965 23.4982 69.8773 23.82C69.146 24.1504 68.3518 24.3183 67.5493 24.312ZM67.5493 21C68.0613 21 68.5213 20.864 68.9293 20.592C69.3378 20.3114 69.6682 19.9315 69.8893 19.488C70.1213 19.032 70.2373 18.536 70.2373 18C70.2373 17.448 70.1133 16.944 69.8653 16.488C69.6417 16.0425 69.3069 15.6623 68.8933 15.384C68.4968 15.1155 68.0282 14.9733 67.5493 14.976C67.0453 14.976 66.5893 15.116 66.1813 15.396C65.7713 15.6783 65.4374 16.0575 65.2093 16.5C64.9752 16.965 64.8559 17.4794 64.8613 18C64.8613 18.568 64.9813 19.08 65.2213 19.536C65.4693 19.984 65.7973 20.34 66.2053 20.604C66.6133 20.868 67.0613 21 67.5493 21ZM84.2843 6H87.5963V24H84.2843V22.728C83.9104 23.1969 83.445 23.5848 82.9163 23.868C82.3723 24.164 81.7523 24.312 81.0563 24.312C80.2152 24.3182 79.3818 24.1507 78.6083 23.82C77.8574 23.4981 77.1736 23.0381 76.5923 22.464C76.0182 21.8827 75.5582 21.1989 75.2363 20.448C74.9056 19.6746 74.7381 18.8412 74.7443 18C74.7443 17.128 74.9083 16.312 75.2363 15.552C75.8863 14.0372 77.0935 12.83 78.6083 12.18C79.3818 11.8493 80.2152 11.6818 81.0563 11.688C81.7523 11.688 82.3723 11.836 82.9163 12.132C83.4603 12.42 83.9163 12.8 84.2843 13.272V6ZM81.1043 21.132C81.6483 21.132 82.1403 20.992 82.5803 20.712C83.0203 20.432 83.3683 20.056 83.6243 19.584C83.8803 19.104 84.0083 18.576 84.0083 18C84.0083 17.416 83.8803 16.888 83.6243 16.416C83.3796 15.9562 83.0199 15.5675 82.5803 15.288C82.1403 15.008 81.6483 14.868 81.1043 14.868C80.5523 14.868 80.0523 15.008 79.6043 15.288C79.1563 15.568 78.8003 15.948 78.5363 16.428C78.2705 16.9088 78.1343 17.4506 78.1413 18C78.1413 18.576 78.2733 19.104 78.5373 19.584C78.8093 20.056 79.1693 20.432 79.6173 20.712C80.0653 20.992 80.5603 21.132 81.1043 21.132ZM95.5343 24.312C94.4657 24.322 93.4165 24.0264 92.5103 23.46C91.6051 22.8908 90.8581 22.1025 90.3383 21.168C89.8023 20.208 89.5343 19.148 89.5343 17.988C89.5343 17.116 89.6903 16.3 90.0023 15.54C90.3143 14.772 90.7423 14.1 91.2863 13.524C91.83 12.946 92.4825 12.481 93.2063 12.156C93.9381 11.8272 94.7321 11.6594 95.5343 11.664C96.4863 11.664 97.3543 11.868 98.1383 12.276C98.9216 12.6767 99.6061 13.2464 100.142 13.944C100.695 14.65 101.096 15.4632 101.318 16.332C101.558 17.22 101.598 18.144 101.438 19.104H93.1103C93.2143 19.456 93.3743 19.776 93.5903 20.064C93.8143 20.344 94.0863 20.568 94.4063 20.736C94.7343 20.904 95.1103 20.992 95.5343 21C95.9503 21.008 96.3343 20.912 96.6863 20.712C97.0383 20.512 97.3383 20.244 97.5863 19.908L100.97 20.688C100.492 21.741 99.7369 22.6449 98.7863 23.304C97.8341 23.9712 96.697 24.3237 95.5343 24.312ZM92.9903 16.656H98.0903C97.9901 16.2637 97.8103 15.8961 97.5623 15.576C97.3209 15.2615 97.0138 15.0035 96.6623 14.82C96.3153 14.6352 95.9275 14.5404 95.5343 14.544C95.1414 14.5423 94.7541 14.637 94.4063 14.82C94.0623 15.004 93.7663 15.256 93.5183 15.576C93.2783 15.888 93.1023 16.248 92.9903 16.656ZM103.144 24V6H106.456V24H103.144ZM109.332 12H112.644V24H109.332V12ZM111.012 10.62C110.532 10.62 110.128 10.46 109.8 10.14C109.64 9.98704 109.514 9.8024 109.429 9.59785C109.344 9.3933 109.303 9.17334 109.308 8.952C109.308 8.48 109.472 8.084 109.8 7.764C110.128 7.444 110.528 7.284 111 7.284C111.472 7.284 111.868 7.444 112.188 7.764C112.516 8.084 112.68 8.48 112.68 8.952C112.68 9.424 112.52 9.82 112.2 10.14C111.888 10.46 111.492 10.62 111.012 10.62ZM126.55 16.368V24H123.238V17.28C123.238 16.856 123.134 16.476 122.926 16.14C122.731 15.8008 122.45 15.5192 122.11 15.324C121.774 15.124 121.398 15.024 120.982 15.024C120.587 15.0194 120.197 15.1204 119.853 15.3165C119.509 15.5127 119.224 15.7969 119.026 16.14C118.826 16.476 118.726 16.856 118.726 17.28V24H115.414L115.402 12H118.714L118.726 12.888C119.126 12.504 119.594 12.204 120.13 11.988C120.676 11.7716 121.259 11.6616 121.846 11.664C122.718 11.664 123.506 11.876 124.21 12.3C124.913 12.7149 125.499 13.3012 125.914 14.004C126.338 14.708 126.55 15.496 126.55 16.368ZM140.108 24H136.292L133.748 19.62L132.284 21.36V24H128.972V6H132.284V16.212L135.812 12H140.132L136.016 16.932L140.108 24Z" fill="#120A0B"/>
</g>
</g>
<g opacity="0.14">
<rect width="1" height="20" transform="translate(180 6)" fill="#120A0B"/>
</g>
</g>
<defs>
<clipPath id="clip0_1879_3833">
<rect width="181" height="32" fill="white"/>
</clipPath>
<clipPath id="clip1_1879_3833">
<rect width="148" height="32" fill="white"/>
</clipPath>
<clipPath id="clip2_1879_3833">
<rect width="148" height="32" fill="white"/>
</clipPath>
</defs>
</svg>
