<svg width="181" height="32" viewBox="0 0 181 32" fill="none" xmlns="http://www.w3.org/2000/svg">
<g clip-path="url(#clip0_1879_3809)">
<g clip-path="url(#clip1_1879_3809)">
<g clip-path="url(#clip2_1879_3809)">
<g clip-path="url(#clip3_1879_3809)">
<path d="M11.4811 0.273308C11.7912 0.0942608 12.143 0 12.5011 0C12.8592 0 13.211 0.0942608 13.5211 0.273308L25.6111 7.25331C25.9213 7.43238 26.1788 7.68996 26.3579 8.00013C26.5369 8.31031 26.6311 8.66216 26.6311 9.02031V16.8123L13.8251 9.43231C13.5322 9.26684 13.1858 9.22382 12.8614 9.31262C12.5369 9.40142 12.2607 9.61483 12.0929 9.90637C11.9251 10.1979 11.8793 10.544 11.9655 10.8691C12.0517 11.1943 12.2629 11.4722 12.5531 11.6423L26.6301 19.7543V22.9803C26.6301 23.3385 26.5359 23.6903 26.3569 24.0005C26.1778 24.3107 25.9203 24.5682 25.6101 24.7473L13.5201 31.7273C13.2101 31.9062 12.8585 32.0003 12.5006 32.0003C12.1427 32.0003 11.7911 31.9062 11.4811 31.7273L-0.608906 24.7473C-0.91907 24.5682 -1.17662 24.3107 -1.35567 24.0005C-1.53472 23.6903 -1.62896 23.3385 -1.62891 22.9803V15.2123L11.0911 22.5663C11.2362 22.6547 11.3975 22.7133 11.5655 22.7385C11.7336 22.7637 11.9049 22.755 12.0696 22.713C12.2342 22.6711 12.3888 22.5966 12.5243 22.494C12.6598 22.3914 12.7734 22.2628 12.8584 22.1157C12.9435 21.9686 12.9982 21.806 13.0195 21.6374C13.0409 21.4689 13.0283 21.2977 12.9825 21.1341C12.9367 20.9705 12.8587 20.8176 12.753 20.6846C12.6473 20.5515 12.5161 20.4409 12.3671 20.3593L-1.62891 12.2673V9.02031C-1.62878 8.66233 -1.53447 8.31069 -1.35542 8.0007C-1.17638 7.69071 -0.918923 7.4333 -0.608906 7.25431L11.4811 0.273308Z" fill="#828999"/>
<path d="M42.6714 24.2644C42.0004 24.2644 41.3114 24.2084 40.6084 24.0964C39.9343 24.0034 39.2684 23.859 38.6164 23.6644C38.0308 23.489 37.4672 23.2474 36.9364 22.9444C36.5844 22.7524 36.3364 22.5044 36.1924 22.2004C36.0484 21.8804 35.9924 21.5604 36.0244 21.2404C36.0724 20.9204 36.1924 20.6404 36.3844 20.4004C36.5757 20.1548 36.8478 19.9848 37.1524 19.9204C37.4724 19.8404 37.8244 19.8964 38.2084 20.0884C38.8644 20.4564 39.5764 20.7284 40.3444 20.9044C41.1284 21.0804 41.9044 21.1684 42.6724 21.1684C43.8404 21.1684 44.6724 20.9924 45.1684 20.6404C45.6644 20.2724 45.9124 19.8164 45.9124 19.2724C45.9124 18.8084 45.7364 18.4404 45.3844 18.1684C45.0324 17.8964 44.4164 17.6644 43.5364 17.4724L40.8244 16.8964C39.2884 16.5764 38.1444 16.0324 37.3924 15.2644C36.6564 14.4804 36.2884 13.4564 36.2884 12.1924C36.2884 11.3924 36.4564 10.6644 36.7924 10.0084C37.135 9.34433 37.6182 8.76286 38.2084 8.30441C38.8164 7.82441 39.5364 7.45641 40.3684 7.20041C41.2164 6.94441 42.1444 6.81641 43.1524 6.81641C44.0484 6.81641 44.9284 6.92841 45.7924 7.15241C46.6564 7.36041 47.4164 7.67241 48.0724 8.08841C48.3924 8.28041 48.6084 8.52841 48.7204 8.83241C48.8484 9.12041 48.8884 9.41641 48.8404 9.72041C48.8081 10.009 48.6816 10.279 48.4804 10.4884C48.2884 10.7124 48.0404 10.8564 47.7364 10.9204C47.4324 10.9844 47.0644 10.9124 46.6324 10.7044C46.1012 10.4313 45.5363 10.2295 44.9524 10.1044C44.3529 9.97562 43.7415 9.91126 43.1284 9.91241C42.4564 9.91241 41.8804 10.0004 41.4004 10.1764C40.9364 10.3524 40.5764 10.6004 40.3204 10.9204C40.0804 11.2404 39.9604 11.6084 39.9604 12.0244C39.9604 12.4884 40.1284 12.8644 40.4644 13.1524C40.8004 13.4404 41.3844 13.6724 42.2164 13.8484L44.9284 14.4244C46.4964 14.7604 47.6644 15.3044 48.4324 16.0564C49.2004 16.7924 49.5844 17.7684 49.5844 18.9844C49.5844 19.7844 49.4244 20.5124 49.1044 21.1684C48.7743 21.8204 48.2979 22.3872 47.7124 22.8244C47.1044 23.2884 46.3764 23.6484 45.5284 23.9044C44.6804 24.1444 43.7284 24.2644 42.6724 24.2644H42.6714ZM53.5114 28.5364C52.9194 28.5364 52.4634 28.3764 52.1434 28.0564C51.8394 27.7524 51.6874 27.2964 51.6874 26.6884V13.8484C51.6874 13.2564 51.8394 12.8084 52.1434 12.5044C52.4634 12.1844 52.9034 12.0244 53.4634 12.0244C54.0554 12.0244 54.5034 12.1844 54.8074 12.5044C55.1114 12.8084 55.2634 13.2564 55.2634 13.8484V15.4804L54.9994 14.5444C55.2394 13.7764 55.7194 13.1604 56.4394 12.6964C57.1754 12.2164 58.0154 11.9764 58.9594 11.9764C59.9834 11.9764 60.8794 12.2244 61.6474 12.7204C62.4314 13.2164 63.0394 13.9204 63.4714 14.8324C63.9034 15.7444 64.1193 16.8324 64.1193 18.0964C64.1193 19.3604 63.9034 20.4564 63.4714 21.3844C63.0394 22.3124 62.4394 23.0244 61.6714 23.5204C60.9034 24.0164 59.9994 24.2644 58.9594 24.2644C58.0314 24.2644 57.2074 24.0404 56.4874 23.5924C55.7674 23.1284 55.2794 22.5284 55.0234 21.7924H55.3113V26.6884C55.3113 27.2964 55.1514 27.7524 54.8314 28.0564C54.5274 28.3764 54.0874 28.5364 53.5114 28.5364ZM57.8794 21.5524C58.3913 21.5524 58.8394 21.4244 59.2234 21.1684C59.6234 20.9124 59.9274 20.5364 60.1354 20.0404C60.3594 19.5284 60.4714 18.8804 60.4714 18.0964C60.4714 16.9284 60.2314 16.0724 59.7514 15.5284C59.2714 14.9684 58.6474 14.6884 57.8794 14.6884C57.3674 14.6884 56.9114 14.8084 56.5114 15.0484C56.1274 15.2884 55.8234 15.6644 55.5994 16.1764C55.3754 16.6724 55.2634 17.3124 55.2634 18.0964C55.2634 19.2644 55.5034 20.1364 55.9834 20.7124C56.4634 21.2724 57.0954 21.5524 57.8794 21.5524ZM70.3194 24.2644C69.4554 24.2644 68.6794 24.0964 67.9914 23.7604C67.3034 23.4244 66.7674 22.9684 66.3834 22.3924C65.9996 21.8174 65.7988 21.1397 65.8074 20.4484C65.8074 19.5844 66.0313 18.9044 66.4793 18.4084C66.9273 17.8964 67.6554 17.5364 68.6634 17.3284C69.6714 17.1044 71.0074 16.9924 72.6714 16.9924H73.9434V18.8644H72.6954C71.8794 18.8644 71.2154 18.9124 70.7034 19.0084C70.2074 19.0884 69.8474 19.2324 69.6234 19.4404C69.4154 19.6484 69.3114 19.9364 69.3114 20.3044C69.3114 20.7524 69.4634 21.1204 69.7674 21.4084C70.0874 21.6964 70.5434 21.8404 71.1354 21.8404C71.5641 21.8496 71.9873 21.7417 72.3594 21.5284C72.7195 21.3124 73.0173 21.0064 73.2234 20.6404C73.4314 20.2564 73.5354 19.8244 73.5354 19.3444V16.5844C73.5354 15.8804 73.3754 15.3844 73.0554 15.0964C72.7354 14.7924 72.1914 14.6404 71.4234 14.6404C70.9914 14.6404 70.5194 14.6964 70.0074 14.8084C69.4411 14.9255 68.8868 15.0943 68.3514 15.3124C67.9994 15.4724 67.6874 15.5124 67.4154 15.4324C67.1587 15.3483 66.9385 15.1789 66.7914 14.9524C66.6498 14.7213 66.5751 14.4554 66.5753 14.1844C66.5753 13.8964 66.6554 13.6244 66.8154 13.3684C66.9754 13.0964 67.2394 12.8964 67.6074 12.7684C68.287 12.4856 68.9951 12.2764 69.7194 12.1444C70.3297 12.0379 70.9478 11.9817 71.5674 11.9764C72.7994 11.9764 73.8074 12.1604 74.5914 12.5284C75.3913 12.8804 75.9914 13.4324 76.3914 14.1844C76.7914 14.9204 76.9914 15.8724 76.9914 17.0404V22.3684C76.9914 22.9604 76.8474 23.4164 76.5594 23.7364C76.2714 24.0564 75.8554 24.2164 75.3114 24.2164C74.7674 24.2164 74.3434 24.0564 74.0394 23.7364C73.7514 23.4164 73.6074 22.9604 73.6074 22.3684V21.4804L73.7754 21.6244C73.6912 22.1418 73.4764 22.6292 73.1514 23.0404C72.8366 23.4328 72.4337 23.7452 71.9754 23.9524C71.4954 24.1604 70.9434 24.2644 70.3194 24.2644ZM81.5674 24.2164C80.9594 24.2164 80.4954 24.0564 80.1754 23.7364C79.8554 23.4164 79.6954 22.9604 79.6954 22.3684V13.8484C79.6954 13.2564 79.8474 12.8084 80.1514 12.5044C80.4714 12.1844 80.9114 12.0244 81.4714 12.0244C82.0474 12.0244 82.4874 12.1844 82.7914 12.5044C83.0954 12.8084 83.2474 13.2564 83.2474 13.8484V15.0964H83.0074C83.1994 14.1364 83.6234 13.3924 84.2794 12.8644C84.9354 12.3364 85.7834 12.0404 86.8234 11.9764C87.2234 11.9444 87.5274 12.0484 87.7354 12.2884C87.9594 12.5124 88.0794 12.8884 88.0954 13.4164C88.1274 13.9124 88.0234 14.3044 87.7834 14.5924C87.5594 14.8804 87.1754 15.0564 86.6314 15.1204L86.0794 15.1684C85.1674 15.2484 84.4874 15.5124 84.0394 15.9604C83.6074 16.4084 83.3914 17.0564 83.3914 17.9044V22.3684C83.3914 22.9604 83.2314 23.4164 82.9114 23.7364C82.6074 24.0564 82.1594 24.2164 81.5674 24.2164ZM91.4094 24.2164C90.8174 24.2164 90.3614 24.0564 90.0414 23.7364C89.7374 23.4164 89.5854 22.9604 89.5854 22.3684V8.71241C89.5854 8.10441 89.7374 7.64841 90.0414 7.34441C90.3614 7.02441 90.8174 6.86441 91.4094 6.86441C91.9854 6.86441 92.4254 7.02441 92.7294 7.34441C93.0494 7.64841 93.2094 8.10441 93.2094 8.71241V17.0884H93.2574L96.7374 13.2244C97.0894 12.8244 97.4094 12.5284 97.6974 12.3364C98.0014 12.1284 98.4014 12.0244 98.8974 12.0244C99.3934 12.0244 99.7694 12.1524 100.025 12.4084C100.297 12.6644 100.433 12.9764 100.433 13.3444C100.449 13.6964 100.297 14.0564 99.9774 14.4244L96.3054 18.5284V17.1604L100.385 21.8644C100.689 22.2324 100.817 22.6004 100.769 22.9684C100.756 23.1453 100.707 23.3175 100.624 23.4744C100.542 23.6313 100.428 23.7695 100.289 23.8804C100.001 24.1044 99.6334 24.2164 99.1854 24.2164C98.6414 24.2164 98.2014 24.1124 97.8654 23.9044C97.5454 23.6964 97.2174 23.3764 96.8814 22.9444L93.2574 18.9124H93.2094V22.3684C93.2094 23.6004 92.6094 24.2164 91.4094 24.2164ZM107.371 24.2164C106.891 24.2164 106.483 24.1044 106.147 23.8804C105.811 23.6404 105.539 23.2644 105.331 22.7524L101.947 14.3764C101.771 13.9284 101.715 13.5364 101.779 13.2004C101.843 12.8484 102.011 12.5684 102.283 12.3604C102.571 12.1364 102.963 12.0244 103.459 12.0244C103.875 12.0244 104.219 12.1284 104.491 12.3364C104.763 12.5284 104.995 12.9044 105.187 13.4644L107.827 20.4964H107.275L110.011 13.1524C110.139 12.7684 110.323 12.4884 110.563 12.3124C110.819 12.1204 111.147 12.0244 111.547 12.0244C111.947 12.0244 112.267 12.1204 112.507 12.3124C112.763 12.5044 112.963 12.7844 113.107 13.1524L115.795 20.4964H115.339L117.955 13.3684C118.147 12.8564 118.395 12.5044 118.699 12.3124C119.003 12.1204 119.331 12.0244 119.683 12.0244C120.131 12.0244 120.475 12.1364 120.715 12.3604C120.971 12.5844 121.115 12.8724 121.147 13.2244C121.195 13.5764 121.131 13.9604 120.955 14.3764L117.595 22.7524C117.403 23.2484 117.131 23.6164 116.779 23.8564C116.443 24.0964 116.035 24.2164 115.555 24.2164C115.12 24.2249 114.693 24.0992 114.331 23.8564C113.995 23.6164 113.723 23.2484 113.515 22.7524L110.635 15.2644H112.195L109.387 22.7284C109.195 23.2244 108.931 23.6004 108.595 23.8564C108.259 24.0964 107.851 24.2164 107.371 24.2164ZM129.034 24.2644C127.642 24.2644 126.442 24.0164 125.434 23.5204C124.442 23.0084 123.674 22.2964 123.13 21.3844C122.602 20.4564 122.338 19.3684 122.338 18.1204C122.338 16.9044 122.594 15.8404 123.106 14.9284C123.599 14.0202 124.34 13.271 125.242 12.7684C126.17 12.2404 127.218 11.9764 128.386 11.9764C129.234 11.9764 130.002 12.1204 130.69 12.4084C131.378 12.6804 131.97 13.0804 132.466 13.6084C132.962 14.1204 133.338 14.7524 133.594 15.5044C133.85 16.2404 133.978 17.0644 133.978 17.9764C133.978 18.2804 133.882 18.5124 133.69 18.6724C133.498 18.8164 133.218 18.8884 132.85 18.8884H125.314V17.0164H131.362L130.978 17.3524C130.978 16.6964 130.882 16.1524 130.69 15.7204C130.498 15.2724 130.218 14.9364 129.85 14.7124C129.498 14.4884 129.058 14.3764 128.53 14.3764C127.938 14.3764 127.434 14.5124 127.018 14.7844C126.602 15.0564 126.282 15.4484 126.058 15.9604C125.834 16.4724 125.722 17.0884 125.722 17.8084V18.0004C125.722 19.2164 126.002 20.1124 126.562 20.6884C127.138 21.2644 127.986 21.5524 129.106 21.5524C129.49 21.5524 129.93 21.5044 130.426 21.4084C130.922 21.3124 131.386 21.1604 131.818 20.9524C132.186 20.7764 132.514 20.7204 132.802 20.7844C133.09 20.8324 133.314 20.9604 133.474 21.1684C133.634 21.3764 133.722 21.6164 133.738 21.8884C133.77 22.1604 133.714 22.4324 133.57 22.7044C133.426 22.9604 133.186 23.1764 132.85 23.3524C132.272 23.669 131.649 23.8956 131.002 24.0244C130.33 24.1844 129.674 24.2644 129.034 24.2644ZM143.357 24.2644C142.413 24.2644 141.573 24.0324 140.837 23.5684C140.117 23.0884 139.637 22.4564 139.397 21.6724L139.661 20.8804V22.3684C139.661 22.9604 139.509 23.4164 139.205 23.7364C138.901 24.0564 138.461 24.2164 137.885 24.2164C137.309 24.2164 136.861 24.0564 136.541 23.7364C136.237 23.4164 136.085 22.9604 136.085 22.3684V8.71241C136.085 8.10441 136.237 7.64841 136.541 7.34441C136.861 7.02441 137.317 6.86441 137.909 6.86441C138.485 6.86441 138.925 7.02441 139.229 7.34441C139.549 7.64841 139.709 8.10441 139.709 8.71241V14.4004H139.421C139.677 13.6804 140.165 13.0964 140.885 12.6484C141.605 12.2004 142.429 11.9764 143.357 11.9764C144.397 11.9764 145.301 12.2244 146.069 12.7204C146.837 13.2164 147.437 13.9204 147.869 14.8324C148.301 15.7444 148.517 16.8324 148.517 18.0964C148.517 19.3604 148.301 20.4564 147.869 21.3844C147.437 22.3124 146.829 23.0244 146.045 23.5204C145.277 24.0164 144.381 24.2644 143.357 24.2644ZM142.277 21.5524C142.789 21.5524 143.237 21.4244 143.621 21.1684C144.021 20.9124 144.325 20.5364 144.533 20.0404C144.757 19.5284 144.869 18.8804 144.869 18.0964C144.869 16.9284 144.629 16.0724 144.149 15.5284C143.669 14.9684 143.045 14.6884 142.277 14.6884C141.765 14.6884 141.309 14.8084 140.909 15.0484C140.525 15.2884 140.221 15.6644 139.997 16.1764C139.773 16.6724 139.661 17.3124 139.661 18.0964C139.661 19.2644 139.901 20.1364 140.381 20.7124C140.861 21.2724 141.493 21.5524 142.277 21.5524Z" fill="#120A0B"/>
</g>
</g>
</g>
<g opacity="0.14">
<rect width="1" height="20" transform="translate(180 6)" fill="#120A0B"/>
</g>
</g>
<defs>
<clipPath id="clip0_1879_3809">
<rect width="181" height="32" fill="white"/>
</clipPath>
<clipPath id="clip1_1879_3809">
<rect width="148" height="32" fill="white"/>
</clipPath>
<clipPath id="clip2_1879_3809">
<rect width="148" height="32" fill="white"/>
</clipPath>
<clipPath id="clip3_1879_3809">
<rect width="176" height="32" fill="white" transform="translate(-14)"/>
</clipPath>
</defs>
</svg>
