<svg width="181" height="32" viewBox="0 0 181 32" fill="none" xmlns="http://www.w3.org/2000/svg">
<g clip-path="url(#clip0_1879_3825)">
<g clip-path="url(#clip1_1879_3825)">
<g clip-path="url(#clip2_1879_3825)">
<path fill-rule="evenodd" clip-rule="evenodd" d="M19 32C27.837 32 35 24.837 35 16C35 7.163 27.837 0 19 0C10.163 0 3 7.163 3 16C3 24.837 10.163 32 19 32ZM22.111 28.444C24.5864 28.444 26.9604 27.4607 28.7108 25.7103C30.4612 23.9599 31.4445 21.5859 31.4445 19.1105C31.4445 16.6351 30.4612 14.2611 28.7108 12.5107C26.9604 10.7603 24.5864 9.777 22.111 9.777C19.6356 9.777 17.2616 10.7603 15.5112 12.5107C13.7608 14.2611 12.7775 16.6351 12.7775 19.1105C12.7775 21.5859 13.7608 23.9599 15.5112 25.7103C17.2616 27.4607 19.6356 28.444 22.111 28.444Z" fill="#828999"/>
<path d="M50.8873 7.24759C52.6473 7.24759 54.1912 7.59159 55.5192 8.27959C56.8632 8.96759 57.8952 9.95159 58.6152 11.2316C59.3512 12.4956 59.7193 13.9676 59.7193 15.6476C59.7193 17.3276 59.3512 18.7996 58.6152 20.0636C57.8952 21.3116 56.8632 22.2796 55.5192 22.9676C54.1912 23.6556 52.6473 23.9996 50.8873 23.9996H45.0312V7.24759H50.8873ZM50.7673 21.1436C52.5273 21.1436 53.8873 20.6636 54.8473 19.7036C55.8073 18.7436 56.2873 17.3916 56.2873 15.6476C56.2873 13.9036 55.8073 12.5436 54.8473 11.5676C53.8873 10.5756 52.5273 10.0796 50.7673 10.0796H48.3913V21.1436H50.7673ZM63.9383 9.11959C63.3463 9.11959 62.8502 8.93559 62.4502 8.56759C62.2626 8.38341 62.1147 8.16275 62.0157 7.91922C61.9166 7.67569 61.8685 7.41444 61.8743 7.15159C61.8743 6.59159 62.0662 6.12759 62.4502 5.75959C62.8502 5.37559 63.3463 5.18359 63.9383 5.18359C64.5303 5.18359 65.0183 5.37559 65.4023 5.75959C65.8023 6.12759 66.0023 6.59159 66.0023 7.15159C66.0023 7.71159 65.8023 8.18359 65.4023 8.56759C65.0183 8.93559 64.5303 9.11959 63.9383 9.11959ZM65.5943 10.7036V23.9996H62.2343V10.7036H65.5943ZM74.1223 10.4876C75.1143 10.4876 75.9862 10.6876 76.7383 11.0876C77.4902 11.4716 78.0823 11.9756 78.5143 12.5996V10.7036H81.8983V24.0956C81.8983 25.3276 81.6502 26.4236 81.1543 27.3836C80.6583 28.3596 79.9142 29.1276 78.9222 29.6876C77.9302 30.2636 76.7303 30.5516 75.3223 30.5516C73.4342 30.5516 71.8823 30.1116 70.6663 29.2316C69.4663 28.3516 68.7863 27.1516 68.6263 25.6316H71.9622C72.1383 26.2396 72.5142 26.7196 73.0902 27.0716C73.6822 27.4396 74.3942 27.6236 75.2262 27.6236C76.2022 27.6236 76.9942 27.3276 77.6022 26.7356C78.2103 26.1596 78.5143 25.2796 78.5143 24.0956V22.0316C78.0823 22.6556 77.4823 23.1756 76.7142 23.5916C75.9622 24.0076 75.0983 24.2156 74.1223 24.2156C73.037 24.2254 71.9713 23.9257 71.0503 23.3516C70.1223 22.7756 69.3863 21.9676 68.8423 20.9276C68.3143 19.8716 68.0503 18.6636 68.0503 17.3036C68.0503 15.9596 68.3143 14.7676 68.8423 13.7276C69.3863 12.6876 70.1143 11.8876 71.0263 11.3276C71.9543 10.7676 72.9863 10.4876 74.1223 10.4876ZM78.5143 17.3516C78.5143 16.5356 78.3542 15.8396 78.0342 15.2636C77.7142 14.6716 77.2822 14.2236 76.7383 13.9196C76.2087 13.6035 75.603 13.4376 74.9863 13.4396C74.3623 13.4396 73.7863 13.5916 73.2583 13.8956C72.7303 14.1996 72.2983 14.6476 71.9622 15.2396C71.6423 15.8156 71.4823 16.5036 71.4823 17.3036C71.4823 18.1036 71.6423 18.8076 71.9622 19.4156C72.2983 20.0076 72.7303 20.4636 73.2583 20.7836C73.8023 21.1036 74.3783 21.2636 74.9863 21.2636C75.6103 21.2636 76.1943 21.1116 76.7383 20.8076C77.2822 20.4876 77.7142 20.0396 78.0342 19.4636C78.3542 18.8716 78.5143 18.1676 78.5143 17.3516ZM86.8833 9.11959C86.2913 9.11959 85.7952 8.93559 85.3952 8.56759C85.2076 8.38341 85.0597 8.16275 84.9607 7.91922C84.8616 7.67569 84.8135 7.41444 84.8193 7.15159C84.8193 6.59159 85.0112 6.12759 85.3952 5.75959C85.7952 5.37559 86.2913 5.18359 86.8833 5.18359C87.4753 5.18359 87.9633 5.37559 88.3473 5.75959C88.7473 6.12759 88.9473 6.59159 88.9473 7.15159C88.9473 7.71159 88.7473 8.18359 88.3473 8.56759C87.9633 8.93559 87.4753 9.11959 86.8833 9.11959ZM88.5393 10.7036V23.9996H85.1793V10.7036H88.5393ZM95.7713 13.4636V19.8956C95.7713 20.3436 95.8753 20.6716 96.0833 20.8796C96.3073 21.0716 96.6752 21.1676 97.1872 21.1676H98.7473V23.9996H96.6353C93.8033 23.9996 92.3873 22.6236 92.3873 19.8716V13.4636H90.8033V10.7036H92.3873V7.41559H95.7713V10.7036H98.7473V13.4636H95.7713ZM113.524 17.0636C113.524 17.5436 113.492 17.9756 113.428 18.3596H103.708C103.788 19.3196 104.124 20.0716 104.716 20.6156C105.308 21.1596 106.036 21.4316 106.9 21.4316C108.148 21.4316 109.036 20.8956 109.564 19.8236H113.188C112.804 21.1036 112.068 22.1596 110.98 22.9916C109.892 23.8076 108.556 24.2156 106.972 24.2156C105.692 24.2156 104.54 23.9356 103.516 23.3756C102.514 22.8051 101.691 21.9655 101.14 20.9516C100.58 19.9116 100.3 18.7116 100.3 17.3516C100.3 15.9756 100.58 14.7676 101.14 13.7276C101.673 12.7152 102.491 11.8809 103.492 11.3276C104.5 10.7676 105.66 10.4876 106.972 10.4876C108.236 10.4876 109.364 10.7596 110.356 11.3036C111.347 11.8303 112.158 12.641 112.684 13.6316C113.244 14.6236 113.524 15.7676 113.524 17.0636ZM110.044 16.1036C110.028 15.2396 109.716 14.5516 109.108 14.0396C108.5 13.5116 107.756 13.2476 106.876 13.2476C106.044 13.2476 105.34 13.5036 104.764 14.0156C104.204 14.5116 103.86 15.2076 103.732 16.1036H110.044ZM115.112 17.3516C115.112 15.9756 115.392 14.7756 115.952 13.7516C116.512 12.7116 117.288 11.9116 118.28 11.3516C119.272 10.7756 120.408 10.4876 121.688 10.4876C123.336 10.4876 124.696 10.9036 125.768 11.7356C126.856 12.5516 127.584 13.7036 127.952 15.1916H124.328C124.136 14.6156 123.808 14.1676 123.344 13.8476C122.896 13.5116 122.336 13.3436 121.664 13.3436C120.704 13.3436 119.944 13.6956 119.384 14.3996C118.824 15.0876 118.544 16.0716 118.544 17.3516C118.544 18.6156 118.824 19.5996 119.384 20.3036C119.944 20.9916 120.704 21.3356 121.664 21.3356C123.024 21.3356 123.912 20.7276 124.328 19.5116H127.952C127.584 20.9516 126.856 22.0956 125.768 22.9436C124.68 23.7916 123.32 24.2156 121.688 24.2156C120.408 24.2156 119.272 23.9356 118.28 23.3756C117.296 22.8077 116.49 21.9766 115.952 20.9756C115.392 19.9356 115.112 18.7276 115.112 17.3516ZM137.902 10.5116C138.91 10.5116 139.806 10.7356 140.59 11.1836C141.374 11.6156 141.982 12.2636 142.414 13.1276C142.862 13.9756 143.086 14.9996 143.086 16.1996V23.9996H139.726V16.6556C139.726 15.5996 139.462 14.7916 138.934 14.2316C138.406 13.6556 137.686 13.3676 136.774 13.3676C135.846 13.3676 135.11 13.6556 134.566 14.2316C134.038 14.7916 133.774 15.5996 133.774 16.6556V23.9996H130.414V6.23959H133.774V12.3596C134.206 11.7836 134.782 11.3356 135.502 11.0156C136.222 10.6796 137.022 10.5116 137.902 10.5116Z" fill="#120A0B"/>
</g>
</g>
<g opacity="0.14">
<rect width="1" height="20" transform="translate(180 6)" fill="#120A0B"/>
</g>
</g>
<defs>
<clipPath id="clip0_1879_3825">
<rect width="181" height="32" fill="white"/>
</clipPath>
<clipPath id="clip1_1879_3825">
<rect width="148" height="32" fill="white"/>
</clipPath>
<clipPath id="clip2_1879_3825">
<rect width="148" height="32" fill="white"/>
</clipPath>
</defs>
</svg>
